%TF.GenerationSoftware,KiCad,Pcbnew,8.0.2*%
%TF.CreationDate,2025-04-21T15:08:20+02:00*%
%TF.ProjectId,logic,6c6f6769-632e-46b6-9963-61645f706362,rev?*%
%TF.SameCoordinates,Original*%
%TF.FileFunction,Paste,Top*%
%TF.FilePolarity,Positive*%
%FSLAX46Y46*%
G04 Gerber Fmt 4.6, Leading zero omitted, Abs format (unit mm)*
G04 Created by KiCad (PCBNEW 8.0.2) date 2025-04-21 15:08:20*
%MOMM*%
%LPD*%
G01*
G04 APERTURE LIST*
G04 Aperture macros list*
%AMRoundRect*
0 Rectangle with rounded corners*
0 $1 Rounding radius*
0 $2 $3 $4 $5 $6 $7 $8 $9 X,Y pos of 4 corners*
0 Add a 4 corners polygon primitive as box body*
4,1,4,$2,$3,$4,$5,$6,$7,$8,$9,$2,$3,0*
0 Add four circle primitives for the rounded corners*
1,1,$1+$1,$2,$3*
1,1,$1+$1,$4,$5*
1,1,$1+$1,$6,$7*
1,1,$1+$1,$8,$9*
0 Add four rect primitives between the rounded corners*
20,1,$1+$1,$2,$3,$4,$5,0*
20,1,$1+$1,$4,$5,$6,$7,0*
20,1,$1+$1,$6,$7,$8,$9,0*
20,1,$1+$1,$8,$9,$2,$3,0*%
G04 Aperture macros list end*
%ADD10RoundRect,0.237500X0.237500X-0.300000X0.237500X0.300000X-0.237500X0.300000X-0.237500X-0.300000X0*%
%ADD11RoundRect,0.225000X-0.250000X0.225000X-0.250000X-0.225000X0.250000X-0.225000X0.250000X0.225000X0*%
%ADD12RoundRect,0.200000X-0.200000X-0.275000X0.200000X-0.275000X0.200000X0.275000X-0.200000X0.275000X0*%
%ADD13RoundRect,0.200000X-0.275000X0.200000X-0.275000X-0.200000X0.275000X-0.200000X0.275000X0.200000X0*%
%ADD14RoundRect,0.225000X0.250000X-0.225000X0.250000X0.225000X-0.250000X0.225000X-0.250000X-0.225000X0*%
%ADD15RoundRect,0.150000X-0.512500X-0.150000X0.512500X-0.150000X0.512500X0.150000X-0.512500X0.150000X0*%
%ADD16RoundRect,0.140000X0.170000X-0.140000X0.170000X0.140000X-0.170000X0.140000X-0.170000X-0.140000X0*%
%ADD17RoundRect,0.225000X0.225000X0.250000X-0.225000X0.250000X-0.225000X-0.250000X0.225000X-0.250000X0*%
%ADD18RoundRect,0.140000X0.140000X0.170000X-0.140000X0.170000X-0.140000X-0.170000X0.140000X-0.170000X0*%
%ADD19RoundRect,0.150000X0.825000X0.150000X-0.825000X0.150000X-0.825000X-0.150000X0.825000X-0.150000X0*%
%ADD20RoundRect,0.125000X0.125000X-0.537500X0.125000X0.537500X-0.125000X0.537500X-0.125000X-0.537500X0*%
%ADD21RoundRect,0.200000X0.275000X-0.200000X0.275000X0.200000X-0.275000X0.200000X-0.275000X-0.200000X0*%
%ADD22RoundRect,0.125000X-0.125000X0.537500X-0.125000X-0.537500X0.125000X-0.537500X0.125000X0.537500X0*%
%ADD23RoundRect,0.218750X-0.218750X-0.256250X0.218750X-0.256250X0.218750X0.256250X-0.218750X0.256250X0*%
%ADD24RoundRect,0.200000X0.200000X0.275000X-0.200000X0.275000X-0.200000X-0.275000X0.200000X-0.275000X0*%
%ADD25RoundRect,0.250000X-0.475000X0.250000X-0.475000X-0.250000X0.475000X-0.250000X0.475000X0.250000X0*%
%ADD26RoundRect,0.230000X-0.375000X0.230000X-0.375000X-0.230000X0.375000X-0.230000X0.375000X0.230000X0*%
%ADD27RoundRect,0.150000X-0.150000X0.825000X-0.150000X-0.825000X0.150000X-0.825000X0.150000X0.825000X0*%
%ADD28RoundRect,0.140000X-0.140000X-0.170000X0.140000X-0.170000X0.140000X0.170000X-0.140000X0.170000X0*%
%ADD29RoundRect,0.250000X0.450000X-0.262500X0.450000X0.262500X-0.450000X0.262500X-0.450000X-0.262500X0*%
%ADD30RoundRect,0.150000X-0.700000X0.150000X-0.700000X-0.150000X0.700000X-0.150000X0.700000X0.150000X0*%
%ADD31RoundRect,0.250000X-1.150000X0.250000X-1.150000X-0.250000X1.150000X-0.250000X1.150000X0.250000X0*%
%ADD32R,1.000000X0.800000*%
%ADD33R,0.700000X1.500000*%
%ADD34RoundRect,0.225000X-0.225000X-0.250000X0.225000X-0.250000X0.225000X0.250000X-0.225000X0.250000X0*%
%ADD35R,2.900000X5.400000*%
%ADD36RoundRect,0.100000X-0.100000X0.225000X-0.100000X-0.225000X0.100000X-0.225000X0.100000X0.225000X0*%
%ADD37RoundRect,0.250000X0.250000X0.475000X-0.250000X0.475000X-0.250000X-0.475000X0.250000X-0.475000X0*%
%ADD38RoundRect,0.250000X0.312500X0.625000X-0.312500X0.625000X-0.312500X-0.625000X0.312500X-0.625000X0*%
%ADD39RoundRect,0.237500X-0.250000X-0.237500X0.250000X-0.237500X0.250000X0.237500X-0.250000X0.237500X0*%
%ADD40RoundRect,0.150000X0.700000X-0.150000X0.700000X0.150000X-0.700000X0.150000X-0.700000X-0.150000X0*%
%ADD41RoundRect,0.250000X1.150000X-0.250000X1.150000X0.250000X-1.150000X0.250000X-1.150000X-0.250000X0*%
%ADD42R,0.675000X0.250000*%
%ADD43R,0.250000X0.675000*%
%ADD44RoundRect,0.250000X-0.250000X-0.475000X0.250000X-0.475000X0.250000X0.475000X-0.250000X0.475000X0*%
%ADD45R,0.750000X0.650000*%
%ADD46RoundRect,0.062500X-0.187500X-0.062500X0.187500X-0.062500X0.187500X0.062500X-0.187500X0.062500X0*%
%ADD47RoundRect,0.140000X-0.170000X0.140000X-0.170000X-0.140000X0.170000X-0.140000X0.170000X0.140000X0*%
%ADD48RoundRect,0.250000X0.475000X-0.250000X0.475000X0.250000X-0.475000X0.250000X-0.475000X-0.250000X0*%
%ADD49RoundRect,0.100000X-0.225000X-0.100000X0.225000X-0.100000X0.225000X0.100000X-0.225000X0.100000X0*%
%ADD50RoundRect,0.250000X-0.650000X0.325000X-0.650000X-0.325000X0.650000X-0.325000X0.650000X0.325000X0*%
%ADD51RoundRect,0.075000X0.075000X0.425000X-0.075000X0.425000X-0.075000X-0.425000X0.075000X-0.425000X0*%
%ADD52C,1.100000*%
%ADD53R,1.750000X4.500000*%
%ADD54RoundRect,0.242500X-0.242500X-0.382500X0.242500X-0.382500X0.242500X0.382500X-0.242500X0.382500X0*%
%ADD55RoundRect,0.150000X-0.650000X-0.150000X0.650000X-0.150000X0.650000X0.150000X-0.650000X0.150000X0*%
%ADD56RoundRect,0.250000X2.500000X-0.250000X2.500000X0.250000X-2.500000X0.250000X-2.500000X-0.250000X0*%
%ADD57RoundRect,0.250000X1.250000X-0.550000X1.250000X0.550000X-1.250000X0.550000X-1.250000X-0.550000X0*%
%ADD58RoundRect,0.075000X0.075000X-0.700000X0.075000X0.700000X-0.075000X0.700000X-0.075000X-0.700000X0*%
%ADD59RoundRect,0.075000X0.700000X-0.075000X0.700000X0.075000X-0.700000X0.075000X-0.700000X-0.075000X0*%
%ADD60R,1.200000X1.400000*%
%ADD61RoundRect,0.150000X0.150000X-0.512500X0.150000X0.512500X-0.150000X0.512500X-0.150000X-0.512500X0*%
G04 APERTURE END LIST*
D10*
%TO.C,C53*%
X116941600Y-102792700D03*
X116941600Y-101067700D03*
%TD*%
D11*
%TO.C,C17*%
X147006500Y-151675800D03*
X147006500Y-153225800D03*
%TD*%
D12*
%TO.C,R61*%
X154724600Y-99110800D03*
X156374600Y-99110800D03*
%TD*%
D13*
%TO.C,R1*%
X131927600Y-154800800D03*
X131927600Y-156450800D03*
%TD*%
D11*
%TO.C,C104*%
X138430000Y-139534600D03*
X138430000Y-141084600D03*
%TD*%
D12*
%TO.C,R62*%
X167119800Y-99796600D03*
X168769800Y-99796600D03*
%TD*%
D11*
%TO.C,C71*%
X164820600Y-100444000D03*
X164820600Y-101994000D03*
%TD*%
D14*
%TO.C,C9*%
X125501400Y-128854200D03*
X125501400Y-127304200D03*
%TD*%
D15*
%TO.C,U19*%
X162102800Y-122976600D03*
X162102800Y-123926600D03*
X162102800Y-124876600D03*
X164377800Y-124876600D03*
X164377800Y-123926600D03*
X164377800Y-122976600D03*
%TD*%
D16*
%TO.C,C52*%
X144348200Y-118778000D03*
X144348200Y-117818000D03*
%TD*%
D17*
%TO.C,C50*%
X141451200Y-141455000D03*
X139901200Y-141455000D03*
%TD*%
D18*
%TO.C,C10*%
X143761400Y-143687800D03*
X142801400Y-143687800D03*
%TD*%
D11*
%TO.C,C15n2*%
X149428200Y-151675800D03*
X149428200Y-153225800D03*
%TD*%
D19*
%TO.C,U9*%
X135494800Y-140168400D03*
X135494800Y-138898400D03*
X135494800Y-137628400D03*
X135494800Y-136358400D03*
X130544800Y-136358400D03*
X130544800Y-137628400D03*
X130544800Y-138898400D03*
X130544800Y-140168400D03*
%TD*%
D20*
%TO.C,U5*%
X161609200Y-153232700D03*
X162259200Y-153232700D03*
X162909200Y-153232700D03*
X163559200Y-153232700D03*
X163559200Y-150957700D03*
X162909200Y-150957700D03*
X162259200Y-150957700D03*
X161609200Y-150957700D03*
%TD*%
D21*
%TO.C,R2*%
X119938800Y-156527000D03*
X119938800Y-154877000D03*
%TD*%
D17*
%TO.C,C95*%
X158407400Y-144957800D03*
X156857400Y-144957800D03*
%TD*%
D22*
%TO.C,U4*%
X137550800Y-143540900D03*
X136900800Y-143540900D03*
X136250800Y-143540900D03*
X135600800Y-143540900D03*
X135600800Y-145815900D03*
X136250800Y-145815900D03*
X136900800Y-145815900D03*
X137550800Y-145815900D03*
%TD*%
D12*
%TO.C,R59*%
X125641600Y-107327400D03*
X127291600Y-107327400D03*
%TD*%
D23*
%TO.C,D2*%
X130047900Y-131191000D03*
X131622900Y-131191000D03*
%TD*%
D24*
%TO.C,R57*%
X133641600Y-107341600D03*
X131991600Y-107341600D03*
%TD*%
D16*
%TO.C,C6*%
X157429200Y-131795400D03*
X157429200Y-130835400D03*
%TD*%
D17*
%TO.C,C103*%
X160617200Y-137922000D03*
X159067200Y-137922000D03*
%TD*%
D25*
%TO.C,C58*%
X141568400Y-113781800D03*
X141568400Y-115681800D03*
%TD*%
D26*
%TO.C,U15*%
X157823600Y-119775200D03*
X156323600Y-119775200D03*
X157823600Y-120915200D03*
X156323600Y-120915200D03*
D27*
X158978600Y-117870200D03*
X157708600Y-117870200D03*
X156438600Y-117870200D03*
X155168600Y-117870200D03*
X155168600Y-122820200D03*
X156438600Y-122820200D03*
X157708600Y-122820200D03*
X158978600Y-122820200D03*
%TD*%
D28*
%TO.C,C22*%
X136092000Y-147345400D03*
X137052000Y-147345400D03*
%TD*%
D13*
%TO.C,R40*%
X154279600Y-146444200D03*
X154279600Y-148094200D03*
%TD*%
D24*
%TO.C,R41*%
X141490200Y-142951200D03*
X139840200Y-142951200D03*
%TD*%
%TO.C,R60*%
X130669800Y-107341600D03*
X129019800Y-107341600D03*
%TD*%
D29*
%TO.C,R58*%
X135026400Y-103859900D03*
X135026400Y-102034900D03*
%TD*%
D30*
%TO.C,J14*%
X170211200Y-143469200D03*
X170211200Y-144719200D03*
D31*
X173561200Y-141619200D03*
X173561200Y-146569200D03*
%TD*%
D32*
%TO.C,J3*%
X163253400Y-106085400D03*
X163253400Y-108295400D03*
X170553400Y-106085400D03*
X170553400Y-108295400D03*
D33*
X164653400Y-105435400D03*
X167653400Y-105435400D03*
X169153400Y-105435400D03*
%TD*%
D18*
%TO.C,C23*%
X163878200Y-149479000D03*
X162918200Y-149479000D03*
%TD*%
D24*
%TO.C,R11*%
X163613600Y-154914600D03*
X161963600Y-154914600D03*
%TD*%
D34*
%TO.C,C12*%
X151269400Y-145643600D03*
X152819400Y-145643600D03*
%TD*%
D35*
%TO.C,L1*%
X138204400Y-105435400D03*
X148104400Y-105435400D03*
%TD*%
D11*
%TO.C,C60*%
X133324600Y-101980400D03*
X133324600Y-103530400D03*
%TD*%
D25*
%TO.C,C89*%
X157747400Y-113807200D03*
X157747400Y-115707200D03*
%TD*%
D36*
%TO.C,U12*%
X150878900Y-154980600D03*
X150228900Y-154980600D03*
X149578900Y-154980600D03*
X149578900Y-156880600D03*
X150878900Y-156880600D03*
%TD*%
D13*
%TO.C,R9*%
X128879600Y-126391400D03*
X128879600Y-128041400D03*
%TD*%
D12*
%TO.C,R17*%
X135954000Y-134035800D03*
X137604000Y-134035800D03*
%TD*%
D37*
%TO.C,C66*%
X152816600Y-105435400D03*
X150916600Y-105435400D03*
%TD*%
D12*
%TO.C,R16*%
X135954000Y-132562600D03*
X137604000Y-132562600D03*
%TD*%
D28*
%TO.C,C11*%
X142764200Y-148877200D03*
X143724200Y-148877200D03*
%TD*%
D38*
%TO.C,R55*%
X128437100Y-141528800D03*
X125512100Y-141528800D03*
%TD*%
D39*
%TO.C,R39*%
X158015300Y-125298200D03*
X159840300Y-125298200D03*
%TD*%
D13*
%TO.C,R10*%
X135279200Y-149492200D03*
X135279200Y-151142200D03*
%TD*%
D40*
%TO.C,J16*%
X122549200Y-132598800D03*
X122549200Y-131348800D03*
X122549200Y-130098800D03*
X122549200Y-128848800D03*
X122549200Y-127598800D03*
D41*
X119199200Y-134448800D03*
X119199200Y-125748800D03*
%TD*%
D42*
%TO.C,U20*%
X136187300Y-130645600D03*
X136187300Y-130145600D03*
X136187300Y-129645600D03*
X136187300Y-129145600D03*
D43*
X135424800Y-128883100D03*
X134924800Y-128883100D03*
X134424800Y-128883100D03*
D42*
X133662300Y-129145600D03*
X133662300Y-129645600D03*
X133662300Y-130145600D03*
X133662300Y-130645600D03*
D43*
X134424800Y-130908100D03*
X134924800Y-130908100D03*
X135424800Y-130908100D03*
%TD*%
D12*
%TO.C,R46*%
X148857200Y-117729000D03*
X150507200Y-117729000D03*
%TD*%
D37*
%TO.C,C91*%
X140954800Y-137515600D03*
X139054800Y-137515600D03*
%TD*%
D18*
%TO.C,C100*%
X129258000Y-150545800D03*
X128298000Y-150545800D03*
%TD*%
D44*
%TO.C,C73*%
X172166200Y-107111800D03*
X174066200Y-107111800D03*
%TD*%
D45*
%TO.C,U8*%
X167198000Y-101796200D03*
X167198000Y-102596200D03*
D46*
X166248000Y-101446200D03*
X166248000Y-101946200D03*
X166248000Y-102446200D03*
X166248000Y-102946200D03*
X168148000Y-102946200D03*
X168148000Y-102446200D03*
X168148000Y-101946200D03*
X168148000Y-101446200D03*
%TD*%
D11*
%TO.C,C101*%
X143586200Y-127495000D03*
X143586200Y-129045000D03*
%TD*%
%TO.C,C4*%
X167919400Y-139737800D03*
X167919400Y-141287800D03*
%TD*%
%TO.C,C15n1*%
X145542000Y-151675800D03*
X145542000Y-153225800D03*
%TD*%
D16*
%TO.C,C90*%
X160680400Y-118818600D03*
X160680400Y-117858600D03*
%TD*%
D47*
%TO.C,C7*%
X157429200Y-138762800D03*
X157429200Y-139722800D03*
%TD*%
D14*
%TO.C,C99*%
X165074600Y-141237000D03*
X165074600Y-139687000D03*
%TD*%
D48*
%TO.C,C56*%
X129921000Y-119720400D03*
X129921000Y-117820400D03*
%TD*%
D13*
%TO.C,R8*%
X130378200Y-126391400D03*
X130378200Y-128041400D03*
%TD*%
D11*
%TO.C,C18*%
X150890700Y-151675800D03*
X150890700Y-153225800D03*
%TD*%
D49*
%TO.C,U18*%
X161610000Y-145615300D03*
X161610000Y-146265300D03*
X161610000Y-146915300D03*
X163510000Y-146915300D03*
X163510000Y-145615300D03*
%TD*%
D50*
%TO.C,C62*%
X121186200Y-100226600D03*
X121186200Y-103176600D03*
%TD*%
D18*
%TO.C,C5*%
X145790800Y-128727200D03*
X144830800Y-128727200D03*
%TD*%
D14*
%TO.C,C98*%
X165074600Y-147180600D03*
X165074600Y-145630600D03*
%TD*%
D51*
%TO.C,J2*%
X128707000Y-155215400D03*
X127917000Y-155215400D03*
X127127000Y-155215400D03*
X126337000Y-155215400D03*
X125547000Y-155215400D03*
X124757000Y-155215400D03*
X123967000Y-155215400D03*
X123177000Y-155215400D03*
X123177000Y-153695400D03*
X123967000Y-153695400D03*
X124757000Y-153695400D03*
X125547000Y-153695400D03*
X126337000Y-153695400D03*
X127127000Y-153695400D03*
X127917000Y-153695400D03*
X128707000Y-153695400D03*
D52*
X128327000Y-156605400D03*
X128327000Y-152305400D03*
X123527000Y-156605400D03*
X123527000Y-152305400D03*
%TD*%
D49*
%TO.C,U17*%
X161610000Y-142809200D03*
X161610000Y-143459200D03*
X161610000Y-144109200D03*
X163510000Y-144109200D03*
X163510000Y-142809200D03*
%TD*%
D11*
%TO.C,C15n3*%
X141630400Y-151675800D03*
X141630400Y-153225800D03*
%TD*%
D53*
%TO.C,L2*%
X158293400Y-101041200D03*
X161543400Y-101041200D03*
%TD*%
D16*
%TO.C,C57*%
X128244600Y-118767800D03*
X128244600Y-117807800D03*
%TD*%
D12*
%TO.C,R56*%
X126467600Y-143408400D03*
X128117600Y-143408400D03*
%TD*%
D17*
%TO.C,C51*%
X159880600Y-128270000D03*
X158330600Y-128270000D03*
%TD*%
D38*
%TO.C,R43*%
X150331900Y-115849400D03*
X147406900Y-115849400D03*
%TD*%
D23*
%TO.C,D1*%
X130047900Y-129717800D03*
X131622900Y-129717800D03*
%TD*%
D54*
%TO.C,U6*%
X128076400Y-103112200D03*
X128076400Y-104662200D03*
X129276400Y-103112200D03*
X129276400Y-104662200D03*
D55*
X126026400Y-101982200D03*
X126026400Y-103252200D03*
X126026400Y-104522200D03*
X126026400Y-105792200D03*
X131326400Y-105792200D03*
X131326400Y-104522200D03*
X131326400Y-103252200D03*
X131326400Y-101982200D03*
%TD*%
D28*
%TO.C,C21*%
X136092000Y-148285200D03*
X137052000Y-148285200D03*
%TD*%
D16*
%TO.C,C8*%
X139674600Y-140230800D03*
X139674600Y-139270800D03*
%TD*%
D12*
%TO.C,R47*%
X164706800Y-117627400D03*
X166356800Y-117627400D03*
%TD*%
D56*
%TO.C,J24*%
X121183400Y-109975400D03*
X121183400Y-107975400D03*
D57*
X118933400Y-112375400D03*
X118933400Y-105575400D03*
%TD*%
D11*
%TO.C,C102*%
X156133800Y-129501600D03*
X156133800Y-131051600D03*
%TD*%
D28*
%TO.C,C19*%
X122125800Y-147650200D03*
X123085800Y-147650200D03*
%TD*%
D53*
%TO.C,L3*%
X170815600Y-101041200D03*
X174065600Y-101041200D03*
%TD*%
D49*
%TO.C,U16*%
X161610000Y-139989800D03*
X161610000Y-140639800D03*
X161610000Y-141289800D03*
X163510000Y-141289800D03*
X163510000Y-139989800D03*
%TD*%
D40*
%TO.C,J1*%
X122574600Y-139588400D03*
X122574600Y-138338400D03*
D41*
X119224600Y-141438400D03*
X119224600Y-136488400D03*
%TD*%
D34*
%TO.C,C68*%
X151599600Y-100507800D03*
X153149600Y-100507800D03*
%TD*%
%TO.C,C14*%
X145046400Y-127533400D03*
X146596400Y-127533400D03*
%TD*%
D50*
%TO.C,C61*%
X123494800Y-100226600D03*
X123494800Y-103176600D03*
%TD*%
D12*
%TO.C,R48*%
X132499600Y-117525800D03*
X134149600Y-117525800D03*
%TD*%
D47*
%TO.C,C1*%
X163880800Y-137188000D03*
X163880800Y-138148000D03*
%TD*%
D24*
%TO.C,R42*%
X159918400Y-126771400D03*
X158268400Y-126771400D03*
%TD*%
D16*
%TO.C,C74*%
X137591800Y-138071800D03*
X137591800Y-137111800D03*
%TD*%
D14*
%TO.C,C97*%
X165074600Y-144208800D03*
X165074600Y-142658800D03*
%TD*%
D34*
%TO.C,C13*%
X151269400Y-147142200D03*
X152819400Y-147142200D03*
%TD*%
D21*
%TO.C,R63*%
X128498600Y-139102600D03*
X128498600Y-137452600D03*
%TD*%
D48*
%TO.C,C55*%
X146024600Y-119730600D03*
X146024600Y-117830600D03*
%TD*%
D37*
%TO.C,C88*%
X152816600Y-103454200D03*
X150916600Y-103454200D03*
%TD*%
D26*
%TO.C,U13*%
X125591000Y-119699000D03*
X124091000Y-119699000D03*
X125591000Y-120839000D03*
X124091000Y-120839000D03*
D27*
X126746000Y-117794000D03*
X125476000Y-117794000D03*
X124206000Y-117794000D03*
X122936000Y-117794000D03*
X122936000Y-122744000D03*
X124206000Y-122744000D03*
X125476000Y-122744000D03*
X126746000Y-122744000D03*
%TD*%
D22*
%TO.C,U3*%
X123682400Y-143642500D03*
X123032400Y-143642500D03*
X122382400Y-143642500D03*
X121732400Y-143642500D03*
X121732400Y-145917500D03*
X122382400Y-145917500D03*
X123032400Y-145917500D03*
X123682400Y-145917500D03*
%TD*%
D18*
%TO.C,C64*%
X135785800Y-107048000D03*
X134825800Y-107048000D03*
%TD*%
D58*
%TO.C,U2*%
X146338600Y-141692000D03*
X146838600Y-141692000D03*
X147338600Y-141692000D03*
X147838600Y-141692000D03*
X148338600Y-141692000D03*
X148838600Y-141692000D03*
X149338600Y-141692000D03*
X149838600Y-141692000D03*
X150338600Y-141692000D03*
X150838600Y-141692000D03*
X151338600Y-141692000D03*
X151838600Y-141692000D03*
X152338600Y-141692000D03*
X152838600Y-141692000D03*
X153338600Y-141692000D03*
X153838600Y-141692000D03*
D59*
X155763600Y-139767000D03*
X155763600Y-139267000D03*
X155763600Y-138767000D03*
X155763600Y-138267000D03*
X155763600Y-137767000D03*
X155763600Y-137267000D03*
X155763600Y-136767000D03*
X155763600Y-136267000D03*
X155763600Y-135767000D03*
X155763600Y-135267000D03*
X155763600Y-134767000D03*
X155763600Y-134267000D03*
X155763600Y-133767000D03*
X155763600Y-133267000D03*
X155763600Y-132767000D03*
X155763600Y-132267000D03*
D58*
X153838600Y-130342000D03*
X153338600Y-130342000D03*
X152838600Y-130342000D03*
X152338600Y-130342000D03*
X151838600Y-130342000D03*
X151338600Y-130342000D03*
X150838600Y-130342000D03*
X150338600Y-130342000D03*
X149838600Y-130342000D03*
X149338600Y-130342000D03*
X148838600Y-130342000D03*
X148338600Y-130342000D03*
X147838600Y-130342000D03*
X147338600Y-130342000D03*
X146838600Y-130342000D03*
X146338600Y-130342000D03*
D59*
X144413600Y-132267000D03*
X144413600Y-132767000D03*
X144413600Y-133267000D03*
X144413600Y-133767000D03*
X144413600Y-134267000D03*
X144413600Y-134767000D03*
X144413600Y-135267000D03*
X144413600Y-135767000D03*
X144413600Y-136267000D03*
X144413600Y-136767000D03*
X144413600Y-137267000D03*
X144413600Y-137767000D03*
X144413600Y-138267000D03*
X144413600Y-138767000D03*
X144413600Y-139267000D03*
X144413600Y-139767000D03*
%TD*%
D11*
%TO.C,C3*%
X167919400Y-142722600D03*
X167919400Y-144272600D03*
%TD*%
%TO.C,C15*%
X158750000Y-130847800D03*
X158750000Y-132397800D03*
%TD*%
D26*
%TO.C,U14*%
X141632600Y-119749800D03*
X140132600Y-119749800D03*
X141632600Y-120889800D03*
X140132600Y-120889800D03*
D27*
X142787600Y-117844800D03*
X141517600Y-117844800D03*
X140247600Y-117844800D03*
X138977600Y-117844800D03*
X138977600Y-122794800D03*
X140247600Y-122794800D03*
X141517600Y-122794800D03*
X142787600Y-122794800D03*
%TD*%
D38*
%TO.C,R44*%
X166181500Y-115722400D03*
X163256500Y-115722400D03*
%TD*%
D12*
%TO.C,R64*%
X132220200Y-141884400D03*
X133870200Y-141884400D03*
%TD*%
D36*
%TO.C,U11*%
X146991400Y-154980600D03*
X146341400Y-154980600D03*
X145691400Y-154980600D03*
X145691400Y-156880600D03*
X146991400Y-156880600D03*
%TD*%
D17*
%TO.C,C94*%
X158407400Y-143484600D03*
X156857400Y-143484600D03*
%TD*%
D60*
%TO.C,Y1*%
X142406000Y-145153200D03*
X142406000Y-147353200D03*
X144106000Y-147353200D03*
X144106000Y-145153200D03*
%TD*%
D38*
%TO.C,R45*%
X133974300Y-115620800D03*
X131049300Y-115620800D03*
%TD*%
D16*
%TO.C,C93*%
X137261600Y-130810000D03*
X137261600Y-129850000D03*
%TD*%
D37*
%TO.C,C87*%
X135544600Y-126365000D03*
X133644600Y-126365000D03*
%TD*%
D34*
%TO.C,C67*%
X133260800Y-105803400D03*
X134810800Y-105803400D03*
%TD*%
D23*
%TO.C,D3*%
X130047900Y-132664200D03*
X131622900Y-132664200D03*
%TD*%
D50*
%TO.C,C63*%
X118874800Y-100226600D03*
X118874800Y-103176600D03*
%TD*%
D44*
%TO.C,C70*%
X159644000Y-106692800D03*
X161544000Y-106692800D03*
%TD*%
D18*
%TO.C,C92*%
X135862000Y-127812800D03*
X134902000Y-127812800D03*
%TD*%
D11*
%TO.C,C49*%
X155752800Y-146494200D03*
X155752800Y-148044200D03*
%TD*%
D17*
%TO.C,C96*%
X158407400Y-142011400D03*
X156857400Y-142011400D03*
%TD*%
D48*
%TO.C,C54*%
X162560000Y-119745800D03*
X162560000Y-117845800D03*
%TD*%
D11*
%TO.C,C16*%
X143103600Y-151675800D03*
X143103600Y-153225800D03*
%TD*%
D18*
%TO.C,C24*%
X163878200Y-148525000D03*
X162918200Y-148525000D03*
%TD*%
D21*
%TO.C,R18*%
X163462200Y-128104400D03*
X163462200Y-126454400D03*
%TD*%
D37*
%TO.C,C65*%
X152816600Y-107416600D03*
X150916600Y-107416600D03*
%TD*%
D30*
%TO.C,J10*%
X170211200Y-131469600D03*
X170211200Y-132719600D03*
X170211200Y-133969600D03*
X170211200Y-135219600D03*
X170211200Y-136469600D03*
X170211200Y-137719600D03*
D31*
X173561200Y-129619600D03*
X173561200Y-139569600D03*
%TD*%
D45*
%TO.C,U7*%
X155524200Y-100825400D03*
X155524200Y-101625400D03*
D46*
X154574200Y-100475400D03*
X154574200Y-100975400D03*
X154574200Y-101475400D03*
X154574200Y-101975400D03*
X156474200Y-101975400D03*
X156474200Y-101475400D03*
X156474200Y-100975400D03*
X156474200Y-100475400D03*
%TD*%
D25*
%TO.C,C59*%
X125526800Y-113731000D03*
X125526800Y-115631000D03*
%TD*%
D14*
%TO.C,C2*%
X165049200Y-132270800D03*
X165049200Y-130720800D03*
%TD*%
D44*
%TO.C,C75*%
X169458600Y-154254200D03*
X171358600Y-154254200D03*
%TD*%
D36*
%TO.C,U10*%
X143106500Y-154980600D03*
X142456500Y-154980600D03*
X141806500Y-154980600D03*
X141806500Y-156880600D03*
X143106500Y-156880600D03*
%TD*%
D13*
%TO.C,R12*%
X120878600Y-148273000D03*
X120878600Y-149923000D03*
%TD*%
D61*
%TO.C,U1*%
X165456700Y-137713300D03*
X166406700Y-137713300D03*
X167356700Y-137713300D03*
X167356700Y-135438300D03*
X166406700Y-135438300D03*
X165456700Y-135438300D03*
%TD*%
D13*
%TO.C,R7*%
X131851400Y-126391400D03*
X131851400Y-128041400D03*
%TD*%
D28*
%TO.C,C20*%
X122125800Y-148590000D03*
X123085800Y-148590000D03*
%TD*%
D12*
%TO.C,R20*%
X170066200Y-113157000D03*
X171716200Y-113157000D03*
%TD*%
D44*
%TO.C,C72*%
X172166200Y-105130600D03*
X174066200Y-105130600D03*
%TD*%
D30*
%TO.C,J15*%
X170208200Y-117013600D03*
X170208200Y-118263600D03*
X170208200Y-119513600D03*
X170208200Y-120763600D03*
X170208200Y-122013600D03*
X170208200Y-123263600D03*
X170208200Y-124513600D03*
X170208200Y-125763600D03*
D31*
X173558200Y-115163600D03*
X173558200Y-127613600D03*
%TD*%
D44*
%TO.C,C69*%
X159644000Y-104724200D03*
X161544000Y-104724200D03*
%TD*%
D21*
%TO.C,R19*%
X164986200Y-128104400D03*
X164986200Y-126454400D03*
%TD*%
M02*
