%TF.GenerationSoftware,KiCad,Pcbnew,8.0.2*%
%TF.CreationDate,2025-04-21T15:08:20+02:00*%
%TF.ProjectId,logic,6c6f6769-632e-46b6-9963-61645f706362,rev?*%
%TF.SameCoordinates,Original*%
%TF.FileFunction,Copper,L4,Bot*%
%TF.FilePolarity,Positive*%
%FSLAX46Y46*%
G04 Gerber Fmt 4.6, Leading zero omitted, Abs format (unit mm)*
G04 Created by KiCad (PCBNEW 8.0.2) date 2025-04-21 15:08:20*
%MOMM*%
%LPD*%
G01*
G04 APERTURE LIST*
G04 Aperture macros list*
%AMRoundRect*
0 Rectangle with rounded corners*
0 $1 Rounding radius*
0 $2 $3 $4 $5 $6 $7 $8 $9 X,Y pos of 4 corners*
0 Add a 4 corners polygon primitive as box body*
4,1,4,$2,$3,$4,$5,$6,$7,$8,$9,$2,$3,0*
0 Add four circle primitives for the rounded corners*
1,1,$1+$1,$2,$3*
1,1,$1+$1,$4,$5*
1,1,$1+$1,$6,$7*
1,1,$1+$1,$8,$9*
0 Add four rect primitives between the rounded corners*
20,1,$1+$1,$2,$3,$4,$5,0*
20,1,$1+$1,$4,$5,$6,$7,0*
20,1,$1+$1,$6,$7,$8,$9,0*
20,1,$1+$1,$8,$9,$2,$3,0*%
G04 Aperture macros list end*
%TA.AperFunction,ComponentPad*%
%ADD10R,1.000000X1.000000*%
%TD*%
%TA.AperFunction,ComponentPad*%
%ADD11O,1.000000X1.000000*%
%TD*%
%TA.AperFunction,ComponentPad*%
%ADD12C,1.100000*%
%TD*%
%TA.AperFunction,SMDPad,CuDef*%
%ADD13R,1.000000X2.750000*%
%TD*%
%TA.AperFunction,SMDPad,CuDef*%
%ADD14RoundRect,0.200000X-0.200000X-0.275000X0.200000X-0.275000X0.200000X0.275000X-0.200000X0.275000X0*%
%TD*%
%TA.AperFunction,ViaPad*%
%ADD15C,0.800000*%
%TD*%
%TA.AperFunction,Conductor*%
%ADD16C,0.127000*%
%TD*%
%TA.AperFunction,Conductor*%
%ADD17C,0.254000*%
%TD*%
%TA.AperFunction,Conductor*%
%ADD18C,0.250000*%
%TD*%
%TA.AperFunction,Conductor*%
%ADD19C,0.200000*%
%TD*%
%TA.AperFunction,Conductor*%
%ADD20C,0.500000*%
%TD*%
%TA.AperFunction,Conductor*%
%ADD21C,1.000000*%
%TD*%
G04 APERTURE END LIST*
D10*
%TO.P,J23,1,Pin_1*%
%TO.N,GND*%
X167233600Y-151536400D03*
D11*
%TO.P,J23,2,Pin_2*%
%TO.N,nrf_rx*%
X168503600Y-151536400D03*
%TO.P,J23,3,Pin_3*%
%TO.N,nrf_tx*%
X169773600Y-151536400D03*
%TO.P,J23,4,Pin_4*%
%TO.N,/mcu/NRF_swclk*%
X171043600Y-151536400D03*
%TO.P,J23,5,Pin_5*%
%TO.N,/mcu/NRF_swdio*%
X172313600Y-151536400D03*
%TO.P,J23,6,Pin_6*%
%TO.N,+3V3*%
X173583600Y-151536400D03*
%TD*%
D12*
%TO.P,J2,S1,SHIELD*%
%TO.N,GND*%
X128327000Y-156605400D03*
X128327000Y-152305400D03*
X123527000Y-156605400D03*
X123527000Y-152305400D03*
%TD*%
D13*
%TO.P,J22,1,Pin_1*%
%TO.N,GND*%
X124349000Y-147905000D03*
%TO.P,J22,2,Pin_2*%
%TO.N,+BATT*%
X124349000Y-141655000D03*
%TO.P,J22,3,Pin_3*%
%TO.N,in_1_+*%
X126349000Y-147905000D03*
%TO.P,J22,4,Pin_4*%
%TO.N,in_1_-*%
X126349000Y-141655000D03*
%TD*%
D14*
%TO.P,R5,1*%
%TO.N,H3*%
X172733200Y-135483600D03*
%TO.P,R5,2*%
%TO.N,LINE*%
X174383200Y-135483600D03*
%TD*%
%TO.P,R4,1*%
%TO.N,H2*%
X172733200Y-134010400D03*
%TO.P,R4,2*%
%TO.N,LINE*%
X174383200Y-134010400D03*
%TD*%
D13*
%TO.P,J20,1,Pin_1*%
%TO.N,+3V3*%
X140960600Y-147930400D03*
%TO.P,J20,2,Pin_2*%
%TO.N,/Fet/TEMP1*%
X140960600Y-141680400D03*
%TO.P,J20,3,Pin_3*%
%TO.N,in_2_+*%
X142960600Y-147930400D03*
%TO.P,J20,4,Pin_4*%
%TO.N,in_2_-*%
X142960600Y-141680400D03*
%TD*%
%TO.P,J11,1,Pin_1*%
%TO.N,/Drivers/PHASE_A*%
X125841000Y-116407400D03*
%TO.P,J11,2,Pin_2*%
%TO.N,/Drivers/G_B_A*%
X125841000Y-122657400D03*
%TO.P,J11,3,Pin_3*%
%TO.N,/Drivers/G_T_A*%
X123841000Y-116407400D03*
%TO.P,J11,4,Pin_4*%
%TO.N,GND*%
X123841000Y-122657400D03*
%TD*%
%TO.P,J17,1,Pin_1*%
%TO.N,in_3_-*%
X158673800Y-141681200D03*
%TO.P,J17,2,Pin_2*%
%TO.N,in_3_+*%
X158673800Y-147931200D03*
%TO.P,J17,3,Pin_3*%
%TO.N,/Fet/TEMP*%
X156673800Y-141681200D03*
%TO.P,J17,4,Pin_4*%
%TO.N,GND*%
X156673800Y-147931200D03*
%TD*%
D14*
%TO.P,R3,1*%
%TO.N,H1*%
X172733200Y-132537200D03*
%TO.P,R3,2*%
%TO.N,LINE*%
X174383200Y-132537200D03*
%TD*%
D13*
%TO.P,J7,1,Pin_1*%
%TO.N,/Drivers/PHASE_B*%
X141843000Y-116407400D03*
%TO.P,J7,2,Pin_2*%
%TO.N,/Drivers/G_B_B*%
X141843000Y-122657400D03*
%TO.P,J7,3,Pin_3*%
%TO.N,/Drivers/G_T_B*%
X139843000Y-116407400D03*
%TO.P,J7,4,Pin_4*%
%TO.N,GND*%
X139843000Y-122657400D03*
%TD*%
%TO.P,J4,1,Pin_1*%
%TO.N,/Drivers/PHASE_C*%
X157997400Y-116407400D03*
%TO.P,J4,2,Pin_2*%
%TO.N,/Drivers/G_B_C*%
X157997400Y-122657400D03*
%TO.P,J4,3,Pin_3*%
%TO.N,/Drivers/G_T_C*%
X155997400Y-116407400D03*
%TO.P,J4,4,Pin_4*%
%TO.N,GND*%
X155997400Y-122657400D03*
%TD*%
D14*
%TO.P,R6,1*%
%TO.N,TM*%
X172733200Y-136956800D03*
%TO.P,R6,2*%
%TO.N,+3V3*%
X174383200Y-136956800D03*
%TD*%
D15*
%TO.N,TM*%
X165456700Y-135438300D03*
X162031531Y-134534457D03*
X170211200Y-136469600D03*
%TO.N,H3*%
X170211200Y-135219600D03*
X150502100Y-128625600D03*
X167538400Y-135438300D03*
X165023800Y-132308600D03*
%TO.N,H2*%
X170211200Y-133969600D03*
X168021000Y-142722600D03*
X167356700Y-137713300D03*
X167356700Y-137713300D03*
X151210862Y-127920149D03*
%TO.N,H1*%
X165303200Y-137718800D03*
X151815800Y-131800600D03*
X170211200Y-132719600D03*
%TO.N,+3V3*%
X168351200Y-112826800D03*
X133644600Y-126365000D03*
X165074600Y-145630600D03*
X158064200Y-125323600D03*
X159067200Y-137922000D03*
X143560800Y-129717800D03*
X157353000Y-129794000D03*
X134630995Y-123327995D03*
X170230800Y-124485400D03*
X152819400Y-147142200D03*
X174396400Y-136956800D03*
X145542000Y-142433200D03*
X164640300Y-123901200D03*
X162918200Y-148525000D03*
X171358600Y-154254200D03*
X122529600Y-132588000D03*
X165074600Y-139687000D03*
X165074600Y-142658800D03*
X123085800Y-148590000D03*
X138430000Y-141084600D03*
X137052000Y-148285200D03*
X136390900Y-123618700D03*
%TO.N,/mcu/NRST*%
X149338600Y-140157200D03*
X132695975Y-139655575D03*
%TO.N,/Fet/SENSE_B*%
X150571200Y-143611600D03*
X149123400Y-144805400D03*
%TO.N,/Fet/SENSE_C*%
X147875700Y-147370800D03*
X151334588Y-144257544D03*
X144297400Y-150298800D03*
X143103600Y-151675800D03*
%TO.N,in_2_-*%
X139164403Y-144153400D03*
%TO.N,in_3_-*%
X159394768Y-151679032D03*
%TO.N,+BATT*%
X124349000Y-141655000D03*
X116941600Y-102792700D03*
%TO.N,/Fet/TEMP*%
X154279600Y-146494200D03*
X154736800Y-140639800D03*
X155593967Y-146401945D03*
%TO.N,/Fet/TEMP1*%
X141451200Y-141455000D03*
X144881600Y-141655800D03*
X144060599Y-140547869D03*
X153416000Y-135026400D03*
X158927800Y-134856586D03*
%TO.N,/Fet/TEMP2*%
X159880600Y-126771400D03*
X161289266Y-133400066D03*
%TO.N,+12V*%
X135785800Y-107048000D03*
X162560000Y-117845800D03*
X150952200Y-104216200D03*
X150977600Y-106857800D03*
X146024600Y-117830600D03*
X150916600Y-102980182D03*
X151003000Y-105460800D03*
X164820600Y-101994000D03*
X129921000Y-117820400D03*
X148104400Y-105435400D03*
%TO.N,/Drivers/PHASE_B*%
X141568400Y-113781800D03*
%TO.N,/Drivers/PHASE_A*%
X125526800Y-113731000D03*
%TO.N,+5V*%
X130200400Y-150622000D03*
X161544000Y-106680000D03*
X139054800Y-137515600D03*
X170208200Y-123340600D03*
X133184166Y-143394966D03*
%TO.N,/Drivers/PHASE_C*%
X157747400Y-113807200D03*
%TO.N,/mcu/USBD-*%
X148613600Y-132148932D03*
X124727000Y-156489400D03*
X126431432Y-151501232D03*
%TO.N,/mcu/USBD+*%
X147563600Y-132148932D03*
X125688968Y-150758768D03*
%TO.N,LINE*%
X167640000Y-105435400D03*
X171653200Y-131469600D03*
%TO.N,/Drivers/G_T_A*%
X123841000Y-116407400D03*
%TO.N,/Drivers/G_B_A*%
X126746000Y-122744000D03*
%TO.N,/Drivers/G_T_B*%
X139843000Y-116407400D03*
%TO.N,/Drivers/G_T_C*%
X155997400Y-116407400D03*
%TO.N,/Drivers/G_B_C*%
X158815800Y-122657400D03*
%TO.N,nrf_rx*%
X145808700Y-133972300D03*
X170205400Y-144678400D03*
X142118045Y-134430038D03*
%TO.N,nrf_tx*%
X170230800Y-143459200D03*
X146555124Y-133306826D03*
X142087600Y-133430500D03*
%TO.N,adc1*%
X170208200Y-122013600D03*
X164312600Y-122936000D03*
%TO.N,tx*%
X162099046Y-124923401D03*
X170180000Y-119532400D03*
%TO.N,rx*%
X164377800Y-124876600D03*
X170180000Y-120777000D03*
%TO.N,adc2*%
X162099046Y-122929799D03*
X170256200Y-118237000D03*
X157175200Y-137058400D03*
X162725834Y-132245834D03*
%TO.N,/mcu/ADC_15*%
X170205400Y-117017800D03*
X162281255Y-133273717D03*
%TO.N,/mcu/SWDIO*%
X124460000Y-130806900D03*
X144221200Y-131267200D03*
%TO.N,/mcu/SWCLK*%
X142951200Y-131572000D03*
X122549200Y-130098800D03*
%TO.N,/mcu/NRF_swdio*%
X161366200Y-148586900D03*
X152501600Y-133223000D03*
%TO.N,/mcu/NRF_swclk*%
X142946740Y-134989743D03*
%TO.N,/Drivers/sens supply*%
X152552400Y-144094200D03*
X132003800Y-143408400D03*
%TO.N,/Fet/CURR_FILTER*%
X138734800Y-153085800D03*
X138861800Y-150037800D03*
%TO.N,/Drivers/Tin_B*%
X138861800Y-124431500D03*
X148564600Y-126365000D03*
%TO.N,/Drivers/Bin_C*%
X154101800Y-126314200D03*
X152654000Y-127127000D03*
%TO.N,/Drivers/sensfil*%
X150368000Y-131953000D03*
X163510000Y-141289800D03*
X163510000Y-144109200D03*
X163510000Y-146928600D03*
%TO.N,/Drivers/Bin_B*%
X152577800Y-128422400D03*
X148894800Y-124409200D03*
%TO.N,/Drivers/Tin_C*%
X152424666Y-125019534D03*
X150521134Y-126999266D03*
X148564600Y-127736600D03*
X151421366Y-126022834D03*
%TO.N,in_2_+*%
X139164403Y-145203400D03*
%TO.N,GND*%
X123012200Y-126619000D03*
X127152400Y-115163600D03*
X168122600Y-149453600D03*
X124180600Y-100330000D03*
X155458031Y-144148099D03*
X155752800Y-128574800D03*
X153771600Y-133248400D03*
X151053800Y-109651800D03*
X120319800Y-139420600D03*
X128346200Y-111607600D03*
X168554400Y-125018800D03*
X123139200Y-98653600D03*
X131978400Y-136956800D03*
X142951200Y-114681000D03*
X174904400Y-109804200D03*
X141325600Y-129413000D03*
X137515600Y-111404400D03*
X163423600Y-126415800D03*
X134536034Y-128689693D03*
X121996200Y-148767800D03*
X123164600Y-104927400D03*
X164160200Y-133350000D03*
X155219400Y-142697200D03*
X119354600Y-100152200D03*
X165277800Y-129438400D03*
X133273800Y-104648000D03*
X123215400Y-100152200D03*
X122732800Y-142900400D03*
X130835400Y-98628200D03*
X136779000Y-119862600D03*
X169316400Y-154152600D03*
X141859000Y-120065800D03*
X144678400Y-149047200D03*
X146100800Y-132283200D03*
X159461200Y-105714800D03*
X165938200Y-144246600D03*
X172974000Y-129641600D03*
X148158200Y-109143800D03*
X150825200Y-98501200D03*
X137541000Y-101676200D03*
X155651200Y-104419400D03*
X136652000Y-99491800D03*
X160121600Y-129768600D03*
X172389800Y-113207800D03*
X120548400Y-98602800D03*
X146862800Y-122580400D03*
X147396200Y-137845800D03*
X145719800Y-137693400D03*
X165379400Y-100304600D03*
X150876000Y-114071400D03*
X165201600Y-147370800D03*
X132003800Y-134391400D03*
X141554200Y-99466400D03*
X168960800Y-137566400D03*
X120396000Y-138303000D03*
X173101000Y-115189000D03*
X148539200Y-154330400D03*
X145719800Y-111379000D03*
X131953000Y-98704400D03*
X153263600Y-122529600D03*
X153339800Y-110947200D03*
X151307800Y-145796000D03*
X125349000Y-134137400D03*
X160223200Y-119100600D03*
X169418000Y-125704600D03*
X157022800Y-107746800D03*
X118491000Y-141528800D03*
X152984200Y-104571800D03*
X148945600Y-100863400D03*
X132359400Y-117627400D03*
X164338000Y-99771200D03*
X123317000Y-125069600D03*
X121920000Y-105105200D03*
X136550400Y-142519400D03*
X135494800Y-138884100D03*
X142417800Y-111379000D03*
X152247600Y-116255800D03*
X120472200Y-99949000D03*
X155549600Y-148031200D03*
X137795000Y-122529600D03*
X121716800Y-100076000D03*
X153822400Y-152654000D03*
X124231400Y-120370600D03*
X151511000Y-100330000D03*
X144602200Y-154228800D03*
X118837075Y-134354059D03*
X127965200Y-102717600D03*
X122478800Y-111785400D03*
X153390600Y-121285000D03*
X119657600Y-105575400D03*
X158572200Y-105765600D03*
X154609800Y-104444800D03*
X150418800Y-147421600D03*
X140995400Y-145745200D03*
X139115800Y-156362400D03*
X167309800Y-103962200D03*
X124180600Y-98526600D03*
X171704000Y-147929600D03*
X161264600Y-116332000D03*
X145034000Y-116154200D03*
X121310400Y-123113800D03*
X144957800Y-99466400D03*
X131876800Y-126898400D03*
X158521400Y-107645200D03*
X150037800Y-110718600D03*
X119964200Y-144729200D03*
X117957600Y-105283000D03*
X157454600Y-139725400D03*
X159207200Y-130048000D03*
X150037800Y-122580400D03*
X129641600Y-102692200D03*
X171907200Y-149275800D03*
X161610000Y-144109200D03*
X151714200Y-122529600D03*
X148158200Y-144449800D03*
X157048200Y-147878800D03*
X147980400Y-135204200D03*
X163017200Y-113004600D03*
X145262600Y-130584500D03*
X158369000Y-126898400D03*
X153543000Y-119964200D03*
X118440200Y-100152200D03*
X173355000Y-141706600D03*
X144043400Y-111379000D03*
X140639800Y-111379000D03*
X162610800Y-153238200D03*
X174548800Y-146507200D03*
X128117600Y-104978200D03*
X146634200Y-99466400D03*
X129971800Y-120091200D03*
X144500600Y-122631200D03*
X146888200Y-110540800D03*
X143662400Y-127482600D03*
X149275800Y-133223000D03*
X139446000Y-127025400D03*
X147777200Y-128701800D03*
X125730000Y-120091200D03*
X164744400Y-110769400D03*
X122021600Y-147650200D03*
X128905000Y-126390400D03*
X125526800Y-127279400D03*
X140360400Y-128320800D03*
X156337000Y-120294400D03*
X135890000Y-105003600D03*
X128676400Y-122047000D03*
X169037000Y-146888200D03*
X168351200Y-127533400D03*
X146812000Y-119989600D03*
X169087800Y-140614400D03*
X134340600Y-113182400D03*
X150037800Y-99466400D03*
X152958800Y-108102400D03*
X159969200Y-99847400D03*
X161163000Y-110896400D03*
X143332200Y-99466400D03*
X159258000Y-114808000D03*
X131495800Y-117678200D03*
X136550400Y-144348200D03*
X128549400Y-122961400D03*
X135737600Y-111404400D03*
X148437600Y-122580400D03*
X169011600Y-115468400D03*
X151206200Y-137617200D03*
X119199200Y-125748800D03*
X159893000Y-101676200D03*
X148412200Y-99466400D03*
X128295400Y-107365800D03*
X165862000Y-121869200D03*
X153035000Y-114960400D03*
X149021800Y-101752400D03*
X172389800Y-101015800D03*
X168402000Y-130683000D03*
X126593600Y-136779000D03*
X160934400Y-137109200D03*
X161508433Y-141391367D03*
X119303800Y-112268000D03*
X123139200Y-106248200D03*
X116611400Y-100304600D03*
X152882600Y-137388600D03*
X160223200Y-119126000D03*
X139141200Y-111404400D03*
X153873200Y-124866400D03*
X164820600Y-130327400D03*
X158369000Y-128651000D03*
X140182600Y-157149800D03*
X164791059Y-115210259D03*
X173126400Y-124256800D03*
X137490200Y-109575600D03*
X121513600Y-122047000D03*
X168452800Y-120751600D03*
X147142200Y-145643600D03*
X116738400Y-98729800D03*
X172135800Y-105029000D03*
X174040800Y-139776200D03*
X126746000Y-133400800D03*
X154432000Y-156819600D03*
X138430000Y-99491800D03*
X159308800Y-104724200D03*
X172186600Y-107213400D03*
X154660600Y-113360200D03*
X135229600Y-121843800D03*
X116941600Y-101067700D03*
X141630400Y-154203400D03*
X171653200Y-141478000D03*
X154101800Y-148132800D03*
X153085800Y-105714800D03*
X140055600Y-99491800D03*
X124612400Y-148717000D03*
X157886400Y-120218200D03*
X135128000Y-129895600D03*
X131851400Y-154432000D03*
X157251400Y-105765600D03*
X148996400Y-116052600D03*
X137109200Y-100711000D03*
X149301200Y-135509000D03*
X130022600Y-125780800D03*
X119199200Y-125748800D03*
X144297400Y-119151400D03*
X159462935Y-119480733D03*
X119199200Y-125748800D03*
X124561600Y-136626600D03*
X121970800Y-106095800D03*
X149123400Y-111379000D03*
X173101000Y-127635000D03*
X167563800Y-133934200D03*
X149479000Y-153898600D03*
X166065200Y-124129800D03*
X119659400Y-134569200D03*
X120040400Y-156743400D03*
X155575000Y-101193600D03*
X130632200Y-134315200D03*
X129641600Y-105029000D03*
X128193800Y-118897400D03*
X118516400Y-98806000D03*
X119634000Y-147142200D03*
X172085000Y-146558000D03*
X162179000Y-123926600D03*
X134239000Y-132359400D03*
X160020000Y-146862800D03*
X154889200Y-130225800D03*
X122351800Y-150647400D03*
X144145000Y-142417800D03*
X169189400Y-142417800D03*
X145516600Y-153924000D03*
X119456200Y-136474200D03*
X167817800Y-144348200D03*
X169265600Y-101041200D03*
X165100000Y-141249400D03*
X148691600Y-118262400D03*
X151511000Y-139725400D03*
X120472200Y-112903000D03*
X145415000Y-144018000D03*
X132461000Y-115570000D03*
X167233600Y-102362000D03*
X127152400Y-115163600D03*
X140258800Y-120116600D03*
X165862000Y-121869200D03*
%TO.N,in_3_+*%
X160137232Y-150936568D03*
%TO.N,/IMU/sda*%
X141757400Y-132103500D03*
X158191200Y-134165900D03*
%TO.N,Net-(C100-Pad2)*%
X123952000Y-150495000D03*
X123967000Y-154457400D03*
%TD*%
D16*
%TO.N,TM*%
X162031531Y-134534457D02*
X164552857Y-134534457D01*
D17*
X170698400Y-136956800D02*
X170211200Y-136469600D01*
X172733200Y-136956800D02*
X170698400Y-136956800D01*
D16*
X164552857Y-134534457D02*
X165456700Y-135438300D01*
D17*
%TO.N,H3*%
X170475200Y-135483600D02*
X170211200Y-135219600D01*
X172733200Y-135483600D02*
X170475200Y-135483600D01*
D16*
X162646696Y-136550400D02*
X166426300Y-136550400D01*
X150502100Y-129216900D02*
X152758800Y-131473600D01*
D17*
X167300200Y-132308600D02*
X170211200Y-135219600D01*
D16*
X150502100Y-128625600D02*
X150502100Y-129216900D01*
X157569896Y-131473600D02*
X162646696Y-136550400D01*
X166426300Y-136550400D02*
X167538400Y-135438300D01*
X152758800Y-131473600D02*
X157569896Y-131473600D01*
D17*
X165023800Y-132308600D02*
X167300200Y-132308600D01*
D16*
%TO.N,H2*%
X151210862Y-127920149D02*
X151333200Y-128042487D01*
X168201900Y-135163469D02*
X168201900Y-136868100D01*
D17*
X168021000Y-142468600D02*
X168021000Y-142722600D01*
D16*
X165932343Y-136106026D02*
X167263569Y-134774800D01*
X157705344Y-131146600D02*
X162664770Y-136106026D01*
X167263569Y-134774800D02*
X167813231Y-134774800D01*
X151333200Y-128042487D02*
X151333200Y-129483952D01*
X168201900Y-136868100D02*
X167356700Y-137713300D01*
X162664770Y-136106026D02*
X165932343Y-136106026D01*
D17*
X167356700Y-137713300D02*
X167356700Y-141804300D01*
D16*
X167813231Y-134774800D02*
X168201900Y-135163469D01*
D17*
X170252000Y-134010400D02*
X170211200Y-133969600D01*
X172733200Y-134010400D02*
X170252000Y-134010400D01*
D16*
X151333200Y-129483952D02*
X152995848Y-131146600D01*
D17*
X167356700Y-141804300D02*
X168021000Y-142468600D01*
D16*
X152995848Y-131146600D02*
X157705344Y-131146600D01*
D17*
%TO.N,H1*%
X172733200Y-132537200D02*
X170393600Y-132537200D01*
D16*
X165303200Y-137718800D02*
X163352648Y-137718800D01*
X157434448Y-131800600D02*
X151815800Y-131800600D01*
D17*
X170393600Y-132537200D02*
X170211200Y-132719600D01*
D16*
X163352648Y-137718800D02*
X157434448Y-131800600D01*
D18*
%TO.N,+3V3*%
X174383200Y-136956800D02*
X174396400Y-136956800D01*
D16*
%TO.N,/mcu/NRST*%
X132695975Y-139655575D02*
X132803950Y-139547600D01*
X132803950Y-139547600D02*
X148729000Y-139547600D01*
X148729000Y-139547600D02*
X149338600Y-140157200D01*
%TO.N,/Fet/SENSE_B*%
X149123400Y-144805400D02*
X150317200Y-143611600D01*
X150317200Y-143611600D02*
X150571200Y-143611600D01*
%TO.N,/Fet/SENSE_C*%
X147875700Y-147245431D02*
X150863587Y-144257544D01*
X144297400Y-150298800D02*
X143789400Y-150806800D01*
X147875700Y-147370800D02*
X147875700Y-147245431D01*
X143789400Y-150990000D02*
X143103600Y-151675800D01*
X150863587Y-144257544D02*
X151334588Y-144257544D01*
X143789400Y-150806800D02*
X143789400Y-150990000D01*
D19*
%TO.N,in_2_-*%
X142960600Y-143932400D02*
X142960600Y-141680400D01*
X139464403Y-144453400D02*
X142439600Y-144453400D01*
X139164403Y-144153400D02*
X139464403Y-144453400D01*
X142439600Y-144453400D02*
X142960600Y-143932400D01*
%TO.N,in_3_-*%
X159394768Y-151679032D02*
X159394768Y-151254767D01*
X159394768Y-151254767D02*
X158223800Y-150083799D01*
X158223800Y-146256200D02*
X158223800Y-142131200D01*
X157873800Y-146256200D02*
X158223800Y-146256200D01*
X158223800Y-149606200D02*
X157873800Y-149606200D01*
X157873800Y-149606200D02*
X157873800Y-146256200D01*
X158223800Y-150083799D02*
X158223800Y-149606200D01*
X158223800Y-142131200D02*
X158673800Y-141681200D01*
D20*
%TO.N,+BATT*%
X117195600Y-138379200D02*
X120471400Y-141655000D01*
X117195600Y-110363000D02*
X117195600Y-138379200D01*
X120471400Y-141655000D02*
X124349000Y-141655000D01*
X118807600Y-108751000D02*
X117195600Y-110363000D01*
X116941600Y-102792700D02*
X118807600Y-104658700D01*
X118807600Y-104658700D02*
X118807600Y-108751000D01*
D16*
%TO.N,/Fet/TEMP*%
X154508200Y-145948400D02*
X154508200Y-146253200D01*
X154508200Y-146265600D02*
X154279600Y-146494200D01*
X154736800Y-140639800D02*
X154508200Y-140868400D01*
D17*
X156673800Y-144100000D02*
X156673800Y-141681200D01*
D16*
X154508200Y-145948400D02*
X154508200Y-146265600D01*
D17*
X155593967Y-145179833D02*
X156673800Y-144100000D01*
D16*
X154508200Y-140868400D02*
X154508200Y-145948400D01*
D17*
X155593967Y-146401945D02*
X155593967Y-145179833D01*
D16*
X154508200Y-146253200D02*
X154330400Y-146431000D01*
%TO.N,/Fet/TEMP1*%
X144881600Y-141655800D02*
X144060599Y-140834799D01*
X144060599Y-140834799D02*
X144060599Y-140547869D01*
X153585814Y-134856586D02*
X153416000Y-135026400D01*
D17*
X141225800Y-141680400D02*
X141451200Y-141455000D01*
X140960600Y-141680400D02*
X141225800Y-141680400D01*
D16*
X158927800Y-134856586D02*
X153585814Y-134856586D01*
%TO.N,/Fet/TEMP2*%
X161290000Y-128117600D02*
X159943800Y-126771400D01*
X161290000Y-133399332D02*
X161290000Y-128117600D01*
X161289266Y-133400066D02*
X161290000Y-133399332D01*
%TO.N,+12V*%
X146491800Y-107048000D02*
X148104400Y-105435400D01*
X135785800Y-107048000D02*
X146491800Y-107048000D01*
D21*
X150916600Y-102980182D02*
X163834418Y-102980182D01*
D17*
X151803666Y-105460800D02*
X151003000Y-105460800D01*
D21*
X163834418Y-102980182D02*
X164820600Y-101994000D01*
D17*
X162560000Y-117845800D02*
X162560000Y-116217134D01*
X162560000Y-116217134D02*
X151803666Y-105460800D01*
D20*
%TO.N,/Drivers/PHASE_B*%
X141568400Y-116132800D02*
X141843000Y-116407400D01*
X141568400Y-113781800D02*
X141568400Y-116132800D01*
D17*
%TO.N,/Drivers/PHASE_A*%
X125526800Y-115218200D02*
X125841000Y-115532400D01*
D20*
X125526800Y-113731000D02*
X125526800Y-116093200D01*
X125526800Y-116093200D02*
X125841000Y-116407400D01*
D17*
X125841000Y-115532400D02*
X125841000Y-116407400D01*
D20*
%TO.N,/Drivers/PHASE_C*%
X157747400Y-116157400D02*
X157997400Y-116407400D01*
X157747400Y-113807200D02*
X157747400Y-116157400D01*
D19*
%TO.N,/mcu/USBD-*%
X128668000Y-150770800D02*
X126737599Y-150770800D01*
X131111200Y-140250400D02*
X131111200Y-148327600D01*
X148613600Y-132148932D02*
X148313601Y-132448931D01*
X148313601Y-132448931D02*
X148313601Y-133487399D01*
X131111200Y-148327600D02*
X128668000Y-150770800D01*
D16*
X124727000Y-156489400D02*
X126431432Y-154784968D01*
D19*
X126431432Y-151076967D02*
X126431432Y-151501232D01*
X135018000Y-136343600D02*
X131111200Y-140250400D01*
X145457400Y-136343600D02*
X135018000Y-136343600D01*
D16*
X126431432Y-154784968D02*
X126431432Y-151501232D01*
D19*
X126737599Y-150770800D02*
X126431432Y-151076967D01*
X148313601Y-133487399D02*
X145457400Y-136343600D01*
%TO.N,/mcu/USBD+*%
X126113233Y-150758768D02*
X125688968Y-150758768D01*
X147563600Y-132148932D02*
X147863599Y-132448931D01*
X128481600Y-150320800D02*
X126551201Y-150320800D01*
X145271000Y-135893600D02*
X134831600Y-135893600D01*
X130661200Y-148141200D02*
X128481600Y-150320800D01*
X130661200Y-140064000D02*
X130661200Y-148141200D01*
X126551201Y-150320800D02*
X126113233Y-150758768D01*
X147863599Y-132448931D02*
X147863599Y-133301001D01*
X147863599Y-133301001D02*
X145271000Y-135893600D01*
X134831600Y-135893600D02*
X130661200Y-140064000D01*
D17*
%TO.N,LINE*%
X174383200Y-132537200D02*
X173315600Y-131469600D01*
X173315600Y-131469600D02*
X171653200Y-131469600D01*
X173315600Y-131469600D02*
X174421800Y-130363400D01*
X174421800Y-130363400D02*
X174421800Y-112044245D01*
X174383200Y-135483600D02*
X174383200Y-132537200D01*
X174421800Y-112044245D02*
X167812955Y-105435400D01*
X167812955Y-105435400D02*
X167640000Y-105435400D01*
%TO.N,/Drivers/G_B_A*%
X126659400Y-122657400D02*
X126746000Y-122744000D01*
X125841000Y-122657400D02*
X126659400Y-122657400D01*
%TO.N,/Drivers/G_B_C*%
X157997400Y-122657400D02*
X158815800Y-122657400D01*
D16*
%TO.N,adc1*%
X164312600Y-122936000D02*
X168021000Y-122936000D01*
X168021000Y-122936000D02*
X168943400Y-122013600D01*
X168943400Y-122013600D02*
X170208200Y-122013600D01*
%TO.N,tx*%
X162553799Y-124923401D02*
X163649100Y-123828100D01*
X163649100Y-123828100D02*
X163649100Y-122661169D01*
X162099046Y-124923401D02*
X162553799Y-124923401D01*
X163649100Y-122661169D02*
X166777869Y-119532400D01*
X166777869Y-119532400D02*
X170180000Y-119532400D01*
%TO.N,rx*%
X170180000Y-120777000D02*
X170871700Y-121468700D01*
X170483031Y-122677100D02*
X169016500Y-122677100D01*
X170871700Y-121468700D02*
X170871700Y-122288431D01*
X170871700Y-122288431D02*
X170483031Y-122677100D01*
X169016500Y-122677100D02*
X166817000Y-124876600D01*
X166817000Y-124876600D02*
X164377800Y-124876600D01*
%TO.N,adc2*%
X161290000Y-127655152D02*
X161617000Y-127982152D01*
X162099046Y-122929799D02*
X162149601Y-122929799D01*
X161617000Y-127982152D02*
X161617000Y-131137000D01*
X161617000Y-131137000D02*
X162725834Y-132245834D01*
X161290000Y-123738845D02*
X161290000Y-127655152D01*
X170027600Y-118465600D02*
X170256200Y-118237000D01*
X162099046Y-122929799D02*
X161290000Y-123738845D01*
X162149601Y-122929799D02*
X166613800Y-118465600D01*
X166613800Y-118465600D02*
X170027600Y-118465600D01*
%TO.N,/mcu/ADC_15*%
X171198700Y-126006700D02*
X171198700Y-118011100D01*
X162636283Y-133273717D02*
X164439600Y-131470400D01*
X165735000Y-131470400D02*
X171198700Y-126006700D01*
X164439600Y-131470400D02*
X165735000Y-131470400D01*
X171198700Y-118011100D02*
X170205400Y-117017800D01*
X162281255Y-133273717D02*
X162636283Y-133273717D01*
%TO.N,/mcu/SWDIO*%
X124796500Y-131143400D02*
X141316721Y-131143400D01*
X141316721Y-131143400D02*
X141551621Y-130908500D01*
X143226031Y-130908500D02*
X143584731Y-131267200D01*
X141551621Y-130908500D02*
X143226031Y-130908500D01*
X143584731Y-131267200D02*
X144221200Y-131267200D01*
X124460000Y-130806900D02*
X124796500Y-131143400D01*
%TO.N,/mcu/SWCLK*%
X141452169Y-131470400D02*
X141482569Y-131440000D01*
X122549200Y-130098800D02*
X123920800Y-131470400D01*
X142819200Y-131440000D02*
X142951200Y-131572000D01*
X123920800Y-131470400D02*
X141452169Y-131470400D01*
X141482569Y-131440000D02*
X142819200Y-131440000D01*
%TO.N,/mcu/NRF_swdio*%
X161366200Y-148586900D02*
X163552200Y-150772900D01*
X163552200Y-150772900D02*
X171550100Y-150772900D01*
X171550100Y-150772900D02*
X172313600Y-151536400D01*
%TO.N,/Drivers/sens supply*%
X132232400Y-143408400D02*
X135763000Y-139877800D01*
X147756000Y-142468600D02*
X150926800Y-142468600D01*
X132003800Y-143408400D02*
X132232400Y-143408400D01*
X135763000Y-139877800D02*
X145165200Y-139877800D01*
X145165200Y-139877800D02*
X147756000Y-142468600D01*
X150926800Y-142468600D02*
X152552400Y-144094200D01*
%TO.N,/Fet/CURR_FILTER*%
X138861800Y-152958800D02*
X138734800Y-153085800D01*
X138861800Y-150037800D02*
X138861800Y-152958800D01*
%TO.N,/Drivers/Tin_B*%
X138861800Y-124431500D02*
X140287300Y-125857000D01*
X148564600Y-126212600D02*
X148564600Y-126365000D01*
X140287300Y-125857000D02*
X148209000Y-125857000D01*
X148209000Y-125857000D02*
X148564600Y-126212600D01*
%TO.N,/Drivers/Bin_C*%
X153289000Y-127127000D02*
X154101800Y-126314200D01*
X152654000Y-127127000D02*
X153289000Y-127127000D01*
%TO.N,/Drivers/sensfil*%
X150879100Y-132464100D02*
X157635500Y-132464100D01*
X163510000Y-141289800D02*
X163510000Y-144109200D01*
X163510000Y-144109200D02*
X163510000Y-146928600D01*
X163510000Y-138338600D02*
X163510000Y-141289800D01*
X150368000Y-131953000D02*
X150879100Y-132464100D01*
X157635500Y-132464100D02*
X163510000Y-138338600D01*
%TO.N,/Drivers/Bin_B*%
X152577800Y-128117600D02*
X148894800Y-124434600D01*
X148894800Y-124434600D02*
X148894800Y-124409200D01*
X152577800Y-128422400D02*
X152577800Y-128117600D01*
%TO.N,/Drivers/Tin_C*%
X150521134Y-126999266D02*
X149783800Y-127736600D01*
X152424666Y-125019534D02*
X151421366Y-126022834D01*
X149783800Y-127736600D02*
X148564600Y-127736600D01*
D19*
%TO.N,in_2_+*%
X139164403Y-145203400D02*
X139464403Y-144903400D01*
X142414200Y-144903400D02*
X142960600Y-145449800D01*
X142960600Y-145449800D02*
X142960600Y-147930400D01*
X139464403Y-144903400D02*
X142414200Y-144903400D01*
%TO.N,in_3_+*%
X158673800Y-149897401D02*
X158673800Y-147931200D01*
X159712967Y-150936568D02*
X158673800Y-149897401D01*
X160137232Y-150936568D02*
X159712967Y-150936568D01*
D16*
%TO.N,/IMU/sda*%
X144191231Y-132235500D02*
X141889400Y-132235500D01*
X151715669Y-134239000D02*
X148870869Y-131394200D01*
X148870869Y-131394200D02*
X145032531Y-131394200D01*
X141889400Y-132235500D02*
X141757400Y-132103500D01*
X158118100Y-134239000D02*
X151715669Y-134239000D01*
X158191200Y-134165900D02*
X158118100Y-134239000D01*
X145032531Y-131394200D02*
X144191231Y-132235500D01*
D18*
%TO.N,Net-(C100-Pad2)*%
X124587000Y-153837400D02*
X123967000Y-154457400D01*
X123952000Y-150495000D02*
X124587000Y-151130000D01*
X124587000Y-151130000D02*
X124587000Y-153837400D01*
%TD*%
%TA.AperFunction,Conductor*%
%TO.N,GND*%
G36*
X127254000Y-112496600D02*
G01*
X132511800Y-113334800D01*
X132740400Y-118897400D01*
X127762000Y-124307600D01*
X126632192Y-124307600D01*
X126669050Y-124270742D01*
X126726646Y-124157704D01*
X126726646Y-124157702D01*
X126726647Y-124157701D01*
X126741499Y-124063924D01*
X126741500Y-124063919D01*
X126741499Y-123660884D01*
X126761183Y-123593846D01*
X126813987Y-123548091D01*
X126851617Y-123537665D01*
X126925249Y-123529369D01*
X126925252Y-123529368D01*
X126925255Y-123529368D01*
X127095522Y-123469789D01*
X127248262Y-123373816D01*
X127375816Y-123246262D01*
X127471789Y-123093522D01*
X127531368Y-122923255D01*
X127551565Y-122744000D01*
X127531368Y-122564745D01*
X127471789Y-122394478D01*
X127375816Y-122241738D01*
X127248262Y-122114184D01*
X127095523Y-122018211D01*
X126925254Y-121958631D01*
X126925250Y-121958630D01*
X126851615Y-121950334D01*
X126787201Y-121923267D01*
X126747646Y-121865672D01*
X126741499Y-121827114D01*
X126741499Y-121250882D01*
X126741498Y-121250875D01*
X126726646Y-121157096D01*
X126669050Y-121044058D01*
X126669046Y-121044054D01*
X126669045Y-121044052D01*
X126579347Y-120954354D01*
X126579344Y-120954352D01*
X126579342Y-120954350D01*
X126502517Y-120915205D01*
X126466301Y-120896752D01*
X126372524Y-120881900D01*
X125309482Y-120881900D01*
X125228519Y-120894723D01*
X125215696Y-120896754D01*
X125102658Y-120954350D01*
X125102657Y-120954351D01*
X125102652Y-120954354D01*
X125012954Y-121044052D01*
X125012951Y-121044057D01*
X124955352Y-121157098D01*
X124940500Y-121250875D01*
X124940500Y-124063917D01*
X124951292Y-124132057D01*
X124955354Y-124157704D01*
X125012950Y-124270742D01*
X125012952Y-124270744D01*
X125012954Y-124270747D01*
X125049807Y-124307600D01*
X121869200Y-124307600D01*
X121361200Y-121310400D01*
X120929400Y-118364000D01*
X121565113Y-115000875D01*
X122940500Y-115000875D01*
X122940500Y-117813917D01*
X122947016Y-117855055D01*
X122955354Y-117907704D01*
X123012950Y-118020742D01*
X123012952Y-118020744D01*
X123012954Y-118020747D01*
X123102652Y-118110445D01*
X123102654Y-118110446D01*
X123102658Y-118110450D01*
X123215694Y-118168045D01*
X123215698Y-118168047D01*
X123309475Y-118182899D01*
X123309481Y-118182900D01*
X124372518Y-118182899D01*
X124466304Y-118168046D01*
X124579342Y-118110450D01*
X124669050Y-118020742D01*
X124726646Y-117907704D01*
X124726646Y-117907701D01*
X124730515Y-117900109D01*
X124778490Y-117849313D01*
X124846311Y-117832518D01*
X124912446Y-117855055D01*
X124951485Y-117900109D01*
X124955353Y-117907701D01*
X124955354Y-117907704D01*
X125012950Y-118020742D01*
X125012952Y-118020744D01*
X125012954Y-118020747D01*
X125102652Y-118110445D01*
X125102654Y-118110446D01*
X125102658Y-118110450D01*
X125215694Y-118168045D01*
X125215698Y-118168047D01*
X125309475Y-118182899D01*
X125309481Y-118182900D01*
X126372518Y-118182899D01*
X126466304Y-118168046D01*
X126579342Y-118110450D01*
X126669050Y-118020742D01*
X126726646Y-117907704D01*
X126726646Y-117907702D01*
X126726647Y-117907701D01*
X126740473Y-117820403D01*
X126740474Y-117820396D01*
X129115435Y-117820396D01*
X129115435Y-117820403D01*
X129135630Y-117999649D01*
X129135631Y-117999654D01*
X129195211Y-118169923D01*
X129291184Y-118322662D01*
X129418738Y-118450216D01*
X129571478Y-118546189D01*
X129741745Y-118605768D01*
X129741750Y-118605769D01*
X129920996Y-118625965D01*
X129921000Y-118625965D01*
X129921004Y-118625965D01*
X130100249Y-118605769D01*
X130100252Y-118605768D01*
X130100255Y-118605768D01*
X130270522Y-118546189D01*
X130423262Y-118450216D01*
X130550816Y-118322662D01*
X130646789Y-118169922D01*
X130706368Y-117999655D01*
X130706369Y-117999649D01*
X130726565Y-117820403D01*
X130726565Y-117820396D01*
X130706369Y-117641150D01*
X130706368Y-117641145D01*
X130646788Y-117470876D01*
X130550815Y-117318137D01*
X130423262Y-117190584D01*
X130270523Y-117094611D01*
X130100254Y-117035031D01*
X130100249Y-117035030D01*
X129921004Y-117014835D01*
X129920996Y-117014835D01*
X129741750Y-117035030D01*
X129741745Y-117035031D01*
X129571476Y-117094611D01*
X129418737Y-117190584D01*
X129291184Y-117318137D01*
X129195211Y-117470876D01*
X129135631Y-117641145D01*
X129135630Y-117641150D01*
X129115435Y-117820396D01*
X126740474Y-117820396D01*
X126741500Y-117813919D01*
X126741499Y-115000882D01*
X126726646Y-114907096D01*
X126669050Y-114794058D01*
X126669046Y-114794054D01*
X126669045Y-114794052D01*
X126579347Y-114704354D01*
X126579344Y-114704352D01*
X126579342Y-114704350D01*
X126502517Y-114665205D01*
X126466301Y-114646752D01*
X126372524Y-114631900D01*
X126372519Y-114631900D01*
X126301300Y-114631900D01*
X126234261Y-114612215D01*
X126188506Y-114559411D01*
X126177300Y-114507900D01*
X126177300Y-114236067D01*
X126196307Y-114170094D01*
X126252588Y-114080524D01*
X126312168Y-113910254D01*
X126312169Y-113910249D01*
X126332365Y-113731003D01*
X126332365Y-113730996D01*
X126312169Y-113551750D01*
X126312168Y-113551745D01*
X126252588Y-113381476D01*
X126156615Y-113228737D01*
X126029062Y-113101184D01*
X125876323Y-113005211D01*
X125706054Y-112945631D01*
X125706049Y-112945630D01*
X125526804Y-112925435D01*
X125526796Y-112925435D01*
X125347550Y-112945630D01*
X125347545Y-112945631D01*
X125177276Y-113005211D01*
X125024537Y-113101184D01*
X124896984Y-113228737D01*
X124801011Y-113381476D01*
X124741431Y-113551745D01*
X124741430Y-113551750D01*
X124721235Y-113730996D01*
X124721235Y-113731003D01*
X124741430Y-113910249D01*
X124741431Y-113910254D01*
X124801011Y-114080524D01*
X124857293Y-114170094D01*
X124876300Y-114236067D01*
X124876300Y-114701945D01*
X124856615Y-114768984D01*
X124803811Y-114814739D01*
X124734653Y-114824683D01*
X124671097Y-114795658D01*
X124664619Y-114789626D01*
X124579347Y-114704354D01*
X124579344Y-114704352D01*
X124579342Y-114704350D01*
X124502517Y-114665205D01*
X124466301Y-114646752D01*
X124372524Y-114631900D01*
X123309482Y-114631900D01*
X123228519Y-114644723D01*
X123215696Y-114646754D01*
X123102658Y-114704350D01*
X123102657Y-114704351D01*
X123102652Y-114704354D01*
X123012954Y-114794052D01*
X123012951Y-114794057D01*
X123012950Y-114794058D01*
X122997346Y-114824683D01*
X122955352Y-114907098D01*
X122940500Y-115000875D01*
X121565113Y-115000875D01*
X121716800Y-114198400D01*
X124180600Y-112242600D01*
X127254000Y-112496600D01*
G37*
%TD.AperFunction*%
%TD*%
%TA.AperFunction,Conductor*%
%TO.N,GND*%
G36*
X161996181Y-116399312D02*
G01*
X162029666Y-116460635D01*
X162032500Y-116486993D01*
X162032500Y-117189860D01*
X162012815Y-117256899D01*
X161996181Y-117277541D01*
X161930184Y-117343537D01*
X161834211Y-117496276D01*
X161774631Y-117666545D01*
X161774630Y-117666550D01*
X161754435Y-117845796D01*
X161754435Y-117845803D01*
X161774630Y-118025049D01*
X161774631Y-118025054D01*
X161834211Y-118195323D01*
X161891503Y-118286502D01*
X161930184Y-118348062D01*
X162057738Y-118475616D01*
X162210478Y-118571589D01*
X162380745Y-118631168D01*
X162380750Y-118631169D01*
X162559996Y-118651365D01*
X162560000Y-118651365D01*
X162560004Y-118651365D01*
X162739249Y-118631169D01*
X162739252Y-118631168D01*
X162739255Y-118631168D01*
X162909522Y-118571589D01*
X163026712Y-118497952D01*
X160553400Y-122072400D01*
X159639000Y-124434600D01*
X158534205Y-124434600D01*
X158536879Y-124432843D01*
X158553615Y-124428987D01*
X158622704Y-124418046D01*
X158735742Y-124360450D01*
X158825450Y-124270742D01*
X158883046Y-124157704D01*
X158883046Y-124157702D01*
X158883047Y-124157701D01*
X158897899Y-124063924D01*
X158897900Y-124063919D01*
X158897899Y-123563829D01*
X158917583Y-123496791D01*
X158970387Y-123451036D01*
X158994311Y-123442938D01*
X158995051Y-123442768D01*
X158995055Y-123442768D01*
X159165322Y-123383189D01*
X159318062Y-123287216D01*
X159445616Y-123159662D01*
X159541589Y-123006922D01*
X159601168Y-122836655D01*
X159610154Y-122756903D01*
X159621365Y-122657403D01*
X159621365Y-122657396D01*
X159601169Y-122478150D01*
X159601168Y-122478145D01*
X159541588Y-122307876D01*
X159445615Y-122155137D01*
X159318062Y-122027584D01*
X159165321Y-121931610D01*
X159072996Y-121899304D01*
X158995055Y-121872032D01*
X158995052Y-121872031D01*
X158995042Y-121872028D01*
X158994284Y-121871855D01*
X158993844Y-121871609D01*
X158988483Y-121869733D01*
X158988811Y-121868792D01*
X158933312Y-121837735D01*
X158900465Y-121776067D01*
X158897899Y-121750969D01*
X158897899Y-121250882D01*
X158897898Y-121250875D01*
X158883046Y-121157096D01*
X158825450Y-121044058D01*
X158825446Y-121044054D01*
X158825445Y-121044052D01*
X158735747Y-120954354D01*
X158735744Y-120954352D01*
X158735742Y-120954350D01*
X158658917Y-120915205D01*
X158622701Y-120896752D01*
X158528924Y-120881900D01*
X157465882Y-120881900D01*
X157384919Y-120894723D01*
X157372096Y-120896754D01*
X157259058Y-120954350D01*
X157259057Y-120954351D01*
X157259052Y-120954354D01*
X157169354Y-121044052D01*
X157169351Y-121044057D01*
X157111752Y-121157098D01*
X157096900Y-121250875D01*
X157096900Y-124063917D01*
X157105440Y-124117836D01*
X157111754Y-124157704D01*
X157169350Y-124270742D01*
X157169352Y-124270744D01*
X157169354Y-124270747D01*
X157259052Y-124360445D01*
X157259054Y-124360446D01*
X157259058Y-124360450D01*
X157361408Y-124412600D01*
X157372098Y-124418047D01*
X157465875Y-124432899D01*
X157465881Y-124432900D01*
X157546720Y-124432899D01*
X157552510Y-124434600D01*
X154101800Y-124434600D01*
X153593800Y-121437400D01*
X153162000Y-118491000D01*
X153821719Y-115000875D01*
X155096900Y-115000875D01*
X155096900Y-117813917D01*
X155103416Y-117855055D01*
X155111754Y-117907704D01*
X155169350Y-118020742D01*
X155169352Y-118020744D01*
X155169354Y-118020747D01*
X155259052Y-118110445D01*
X155259054Y-118110446D01*
X155259058Y-118110450D01*
X155372094Y-118168045D01*
X155372098Y-118168047D01*
X155465875Y-118182899D01*
X155465881Y-118182900D01*
X156528918Y-118182899D01*
X156622704Y-118168046D01*
X156735742Y-118110450D01*
X156825450Y-118020742D01*
X156883046Y-117907704D01*
X156883046Y-117907701D01*
X156886915Y-117900109D01*
X156934890Y-117849313D01*
X157002711Y-117832518D01*
X157068846Y-117855055D01*
X157107885Y-117900109D01*
X157111753Y-117907701D01*
X157111754Y-117907704D01*
X157169350Y-118020742D01*
X157169352Y-118020744D01*
X157169354Y-118020747D01*
X157259052Y-118110445D01*
X157259054Y-118110446D01*
X157259058Y-118110450D01*
X157372094Y-118168045D01*
X157372098Y-118168047D01*
X157465875Y-118182899D01*
X157465881Y-118182900D01*
X158528918Y-118182899D01*
X158622704Y-118168046D01*
X158735742Y-118110450D01*
X158825450Y-118020742D01*
X158883046Y-117907704D01*
X158883046Y-117907702D01*
X158883047Y-117907701D01*
X158897899Y-117813924D01*
X158897900Y-117813919D01*
X158897899Y-115000882D01*
X158883046Y-114907096D01*
X158825450Y-114794058D01*
X158825446Y-114794054D01*
X158825445Y-114794052D01*
X158735747Y-114704354D01*
X158735744Y-114704352D01*
X158735742Y-114704350D01*
X158658917Y-114665205D01*
X158622701Y-114646752D01*
X158528924Y-114631900D01*
X158528919Y-114631900D01*
X158521900Y-114631900D01*
X158454861Y-114612215D01*
X158409106Y-114559411D01*
X158397900Y-114507900D01*
X158397900Y-114312267D01*
X158416907Y-114246294D01*
X158473188Y-114156724D01*
X158532768Y-113986454D01*
X158532769Y-113986449D01*
X158552965Y-113807203D01*
X158552965Y-113807196D01*
X158532769Y-113627950D01*
X158532768Y-113627945D01*
X158473188Y-113457676D01*
X158377215Y-113304937D01*
X158249662Y-113177384D01*
X158096923Y-113081411D01*
X157926654Y-113021831D01*
X157926649Y-113021830D01*
X157747404Y-113001635D01*
X157747396Y-113001635D01*
X157568150Y-113021830D01*
X157568145Y-113021831D01*
X157397876Y-113081411D01*
X157245137Y-113177384D01*
X157117584Y-113304937D01*
X157021611Y-113457676D01*
X156962031Y-113627945D01*
X156962030Y-113627950D01*
X156941835Y-113807196D01*
X156941835Y-113807203D01*
X156962030Y-113986449D01*
X156962031Y-113986454D01*
X157021611Y-114156724D01*
X157077893Y-114246294D01*
X157096900Y-114312267D01*
X157096900Y-114810312D01*
X157077215Y-114877351D01*
X157024411Y-114923106D01*
X156955253Y-114933050D01*
X156891697Y-114904025D01*
X156862417Y-114866609D01*
X156825450Y-114794058D01*
X156825446Y-114794054D01*
X156825445Y-114794052D01*
X156735747Y-114704354D01*
X156735744Y-114704352D01*
X156735742Y-114704350D01*
X156658917Y-114665205D01*
X156622701Y-114646752D01*
X156528924Y-114631900D01*
X155465882Y-114631900D01*
X155384919Y-114644723D01*
X155372096Y-114646754D01*
X155259058Y-114704350D01*
X155259057Y-114704351D01*
X155259052Y-114704354D01*
X155169354Y-114794052D01*
X155169351Y-114794057D01*
X155111752Y-114907098D01*
X155096900Y-115000875D01*
X153821719Y-115000875D01*
X153949400Y-114325400D01*
X156057600Y-112953800D01*
X158496076Y-112899207D01*
X161996181Y-116399312D01*
G37*
%TD.AperFunction*%
%TA.AperFunction,Conductor*%
G36*
X164744400Y-113461800D02*
G01*
X164261800Y-116713000D01*
X163336607Y-118050093D01*
X163345366Y-118025062D01*
X163345369Y-118025049D01*
X163365565Y-117845803D01*
X163365565Y-117845796D01*
X163345369Y-117666550D01*
X163345368Y-117666545D01*
X163285788Y-117496276D01*
X163189815Y-117343537D01*
X163123819Y-117277541D01*
X163090334Y-117216218D01*
X163087500Y-117189860D01*
X163087500Y-116147689D01*
X163087500Y-116147687D01*
X163051552Y-116013527D01*
X162982105Y-115893241D01*
X162883893Y-115795029D01*
X162883892Y-115795028D01*
X160029280Y-112940416D01*
X164744400Y-113461800D01*
G37*
%TD.AperFunction*%
%TD*%
%TA.AperFunction,Conductor*%
%TO.N,GND*%
G36*
X141266522Y-113039337D02*
G01*
X141218879Y-113056009D01*
X141066137Y-113151984D01*
X140938584Y-113279537D01*
X140842611Y-113432276D01*
X140783031Y-113602545D01*
X140783030Y-113602550D01*
X140762835Y-113781796D01*
X140762835Y-113781803D01*
X140783030Y-113961049D01*
X140783031Y-113961054D01*
X140842611Y-114131324D01*
X140898893Y-114220894D01*
X140917900Y-114286867D01*
X140917900Y-114762031D01*
X140898215Y-114829070D01*
X140845411Y-114874825D01*
X140776253Y-114884769D01*
X140712697Y-114855744D01*
X140683416Y-114818327D01*
X140679127Y-114809909D01*
X140671050Y-114794058D01*
X140671047Y-114794055D01*
X140671045Y-114794052D01*
X140581347Y-114704354D01*
X140581344Y-114704352D01*
X140581342Y-114704350D01*
X140504517Y-114665205D01*
X140468301Y-114646752D01*
X140374524Y-114631900D01*
X139311482Y-114631900D01*
X139230519Y-114644723D01*
X139217696Y-114646754D01*
X139104658Y-114704350D01*
X139104657Y-114704351D01*
X139104652Y-114704354D01*
X139014954Y-114794052D01*
X139014951Y-114794057D01*
X139014950Y-114794058D01*
X139002584Y-114818327D01*
X138957352Y-114907098D01*
X138942500Y-115000875D01*
X138942500Y-117813917D01*
X138949016Y-117855055D01*
X138957354Y-117907704D01*
X139014950Y-118020742D01*
X139014952Y-118020744D01*
X139014954Y-118020747D01*
X139104652Y-118110445D01*
X139104654Y-118110446D01*
X139104658Y-118110450D01*
X139217694Y-118168045D01*
X139217698Y-118168047D01*
X139311475Y-118182899D01*
X139311481Y-118182900D01*
X140374518Y-118182899D01*
X140468304Y-118168046D01*
X140581342Y-118110450D01*
X140671050Y-118020742D01*
X140728646Y-117907704D01*
X140728646Y-117907701D01*
X140732515Y-117900109D01*
X140780490Y-117849313D01*
X140848311Y-117832518D01*
X140914446Y-117855055D01*
X140953485Y-117900109D01*
X140957353Y-117907701D01*
X140957354Y-117907704D01*
X141014950Y-118020742D01*
X141014952Y-118020744D01*
X141014954Y-118020747D01*
X141104652Y-118110445D01*
X141104654Y-118110446D01*
X141104658Y-118110450D01*
X141217694Y-118168045D01*
X141217698Y-118168047D01*
X141311475Y-118182899D01*
X141311481Y-118182900D01*
X142374518Y-118182899D01*
X142468304Y-118168046D01*
X142581342Y-118110450D01*
X142671050Y-118020742D01*
X142728646Y-117907704D01*
X142728646Y-117907702D01*
X142728647Y-117907701D01*
X142740554Y-117832518D01*
X142740858Y-117830596D01*
X145219035Y-117830596D01*
X145219035Y-117830603D01*
X145239230Y-118009849D01*
X145239231Y-118009854D01*
X145298811Y-118180123D01*
X145394784Y-118332862D01*
X145522338Y-118460416D01*
X145675078Y-118556389D01*
X145845345Y-118615968D01*
X145845350Y-118615969D01*
X146024596Y-118636165D01*
X146024600Y-118636165D01*
X146024604Y-118636165D01*
X146203849Y-118615969D01*
X146203852Y-118615968D01*
X146203855Y-118615968D01*
X146374122Y-118556389D01*
X146526862Y-118460416D01*
X146654416Y-118332862D01*
X146750389Y-118180122D01*
X146809968Y-118009855D01*
X146821478Y-117907701D01*
X146830165Y-117830603D01*
X146830165Y-117830596D01*
X146809969Y-117651350D01*
X146809968Y-117651345D01*
X146750388Y-117481076D01*
X146654415Y-117328337D01*
X146526862Y-117200784D01*
X146374123Y-117104811D01*
X146203854Y-117045231D01*
X146203849Y-117045230D01*
X146024604Y-117025035D01*
X146024596Y-117025035D01*
X145845350Y-117045230D01*
X145845345Y-117045231D01*
X145675076Y-117104811D01*
X145522337Y-117200784D01*
X145394784Y-117328337D01*
X145298811Y-117481076D01*
X145239231Y-117651345D01*
X145239230Y-117651350D01*
X145219035Y-117830596D01*
X142740858Y-117830596D01*
X142743500Y-117813919D01*
X142743499Y-115000882D01*
X142728646Y-114907096D01*
X142671050Y-114794058D01*
X142671046Y-114794054D01*
X142671045Y-114794052D01*
X142581347Y-114704354D01*
X142581344Y-114704352D01*
X142581342Y-114704350D01*
X142504517Y-114665205D01*
X142468301Y-114646752D01*
X142374524Y-114631900D01*
X142374519Y-114631900D01*
X142342900Y-114631900D01*
X142275861Y-114612215D01*
X142230106Y-114559411D01*
X142218900Y-114507900D01*
X142218900Y-114286867D01*
X142237907Y-114220894D01*
X142294188Y-114131324D01*
X142353768Y-113961054D01*
X142353769Y-113961049D01*
X142373965Y-113781803D01*
X142373965Y-113781796D01*
X142353769Y-113602550D01*
X142353768Y-113602545D01*
X142294188Y-113432276D01*
X142198215Y-113279537D01*
X142070662Y-113151984D01*
X141917920Y-113056009D01*
X141882330Y-113043555D01*
X143611600Y-113055400D01*
X148590000Y-113512600D01*
X148818600Y-119075200D01*
X143103600Y-124510800D01*
X141554200Y-124561600D01*
X139659699Y-124521575D01*
X139658925Y-124506402D01*
X139661018Y-124487833D01*
X139667365Y-124431500D01*
X139666550Y-124424265D01*
X139647169Y-124252250D01*
X139647168Y-124252245D01*
X139614086Y-124157702D01*
X139587589Y-124081978D01*
X139491616Y-123929238D01*
X139364062Y-123801684D01*
X139328572Y-123779384D01*
X139211323Y-123705711D01*
X139041054Y-123646131D01*
X139041049Y-123646130D01*
X138861804Y-123625935D01*
X138861796Y-123625935D01*
X138682550Y-123646130D01*
X138682545Y-123646131D01*
X138512276Y-123705711D01*
X138359537Y-123801684D01*
X138231984Y-123929237D01*
X138136011Y-124081976D01*
X138076431Y-124252245D01*
X138076430Y-124252250D01*
X138056235Y-124431496D01*
X138056235Y-124431504D01*
X138062581Y-124487833D01*
X137947400Y-124485400D01*
X137439400Y-121488200D01*
X137404620Y-121250875D01*
X140942500Y-121250875D01*
X140942500Y-124063917D01*
X140945361Y-124081978D01*
X140957354Y-124157704D01*
X141014950Y-124270742D01*
X141014952Y-124270744D01*
X141014954Y-124270747D01*
X141104652Y-124360445D01*
X141104654Y-124360446D01*
X141104658Y-124360450D01*
X141190263Y-124404068D01*
X141217698Y-124418047D01*
X141311475Y-124432899D01*
X141311481Y-124432900D01*
X142374518Y-124432899D01*
X142468304Y-124418046D01*
X142581342Y-124360450D01*
X142671050Y-124270742D01*
X142728646Y-124157704D01*
X142728646Y-124157702D01*
X142728647Y-124157701D01*
X142743499Y-124063924D01*
X142743500Y-124063919D01*
X142743499Y-121250882D01*
X142728646Y-121157096D01*
X142671050Y-121044058D01*
X142671046Y-121044054D01*
X142671045Y-121044052D01*
X142581347Y-120954354D01*
X142581344Y-120954352D01*
X142581342Y-120954350D01*
X142504517Y-120915205D01*
X142468301Y-120896752D01*
X142374524Y-120881900D01*
X141311482Y-120881900D01*
X141230519Y-120894723D01*
X141217696Y-120896754D01*
X141104658Y-120954350D01*
X141104657Y-120954351D01*
X141104652Y-120954354D01*
X141014954Y-121044052D01*
X141014951Y-121044057D01*
X140957352Y-121157098D01*
X140942500Y-121250875D01*
X137404620Y-121250875D01*
X137007600Y-118541800D01*
X137795000Y-114376200D01*
X139903200Y-113030000D01*
X141266522Y-113039337D01*
G37*
%TD.AperFunction*%
%TD*%
%TA.AperFunction,Conductor*%
%TO.N,GND*%
G36*
X146999808Y-131677885D02*
G01*
X147045563Y-131730689D01*
X147055507Y-131799847D01*
X147042109Y-131838556D01*
X147042174Y-131838583D01*
X147041722Y-131839672D01*
X147040155Y-131844202D01*
X147039063Y-131846092D01*
X146978556Y-131992169D01*
X146978555Y-131992171D01*
X146957918Y-132148930D01*
X146957918Y-132148933D01*
X146978555Y-132305692D01*
X146978556Y-132305694D01*
X147030558Y-132431239D01*
X147039064Y-132451773D01*
X147135318Y-132577214D01*
X147260759Y-132673468D01*
X147406838Y-132733976D01*
X147455284Y-132740354D01*
X147519179Y-132768618D01*
X147557651Y-132826942D01*
X147563099Y-132863292D01*
X147563099Y-133125168D01*
X147543414Y-133192207D01*
X147526784Y-133212844D01*
X147441745Y-133297884D01*
X147370248Y-133369381D01*
X147308925Y-133402865D01*
X147239233Y-133397881D01*
X147183300Y-133356009D01*
X147159629Y-133297886D01*
X147140168Y-133150064D01*
X147079660Y-133003985D01*
X146983406Y-132878544D01*
X146857965Y-132782290D01*
X146781212Y-132750498D01*
X146711886Y-132721782D01*
X146711884Y-132721781D01*
X146555125Y-132701144D01*
X146555123Y-132701144D01*
X146398363Y-132721781D01*
X146398361Y-132721782D01*
X146252284Y-132782289D01*
X146126842Y-132878544D01*
X146030587Y-133003986D01*
X145970983Y-133147883D01*
X145970080Y-133150064D01*
X145968336Y-133163313D01*
X145955491Y-133260874D01*
X145927224Y-133324771D01*
X145868899Y-133363241D01*
X145816369Y-133367627D01*
X145808704Y-133366618D01*
X145808699Y-133366618D01*
X145651939Y-133387255D01*
X145651937Y-133387256D01*
X145505860Y-133447763D01*
X145380418Y-133544018D01*
X145284163Y-133669460D01*
X145223656Y-133815537D01*
X145223655Y-133815539D01*
X145203018Y-133972298D01*
X145203018Y-133972301D01*
X145223655Y-134129060D01*
X145223656Y-134129062D01*
X145282010Y-134269942D01*
X145284164Y-134275141D01*
X145380418Y-134400582D01*
X145505859Y-134496836D01*
X145651938Y-134557344D01*
X145808700Y-134577982D01*
X145852993Y-134572150D01*
X145922025Y-134582915D01*
X145974282Y-134629294D01*
X145993168Y-134696562D01*
X145972689Y-134763363D01*
X145956858Y-134782770D01*
X145182848Y-135556781D01*
X145121525Y-135590266D01*
X145095167Y-135593100D01*
X143492129Y-135593100D01*
X143425090Y-135573415D01*
X143379335Y-135520611D01*
X143369391Y-135451453D01*
X143393751Y-135393615D01*
X143471276Y-135292584D01*
X143531784Y-135146505D01*
X143552422Y-134989743D01*
X143531784Y-134832981D01*
X143471276Y-134686902D01*
X143375022Y-134561461D01*
X143249581Y-134465207D01*
X143243784Y-134462806D01*
X143103502Y-134404699D01*
X143103500Y-134404698D01*
X142946741Y-134384061D01*
X142946739Y-134384061D01*
X142844515Y-134397519D01*
X142775480Y-134386753D01*
X142723224Y-134340373D01*
X142705391Y-134290764D01*
X142703334Y-134275141D01*
X142703089Y-134273276D01*
X142642581Y-134127197D01*
X142546327Y-134001756D01*
X142546324Y-134001753D01*
X142546322Y-134001751D01*
X142543919Y-133999348D01*
X142542539Y-133996820D01*
X142541379Y-133995309D01*
X142541614Y-133995128D01*
X142510434Y-133938025D01*
X142515418Y-133868333D01*
X142533221Y-133836185D01*
X142612136Y-133733341D01*
X142672644Y-133587262D01*
X142693282Y-133430500D01*
X142693261Y-133430343D01*
X142672644Y-133273739D01*
X142672644Y-133273738D01*
X142612136Y-133127659D01*
X142515882Y-133002218D01*
X142390441Y-132905964D01*
X142356707Y-132891991D01*
X142244362Y-132845456D01*
X142244360Y-132845455D01*
X142142154Y-132832000D01*
X142078257Y-132803733D01*
X142039786Y-132745409D01*
X142038955Y-132675544D01*
X142076027Y-132616321D01*
X142082853Y-132610685D01*
X142102090Y-132595924D01*
X142185682Y-132531782D01*
X142185682Y-132531781D01*
X142192130Y-132526834D01*
X142193892Y-132529131D01*
X142242968Y-132502334D01*
X142269326Y-132499500D01*
X144243743Y-132499500D01*
X144243744Y-132499500D01*
X144340775Y-132459308D01*
X145105565Y-131694519D01*
X145166888Y-131661034D01*
X145193246Y-131658200D01*
X146932769Y-131658200D01*
X146999808Y-131677885D01*
G37*
%TD.AperFunction*%
%TA.AperFunction,Conductor*%
G36*
X157541825Y-132747785D02*
G01*
X157562467Y-132764419D01*
X158161030Y-133362982D01*
X158194515Y-133424305D01*
X158189531Y-133493997D01*
X158147659Y-133549930D01*
X158089535Y-133573602D01*
X158048599Y-133578991D01*
X158034438Y-133580856D01*
X158034437Y-133580856D01*
X157888360Y-133641363D01*
X157762916Y-133737619D01*
X157666664Y-133863058D01*
X157666662Y-133863061D01*
X157652003Y-133898453D01*
X157608162Y-133952856D01*
X157541868Y-133974921D01*
X157537442Y-133975000D01*
X152873237Y-133975000D01*
X152806198Y-133955315D01*
X152760443Y-133902511D01*
X152750499Y-133833353D01*
X152779524Y-133769797D01*
X152798955Y-133753739D01*
X152797992Y-133752484D01*
X152804439Y-133747536D01*
X152804441Y-133747536D01*
X152929882Y-133651282D01*
X153026136Y-133525841D01*
X153086644Y-133379762D01*
X153107282Y-133223000D01*
X153105740Y-133211290D01*
X153086644Y-133066239D01*
X153086644Y-133066238D01*
X153026136Y-132920159D01*
X153026133Y-132920155D01*
X153022637Y-132914099D01*
X153006165Y-132846199D01*
X153029018Y-132780172D01*
X153083940Y-132736982D01*
X153130025Y-132728100D01*
X157474786Y-132728100D01*
X157541825Y-132747785D01*
G37*
%TD.AperFunction*%
%TA.AperFunction,Conductor*%
G36*
X169605161Y-122960785D02*
G01*
X169650916Y-123013589D01*
X169660860Y-123082747D01*
X169652683Y-123112552D01*
X169623157Y-123183834D01*
X169623155Y-123183839D01*
X169602518Y-123340598D01*
X169602518Y-123340601D01*
X169623155Y-123497360D01*
X169623156Y-123497362D01*
X169677615Y-123628839D01*
X169683664Y-123643441D01*
X169761998Y-123745528D01*
X169779919Y-123768883D01*
X169788493Y-123775462D01*
X169850830Y-123823295D01*
X169892033Y-123879722D01*
X169896188Y-123949468D01*
X169861976Y-124010388D01*
X169850832Y-124020045D01*
X169802519Y-124057117D01*
X169802518Y-124057118D01*
X169764734Y-124106359D01*
X169706263Y-124182560D01*
X169645756Y-124328637D01*
X169645755Y-124328639D01*
X169625118Y-124485398D01*
X169625118Y-124485401D01*
X169645755Y-124642160D01*
X169645756Y-124642162D01*
X169677930Y-124719838D01*
X169706264Y-124788241D01*
X169802518Y-124913682D01*
X169927959Y-125009936D01*
X170074038Y-125070444D01*
X170152419Y-125080763D01*
X170230799Y-125091082D01*
X170230800Y-125091082D01*
X170230801Y-125091082D01*
X170283054Y-125084202D01*
X170387562Y-125070444D01*
X170533641Y-125009936D01*
X170659082Y-124913682D01*
X170712324Y-124844294D01*
X170768752Y-124803092D01*
X170838498Y-124798937D01*
X170899418Y-124833149D01*
X170932171Y-124894866D01*
X170934700Y-124919781D01*
X170934700Y-125845985D01*
X170915015Y-125913024D01*
X170898381Y-125933666D01*
X165661967Y-131170081D01*
X165600644Y-131203566D01*
X165574286Y-131206400D01*
X164387086Y-131206400D01*
X164340908Y-131225528D01*
X164294730Y-131244656D01*
X164292609Y-131245534D01*
X164290055Y-131246592D01*
X163482139Y-132054507D01*
X163420816Y-132087992D01*
X163351124Y-132083008D01*
X163295191Y-132041136D01*
X163279897Y-132014278D01*
X163276368Y-132005759D01*
X163250370Y-131942993D01*
X163154116Y-131817552D01*
X163028675Y-131721298D01*
X162882596Y-131660790D01*
X162882594Y-131660789D01*
X162725835Y-131640152D01*
X162725833Y-131640152D01*
X162581158Y-131659198D01*
X162512122Y-131648432D01*
X162477292Y-131623940D01*
X161917319Y-131063967D01*
X161883834Y-131002644D01*
X161881000Y-130976286D01*
X161881000Y-127929640D01*
X161880999Y-127929637D01*
X161867873Y-127897948D01*
X161866152Y-127893792D01*
X161840809Y-127832608D01*
X161590319Y-127582118D01*
X161556834Y-127520795D01*
X161554000Y-127494437D01*
X161554000Y-125513533D01*
X161573685Y-125446494D01*
X161626489Y-125400739D01*
X161695647Y-125390795D01*
X161753485Y-125415157D01*
X161772176Y-125429498D01*
X161796203Y-125447936D01*
X161796204Y-125447936D01*
X161796205Y-125447937D01*
X161942284Y-125508445D01*
X162020665Y-125518764D01*
X162099045Y-125529083D01*
X162099046Y-125529083D01*
X162099047Y-125529083D01*
X162151300Y-125522203D01*
X162255808Y-125508445D01*
X162401887Y-125447937D01*
X162527328Y-125351683D01*
X162623582Y-125226242D01*
X162626922Y-125218177D01*
X162670760Y-125163774D01*
X162694035Y-125151065D01*
X162701648Y-125147911D01*
X162703343Y-125147209D01*
X163847882Y-124002670D01*
X163909203Y-123969187D01*
X163978895Y-123974171D01*
X164034828Y-124016043D01*
X164051644Y-124050660D01*
X164052146Y-124050453D01*
X164055255Y-124057960D01*
X164055256Y-124057962D01*
X164084540Y-124128659D01*
X164116036Y-124204698D01*
X164123505Y-124274168D01*
X164092230Y-124336647D01*
X164076962Y-124350527D01*
X163949518Y-124448318D01*
X163853263Y-124573760D01*
X163792756Y-124719837D01*
X163792755Y-124719839D01*
X163772118Y-124876598D01*
X163772118Y-124876601D01*
X163792755Y-125033360D01*
X163792756Y-125033362D01*
X163846774Y-125163774D01*
X163853264Y-125179441D01*
X163949518Y-125304882D01*
X164074959Y-125401136D01*
X164221038Y-125461644D01*
X164299419Y-125471963D01*
X164377799Y-125482282D01*
X164377800Y-125482282D01*
X164377801Y-125482282D01*
X164430054Y-125475402D01*
X164534562Y-125461644D01*
X164680641Y-125401136D01*
X164806082Y-125304882D01*
X164894914Y-125189112D01*
X164951342Y-125147911D01*
X164993290Y-125140600D01*
X166869512Y-125140600D01*
X166869513Y-125140600D01*
X166966544Y-125100408D01*
X169089534Y-122977419D01*
X169150857Y-122943934D01*
X169177215Y-122941100D01*
X169538122Y-122941100D01*
X169605161Y-122960785D01*
G37*
%TD.AperFunction*%
%TA.AperFunction,Conductor*%
G36*
X167887924Y-123219685D02*
G01*
X167933679Y-123272489D01*
X167943623Y-123341647D01*
X167914598Y-123405203D01*
X167908566Y-123411681D01*
X166743967Y-124576281D01*
X166682644Y-124609766D01*
X166656286Y-124612600D01*
X165064907Y-124612600D01*
X164997868Y-124592915D01*
X164952113Y-124540111D01*
X164942169Y-124470953D01*
X164971194Y-124407397D01*
X164989421Y-124390224D01*
X165039152Y-124352064D01*
X165068582Y-124329482D01*
X165164836Y-124204041D01*
X165225344Y-124057962D01*
X165245982Y-123901200D01*
X165243154Y-123879722D01*
X165226743Y-123755066D01*
X165225344Y-123744438D01*
X165164836Y-123598359D01*
X165068582Y-123472918D01*
X165068580Y-123472917D01*
X165068580Y-123472916D01*
X165002714Y-123422376D01*
X164961511Y-123365948D01*
X164957356Y-123296202D01*
X164991568Y-123235282D01*
X165053286Y-123202529D01*
X165078200Y-123200000D01*
X167820885Y-123200000D01*
X167887924Y-123219685D01*
G37*
%TD.AperFunction*%
%TA.AperFunction,Conductor*%
G36*
X169936686Y-118749285D02*
G01*
X169945134Y-118755225D01*
X169959808Y-118766485D01*
X169958802Y-118767795D01*
X170000406Y-118811428D01*
X170013630Y-118880035D01*
X169987662Y-118944900D01*
X169937644Y-118982810D01*
X169877160Y-119007863D01*
X169751718Y-119104118D01*
X169662886Y-119219887D01*
X169606458Y-119261089D01*
X169564510Y-119268400D01*
X166725356Y-119268400D01*
X166696938Y-119280169D01*
X166696936Y-119280171D01*
X166677606Y-119288178D01*
X166628322Y-119308592D01*
X163499556Y-122437361D01*
X163425293Y-122511623D01*
X163385100Y-122608655D01*
X163385100Y-123667385D01*
X163365415Y-123734424D01*
X163348781Y-123755066D01*
X162650280Y-124453566D01*
X162588957Y-124487051D01*
X162519265Y-124482067D01*
X162487113Y-124464261D01*
X162401888Y-124398865D01*
X162255808Y-124338357D01*
X162255806Y-124338356D01*
X162099047Y-124317719D01*
X162099045Y-124317719D01*
X161942285Y-124338356D01*
X161942283Y-124338357D01*
X161796203Y-124398865D01*
X161753486Y-124431644D01*
X161688317Y-124456838D01*
X161619872Y-124442800D01*
X161569883Y-124393986D01*
X161554000Y-124333268D01*
X161554000Y-123899559D01*
X161573685Y-123832520D01*
X161590319Y-123811878D01*
X161715866Y-123686331D01*
X161850506Y-123551690D01*
X161911827Y-123518207D01*
X161954369Y-123516434D01*
X162029871Y-123526374D01*
X162099045Y-123535481D01*
X162099046Y-123535481D01*
X162099047Y-123535481D01*
X162151300Y-123528601D01*
X162255808Y-123514843D01*
X162401887Y-123454335D01*
X162527328Y-123358081D01*
X162623582Y-123232640D01*
X162684090Y-123086561D01*
X162704728Y-122929799D01*
X162691562Y-122829795D01*
X162702327Y-122760761D01*
X162726817Y-122725933D01*
X166686834Y-118765919D01*
X166748157Y-118732434D01*
X166774515Y-118729600D01*
X169869647Y-118729600D01*
X169936686Y-118749285D01*
G37*
%TD.AperFunction*%
%TA.AperFunction,Conductor*%
G36*
X169631549Y-119816085D02*
G01*
X169662884Y-119844911D01*
X169751718Y-119960682D01*
X169876362Y-120056325D01*
X169917564Y-120112752D01*
X169921719Y-120182498D01*
X169887507Y-120243419D01*
X169876366Y-120253072D01*
X169751721Y-120348716D01*
X169751718Y-120348718D01*
X169655463Y-120474160D01*
X169594956Y-120620237D01*
X169594955Y-120620239D01*
X169574318Y-120776998D01*
X169574318Y-120777001D01*
X169594955Y-120933760D01*
X169594956Y-120933762D01*
X169655464Y-121079841D01*
X169751718Y-121205282D01*
X169877159Y-121301536D01*
X169877160Y-121301536D01*
X169883608Y-121306484D01*
X169881799Y-121308841D01*
X169920201Y-121349104D01*
X169933434Y-121417709D01*
X169907476Y-121482578D01*
X169885481Y-121504317D01*
X169779918Y-121585318D01*
X169691086Y-121701087D01*
X169634658Y-121742289D01*
X169592710Y-121749600D01*
X168890887Y-121749600D01*
X168862469Y-121761369D01*
X168862467Y-121761371D01*
X168828161Y-121775581D01*
X168793853Y-121789792D01*
X167947967Y-122635681D01*
X167886644Y-122669166D01*
X167860286Y-122672000D01*
X164928090Y-122672000D01*
X164861051Y-122652315D01*
X164829714Y-122623487D01*
X164801900Y-122587239D01*
X164740882Y-122507718D01*
X164615441Y-122411464D01*
X164600470Y-122405263D01*
X164544154Y-122381936D01*
X164489751Y-122338095D01*
X164467686Y-122271801D01*
X164484965Y-122204101D01*
X164503926Y-122179694D01*
X166850903Y-119832719D01*
X166912226Y-119799234D01*
X166938584Y-119796400D01*
X169564510Y-119796400D01*
X169631549Y-119816085D01*
G37*
%TD.AperFunction*%
%TA.AperFunction,Conductor*%
G36*
X175566139Y-98132385D02*
G01*
X175611894Y-98185189D01*
X175623100Y-98236700D01*
X175623100Y-157642900D01*
X175603415Y-157709939D01*
X175550611Y-157755694D01*
X175499100Y-157766900D01*
X116219900Y-157766900D01*
X116152861Y-157747215D01*
X116107106Y-157694411D01*
X116095900Y-157642900D01*
X116095900Y-154384242D01*
X121426500Y-154384242D01*
X121426500Y-154526558D01*
X121449974Y-154614162D01*
X121463334Y-154664024D01*
X121463335Y-154664027D01*
X121534489Y-154787271D01*
X121534491Y-154787274D01*
X121534492Y-154787275D01*
X121635125Y-154887908D01*
X121635126Y-154887909D01*
X121635128Y-154887910D01*
X121696750Y-154923487D01*
X121758375Y-154959066D01*
X121895842Y-154995900D01*
X121895844Y-154995900D01*
X122458156Y-154995900D01*
X122458158Y-154995900D01*
X122595625Y-154959066D01*
X122718875Y-154887908D01*
X122819508Y-154787275D01*
X122890666Y-154664025D01*
X122927500Y-154526558D01*
X122927500Y-154384242D01*
X122890666Y-154246775D01*
X122837426Y-154154560D01*
X122819510Y-154123528D01*
X122819506Y-154123523D01*
X122718876Y-154022893D01*
X122718871Y-154022889D01*
X122595627Y-153951735D01*
X122595626Y-153951734D01*
X122595625Y-153951734D01*
X122458158Y-153914900D01*
X121895842Y-153914900D01*
X121758375Y-153951734D01*
X121758372Y-153951735D01*
X121635128Y-154022889D01*
X121635123Y-154022893D01*
X121534493Y-154123523D01*
X121534489Y-154123528D01*
X121463335Y-154246772D01*
X121463334Y-154246775D01*
X121426500Y-154384242D01*
X116095900Y-154384242D01*
X116095900Y-150494998D01*
X123346318Y-150494998D01*
X123346318Y-150495001D01*
X123366955Y-150651760D01*
X123366956Y-150651762D01*
X123419993Y-150779806D01*
X123427464Y-150797841D01*
X123523718Y-150923282D01*
X123649159Y-151019536D01*
X123795238Y-151080044D01*
X123864512Y-151089164D01*
X123951999Y-151100682D01*
X123952000Y-151100682D01*
X123952001Y-151100682D01*
X123988146Y-151095923D01*
X124019818Y-151091753D01*
X124088853Y-151102518D01*
X124123685Y-151127011D01*
X124225181Y-151228507D01*
X124258666Y-151289830D01*
X124261500Y-151316188D01*
X124261500Y-153651209D01*
X124241815Y-153718248D01*
X124225181Y-153738890D01*
X124138683Y-153825388D01*
X124077360Y-153858873D01*
X124034817Y-153860646D01*
X123967001Y-153851718D01*
X123966999Y-153851718D01*
X123810239Y-153872355D01*
X123810237Y-153872356D01*
X123664160Y-153932863D01*
X123538718Y-154029118D01*
X123442463Y-154154560D01*
X123381956Y-154300637D01*
X123381955Y-154300639D01*
X123361318Y-154457398D01*
X123361318Y-154457401D01*
X123381955Y-154614160D01*
X123381956Y-154614162D01*
X123422454Y-154711934D01*
X123442464Y-154760241D01*
X123538718Y-154885682D01*
X123664159Y-154981936D01*
X123810238Y-155042444D01*
X123888619Y-155052763D01*
X123966999Y-155063082D01*
X123967000Y-155063082D01*
X123967001Y-155063082D01*
X124019254Y-155056202D01*
X124123762Y-155042444D01*
X124269841Y-154981936D01*
X124395282Y-154885682D01*
X124491536Y-154760241D01*
X124552044Y-154614162D01*
X124572682Y-154457400D01*
X124563753Y-154389581D01*
X124574518Y-154320546D01*
X124599005Y-154285720D01*
X124847465Y-154037262D01*
X124890317Y-153963039D01*
X124890318Y-153963038D01*
X124893448Y-153951359D01*
X124903334Y-153914460D01*
X124912500Y-153880253D01*
X124912500Y-151182855D01*
X124912501Y-151182842D01*
X124912501Y-151079019D01*
X124915146Y-151079019D01*
X124923889Y-151022906D01*
X124928784Y-151017388D01*
X124909584Y-151011502D01*
X124870473Y-150969990D01*
X124847467Y-150930141D01*
X124847466Y-150930140D01*
X124847465Y-150930138D01*
X124786862Y-150869535D01*
X124786861Y-150869534D01*
X124782531Y-150865204D01*
X124782520Y-150865194D01*
X124584011Y-150666685D01*
X124550526Y-150605362D01*
X124548753Y-150562818D01*
X124548817Y-150562336D01*
X124557682Y-150495000D01*
X124557603Y-150494403D01*
X124537044Y-150338239D01*
X124537044Y-150338238D01*
X124476536Y-150192159D01*
X124380282Y-150066718D01*
X124254841Y-149970464D01*
X124108762Y-149909956D01*
X124108760Y-149909955D01*
X123952001Y-149889318D01*
X123951999Y-149889318D01*
X123795239Y-149909955D01*
X123795237Y-149909956D01*
X123649160Y-149970463D01*
X123523718Y-150066718D01*
X123427463Y-150192160D01*
X123366956Y-150338237D01*
X123366955Y-150338239D01*
X123346318Y-150494998D01*
X116095900Y-150494998D01*
X116095900Y-148589998D01*
X122480118Y-148589998D01*
X122480118Y-148590001D01*
X122500755Y-148746760D01*
X122500756Y-148746762D01*
X122560452Y-148890882D01*
X122561264Y-148892841D01*
X122657518Y-149018282D01*
X122782959Y-149114536D01*
X122929038Y-149175044D01*
X122999345Y-149184300D01*
X123085799Y-149195682D01*
X123085800Y-149195682D01*
X123085801Y-149195682D01*
X123172255Y-149184300D01*
X123242562Y-149175044D01*
X123388641Y-149114536D01*
X123514082Y-149018282D01*
X123610336Y-148892841D01*
X123670844Y-148746762D01*
X123691482Y-148590000D01*
X123670844Y-148433238D01*
X123610336Y-148287159D01*
X123514082Y-148161718D01*
X123388641Y-148065464D01*
X123358666Y-148053048D01*
X123242562Y-148004956D01*
X123242560Y-148004955D01*
X123085801Y-147984318D01*
X123085799Y-147984318D01*
X122929039Y-148004955D01*
X122929037Y-148004956D01*
X122782960Y-148065463D01*
X122657518Y-148161718D01*
X122561263Y-148287160D01*
X122500756Y-148433237D01*
X122500755Y-148433239D01*
X122480118Y-148589998D01*
X116095900Y-148589998D01*
X116095900Y-146510247D01*
X125648500Y-146510247D01*
X125648500Y-149299752D01*
X125660131Y-149358229D01*
X125660132Y-149358230D01*
X125704447Y-149424552D01*
X125770769Y-149468867D01*
X125770770Y-149468868D01*
X125829247Y-149480499D01*
X125829250Y-149480500D01*
X125829252Y-149480500D01*
X126868750Y-149480500D01*
X126868751Y-149480499D01*
X126883568Y-149477552D01*
X126927229Y-149468868D01*
X126927229Y-149468867D01*
X126927231Y-149468867D01*
X126993552Y-149424552D01*
X127037867Y-149358231D01*
X127037867Y-149358229D01*
X127037868Y-149358229D01*
X127049499Y-149299752D01*
X127049500Y-149299750D01*
X127049500Y-146510249D01*
X127049499Y-146510247D01*
X127037868Y-146451770D01*
X127037867Y-146451769D01*
X126993552Y-146385447D01*
X126927230Y-146341132D01*
X126927229Y-146341131D01*
X126868752Y-146329500D01*
X126868748Y-146329500D01*
X125829252Y-146329500D01*
X125829247Y-146329500D01*
X125770770Y-146341131D01*
X125770769Y-146341132D01*
X125704447Y-146385447D01*
X125660132Y-146451769D01*
X125660131Y-146451770D01*
X125648500Y-146510247D01*
X116095900Y-146510247D01*
X116095900Y-139513014D01*
X119811800Y-142976600D01*
X122605800Y-142976600D01*
X122682000Y-143840200D01*
X125577600Y-144018000D01*
X125577600Y-140260247D01*
X125648500Y-140260247D01*
X125648500Y-143049752D01*
X125660131Y-143108229D01*
X125660132Y-143108230D01*
X125704447Y-143174552D01*
X125770769Y-143218867D01*
X125770770Y-143218868D01*
X125829247Y-143230499D01*
X125829250Y-143230500D01*
X125829252Y-143230500D01*
X126868750Y-143230500D01*
X126868751Y-143230499D01*
X126883568Y-143227552D01*
X126927229Y-143218868D01*
X126927229Y-143218867D01*
X126927231Y-143218867D01*
X126993552Y-143174552D01*
X127037867Y-143108231D01*
X127037867Y-143108229D01*
X127037868Y-143108229D01*
X127049499Y-143049752D01*
X127049500Y-143049750D01*
X127049500Y-140260249D01*
X127049499Y-140260247D01*
X127037868Y-140201770D01*
X127037867Y-140201769D01*
X126993552Y-140135447D01*
X126927230Y-140091132D01*
X126927229Y-140091131D01*
X126868752Y-140079500D01*
X126868748Y-140079500D01*
X125829252Y-140079500D01*
X125829247Y-140079500D01*
X125770770Y-140091131D01*
X125770769Y-140091132D01*
X125704447Y-140135447D01*
X125660132Y-140201769D01*
X125660131Y-140201770D01*
X125648500Y-140260247D01*
X125577600Y-140260247D01*
X125577600Y-138836400D01*
X123469400Y-138836400D01*
X122834400Y-140030200D01*
X121259600Y-140055600D01*
X119126000Y-138328400D01*
X119060458Y-132587998D01*
X121923918Y-132587998D01*
X121923918Y-132588001D01*
X121944555Y-132744760D01*
X121944556Y-132744762D01*
X121999066Y-132876362D01*
X122005064Y-132890841D01*
X122101318Y-133016282D01*
X122226759Y-133112536D01*
X122372838Y-133173044D01*
X122451219Y-133183363D01*
X122529599Y-133193682D01*
X122529600Y-133193682D01*
X122529601Y-133193682D01*
X122581854Y-133186802D01*
X122686362Y-133173044D01*
X122832441Y-133112536D01*
X122957882Y-133016282D01*
X123054136Y-132890841D01*
X123114644Y-132744762D01*
X123130011Y-132628036D01*
X123135282Y-132588001D01*
X123135282Y-132587998D01*
X123114644Y-132431239D01*
X123114644Y-132431238D01*
X123054136Y-132285159D01*
X122957882Y-132159718D01*
X122832441Y-132063464D01*
X122820734Y-132058615D01*
X122686362Y-132002956D01*
X122686360Y-132002955D01*
X122529601Y-131982318D01*
X122529599Y-131982318D01*
X122372839Y-132002955D01*
X122372837Y-132002956D01*
X122226760Y-132063463D01*
X122101318Y-132159718D01*
X122005063Y-132285160D01*
X121944556Y-132431237D01*
X121944555Y-132431239D01*
X121923918Y-132587998D01*
X119060458Y-132587998D01*
X119032037Y-130098798D01*
X121943518Y-130098798D01*
X121943518Y-130098801D01*
X121964155Y-130255560D01*
X121964156Y-130255562D01*
X122023852Y-130399682D01*
X122024664Y-130401641D01*
X122120918Y-130527082D01*
X122246359Y-130623336D01*
X122392438Y-130683844D01*
X122470819Y-130694163D01*
X122549199Y-130704482D01*
X122549200Y-130704482D01*
X122693875Y-130685435D01*
X122762910Y-130696200D01*
X122797741Y-130720693D01*
X123696992Y-131619944D01*
X123771256Y-131694208D01*
X123868287Y-131734400D01*
X141074730Y-131734400D01*
X141141769Y-131754085D01*
X141187524Y-131806889D01*
X141197468Y-131876047D01*
X141189291Y-131905852D01*
X141172357Y-131946734D01*
X141172355Y-131946739D01*
X141151718Y-132103498D01*
X141151718Y-132103501D01*
X141172355Y-132260260D01*
X141172356Y-132260262D01*
X141215133Y-132363536D01*
X141232864Y-132406341D01*
X141329118Y-132531782D01*
X141454559Y-132628036D01*
X141600638Y-132688544D01*
X141702847Y-132702000D01*
X141766741Y-132730265D01*
X141805213Y-132788589D01*
X141806045Y-132858454D01*
X141768973Y-132917678D01*
X141762147Y-132923313D01*
X141659320Y-133002215D01*
X141563063Y-133127660D01*
X141502556Y-133273737D01*
X141502555Y-133273739D01*
X141481918Y-133430498D01*
X141481918Y-133430501D01*
X141502555Y-133587260D01*
X141502556Y-133587262D01*
X141536603Y-133669460D01*
X141563064Y-133733341D01*
X141659318Y-133858782D01*
X141659320Y-133858783D01*
X141659322Y-133858786D01*
X141661725Y-133861189D01*
X141663104Y-133863715D01*
X141664266Y-133865229D01*
X141664029Y-133865410D01*
X141695210Y-133922512D01*
X141690226Y-133992204D01*
X141672420Y-134024356D01*
X141593509Y-134127195D01*
X141533001Y-134273275D01*
X141533000Y-134273277D01*
X141512363Y-134430036D01*
X141512363Y-134430039D01*
X141533000Y-134586798D01*
X141533001Y-134586800D01*
X141589648Y-134723559D01*
X141593509Y-134732879D01*
X141689763Y-134858320D01*
X141815204Y-134954574D01*
X141961283Y-135015082D01*
X142039664Y-135025401D01*
X142118044Y-135035720D01*
X142118044Y-135035719D01*
X142118045Y-135035720D01*
X142220272Y-135022261D01*
X142289303Y-135033026D01*
X142341559Y-135079406D01*
X142359393Y-135129012D01*
X142361696Y-135146505D01*
X142419007Y-135284867D01*
X142422204Y-135292584D01*
X142499727Y-135393615D01*
X142524921Y-135458783D01*
X142510883Y-135527227D01*
X142462069Y-135577217D01*
X142401351Y-135593100D01*
X134792038Y-135593100D01*
X134761467Y-135601291D01*
X134715608Y-135613579D01*
X134715605Y-135613581D01*
X134683564Y-135632081D01*
X134683563Y-135632082D01*
X134680411Y-135633902D01*
X134647089Y-135653139D01*
X130420741Y-139879487D01*
X130420735Y-139879495D01*
X130381182Y-139948004D01*
X130381179Y-139948009D01*
X130375292Y-139969981D01*
X130363893Y-140012524D01*
X130360700Y-140024439D01*
X130360700Y-147965367D01*
X130341015Y-148032406D01*
X130324381Y-148053048D01*
X128393448Y-149983981D01*
X128332125Y-150017466D01*
X128305767Y-150020300D01*
X126511639Y-150020300D01*
X126473425Y-150030539D01*
X126435210Y-150040779D01*
X126435209Y-150040780D01*
X126390285Y-150066716D01*
X126390286Y-150066717D01*
X126366690Y-150080340D01*
X126193744Y-150253285D01*
X126132420Y-150286769D01*
X126062729Y-150281785D01*
X126030577Y-150263979D01*
X125991810Y-150234232D01*
X125845730Y-150173724D01*
X125845728Y-150173723D01*
X125688969Y-150153086D01*
X125688967Y-150153086D01*
X125532207Y-150173723D01*
X125532205Y-150173724D01*
X125386128Y-150234231D01*
X125260686Y-150330486D01*
X125164431Y-150455928D01*
X125103924Y-150602005D01*
X125103923Y-150602007D01*
X125083286Y-150758766D01*
X125083286Y-150758769D01*
X125100800Y-150891807D01*
X125090034Y-150960843D01*
X125085151Y-150966344D01*
X125104331Y-150972222D01*
X125149462Y-151025560D01*
X125150629Y-151028285D01*
X125164432Y-151061609D01*
X125260686Y-151187050D01*
X125386127Y-151283304D01*
X125532206Y-151343812D01*
X125610587Y-151354131D01*
X125688967Y-151364450D01*
X125697095Y-151364450D01*
X125697095Y-151366494D01*
X125755298Y-151375567D01*
X125807557Y-151421944D01*
X125826446Y-151489212D01*
X125825750Y-151498964D01*
X125825750Y-151501233D01*
X125846387Y-151657992D01*
X125846388Y-151657994D01*
X125906896Y-151804073D01*
X126003150Y-151929514D01*
X126118919Y-152018346D01*
X126160121Y-152074773D01*
X126167432Y-152116721D01*
X126167432Y-154624253D01*
X126147747Y-154691292D01*
X126131113Y-154711934D01*
X124975540Y-155867506D01*
X124914217Y-155900991D01*
X124871674Y-155902764D01*
X124727001Y-155883718D01*
X124726999Y-155883718D01*
X124570239Y-155904355D01*
X124570237Y-155904356D01*
X124424160Y-155964863D01*
X124298718Y-156061118D01*
X124202463Y-156186560D01*
X124141956Y-156332637D01*
X124141955Y-156332639D01*
X124121318Y-156489398D01*
X124121318Y-156489401D01*
X124141955Y-156646160D01*
X124141956Y-156646162D01*
X124202464Y-156792241D01*
X124298718Y-156917682D01*
X124424159Y-157013936D01*
X124570238Y-157074444D01*
X124648619Y-157084763D01*
X124726999Y-157095082D01*
X124727000Y-157095082D01*
X124727001Y-157095082D01*
X124779254Y-157088202D01*
X124883762Y-157074444D01*
X125029841Y-157013936D01*
X125155282Y-156917682D01*
X125251536Y-156792241D01*
X125312044Y-156646162D01*
X125332682Y-156489400D01*
X125313635Y-156344723D01*
X125324401Y-156275689D01*
X125348893Y-156240858D01*
X125624888Y-155964863D01*
X126655241Y-154934512D01*
X126686153Y-154859882D01*
X126695432Y-154837481D01*
X126695432Y-154378976D01*
X129096500Y-154378976D01*
X129096500Y-154531824D01*
X129136060Y-154679465D01*
X129212484Y-154811835D01*
X129320565Y-154919916D01*
X129452935Y-154996340D01*
X129600576Y-155035900D01*
X129600578Y-155035900D01*
X129753422Y-155035900D01*
X129753424Y-155035900D01*
X129901065Y-154996340D01*
X130033435Y-154919916D01*
X130141516Y-154811835D01*
X130217940Y-154679465D01*
X130257500Y-154531824D01*
X130257500Y-154378976D01*
X130224066Y-154254198D01*
X170752918Y-154254198D01*
X170752918Y-154254201D01*
X170773555Y-154410960D01*
X170773556Y-154410962D01*
X170821437Y-154526558D01*
X170834064Y-154557041D01*
X170930318Y-154682482D01*
X171055759Y-154778736D01*
X171201838Y-154839244D01*
X171280219Y-154849563D01*
X171358599Y-154859882D01*
X171358600Y-154859882D01*
X171358601Y-154859882D01*
X171410854Y-154853002D01*
X171515362Y-154839244D01*
X171661441Y-154778736D01*
X171786882Y-154682482D01*
X171883136Y-154557041D01*
X171943644Y-154410962D01*
X171964282Y-154254200D01*
X171963304Y-154246775D01*
X171943644Y-154097439D01*
X171943644Y-154097438D01*
X171883136Y-153951359D01*
X171786882Y-153825918D01*
X171661441Y-153729664D01*
X171633880Y-153718248D01*
X171515362Y-153669156D01*
X171515360Y-153669155D01*
X171358601Y-153648518D01*
X171358599Y-153648518D01*
X171201839Y-153669155D01*
X171201837Y-153669156D01*
X171055760Y-153729663D01*
X170930318Y-153825918D01*
X170834063Y-153951360D01*
X170773556Y-154097437D01*
X170773555Y-154097439D01*
X170752918Y-154254198D01*
X130224066Y-154254198D01*
X130217940Y-154231335D01*
X130141516Y-154098965D01*
X130033435Y-153990884D01*
X129901065Y-153914460D01*
X129753424Y-153874900D01*
X129600576Y-153874900D01*
X129452935Y-153914460D01*
X129452932Y-153914461D01*
X129320568Y-153990882D01*
X129320562Y-153990886D01*
X129212486Y-154098962D01*
X129212482Y-154098968D01*
X129136061Y-154231332D01*
X129136060Y-154231335D01*
X129096500Y-154378976D01*
X126695432Y-154378976D01*
X126695432Y-153085798D01*
X138129118Y-153085798D01*
X138129118Y-153085801D01*
X138149755Y-153242560D01*
X138149756Y-153242562D01*
X138210264Y-153388641D01*
X138306518Y-153514082D01*
X138431959Y-153610336D01*
X138578038Y-153670844D01*
X138656419Y-153681163D01*
X138734799Y-153691482D01*
X138734800Y-153691482D01*
X138734801Y-153691482D01*
X138787054Y-153684602D01*
X138891562Y-153670844D01*
X139037641Y-153610336D01*
X139163082Y-153514082D01*
X139259336Y-153388641D01*
X139319844Y-153242562D01*
X139340482Y-153085800D01*
X139319844Y-152929038D01*
X139259336Y-152782959D01*
X139163082Y-152657518D01*
X139163079Y-152657516D01*
X139163078Y-152657514D01*
X139162112Y-152656548D01*
X139161558Y-152655533D01*
X139158134Y-152651071D01*
X139158830Y-152650536D01*
X139128632Y-152595222D01*
X139125800Y-152568873D01*
X139125800Y-151675798D01*
X142497918Y-151675798D01*
X142497918Y-151675801D01*
X142518555Y-151832560D01*
X142518556Y-151832562D01*
X142578331Y-151976873D01*
X142579064Y-151978641D01*
X142675318Y-152104082D01*
X142800759Y-152200336D01*
X142946838Y-152260844D01*
X142971388Y-152264076D01*
X143103599Y-152281482D01*
X143103600Y-152281482D01*
X143103601Y-152281482D01*
X143155854Y-152274602D01*
X143260362Y-152260844D01*
X143406441Y-152200336D01*
X143531882Y-152104082D01*
X143628136Y-151978641D01*
X143688644Y-151832562D01*
X143709282Y-151675800D01*
X143690235Y-151531123D01*
X143701001Y-151462089D01*
X143725487Y-151427264D01*
X144013209Y-151139544D01*
X144041908Y-151070256D01*
X144053400Y-151042513D01*
X144053400Y-151013753D01*
X144073085Y-150946714D01*
X144125889Y-150900959D01*
X144193583Y-150890814D01*
X144297400Y-150904482D01*
X144297401Y-150904482D01*
X144359374Y-150896323D01*
X144454162Y-150883844D01*
X144600241Y-150823336D01*
X144725682Y-150727082D01*
X144821936Y-150601641D01*
X144882444Y-150455562D01*
X144898858Y-150330886D01*
X144903082Y-150298801D01*
X144903082Y-150298798D01*
X144889043Y-150192159D01*
X144882444Y-150142038D01*
X144821936Y-149995959D01*
X144725682Y-149870518D01*
X144600241Y-149774264D01*
X144597020Y-149772930D01*
X144454162Y-149713756D01*
X144454160Y-149713755D01*
X144297401Y-149693118D01*
X144297399Y-149693118D01*
X144140639Y-149713755D01*
X144140637Y-149713756D01*
X143994560Y-149774263D01*
X143869118Y-149870518D01*
X143772863Y-149995960D01*
X143712356Y-150142037D01*
X143712355Y-150142039D01*
X143691718Y-150298798D01*
X143691718Y-150298801D01*
X143710764Y-150443473D01*
X143699998Y-150512508D01*
X143675509Y-150547337D01*
X143639858Y-150582990D01*
X143565592Y-150657256D01*
X143525400Y-150754286D01*
X143525400Y-150829284D01*
X143505715Y-150896323D01*
X143489081Y-150916966D01*
X143352139Y-151053907D01*
X143290816Y-151087391D01*
X143248273Y-151089164D01*
X143103601Y-151070118D01*
X143103599Y-151070118D01*
X142946839Y-151090755D01*
X142946837Y-151090756D01*
X142800760Y-151151263D01*
X142675318Y-151247518D01*
X142579063Y-151372960D01*
X142518556Y-151519037D01*
X142518555Y-151519039D01*
X142497918Y-151675798D01*
X139125800Y-151675798D01*
X139125800Y-150653289D01*
X139145485Y-150586250D01*
X139174311Y-150554915D01*
X139290082Y-150466082D01*
X139386336Y-150340641D01*
X139446844Y-150194562D01*
X139467482Y-150037800D01*
X139463183Y-150005149D01*
X139446844Y-149881039D01*
X139446844Y-149881038D01*
X139386336Y-149734959D01*
X139290082Y-149609518D01*
X139164641Y-149513264D01*
X139146860Y-149505899D01*
X139018562Y-149452756D01*
X139018560Y-149452755D01*
X138861801Y-149432118D01*
X138861799Y-149432118D01*
X138705039Y-149452755D01*
X138705037Y-149452756D01*
X138558960Y-149513263D01*
X138433518Y-149609518D01*
X138337263Y-149734960D01*
X138276756Y-149881037D01*
X138276755Y-149881039D01*
X138256118Y-150037798D01*
X138256118Y-150037801D01*
X138276755Y-150194560D01*
X138276756Y-150194562D01*
X138336268Y-150338238D01*
X138337264Y-150340641D01*
X138432871Y-150465239D01*
X138433519Y-150466083D01*
X138443630Y-150473841D01*
X138549287Y-150554914D01*
X138590489Y-150611341D01*
X138597800Y-150653289D01*
X138597800Y-152409716D01*
X138578115Y-152476755D01*
X138525311Y-152522510D01*
X138521253Y-152524277D01*
X138431960Y-152561263D01*
X138306518Y-152657518D01*
X138210263Y-152782960D01*
X138149756Y-152929037D01*
X138149755Y-152929039D01*
X138129118Y-153085798D01*
X126695432Y-153085798D01*
X126695432Y-152116721D01*
X126715117Y-152049682D01*
X126743943Y-152018347D01*
X126859714Y-151929514D01*
X126955968Y-151804073D01*
X127016476Y-151657994D01*
X127034344Y-151522270D01*
X127037114Y-151501233D01*
X127037114Y-151501230D01*
X127016476Y-151344471D01*
X127016476Y-151344470D01*
X126974342Y-151242751D01*
X126966874Y-151173284D01*
X126998149Y-151110804D01*
X127058238Y-151075152D01*
X127088904Y-151071300D01*
X128707560Y-151071300D01*
X128707562Y-151071300D01*
X128783989Y-151050821D01*
X128852511Y-151011260D01*
X128908460Y-150955311D01*
X129389931Y-150473839D01*
X129451252Y-150440356D01*
X129520943Y-150445340D01*
X129576877Y-150487211D01*
X129601294Y-150552676D01*
X129600549Y-150577707D01*
X129594718Y-150621998D01*
X129594718Y-150622001D01*
X129615355Y-150778760D01*
X129615356Y-150778762D01*
X129661769Y-150890814D01*
X129675864Y-150924841D01*
X129772118Y-151050282D01*
X129897559Y-151146536D01*
X130043638Y-151207044D01*
X130054470Y-151208470D01*
X130200399Y-151227682D01*
X130200400Y-151227682D01*
X130200401Y-151227682D01*
X130252654Y-151220802D01*
X130357162Y-151207044D01*
X130503241Y-151146536D01*
X130628682Y-151050282D01*
X130724936Y-150924841D01*
X130785444Y-150778762D01*
X130800199Y-150666685D01*
X130806082Y-150622001D01*
X130806082Y-150621998D01*
X130788337Y-150487211D01*
X130785444Y-150465238D01*
X130724936Y-150319159D01*
X130628682Y-150193718D01*
X130503241Y-150097464D01*
X130357162Y-150036956D01*
X130357160Y-150036955D01*
X130200401Y-150016318D01*
X130200399Y-150016318D01*
X130156107Y-150022149D01*
X130087072Y-150011383D01*
X130034816Y-149965003D01*
X130015931Y-149897734D01*
X130036412Y-149830934D01*
X130052236Y-149811534D01*
X131351660Y-148512111D01*
X131391222Y-148443588D01*
X131411700Y-148367162D01*
X131411700Y-148288038D01*
X131411700Y-148285198D01*
X136446318Y-148285198D01*
X136446318Y-148285201D01*
X136466955Y-148441960D01*
X136466956Y-148441962D01*
X136526990Y-148586898D01*
X136527464Y-148588041D01*
X136623718Y-148713482D01*
X136749159Y-148809736D01*
X136895238Y-148870244D01*
X136973619Y-148880563D01*
X137051999Y-148890882D01*
X137052000Y-148890882D01*
X137052001Y-148890882D01*
X137104254Y-148884002D01*
X137208762Y-148870244D01*
X137354841Y-148809736D01*
X137480282Y-148713482D01*
X137576536Y-148588041D01*
X137637044Y-148441962D01*
X137657682Y-148285200D01*
X137637044Y-148128438D01*
X137576536Y-147982359D01*
X137480282Y-147856918D01*
X137354841Y-147760664D01*
X137208762Y-147700156D01*
X137208760Y-147700155D01*
X137052001Y-147679518D01*
X137051999Y-147679518D01*
X136895239Y-147700155D01*
X136895237Y-147700156D01*
X136749160Y-147760663D01*
X136623718Y-147856918D01*
X136527463Y-147982360D01*
X136466956Y-148128437D01*
X136466955Y-148128439D01*
X136446318Y-148285198D01*
X131411700Y-148285198D01*
X131411700Y-146535647D01*
X140260100Y-146535647D01*
X140260100Y-149325152D01*
X140271731Y-149383629D01*
X140271732Y-149383630D01*
X140316047Y-149449952D01*
X140382369Y-149494267D01*
X140382370Y-149494268D01*
X140440847Y-149505899D01*
X140440850Y-149505900D01*
X140440852Y-149505900D01*
X141480350Y-149505900D01*
X141480351Y-149505899D01*
X141495168Y-149502952D01*
X141538829Y-149494268D01*
X141538829Y-149494267D01*
X141538831Y-149494267D01*
X141605152Y-149449952D01*
X141649467Y-149383631D01*
X141649467Y-149383629D01*
X141649468Y-149383629D01*
X141661099Y-149325152D01*
X141661100Y-149325150D01*
X141661100Y-146535649D01*
X141661099Y-146535647D01*
X141649468Y-146477170D01*
X141649467Y-146477169D01*
X141605152Y-146410847D01*
X141538830Y-146366532D01*
X141538829Y-146366531D01*
X141480352Y-146354900D01*
X141480348Y-146354900D01*
X140440852Y-146354900D01*
X140440847Y-146354900D01*
X140382370Y-146366531D01*
X140382369Y-146366532D01*
X140316047Y-146410847D01*
X140271732Y-146477169D01*
X140271731Y-146477170D01*
X140260100Y-146535647D01*
X131411700Y-146535647D01*
X131411700Y-143962426D01*
X131431385Y-143895387D01*
X131484189Y-143849632D01*
X131553347Y-143839688D01*
X131611184Y-143864050D01*
X131662428Y-143903370D01*
X131700957Y-143932935D01*
X131700958Y-143932935D01*
X131700959Y-143932936D01*
X131847038Y-143993444D01*
X131871307Y-143996639D01*
X132003799Y-144014082D01*
X132003800Y-144014082D01*
X132003801Y-144014082D01*
X132056054Y-144007202D01*
X132160562Y-143993444D01*
X132306641Y-143932936D01*
X132432082Y-143836682D01*
X132500761Y-143747176D01*
X132557189Y-143705974D01*
X132626935Y-143701819D01*
X132687855Y-143736031D01*
X132697513Y-143747177D01*
X132742924Y-143806359D01*
X132755884Y-143823248D01*
X132881325Y-143919502D01*
X133027404Y-143980010D01*
X133101972Y-143989827D01*
X133184165Y-144000648D01*
X133184166Y-144000648D01*
X133184167Y-144000648D01*
X133266360Y-143989827D01*
X133340928Y-143980010D01*
X133487007Y-143919502D01*
X133612448Y-143823248D01*
X133708702Y-143697807D01*
X133769210Y-143551728D01*
X133789848Y-143394966D01*
X133778034Y-143305233D01*
X133773015Y-143267106D01*
X133769210Y-143238204D01*
X133708702Y-143092125D01*
X133612448Y-142966684D01*
X133487007Y-142870430D01*
X133415718Y-142840901D01*
X133361315Y-142797059D01*
X133339251Y-142730765D01*
X133356531Y-142663066D01*
X133375487Y-142638663D01*
X134929553Y-141084598D01*
X137824318Y-141084598D01*
X137824318Y-141084601D01*
X137844955Y-141241360D01*
X137844956Y-141241362D01*
X137905464Y-141387441D01*
X138001718Y-141512882D01*
X138127159Y-141609136D01*
X138273238Y-141669644D01*
X138351619Y-141679963D01*
X138429999Y-141690282D01*
X138430000Y-141690282D01*
X138430001Y-141690282D01*
X138482254Y-141683402D01*
X138586762Y-141669644D01*
X138732841Y-141609136D01*
X138858282Y-141512882D01*
X138954536Y-141387441D01*
X139015044Y-141241362D01*
X139035682Y-141084600D01*
X139033859Y-141070756D01*
X139016993Y-140942641D01*
X139015044Y-140927838D01*
X138954536Y-140781759D01*
X138858282Y-140656318D01*
X138732841Y-140560064D01*
X138586762Y-140499556D01*
X138586760Y-140499555D01*
X138430001Y-140478918D01*
X138429999Y-140478918D01*
X138273239Y-140499555D01*
X138273237Y-140499556D01*
X138127160Y-140560063D01*
X138001718Y-140656318D01*
X137905463Y-140781760D01*
X137844956Y-140927837D01*
X137844955Y-140927839D01*
X137824318Y-141084598D01*
X134929553Y-141084598D01*
X135836033Y-140178119D01*
X135897356Y-140144634D01*
X135923714Y-140141800D01*
X140137619Y-140141800D01*
X140204658Y-140161485D01*
X140250413Y-140214289D01*
X140259789Y-140279497D01*
X140260697Y-140279587D01*
X140260333Y-140283281D01*
X140260357Y-140283447D01*
X140260262Y-140283999D01*
X140260100Y-140285649D01*
X140260100Y-143075152D01*
X140271731Y-143133629D01*
X140271732Y-143133630D01*
X140316047Y-143199952D01*
X140382369Y-143244267D01*
X140382370Y-143244268D01*
X140440847Y-143255899D01*
X140440850Y-143255900D01*
X140440852Y-143255900D01*
X141480350Y-143255900D01*
X141480351Y-143255899D01*
X141501775Y-143251638D01*
X141538829Y-143244268D01*
X141538829Y-143244267D01*
X141538831Y-143244267D01*
X141605152Y-143199952D01*
X141649467Y-143133631D01*
X141649467Y-143133629D01*
X141649468Y-143133629D01*
X141661099Y-143075152D01*
X141661100Y-143075150D01*
X141661100Y-142100887D01*
X141680785Y-142033848D01*
X141733589Y-141988093D01*
X141737615Y-141986339D01*
X141754041Y-141979536D01*
X141879482Y-141883282D01*
X141975736Y-141757841D01*
X142021539Y-141647260D01*
X142065380Y-141592859D01*
X142131674Y-141570794D01*
X142199373Y-141588073D01*
X142246984Y-141639210D01*
X142260100Y-141694715D01*
X142260100Y-143075152D01*
X142271731Y-143133629D01*
X142271732Y-143133630D01*
X142316047Y-143199952D01*
X142382369Y-143244267D01*
X142382370Y-143244268D01*
X142440847Y-143255899D01*
X142440850Y-143255900D01*
X142440852Y-143255900D01*
X142536100Y-143255900D01*
X142603139Y-143275585D01*
X142648894Y-143328389D01*
X142660100Y-143379900D01*
X142660100Y-143756567D01*
X142640415Y-143823606D01*
X142623781Y-143844248D01*
X142351448Y-144116581D01*
X142290125Y-144150066D01*
X142263767Y-144152900D01*
X139878764Y-144152900D01*
X139811725Y-144133215D01*
X139765970Y-144080411D01*
X139755825Y-144045085D01*
X139752142Y-144017106D01*
X139749447Y-143996638D01*
X139688939Y-143850559D01*
X139592685Y-143725118D01*
X139467244Y-143628864D01*
X139437170Y-143616407D01*
X139321165Y-143568356D01*
X139321163Y-143568355D01*
X139164404Y-143547718D01*
X139164402Y-143547718D01*
X139007642Y-143568355D01*
X139007640Y-143568356D01*
X138861563Y-143628863D01*
X138736121Y-143725118D01*
X138639866Y-143850560D01*
X138579359Y-143996637D01*
X138579358Y-143996639D01*
X138558721Y-144153398D01*
X138558721Y-144153401D01*
X138579358Y-144310160D01*
X138579359Y-144310162D01*
X138637582Y-144450726D01*
X138639867Y-144456241D01*
X138736121Y-144581682D01*
X138736123Y-144581683D01*
X138736125Y-144581686D01*
X138741868Y-144587429D01*
X138740423Y-144588873D01*
X138775166Y-144636460D01*
X138779316Y-144706206D01*
X138745100Y-144767124D01*
X138737720Y-144773518D01*
X138736125Y-144775113D01*
X138639866Y-144900560D01*
X138579359Y-145046637D01*
X138579358Y-145046639D01*
X138558721Y-145203398D01*
X138558721Y-145203401D01*
X138579358Y-145360160D01*
X138579359Y-145360162D01*
X138626445Y-145473839D01*
X138639867Y-145506241D01*
X138736121Y-145631682D01*
X138861562Y-145727936D01*
X139007641Y-145788444D01*
X139086022Y-145798763D01*
X139164402Y-145809082D01*
X139164403Y-145809082D01*
X139164404Y-145809082D01*
X139216657Y-145802202D01*
X139321165Y-145788444D01*
X139467244Y-145727936D01*
X139592685Y-145631682D01*
X139688939Y-145506241D01*
X139749447Y-145360162D01*
X139755825Y-145311714D01*
X139784091Y-145247818D01*
X139842416Y-145209347D01*
X139878764Y-145203900D01*
X142238367Y-145203900D01*
X142305406Y-145223585D01*
X142326048Y-145240219D01*
X142623781Y-145537952D01*
X142657266Y-145599275D01*
X142660100Y-145625633D01*
X142660100Y-146230900D01*
X142640415Y-146297939D01*
X142587611Y-146343694D01*
X142536100Y-146354900D01*
X142440847Y-146354900D01*
X142382370Y-146366531D01*
X142382369Y-146366532D01*
X142316047Y-146410847D01*
X142271732Y-146477169D01*
X142271731Y-146477170D01*
X142260100Y-146535647D01*
X142260100Y-149325152D01*
X142271731Y-149383629D01*
X142271732Y-149383630D01*
X142316047Y-149449952D01*
X142382369Y-149494267D01*
X142382370Y-149494268D01*
X142440847Y-149505899D01*
X142440850Y-149505900D01*
X142440852Y-149505900D01*
X143480350Y-149505900D01*
X143480351Y-149505899D01*
X143495168Y-149502952D01*
X143538829Y-149494268D01*
X143538829Y-149494267D01*
X143538831Y-149494267D01*
X143605152Y-149449952D01*
X143649467Y-149383631D01*
X143649467Y-149383629D01*
X143649468Y-149383629D01*
X143661099Y-149325152D01*
X143661100Y-149325150D01*
X143661100Y-146535649D01*
X143661099Y-146535647D01*
X143649468Y-146477170D01*
X143649467Y-146477169D01*
X143605152Y-146410847D01*
X143538830Y-146366532D01*
X143538829Y-146366531D01*
X143480352Y-146354900D01*
X143480348Y-146354900D01*
X143385100Y-146354900D01*
X143318061Y-146335215D01*
X143272306Y-146282411D01*
X143261100Y-146230900D01*
X143261100Y-145410239D01*
X143261100Y-145410238D01*
X143240621Y-145333811D01*
X143238384Y-145329936D01*
X143201064Y-145265295D01*
X143201058Y-145265287D01*
X142714552Y-144778781D01*
X142681067Y-144717458D01*
X142686051Y-144647766D01*
X142714552Y-144603419D01*
X143201057Y-144116914D01*
X143201060Y-144116911D01*
X143214659Y-144093356D01*
X143226575Y-144072718D01*
X143235716Y-144056884D01*
X143240621Y-144048389D01*
X143261100Y-143971962D01*
X143261100Y-143379900D01*
X143280785Y-143312861D01*
X143333589Y-143267106D01*
X143385100Y-143255900D01*
X143480350Y-143255900D01*
X143480351Y-143255899D01*
X143501775Y-143251638D01*
X143538829Y-143244268D01*
X143538829Y-143244267D01*
X143538831Y-143244267D01*
X143605152Y-143199952D01*
X143649467Y-143133631D01*
X143649467Y-143133629D01*
X143649468Y-143133629D01*
X143661099Y-143075152D01*
X143661100Y-143075150D01*
X143661100Y-141217947D01*
X143680785Y-141150908D01*
X143733589Y-141105153D01*
X143802747Y-141095209D01*
X143832551Y-141103385D01*
X143903837Y-141132913D01*
X143955987Y-141139778D01*
X144019882Y-141168042D01*
X144027484Y-141175036D01*
X144259706Y-141407259D01*
X144293191Y-141468582D01*
X144294964Y-141511125D01*
X144275918Y-141655798D01*
X144275918Y-141655801D01*
X144296555Y-141812560D01*
X144296556Y-141812562D01*
X144345494Y-141930710D01*
X144357064Y-141958641D01*
X144453318Y-142084082D01*
X144578759Y-142180336D01*
X144724838Y-142240844D01*
X144834669Y-142255303D01*
X144898565Y-142283569D01*
X144937036Y-142341894D01*
X144941422Y-142394426D01*
X144936318Y-142433197D01*
X144936318Y-142433201D01*
X144956955Y-142589960D01*
X144956956Y-142589962D01*
X145015278Y-142730765D01*
X145017464Y-142736041D01*
X145113718Y-142861482D01*
X145239159Y-142957736D01*
X145385238Y-143018244D01*
X145439890Y-143025439D01*
X145541999Y-143038882D01*
X145542000Y-143038882D01*
X145542001Y-143038882D01*
X145602493Y-143030918D01*
X145698762Y-143018244D01*
X145844841Y-142957736D01*
X145970282Y-142861482D01*
X146066536Y-142736041D01*
X146127044Y-142589962D01*
X146147682Y-142433200D01*
X146145912Y-142419759D01*
X146127044Y-142276439D01*
X146127044Y-142276438D01*
X146066536Y-142130359D01*
X145970282Y-142004918D01*
X145844841Y-141908664D01*
X145698762Y-141848156D01*
X145672508Y-141844699D01*
X145588930Y-141833696D01*
X145525034Y-141805429D01*
X145486563Y-141747105D01*
X145482177Y-141694573D01*
X145487282Y-141655800D01*
X145466644Y-141499038D01*
X145406136Y-141352959D01*
X145309882Y-141227518D01*
X145184441Y-141131264D01*
X145071779Y-141084598D01*
X145038362Y-141070756D01*
X145038360Y-141070755D01*
X144881601Y-141050118D01*
X144881599Y-141050118D01*
X144736925Y-141069164D01*
X144667889Y-141058398D01*
X144633059Y-141033906D01*
X144602902Y-141003749D01*
X144569417Y-140942426D01*
X144574401Y-140872734D01*
X144583200Y-140854061D01*
X144585131Y-140850714D01*
X144585135Y-140850710D01*
X144645643Y-140704631D01*
X144666281Y-140547869D01*
X144659920Y-140499555D01*
X144645643Y-140391108D01*
X144645641Y-140391103D01*
X144613395Y-140313252D01*
X144605926Y-140243783D01*
X144637202Y-140181304D01*
X144697291Y-140145652D01*
X144727956Y-140141800D01*
X145004486Y-140141800D01*
X145071525Y-140161485D01*
X145092167Y-140178119D01*
X147532192Y-142618144D01*
X147606456Y-142692408D01*
X147703487Y-142732600D01*
X150766086Y-142732600D01*
X150833125Y-142752285D01*
X150853767Y-142768919D01*
X150941735Y-142856887D01*
X150975220Y-142918210D01*
X150970236Y-142987902D01*
X150928364Y-143043835D01*
X150862900Y-143068252D01*
X150806602Y-143059129D01*
X150727965Y-143026557D01*
X150727960Y-143026555D01*
X150571201Y-143005918D01*
X150571199Y-143005918D01*
X150414439Y-143026555D01*
X150414437Y-143026556D01*
X150268360Y-143087063D01*
X150142918Y-143183318D01*
X150046663Y-143308760D01*
X149986156Y-143454837D01*
X149986156Y-143454839D01*
X149974297Y-143544912D01*
X149946030Y-143608809D01*
X149939039Y-143616407D01*
X149371940Y-144183506D01*
X149310617Y-144216991D01*
X149268074Y-144218764D01*
X149123401Y-144199718D01*
X149123399Y-144199718D01*
X148966639Y-144220355D01*
X148966637Y-144220356D01*
X148820560Y-144280863D01*
X148695118Y-144377118D01*
X148598863Y-144502560D01*
X148538356Y-144648637D01*
X148538355Y-144648639D01*
X148517718Y-144805398D01*
X148517718Y-144805401D01*
X148538355Y-144962160D01*
X148538356Y-144962162D01*
X148576157Y-145053423D01*
X148598864Y-145108241D01*
X148695118Y-145233682D01*
X148820559Y-145329936D01*
X148966638Y-145390444D01*
X149062586Y-145403075D01*
X149126482Y-145431341D01*
X149164954Y-145489665D01*
X149165786Y-145559530D01*
X149134082Y-145613695D01*
X148013456Y-146734321D01*
X147952133Y-146767806D01*
X147909591Y-146769579D01*
X147875703Y-146765118D01*
X147875699Y-146765118D01*
X147718939Y-146785755D01*
X147718937Y-146785756D01*
X147572860Y-146846263D01*
X147447418Y-146942518D01*
X147351163Y-147067960D01*
X147290656Y-147214037D01*
X147290655Y-147214039D01*
X147270018Y-147370798D01*
X147270018Y-147370801D01*
X147290655Y-147527560D01*
X147290656Y-147527562D01*
X147351164Y-147673641D01*
X147447418Y-147799082D01*
X147572859Y-147895336D01*
X147718938Y-147955844D01*
X147791273Y-147965367D01*
X147875699Y-147976482D01*
X147875700Y-147976482D01*
X147875701Y-147976482D01*
X147960127Y-147965367D01*
X148032462Y-147955844D01*
X148178541Y-147895336D01*
X148303982Y-147799082D01*
X148400236Y-147673641D01*
X148460744Y-147527562D01*
X148481382Y-147370800D01*
X148460744Y-147214038D01*
X148439641Y-147163093D01*
X148437394Y-147142198D01*
X152213718Y-147142198D01*
X152213718Y-147142201D01*
X152234355Y-147298960D01*
X152234356Y-147298962D01*
X152294864Y-147445041D01*
X152391118Y-147570482D01*
X152516559Y-147666736D01*
X152662638Y-147727244D01*
X152741019Y-147737563D01*
X152819399Y-147747882D01*
X152819400Y-147747882D01*
X152819401Y-147747882D01*
X152871654Y-147741002D01*
X152976162Y-147727244D01*
X153122241Y-147666736D01*
X153247682Y-147570482D01*
X153343936Y-147445041D01*
X153404444Y-147298962D01*
X153425082Y-147142200D01*
X153404444Y-146985438D01*
X153343936Y-146839359D01*
X153247682Y-146713918D01*
X153122241Y-146617664D01*
X152976162Y-146557156D01*
X152976160Y-146557155D01*
X152819401Y-146536518D01*
X152819399Y-146536518D01*
X152662639Y-146557155D01*
X152662637Y-146557156D01*
X152516560Y-146617663D01*
X152391118Y-146713918D01*
X152294863Y-146839360D01*
X152234356Y-146985437D01*
X152234355Y-146985439D01*
X152213718Y-147142198D01*
X148437394Y-147142198D01*
X148432172Y-147093626D01*
X148463446Y-147031146D01*
X148466493Y-147027988D01*
X149000283Y-146494198D01*
X153673918Y-146494198D01*
X153673918Y-146494201D01*
X153694555Y-146650960D01*
X153694556Y-146650962D01*
X153750389Y-146785756D01*
X153755064Y-146797041D01*
X153851318Y-146922482D01*
X153976759Y-147018736D01*
X154122838Y-147079244D01*
X154169294Y-147085360D01*
X154279599Y-147099882D01*
X154279600Y-147099882D01*
X154279601Y-147099882D01*
X154331854Y-147093002D01*
X154436362Y-147079244D01*
X154582441Y-147018736D01*
X154707882Y-146922482D01*
X154804136Y-146797041D01*
X154841329Y-146707248D01*
X154885170Y-146652845D01*
X154951464Y-146630780D01*
X155019163Y-146648059D01*
X155066774Y-146699196D01*
X155068932Y-146703922D01*
X155069427Y-146704781D01*
X155069431Y-146704786D01*
X155165685Y-146830227D01*
X155291126Y-146926481D01*
X155437205Y-146986989D01*
X155515586Y-146997308D01*
X155593966Y-147007627D01*
X155593967Y-147007627D01*
X155593968Y-147007627D01*
X155646221Y-147000747D01*
X155750729Y-146986989D01*
X155896808Y-146926481D01*
X156022249Y-146830227D01*
X156118503Y-146704786D01*
X156179011Y-146558707D01*
X156199649Y-146401945D01*
X156193455Y-146354900D01*
X156179011Y-146245184D01*
X156179011Y-146245183D01*
X156167187Y-146216638D01*
X157573300Y-146216638D01*
X157573300Y-149645762D01*
X157585989Y-149693118D01*
X157593779Y-149722190D01*
X157593782Y-149722195D01*
X157633335Y-149790704D01*
X157633339Y-149790709D01*
X157633340Y-149790711D01*
X157689289Y-149846660D01*
X157689291Y-149846661D01*
X157689295Y-149846664D01*
X157730612Y-149870518D01*
X157757811Y-149886221D01*
X157831396Y-149905938D01*
X157891054Y-149942302D01*
X157921583Y-150005149D01*
X157923300Y-150025712D01*
X157923300Y-150123361D01*
X157928305Y-150142038D01*
X157943778Y-150199786D01*
X157946682Y-150204815D01*
X157946683Y-150204819D01*
X157983335Y-150268303D01*
X157983341Y-150268311D01*
X158889284Y-151174254D01*
X158922769Y-151235577D01*
X158917785Y-151305269D01*
X158899981Y-151337419D01*
X158870232Y-151376190D01*
X158809724Y-151522269D01*
X158809723Y-151522271D01*
X158789086Y-151679030D01*
X158789086Y-151679033D01*
X158809723Y-151835792D01*
X158809724Y-151835794D01*
X158848544Y-151929515D01*
X158870232Y-151981873D01*
X158966486Y-152107314D01*
X159091927Y-152203568D01*
X159238006Y-152264076D01*
X159316387Y-152274395D01*
X159394767Y-152284714D01*
X159394768Y-152284714D01*
X159394769Y-152284714D01*
X159447022Y-152277834D01*
X159551530Y-152264076D01*
X159697609Y-152203568D01*
X159823050Y-152107314D01*
X159919304Y-151981873D01*
X159979812Y-151835794D01*
X159996995Y-151705274D01*
X160000450Y-151679033D01*
X160000450Y-151670905D01*
X160002493Y-151670905D01*
X160011569Y-151612698D01*
X160057947Y-151560441D01*
X160125215Y-151541553D01*
X160134967Y-151542250D01*
X160137232Y-151542250D01*
X160137233Y-151542250D01*
X160189486Y-151535370D01*
X160293994Y-151521612D01*
X160440073Y-151461104D01*
X160565514Y-151364850D01*
X160661768Y-151239409D01*
X160722276Y-151093330D01*
X160740400Y-150955663D01*
X160742914Y-150936569D01*
X160742914Y-150936566D01*
X160722276Y-150779807D01*
X160722276Y-150779806D01*
X160661768Y-150633727D01*
X160565514Y-150508286D01*
X160440073Y-150412032D01*
X160293994Y-150351524D01*
X160293992Y-150351523D01*
X160137233Y-150330886D01*
X160137231Y-150330886D01*
X159980471Y-150351523D01*
X159980469Y-150351524D01*
X159834390Y-150412032D01*
X159795619Y-150441781D01*
X159730449Y-150466973D01*
X159662004Y-150452933D01*
X159632454Y-150431084D01*
X159010619Y-149809249D01*
X158977134Y-149747926D01*
X158974300Y-149721568D01*
X158974300Y-149630700D01*
X158993985Y-149563661D01*
X159046789Y-149517906D01*
X159098300Y-149506700D01*
X159193550Y-149506700D01*
X159193551Y-149506699D01*
X159208368Y-149503752D01*
X159252029Y-149495068D01*
X159252029Y-149495067D01*
X159252031Y-149495067D01*
X159318352Y-149450752D01*
X159362667Y-149384431D01*
X159362667Y-149384429D01*
X159362668Y-149384429D01*
X159374299Y-149325952D01*
X159374300Y-149325950D01*
X159374300Y-148586898D01*
X160760518Y-148586898D01*
X160760518Y-148586901D01*
X160781155Y-148743660D01*
X160781156Y-148743662D01*
X160841664Y-148889741D01*
X160937918Y-149015182D01*
X161063359Y-149111436D01*
X161209438Y-149171944D01*
X161287819Y-149182263D01*
X161366199Y-149192582D01*
X161366200Y-149192582D01*
X161510875Y-149173535D01*
X161579910Y-149184300D01*
X161614740Y-149208792D01*
X163402656Y-150996709D01*
X163402661Y-150996711D01*
X163457768Y-151019537D01*
X163457769Y-151019537D01*
X163499687Y-151036900D01*
X163499688Y-151036900D01*
X163604713Y-151036900D01*
X167764205Y-151036900D01*
X167831244Y-151056585D01*
X167876999Y-151109389D01*
X167886943Y-151178547D01*
X167880147Y-151204871D01*
X167818461Y-151367525D01*
X167818459Y-151367530D01*
X167797955Y-151536400D01*
X167818459Y-151705269D01*
X167818460Y-151705274D01*
X167878782Y-151864331D01*
X167923776Y-151929515D01*
X167975417Y-152004329D01*
X168054932Y-152074773D01*
X168102750Y-152117136D01*
X168253373Y-152196189D01*
X168253375Y-152196190D01*
X168418544Y-152236900D01*
X168588656Y-152236900D01*
X168753825Y-152196190D01*
X168833292Y-152154481D01*
X168904449Y-152117136D01*
X168904450Y-152117134D01*
X168904452Y-152117134D01*
X169031783Y-152004329D01*
X169036550Y-151997421D01*
X169090830Y-151953433D01*
X169160278Y-151945772D01*
X169222844Y-151976873D01*
X169240646Y-151997417D01*
X169245417Y-152004329D01*
X169324932Y-152074773D01*
X169372750Y-152117136D01*
X169523373Y-152196189D01*
X169523375Y-152196190D01*
X169688544Y-152236900D01*
X169858656Y-152236900D01*
X170023825Y-152196190D01*
X170103292Y-152154481D01*
X170174449Y-152117136D01*
X170174450Y-152117134D01*
X170174452Y-152117134D01*
X170301783Y-152004329D01*
X170306550Y-151997421D01*
X170360830Y-151953433D01*
X170430278Y-151945772D01*
X170492844Y-151976873D01*
X170510646Y-151997417D01*
X170515417Y-152004329D01*
X170594932Y-152074773D01*
X170642750Y-152117136D01*
X170793373Y-152196189D01*
X170793375Y-152196190D01*
X170958544Y-152236900D01*
X171128656Y-152236900D01*
X171293825Y-152196190D01*
X171373292Y-152154481D01*
X171444449Y-152117136D01*
X171444450Y-152117134D01*
X171444452Y-152117134D01*
X171571783Y-152004329D01*
X171576550Y-151997421D01*
X171630830Y-151953433D01*
X171700278Y-151945772D01*
X171762844Y-151976873D01*
X171780646Y-151997417D01*
X171785417Y-152004329D01*
X171864932Y-152074773D01*
X171912750Y-152117136D01*
X172063373Y-152196189D01*
X172063375Y-152196190D01*
X172228544Y-152236900D01*
X172398656Y-152236900D01*
X172563825Y-152196190D01*
X172643292Y-152154481D01*
X172714449Y-152117136D01*
X172714450Y-152117134D01*
X172714452Y-152117134D01*
X172841783Y-152004329D01*
X172846550Y-151997421D01*
X172900830Y-151953433D01*
X172970278Y-151945772D01*
X173032844Y-151976873D01*
X173050646Y-151997417D01*
X173055417Y-152004329D01*
X173134932Y-152074773D01*
X173182750Y-152117136D01*
X173333373Y-152196189D01*
X173333375Y-152196190D01*
X173498544Y-152236900D01*
X173668656Y-152236900D01*
X173833825Y-152196190D01*
X173913292Y-152154481D01*
X173984449Y-152117136D01*
X173984450Y-152117134D01*
X173984452Y-152117134D01*
X174111783Y-152004329D01*
X174208418Y-151864330D01*
X174268740Y-151705272D01*
X174289245Y-151536400D01*
X174268740Y-151367528D01*
X174267724Y-151364850D01*
X174208417Y-151208468D01*
X174160840Y-151139542D01*
X174111783Y-151068471D01*
X173984452Y-150955666D01*
X173984449Y-150955663D01*
X173833826Y-150876610D01*
X173668656Y-150835900D01*
X173498544Y-150835900D01*
X173333373Y-150876610D01*
X173182750Y-150955663D01*
X173055415Y-151068472D01*
X173050649Y-151075378D01*
X172996366Y-151119368D01*
X172926917Y-151127027D01*
X172864353Y-151095923D01*
X172846551Y-151075378D01*
X172841784Y-151068472D01*
X172714449Y-150955663D01*
X172563826Y-150876610D01*
X172398656Y-150835900D01*
X172228544Y-150835900D01*
X172102226Y-150867034D01*
X172032423Y-150863965D01*
X171984870Y-150834318D01*
X171699645Y-150549093D01*
X171699644Y-150549092D01*
X171602613Y-150508900D01*
X163712915Y-150508900D01*
X163645876Y-150489215D01*
X163625234Y-150472581D01*
X162845771Y-149693118D01*
X161988092Y-148835440D01*
X161954608Y-148774118D01*
X161952835Y-148731574D01*
X161959394Y-148681760D01*
X161971882Y-148586900D01*
X161963732Y-148524998D01*
X162312518Y-148524998D01*
X162312518Y-148525001D01*
X162333155Y-148681760D01*
X162333156Y-148681762D01*
X162393664Y-148827841D01*
X162489918Y-148953282D01*
X162615359Y-149049536D01*
X162761438Y-149110044D01*
X162839819Y-149120363D01*
X162918199Y-149130682D01*
X162918200Y-149130682D01*
X162918201Y-149130682D01*
X162970454Y-149123802D01*
X163074962Y-149110044D01*
X163221041Y-149049536D01*
X163346482Y-148953282D01*
X163442736Y-148827841D01*
X163503244Y-148681762D01*
X163523882Y-148525000D01*
X163522185Y-148512113D01*
X163503244Y-148368239D01*
X163503244Y-148368238D01*
X163442736Y-148222159D01*
X163346482Y-148096718D01*
X163221041Y-148000464D01*
X163163143Y-147976482D01*
X163074962Y-147939956D01*
X163074960Y-147939955D01*
X162918201Y-147919318D01*
X162918199Y-147919318D01*
X162761439Y-147939955D01*
X162761437Y-147939956D01*
X162615360Y-148000463D01*
X162489918Y-148096718D01*
X162393663Y-148222160D01*
X162333156Y-148368237D01*
X162333155Y-148368239D01*
X162312518Y-148524998D01*
X161963732Y-148524998D01*
X161951244Y-148430139D01*
X161951244Y-148430138D01*
X161890736Y-148284059D01*
X161794482Y-148158618D01*
X161669041Y-148062364D01*
X161646550Y-148053048D01*
X161522962Y-148001856D01*
X161522960Y-148001855D01*
X161366201Y-147981218D01*
X161366199Y-147981218D01*
X161209439Y-148001855D01*
X161209437Y-148001856D01*
X161063360Y-148062363D01*
X160937918Y-148158618D01*
X160841663Y-148284060D01*
X160781156Y-148430137D01*
X160781155Y-148430139D01*
X160760518Y-148586898D01*
X159374300Y-148586898D01*
X159374300Y-146536449D01*
X159374299Y-146536447D01*
X159362668Y-146477970D01*
X159362667Y-146477969D01*
X159318352Y-146411647D01*
X159252030Y-146367332D01*
X159252029Y-146367331D01*
X159193552Y-146355700D01*
X159193548Y-146355700D01*
X158648300Y-146355700D01*
X158581261Y-146336015D01*
X158535506Y-146283211D01*
X158524300Y-146231700D01*
X158524300Y-143380700D01*
X158543985Y-143313661D01*
X158596789Y-143267906D01*
X158648300Y-143256700D01*
X159193550Y-143256700D01*
X159193551Y-143256699D01*
X159208368Y-143253752D01*
X159252029Y-143245068D01*
X159252029Y-143245067D01*
X159252031Y-143245067D01*
X159318352Y-143200752D01*
X159362667Y-143134431D01*
X159362667Y-143134429D01*
X159362668Y-143134429D01*
X159372085Y-143087082D01*
X159374300Y-143075948D01*
X159374300Y-140286452D01*
X159374300Y-140286449D01*
X159374299Y-140286447D01*
X159362668Y-140227970D01*
X159362667Y-140227969D01*
X159318352Y-140161647D01*
X159252030Y-140117332D01*
X159252029Y-140117331D01*
X159193552Y-140105700D01*
X159193548Y-140105700D01*
X158154052Y-140105700D01*
X158154047Y-140105700D01*
X158095570Y-140117331D01*
X158095569Y-140117332D01*
X158029247Y-140161647D01*
X157984932Y-140227969D01*
X157984931Y-140227970D01*
X157973300Y-140286447D01*
X157973300Y-141930852D01*
X157956689Y-141992849D01*
X157943780Y-142015208D01*
X157943779Y-142015209D01*
X157930126Y-142066162D01*
X157926075Y-142081284D01*
X157923300Y-142091639D01*
X157923300Y-145836687D01*
X157903615Y-145903726D01*
X157850811Y-145949481D01*
X157831395Y-145956461D01*
X157757815Y-145976177D01*
X157757804Y-145976182D01*
X157689295Y-146015735D01*
X157689287Y-146015741D01*
X157633341Y-146071687D01*
X157633335Y-146071695D01*
X157593782Y-146140204D01*
X157593779Y-146140209D01*
X157582279Y-146183130D01*
X157573300Y-146216638D01*
X156167187Y-146216638D01*
X156118503Y-146099104D01*
X156022249Y-145973663D01*
X156020183Y-145972077D01*
X155969979Y-145933553D01*
X155928777Y-145877125D01*
X155921467Y-145835179D01*
X155921467Y-145366850D01*
X155941152Y-145299811D01*
X155957786Y-145279169D01*
X156434244Y-144802711D01*
X156935865Y-144301090D01*
X156978981Y-144226411D01*
X157001300Y-144143116D01*
X157001300Y-144056884D01*
X157001300Y-143380700D01*
X157020985Y-143313661D01*
X157073789Y-143267906D01*
X157125300Y-143256700D01*
X157193550Y-143256700D01*
X157193551Y-143256699D01*
X157208368Y-143253752D01*
X157252029Y-143245068D01*
X157252029Y-143245067D01*
X157252031Y-143245067D01*
X157318352Y-143200752D01*
X157362667Y-143134431D01*
X157362667Y-143134429D01*
X157362668Y-143134429D01*
X157372085Y-143087082D01*
X157374300Y-143075948D01*
X157374300Y-140286452D01*
X157374300Y-140286449D01*
X157374299Y-140286447D01*
X157362668Y-140227970D01*
X157362667Y-140227969D01*
X157318352Y-140161647D01*
X157252030Y-140117332D01*
X157252029Y-140117331D01*
X157193552Y-140105700D01*
X157193548Y-140105700D01*
X156154052Y-140105700D01*
X156154047Y-140105700D01*
X156095570Y-140117331D01*
X156095569Y-140117332D01*
X156029247Y-140161647D01*
X155984932Y-140227969D01*
X155984931Y-140227970D01*
X155973300Y-140286447D01*
X155973300Y-143075952D01*
X155984931Y-143134429D01*
X155984932Y-143134430D01*
X156029247Y-143200752D01*
X156095569Y-143245067D01*
X156095570Y-143245068D01*
X156154047Y-143256699D01*
X156154050Y-143256700D01*
X156154052Y-143256700D01*
X156222300Y-143256700D01*
X156289339Y-143276385D01*
X156335094Y-143329189D01*
X156346300Y-143380700D01*
X156346300Y-143912983D01*
X156326615Y-143980022D01*
X156309981Y-144000664D01*
X155331903Y-144978741D01*
X155331901Y-144978744D01*
X155288786Y-145053422D01*
X155266467Y-145136718D01*
X155266467Y-145835179D01*
X155246782Y-145902218D01*
X155217955Y-145933553D01*
X155165688Y-145973660D01*
X155165686Y-145973661D01*
X155165685Y-145973663D01*
X155090469Y-146071687D01*
X155069431Y-146099104D01*
X155032237Y-146188897D01*
X154988395Y-146243300D01*
X154922101Y-146265364D01*
X154854402Y-146248084D01*
X154806792Y-146196947D01*
X154804632Y-146192219D01*
X154804137Y-146191360D01*
X154797822Y-146183130D01*
X154772630Y-146117960D01*
X154772200Y-146107646D01*
X154772200Y-141349566D01*
X154791885Y-141282527D01*
X154844689Y-141236772D01*
X154880015Y-141226627D01*
X154893562Y-141224844D01*
X155039641Y-141164336D01*
X155165082Y-141068082D01*
X155261336Y-140942641D01*
X155321844Y-140796562D01*
X155342482Y-140639800D01*
X155331984Y-140560063D01*
X155321844Y-140483039D01*
X155321844Y-140483038D01*
X155261336Y-140336959D01*
X155165082Y-140211518D01*
X155039641Y-140115264D01*
X155016551Y-140105700D01*
X154893562Y-140054756D01*
X154893560Y-140054755D01*
X154736801Y-140034118D01*
X154736799Y-140034118D01*
X154580039Y-140054755D01*
X154580037Y-140054756D01*
X154433960Y-140115263D01*
X154308518Y-140211518D01*
X154212263Y-140336960D01*
X154151756Y-140483037D01*
X154151755Y-140483039D01*
X154131118Y-140639798D01*
X154131118Y-140639801D01*
X154151755Y-140796560D01*
X154151757Y-140796565D01*
X154212261Y-140942636D01*
X154212262Y-140942639D01*
X154212264Y-140942641D01*
X154218573Y-140950863D01*
X154243770Y-141016031D01*
X154244200Y-141026352D01*
X154244200Y-145784433D01*
X154224515Y-145851472D01*
X154171711Y-145897227D01*
X154136389Y-145907371D01*
X154131841Y-145907970D01*
X154122837Y-145909156D01*
X153976760Y-145969663D01*
X153851318Y-146065918D01*
X153755063Y-146191360D01*
X153694556Y-146337437D01*
X153694555Y-146337439D01*
X153673918Y-146494198D01*
X149000283Y-146494198D01*
X150774160Y-144720321D01*
X150835481Y-144686838D01*
X150905173Y-144691822D01*
X150937325Y-144709628D01*
X151031745Y-144782079D01*
X151031746Y-144782079D01*
X151031747Y-144782080D01*
X151177826Y-144842588D01*
X151192980Y-144844583D01*
X151334587Y-144863226D01*
X151334588Y-144863226D01*
X151334589Y-144863226D01*
X151386842Y-144856346D01*
X151491350Y-144842588D01*
X151637429Y-144782080D01*
X151762870Y-144685826D01*
X151859124Y-144560385D01*
X151880029Y-144509915D01*
X151923868Y-144455514D01*
X151990162Y-144433448D01*
X152057861Y-144450726D01*
X152092964Y-144481882D01*
X152124115Y-144522479D01*
X152124116Y-144522480D01*
X152124118Y-144522482D01*
X152249559Y-144618736D01*
X152395638Y-144679244D01*
X152474019Y-144689563D01*
X152552399Y-144699882D01*
X152552400Y-144699882D01*
X152552401Y-144699882D01*
X152619106Y-144691100D01*
X152709162Y-144679244D01*
X152855241Y-144618736D01*
X152980682Y-144522482D01*
X153076936Y-144397041D01*
X153137444Y-144250962D01*
X153153203Y-144131261D01*
X153158082Y-144094201D01*
X153158082Y-144094198D01*
X153137444Y-143937439D01*
X153137444Y-143937438D01*
X153076936Y-143791359D01*
X152980682Y-143665918D01*
X152855241Y-143569664D01*
X152852083Y-143568356D01*
X152709162Y-143509156D01*
X152709160Y-143509155D01*
X152552401Y-143488518D01*
X152552399Y-143488518D01*
X152407725Y-143507564D01*
X152338689Y-143496798D01*
X152303859Y-143472306D01*
X151076345Y-142244793D01*
X151076344Y-142244792D01*
X150979313Y-142204600D01*
X147916714Y-142204600D01*
X147849675Y-142184915D01*
X147829033Y-142168281D01*
X145684033Y-140023281D01*
X145650548Y-139961958D01*
X145655532Y-139892266D01*
X145697404Y-139836333D01*
X145762868Y-139811916D01*
X145771714Y-139811600D01*
X148568286Y-139811600D01*
X148635325Y-139831285D01*
X148655967Y-139847919D01*
X148716706Y-139908658D01*
X148750191Y-139969981D01*
X148751964Y-140012524D01*
X148732918Y-140157198D01*
X148732918Y-140157201D01*
X148753555Y-140313960D01*
X148753556Y-140313962D01*
X148785510Y-140391107D01*
X148814064Y-140460041D01*
X148910318Y-140585482D01*
X149035759Y-140681736D01*
X149181838Y-140742244D01*
X149260219Y-140752563D01*
X149338599Y-140762882D01*
X149338600Y-140762882D01*
X149338601Y-140762882D01*
X149390854Y-140756002D01*
X149495362Y-140742244D01*
X149641441Y-140681736D01*
X149766882Y-140585482D01*
X149863136Y-140460041D01*
X149923644Y-140313962D01*
X149943227Y-140165213D01*
X149944282Y-140157201D01*
X149944282Y-140157198D01*
X149923644Y-140000439D01*
X149923644Y-140000438D01*
X149863136Y-139854359D01*
X149766882Y-139728918D01*
X149641441Y-139632664D01*
X149495362Y-139572156D01*
X149495360Y-139572155D01*
X149338601Y-139551518D01*
X149338599Y-139551518D01*
X149193924Y-139570564D01*
X149124888Y-139559798D01*
X149090058Y-139535306D01*
X148878545Y-139323793D01*
X148878544Y-139323792D01*
X148781513Y-139283600D01*
X133228613Y-139283600D01*
X133161574Y-139263915D01*
X133130239Y-139235089D01*
X133124258Y-139227294D01*
X133039770Y-139162464D01*
X132998816Y-139131039D01*
X132998815Y-139131038D01*
X132998813Y-139131037D01*
X132935067Y-139104633D01*
X132927528Y-139101510D01*
X132873125Y-139057670D01*
X132851060Y-138991376D01*
X132868339Y-138923677D01*
X132887296Y-138899273D01*
X134270972Y-137515598D01*
X138449118Y-137515598D01*
X138449118Y-137515601D01*
X138469755Y-137672360D01*
X138469756Y-137672362D01*
X138508226Y-137765238D01*
X138530264Y-137818441D01*
X138626518Y-137943882D01*
X138751959Y-138040136D01*
X138898038Y-138100644D01*
X138976419Y-138110963D01*
X139054799Y-138121282D01*
X139054800Y-138121282D01*
X139054801Y-138121282D01*
X139107054Y-138114402D01*
X139211562Y-138100644D01*
X139357641Y-138040136D01*
X139483082Y-137943882D01*
X139499874Y-137921998D01*
X158461518Y-137921998D01*
X158461518Y-137922001D01*
X158482155Y-138078760D01*
X158482156Y-138078762D01*
X158537769Y-138213025D01*
X158542664Y-138224841D01*
X158638918Y-138350282D01*
X158764359Y-138446536D01*
X158910438Y-138507044D01*
X158988819Y-138517363D01*
X159067199Y-138527682D01*
X159067200Y-138527682D01*
X159067201Y-138527682D01*
X159119454Y-138520802D01*
X159223962Y-138507044D01*
X159370041Y-138446536D01*
X159495482Y-138350282D01*
X159591736Y-138224841D01*
X159652244Y-138078762D01*
X159672882Y-137922000D01*
X159652244Y-137765238D01*
X159591736Y-137619159D01*
X159495482Y-137493718D01*
X159370041Y-137397464D01*
X159272603Y-137357104D01*
X159223962Y-137336956D01*
X159223960Y-137336955D01*
X159067201Y-137316318D01*
X159067199Y-137316318D01*
X158910439Y-137336955D01*
X158910437Y-137336956D01*
X158764360Y-137397463D01*
X158638918Y-137493718D01*
X158542663Y-137619160D01*
X158482156Y-137765237D01*
X158482155Y-137765239D01*
X158461518Y-137921998D01*
X139499874Y-137921998D01*
X139579336Y-137818441D01*
X139639844Y-137672362D01*
X139660482Y-137515600D01*
X139654497Y-137470142D01*
X139639844Y-137358839D01*
X139639844Y-137358838D01*
X139579336Y-137212759D01*
X139483082Y-137087318D01*
X139445393Y-137058398D01*
X156569518Y-137058398D01*
X156569518Y-137058401D01*
X156590155Y-137215160D01*
X156590156Y-137215162D01*
X156649668Y-137358838D01*
X156650664Y-137361241D01*
X156746918Y-137486682D01*
X156872359Y-137582936D01*
X157018438Y-137643444D01*
X157096819Y-137653763D01*
X157175199Y-137664082D01*
X157175200Y-137664082D01*
X157175201Y-137664082D01*
X157227454Y-137657202D01*
X157331962Y-137643444D01*
X157478041Y-137582936D01*
X157603482Y-137486682D01*
X157699736Y-137361241D01*
X157760244Y-137215162D01*
X157777075Y-137087318D01*
X157780882Y-137058401D01*
X157780882Y-137058398D01*
X157760244Y-136901639D01*
X157760244Y-136901638D01*
X157699736Y-136755559D01*
X157603482Y-136630118D01*
X157478041Y-136533864D01*
X157331962Y-136473356D01*
X157331960Y-136473355D01*
X157175201Y-136452718D01*
X157175199Y-136452718D01*
X157018439Y-136473355D01*
X157018437Y-136473356D01*
X156872360Y-136533863D01*
X156746918Y-136630118D01*
X156650663Y-136755560D01*
X156590156Y-136901637D01*
X156590155Y-136901639D01*
X156569518Y-137058398D01*
X139445393Y-137058398D01*
X139357641Y-136991064D01*
X139211562Y-136930556D01*
X139211560Y-136930555D01*
X139054801Y-136909918D01*
X139054799Y-136909918D01*
X138898039Y-136930555D01*
X138898037Y-136930556D01*
X138751960Y-136991063D01*
X138626518Y-137087318D01*
X138530263Y-137212760D01*
X138469756Y-137358837D01*
X138469755Y-137358839D01*
X138449118Y-137515598D01*
X134270972Y-137515598D01*
X135106152Y-136680419D01*
X135167475Y-136646934D01*
X135193833Y-136644100D01*
X145496960Y-136644100D01*
X145496962Y-136644100D01*
X145573389Y-136623621D01*
X145641911Y-136584060D01*
X145697860Y-136528111D01*
X148554061Y-133671910D01*
X148559013Y-133663332D01*
X148593622Y-133603388D01*
X148614101Y-133526961D01*
X148614101Y-132863292D01*
X148633786Y-132796253D01*
X148686590Y-132750498D01*
X148721913Y-132740354D01*
X148770362Y-132733976D01*
X148916441Y-132673468D01*
X149041882Y-132577214D01*
X149138136Y-132451773D01*
X149189241Y-132328392D01*
X149233080Y-132273991D01*
X149299374Y-132251926D01*
X149367074Y-132269205D01*
X149391482Y-132288166D01*
X151566125Y-134462809D01*
X151634736Y-134491228D01*
X151663156Y-134503000D01*
X151663157Y-134503000D01*
X151768182Y-134503000D01*
X152809258Y-134503000D01*
X152876297Y-134522685D01*
X152922052Y-134575489D01*
X152931996Y-134644647D01*
X152907633Y-134702487D01*
X152891464Y-134723557D01*
X152830956Y-134869637D01*
X152830955Y-134869639D01*
X152810318Y-135026398D01*
X152810318Y-135026401D01*
X152830955Y-135183160D01*
X152830956Y-135183162D01*
X152871705Y-135281540D01*
X152891464Y-135329241D01*
X152987718Y-135454682D01*
X153113159Y-135550936D01*
X153259238Y-135611444D01*
X153337619Y-135621763D01*
X153415999Y-135632082D01*
X153416000Y-135632082D01*
X153416001Y-135632082D01*
X153468254Y-135625202D01*
X153572762Y-135611444D01*
X153718841Y-135550936D01*
X153844282Y-135454682D01*
X153940536Y-135329241D01*
X153995257Y-135197132D01*
X154039098Y-135142730D01*
X154105392Y-135120665D01*
X154109818Y-135120586D01*
X158312310Y-135120586D01*
X158379349Y-135140271D01*
X158410684Y-135169097D01*
X158499518Y-135284868D01*
X158624959Y-135381122D01*
X158771038Y-135441630D01*
X158849419Y-135451949D01*
X158927799Y-135462268D01*
X158927800Y-135462268D01*
X158927801Y-135462268D01*
X158985429Y-135454681D01*
X159084562Y-135441630D01*
X159230641Y-135381122D01*
X159356082Y-135284868D01*
X159452336Y-135159427D01*
X159512844Y-135013348D01*
X159514756Y-134998824D01*
X159543018Y-134934931D01*
X159601341Y-134896458D01*
X159671205Y-134895623D01*
X159725375Y-134927328D01*
X163209681Y-138411633D01*
X163243166Y-138472956D01*
X163246000Y-138499314D01*
X163246000Y-140674310D01*
X163226315Y-140741349D01*
X163197488Y-140772684D01*
X163144255Y-140813532D01*
X163081718Y-140861518D01*
X162985463Y-140986960D01*
X162924956Y-141133037D01*
X162924955Y-141133039D01*
X162904318Y-141289798D01*
X162904318Y-141289801D01*
X162924955Y-141446560D01*
X162924956Y-141446562D01*
X162985464Y-141592641D01*
X163081718Y-141718082D01*
X163197487Y-141806914D01*
X163238689Y-141863341D01*
X163246000Y-141905289D01*
X163246000Y-143493710D01*
X163226315Y-143560749D01*
X163197488Y-143592084D01*
X163092689Y-143672500D01*
X163081718Y-143680918D01*
X162985463Y-143806360D01*
X162924956Y-143952437D01*
X162924955Y-143952439D01*
X162904318Y-144109198D01*
X162904318Y-144109201D01*
X162924955Y-144265960D01*
X162924956Y-144265962D01*
X162939506Y-144301090D01*
X162985464Y-144412041D01*
X163081718Y-144537482D01*
X163197487Y-144626314D01*
X163238689Y-144682741D01*
X163246000Y-144724689D01*
X163246000Y-146313110D01*
X163226315Y-146380149D01*
X163197488Y-146411484D01*
X163111885Y-146477170D01*
X163081718Y-146500318D01*
X162985463Y-146625760D01*
X162924956Y-146771837D01*
X162924955Y-146771839D01*
X162904318Y-146928598D01*
X162904318Y-146928601D01*
X162924955Y-147085360D01*
X162924956Y-147085362D01*
X162948499Y-147142201D01*
X162985464Y-147231441D01*
X163081718Y-147356882D01*
X163207159Y-147453136D01*
X163353238Y-147513644D01*
X163431619Y-147523963D01*
X163509999Y-147534282D01*
X163510000Y-147534282D01*
X163510001Y-147534282D01*
X163562254Y-147527402D01*
X163666762Y-147513644D01*
X163812841Y-147453136D01*
X163938282Y-147356882D01*
X164034536Y-147231441D01*
X164095044Y-147085362D01*
X164115682Y-146928600D01*
X164114876Y-146922481D01*
X164095044Y-146771839D01*
X164095044Y-146771838D01*
X164034536Y-146625759D01*
X163938282Y-146500318D01*
X163822512Y-146411485D01*
X163781311Y-146355058D01*
X163774000Y-146313110D01*
X163774000Y-145630598D01*
X164468918Y-145630598D01*
X164468918Y-145630601D01*
X164489555Y-145787360D01*
X164489556Y-145787362D01*
X164537755Y-145903726D01*
X164550064Y-145933441D01*
X164646318Y-146058882D01*
X164771759Y-146155136D01*
X164917838Y-146215644D01*
X164996219Y-146225963D01*
X165074599Y-146236282D01*
X165074600Y-146236282D01*
X165074601Y-146236282D01*
X165126854Y-146229402D01*
X165231362Y-146215644D01*
X165377441Y-146155136D01*
X165502882Y-146058882D01*
X165599136Y-145933441D01*
X165659644Y-145787362D01*
X165680282Y-145630600D01*
X165678056Y-145613695D01*
X165659644Y-145473839D01*
X165659644Y-145473838D01*
X165599136Y-145327759D01*
X165502882Y-145202318D01*
X165377441Y-145106064D01*
X165348084Y-145093904D01*
X165231362Y-145045556D01*
X165231360Y-145045555D01*
X165074601Y-145024918D01*
X165074599Y-145024918D01*
X164917839Y-145045555D01*
X164917837Y-145045556D01*
X164771760Y-145106063D01*
X164646318Y-145202318D01*
X164550063Y-145327760D01*
X164489556Y-145473837D01*
X164489555Y-145473839D01*
X164468918Y-145630598D01*
X163774000Y-145630598D01*
X163774000Y-144724689D01*
X163787593Y-144678398D01*
X169599718Y-144678398D01*
X169599718Y-144678401D01*
X169620355Y-144835160D01*
X169620356Y-144835162D01*
X169654572Y-144917768D01*
X169680864Y-144981241D01*
X169777118Y-145106682D01*
X169902559Y-145202936D01*
X170048638Y-145263444D01*
X170127019Y-145273763D01*
X170205399Y-145284082D01*
X170205400Y-145284082D01*
X170205401Y-145284082D01*
X170257654Y-145277202D01*
X170362162Y-145263444D01*
X170508241Y-145202936D01*
X170633682Y-145106682D01*
X170729936Y-144981241D01*
X170790444Y-144835162D01*
X170810104Y-144685826D01*
X170811082Y-144678401D01*
X170811082Y-144678398D01*
X170790444Y-144521639D01*
X170790444Y-144521638D01*
X170729936Y-144375559D01*
X170633682Y-144250118D01*
X170633680Y-144250117D01*
X170633680Y-144250116D01*
X170546871Y-144183506D01*
X170538288Y-144176920D01*
X170497086Y-144120493D01*
X170492931Y-144050747D01*
X170527143Y-143989827D01*
X170538284Y-143980173D01*
X170659082Y-143887482D01*
X170755336Y-143762041D01*
X170815844Y-143615962D01*
X170836482Y-143459200D01*
X170828025Y-143394966D01*
X170819246Y-143328282D01*
X170815844Y-143302438D01*
X170755336Y-143156359D01*
X170659082Y-143030918D01*
X170533641Y-142934664D01*
X170491648Y-142917270D01*
X170387562Y-142874156D01*
X170387560Y-142874155D01*
X170230801Y-142853518D01*
X170230799Y-142853518D01*
X170074039Y-142874155D01*
X170074037Y-142874156D01*
X169927960Y-142934663D01*
X169802518Y-143030918D01*
X169706263Y-143156360D01*
X169645756Y-143302437D01*
X169645755Y-143302439D01*
X169625118Y-143459198D01*
X169625118Y-143459201D01*
X169645755Y-143615960D01*
X169645756Y-143615962D01*
X169703996Y-143756567D01*
X169706264Y-143762041D01*
X169802518Y-143887482D01*
X169897911Y-143960679D01*
X169939113Y-144017106D01*
X169943268Y-144086852D01*
X169909056Y-144147772D01*
X169897911Y-144157429D01*
X169777120Y-144250116D01*
X169777119Y-144250117D01*
X169777118Y-144250118D01*
X169731046Y-144310160D01*
X169680863Y-144375560D01*
X169620356Y-144521637D01*
X169620355Y-144521639D01*
X169599718Y-144678398D01*
X163787593Y-144678398D01*
X163793685Y-144657650D01*
X163822511Y-144626315D01*
X163938282Y-144537482D01*
X164034536Y-144412041D01*
X164095044Y-144265962D01*
X164111908Y-144137866D01*
X164115682Y-144109201D01*
X164115682Y-144109198D01*
X164100863Y-143996637D01*
X164095044Y-143952438D01*
X164034536Y-143806359D01*
X163938282Y-143680918D01*
X163822512Y-143592085D01*
X163781311Y-143535658D01*
X163774000Y-143493710D01*
X163774000Y-142658798D01*
X164468918Y-142658798D01*
X164468918Y-142658801D01*
X164489555Y-142815560D01*
X164489556Y-142815562D01*
X164550064Y-142961641D01*
X164646318Y-143087082D01*
X164771759Y-143183336D01*
X164917838Y-143243844D01*
X164977040Y-143251638D01*
X165074599Y-143264482D01*
X165074600Y-143264482D01*
X165074601Y-143264482D01*
X165139787Y-143255900D01*
X165231362Y-143243844D01*
X165377441Y-143183336D01*
X165502882Y-143087082D01*
X165599136Y-142961641D01*
X165659644Y-142815562D01*
X165680282Y-142658800D01*
X165677630Y-142638659D01*
X165659644Y-142502039D01*
X165659644Y-142502038D01*
X165599136Y-142355959D01*
X165502882Y-142230518D01*
X165377441Y-142134264D01*
X165376364Y-142133818D01*
X165231362Y-142073756D01*
X165231360Y-142073755D01*
X165074601Y-142053118D01*
X165074599Y-142053118D01*
X164917839Y-142073755D01*
X164917837Y-142073756D01*
X164771760Y-142134263D01*
X164646318Y-142230518D01*
X164550063Y-142355960D01*
X164489556Y-142502037D01*
X164489555Y-142502039D01*
X164468918Y-142658798D01*
X163774000Y-142658798D01*
X163774000Y-141905289D01*
X163793685Y-141838250D01*
X163822511Y-141806915D01*
X163938282Y-141718082D01*
X164034536Y-141592641D01*
X164095044Y-141446562D01*
X164115682Y-141289800D01*
X164114724Y-141282527D01*
X164095044Y-141133039D01*
X164095044Y-141133038D01*
X164034536Y-140986959D01*
X163938282Y-140861518D01*
X163822512Y-140772685D01*
X163781311Y-140716258D01*
X163774000Y-140674310D01*
X163774000Y-139686998D01*
X164468918Y-139686998D01*
X164468918Y-139687001D01*
X164489555Y-139843760D01*
X164489556Y-139843762D01*
X164538364Y-139961596D01*
X164550064Y-139989841D01*
X164646318Y-140115282D01*
X164771759Y-140211536D01*
X164917838Y-140272044D01*
X164975133Y-140279587D01*
X165074599Y-140292682D01*
X165074600Y-140292682D01*
X165074601Y-140292682D01*
X165146008Y-140283281D01*
X165231362Y-140272044D01*
X165377441Y-140211536D01*
X165502882Y-140115282D01*
X165599136Y-139989841D01*
X165659644Y-139843762D01*
X165680282Y-139687000D01*
X165673128Y-139632663D01*
X165663536Y-139559798D01*
X165659644Y-139530238D01*
X165599136Y-139384159D01*
X165502882Y-139258718D01*
X165377441Y-139162464D01*
X165301574Y-139131039D01*
X165231362Y-139101956D01*
X165231360Y-139101955D01*
X165074601Y-139081318D01*
X165074599Y-139081318D01*
X164917839Y-139101955D01*
X164917837Y-139101956D01*
X164771760Y-139162463D01*
X164646318Y-139258718D01*
X164550063Y-139384160D01*
X164489556Y-139530237D01*
X164489555Y-139530239D01*
X164468918Y-139686998D01*
X163774000Y-139686998D01*
X163774000Y-138286088D01*
X163773999Y-138286084D01*
X163748631Y-138224841D01*
X163748630Y-138224839D01*
X163746176Y-138218914D01*
X163733809Y-138189056D01*
X163733804Y-138189051D01*
X163727024Y-138178903D01*
X163729737Y-138177089D01*
X163705749Y-138133158D01*
X163710733Y-138063466D01*
X163752605Y-138007533D01*
X163818069Y-137983116D01*
X163826915Y-137982800D01*
X164687710Y-137982800D01*
X164754749Y-138002485D01*
X164786084Y-138031311D01*
X164874918Y-138147082D01*
X165000359Y-138243336D01*
X165146438Y-138303844D01*
X165224819Y-138314163D01*
X165303199Y-138324482D01*
X165303200Y-138324482D01*
X165303201Y-138324482D01*
X165355454Y-138317602D01*
X165459962Y-138303844D01*
X165606041Y-138243336D01*
X165731482Y-138147082D01*
X165827736Y-138021641D01*
X165888244Y-137875562D01*
X165908882Y-137718800D01*
X165888244Y-137562038D01*
X165827736Y-137415959D01*
X165731482Y-137290518D01*
X165606041Y-137194264D01*
X165592760Y-137188763D01*
X165459962Y-137133756D01*
X165459960Y-137133755D01*
X165303201Y-137113118D01*
X165303199Y-137113118D01*
X165146439Y-137133755D01*
X165146437Y-137133756D01*
X165000360Y-137194263D01*
X164910358Y-137263324D01*
X164874918Y-137290518D01*
X164792857Y-137397463D01*
X164786086Y-137406287D01*
X164729658Y-137447489D01*
X164687710Y-137454800D01*
X163513363Y-137454800D01*
X163446324Y-137435115D01*
X163425682Y-137418481D01*
X163033282Y-137026081D01*
X162999797Y-136964758D01*
X163004781Y-136895066D01*
X163046653Y-136839133D01*
X163112117Y-136814716D01*
X163120963Y-136814400D01*
X166478812Y-136814400D01*
X166478813Y-136814400D01*
X166575844Y-136774208D01*
X167289860Y-136060191D01*
X167351181Y-136026708D01*
X167393723Y-136024935D01*
X167458591Y-136033475D01*
X167538399Y-136043982D01*
X167538400Y-136043982D01*
X167538401Y-136043982D01*
X167590654Y-136037102D01*
X167695162Y-136023344D01*
X167766449Y-135993815D01*
X167835916Y-135986347D01*
X167898395Y-136017622D01*
X167934048Y-136077710D01*
X167937900Y-136108377D01*
X167937900Y-136707385D01*
X167918215Y-136774424D01*
X167901581Y-136795066D01*
X167605240Y-137091406D01*
X167543917Y-137124891D01*
X167501374Y-137126664D01*
X167356701Y-137107618D01*
X167356699Y-137107618D01*
X167199939Y-137128255D01*
X167199937Y-137128256D01*
X167053860Y-137188763D01*
X166928418Y-137285018D01*
X166832163Y-137410460D01*
X166771656Y-137556537D01*
X166771655Y-137556539D01*
X166751018Y-137713298D01*
X166751018Y-137713301D01*
X166771655Y-137870060D01*
X166771656Y-137870062D01*
X166818484Y-137983116D01*
X166832164Y-138016141D01*
X166921954Y-138133158D01*
X166928419Y-138141583D01*
X166980686Y-138181688D01*
X167021889Y-138238116D01*
X167029200Y-138280064D01*
X167029200Y-141761184D01*
X167029200Y-141847416D01*
X167051519Y-141930710D01*
X167094362Y-142004918D01*
X167094634Y-142005388D01*
X167094636Y-142005391D01*
X167441550Y-142352305D01*
X167475035Y-142413628D01*
X167470051Y-142483320D01*
X167468430Y-142487438D01*
X167435957Y-142565834D01*
X167435955Y-142565839D01*
X167415318Y-142722598D01*
X167415318Y-142722601D01*
X167435955Y-142879360D01*
X167435956Y-142879362D01*
X167477690Y-142980118D01*
X167496464Y-143025441D01*
X167592718Y-143150882D01*
X167718159Y-143247136D01*
X167864238Y-143307644D01*
X167909942Y-143313661D01*
X168020999Y-143328282D01*
X168021000Y-143328282D01*
X168021001Y-143328282D01*
X168073254Y-143321402D01*
X168177762Y-143307644D01*
X168323841Y-143247136D01*
X168449282Y-143150882D01*
X168545536Y-143025441D01*
X168606044Y-142879362D01*
X168622774Y-142752285D01*
X168626682Y-142722601D01*
X168626682Y-142722598D01*
X168606044Y-142565839D01*
X168606044Y-142565838D01*
X168545536Y-142419759D01*
X168449282Y-142294318D01*
X168323841Y-142198064D01*
X168177762Y-142137556D01*
X168177761Y-142137555D01*
X168177757Y-142137554D01*
X168176175Y-142137130D01*
X168174756Y-142136311D01*
X168170254Y-142134446D01*
X168170499Y-142133853D01*
X168120593Y-142105038D01*
X167720519Y-141704964D01*
X167687034Y-141643641D01*
X167684200Y-141617283D01*
X167684200Y-138280064D01*
X167703885Y-138213025D01*
X167732714Y-138181688D01*
X167784982Y-138141582D01*
X167881236Y-138016141D01*
X167941744Y-137870062D01*
X167962382Y-137713300D01*
X167956992Y-137672362D01*
X167943335Y-137568624D01*
X167954101Y-137499589D01*
X167978593Y-137464758D01*
X168180028Y-137263324D01*
X168425708Y-137017644D01*
X168465900Y-136920613D01*
X168465900Y-136815588D01*
X168465900Y-135110956D01*
X168462459Y-135102649D01*
X168425709Y-135013925D01*
X167962775Y-134550992D01*
X167865744Y-134510800D01*
X167211056Y-134510800D01*
X167206665Y-134512619D01*
X167114025Y-134550991D01*
X167114023Y-134550992D01*
X167114022Y-134550993D01*
X166259299Y-135405715D01*
X166197976Y-135439200D01*
X166128284Y-135434216D01*
X166072351Y-135392344D01*
X166048679Y-135334218D01*
X166041744Y-135281540D01*
X166041744Y-135281538D01*
X165981236Y-135135459D01*
X165884982Y-135010018D01*
X165759541Y-134913764D01*
X165679355Y-134880550D01*
X165613462Y-134853256D01*
X165613460Y-134853255D01*
X165456701Y-134832618D01*
X165456699Y-134832618D01*
X165312024Y-134851664D01*
X165242988Y-134840898D01*
X165208158Y-134816406D01*
X164702402Y-134310650D01*
X164702401Y-134310649D01*
X164605370Y-134270457D01*
X162647021Y-134270457D01*
X162579982Y-134250772D01*
X162548645Y-134221944D01*
X162459813Y-134106175D01*
X162413161Y-134070378D01*
X162371961Y-134013952D01*
X162367806Y-133944206D01*
X162402019Y-133883285D01*
X162441196Y-133857444D01*
X162584096Y-133798253D01*
X162709537Y-133701999D01*
X162805791Y-133576558D01*
X162866299Y-133430479D01*
X162866299Y-133430477D01*
X162866355Y-133430343D01*
X162893232Y-133390118D01*
X164227040Y-132056310D01*
X164288360Y-132022828D01*
X164358052Y-132027812D01*
X164413985Y-132069684D01*
X164438402Y-132135148D01*
X164437657Y-132160179D01*
X164418118Y-132308598D01*
X164418118Y-132308601D01*
X164438755Y-132465360D01*
X164438756Y-132465362D01*
X164492836Y-132595924D01*
X164499264Y-132611441D01*
X164595518Y-132736882D01*
X164720959Y-132833136D01*
X164867038Y-132893644D01*
X164945419Y-132903963D01*
X165023799Y-132914282D01*
X165023800Y-132914282D01*
X165023801Y-132914282D01*
X165086989Y-132905963D01*
X165180562Y-132893644D01*
X165326641Y-132833136D01*
X165452082Y-132736882D01*
X165481799Y-132698153D01*
X165492190Y-132684613D01*
X165548618Y-132643411D01*
X165590565Y-132636100D01*
X167113183Y-132636100D01*
X167180222Y-132655785D01*
X167200864Y-132672419D01*
X169578859Y-135050414D01*
X169612344Y-135111737D01*
X169614117Y-135154280D01*
X169605518Y-135219598D01*
X169605518Y-135219601D01*
X169626155Y-135376360D01*
X169626156Y-135376362D01*
X169653190Y-135441629D01*
X169686664Y-135522441D01*
X169782918Y-135647882D01*
X169898482Y-135736557D01*
X169911080Y-135746224D01*
X169952282Y-135802653D01*
X169956437Y-135872399D01*
X169922224Y-135933319D01*
X169911080Y-135942976D01*
X169782918Y-136041318D01*
X169686663Y-136166760D01*
X169626156Y-136312837D01*
X169626155Y-136312839D01*
X169605518Y-136469598D01*
X169605518Y-136469601D01*
X169626155Y-136626360D01*
X169626156Y-136626362D01*
X169679671Y-136755560D01*
X169686664Y-136772441D01*
X169782918Y-136897882D01*
X169908359Y-136994136D01*
X170054438Y-137054644D01*
X170085247Y-137058700D01*
X170211199Y-137075282D01*
X170211199Y-137075281D01*
X170211200Y-137075282D01*
X170276518Y-137066682D01*
X170345553Y-137077447D01*
X170380385Y-137101940D01*
X170436335Y-137157890D01*
X170497310Y-137218865D01*
X170571990Y-137261981D01*
X170655284Y-137284300D01*
X172034472Y-137284300D01*
X172101511Y-137303985D01*
X172144957Y-137352005D01*
X172147553Y-137357100D01*
X172147554Y-137357104D01*
X172187303Y-137435115D01*
X172205151Y-137470143D01*
X172205154Y-137470147D01*
X172294852Y-137559845D01*
X172294854Y-137559846D01*
X172294858Y-137559850D01*
X172407894Y-137617445D01*
X172407898Y-137617447D01*
X172501675Y-137632299D01*
X172501681Y-137632300D01*
X172964718Y-137632299D01*
X173058504Y-137617446D01*
X173171542Y-137559850D01*
X173261250Y-137470142D01*
X173318846Y-137357104D01*
X173318846Y-137357102D01*
X173318847Y-137357101D01*
X173333699Y-137263324D01*
X173333700Y-137263319D01*
X173333699Y-136650282D01*
X173318846Y-136556496D01*
X173261250Y-136443458D01*
X173261246Y-136443454D01*
X173261245Y-136443452D01*
X173171547Y-136353754D01*
X173171543Y-136353751D01*
X173171542Y-136353750D01*
X173170302Y-136353118D01*
X173126272Y-136330683D01*
X173075476Y-136282708D01*
X173058682Y-136214887D01*
X173081220Y-136148752D01*
X173126269Y-136109717D01*
X173171542Y-136086650D01*
X173261250Y-135996942D01*
X173318846Y-135883904D01*
X173318846Y-135883902D01*
X173318847Y-135883901D01*
X173331715Y-135802653D01*
X173333700Y-135790119D01*
X173333699Y-135177082D01*
X173318846Y-135083296D01*
X173261250Y-134970258D01*
X173261246Y-134970254D01*
X173261245Y-134970252D01*
X173171547Y-134880554D01*
X173171543Y-134880551D01*
X173171542Y-134880550D01*
X173170302Y-134879918D01*
X173126272Y-134857483D01*
X173075476Y-134809508D01*
X173058682Y-134741687D01*
X173081220Y-134675552D01*
X173126269Y-134636517D01*
X173171542Y-134613450D01*
X173261250Y-134523742D01*
X173318846Y-134410704D01*
X173318846Y-134410702D01*
X173318847Y-134410701D01*
X173333699Y-134316924D01*
X173333700Y-134316919D01*
X173333699Y-133703882D01*
X173318846Y-133610096D01*
X173261250Y-133497058D01*
X173261246Y-133497054D01*
X173261245Y-133497052D01*
X173171547Y-133407354D01*
X173171543Y-133407351D01*
X173171542Y-133407350D01*
X173162740Y-133402865D01*
X173126272Y-133384283D01*
X173075476Y-133336308D01*
X173058682Y-133268487D01*
X173081220Y-133202352D01*
X173126269Y-133163317D01*
X173171542Y-133140250D01*
X173261250Y-133050542D01*
X173318846Y-132937504D01*
X173318846Y-132937502D01*
X173318847Y-132937501D01*
X173331366Y-132858454D01*
X173333700Y-132843719D01*
X173333699Y-132250215D01*
X173353383Y-132183177D01*
X173406187Y-132137422D01*
X173475346Y-132127478D01*
X173538902Y-132156503D01*
X173545380Y-132162535D01*
X173746381Y-132363536D01*
X173779866Y-132424859D01*
X173782700Y-132451217D01*
X173782700Y-132843717D01*
X173790608Y-132893644D01*
X173797554Y-132937504D01*
X173855150Y-133050542D01*
X173855152Y-133050544D01*
X173855154Y-133050547D01*
X173944852Y-133140245D01*
X173944854Y-133140246D01*
X173944858Y-133140250D01*
X173987996Y-133162230D01*
X174038791Y-133210204D01*
X174055700Y-133272714D01*
X174055700Y-133274885D01*
X174036015Y-133341924D01*
X173987996Y-133385369D01*
X173944856Y-133407350D01*
X173855154Y-133497052D01*
X173855151Y-133497057D01*
X173797552Y-133610098D01*
X173782700Y-133703875D01*
X173782700Y-134316917D01*
X173789141Y-134357585D01*
X173797554Y-134410704D01*
X173855150Y-134523742D01*
X173855152Y-134523744D01*
X173855154Y-134523747D01*
X173944852Y-134613445D01*
X173944854Y-134613446D01*
X173944858Y-134613450D01*
X173987996Y-134635430D01*
X174038791Y-134683404D01*
X174055700Y-134745914D01*
X174055700Y-134748085D01*
X174036015Y-134815124D01*
X173987996Y-134858569D01*
X173944856Y-134880550D01*
X173855154Y-134970252D01*
X173855151Y-134970257D01*
X173855150Y-134970258D01*
X173840592Y-134998829D01*
X173797552Y-135083298D01*
X173782700Y-135177075D01*
X173782700Y-135790117D01*
X173790922Y-135842026D01*
X173797554Y-135883904D01*
X173855150Y-135996942D01*
X173855152Y-135996944D01*
X173855154Y-135996947D01*
X173944852Y-136086645D01*
X173944855Y-136086647D01*
X173944858Y-136086650D01*
X173977954Y-136103513D01*
X173990127Y-136109716D01*
X174040922Y-136157690D01*
X174057717Y-136225511D01*
X174035179Y-136291646D01*
X173990127Y-136330684D01*
X173944859Y-136353749D01*
X173944852Y-136353754D01*
X173855154Y-136443452D01*
X173855151Y-136443457D01*
X173855150Y-136443458D01*
X173839917Y-136473355D01*
X173797552Y-136556498D01*
X173782700Y-136650275D01*
X173782700Y-137263317D01*
X173793492Y-137331457D01*
X173797554Y-137357104D01*
X173855150Y-137470142D01*
X173855152Y-137470144D01*
X173855154Y-137470147D01*
X173944852Y-137559845D01*
X173944854Y-137559846D01*
X173944858Y-137559850D01*
X174057894Y-137617445D01*
X174057898Y-137617447D01*
X174151675Y-137632299D01*
X174151681Y-137632300D01*
X174614718Y-137632299D01*
X174708504Y-137617446D01*
X174821542Y-137559850D01*
X174911250Y-137470142D01*
X174968846Y-137357104D01*
X174968846Y-137357102D01*
X174968847Y-137357101D01*
X174983699Y-137263324D01*
X174983700Y-137263319D01*
X174983699Y-137104553D01*
X174984760Y-137088367D01*
X174988706Y-137058400D01*
X175002082Y-136956800D01*
X174984760Y-136825226D01*
X174983699Y-136809041D01*
X174983699Y-136650282D01*
X174982720Y-136644100D01*
X174968846Y-136556496D01*
X174911250Y-136443458D01*
X174911246Y-136443454D01*
X174911245Y-136443452D01*
X174821547Y-136353754D01*
X174821543Y-136353751D01*
X174821542Y-136353750D01*
X174820302Y-136353118D01*
X174776272Y-136330683D01*
X174725476Y-136282708D01*
X174708682Y-136214887D01*
X174731220Y-136148752D01*
X174776269Y-136109717D01*
X174821542Y-136086650D01*
X174911250Y-135996942D01*
X174968846Y-135883904D01*
X174968846Y-135883902D01*
X174968847Y-135883901D01*
X174981715Y-135802653D01*
X174983700Y-135790119D01*
X174983699Y-135177082D01*
X174968846Y-135083296D01*
X174911250Y-134970258D01*
X174911246Y-134970254D01*
X174911245Y-134970252D01*
X174821543Y-134880550D01*
X174778404Y-134858569D01*
X174727608Y-134810594D01*
X174710700Y-134748085D01*
X174710700Y-134745914D01*
X174730385Y-134678875D01*
X174778403Y-134635430D01*
X174821542Y-134613450D01*
X174911250Y-134523742D01*
X174968846Y-134410704D01*
X174968846Y-134410702D01*
X174968847Y-134410701D01*
X174983699Y-134316924D01*
X174983700Y-134316919D01*
X174983699Y-133703882D01*
X174968846Y-133610096D01*
X174911250Y-133497058D01*
X174911246Y-133497054D01*
X174911245Y-133497052D01*
X174821543Y-133407350D01*
X174778404Y-133385369D01*
X174727608Y-133337394D01*
X174710700Y-133274885D01*
X174710700Y-133272714D01*
X174730385Y-133205675D01*
X174778403Y-133162230D01*
X174821542Y-133140250D01*
X174911250Y-133050542D01*
X174968846Y-132937504D01*
X174968846Y-132937502D01*
X174968847Y-132937501D01*
X174981366Y-132858454D01*
X174983700Y-132843719D01*
X174983699Y-132230682D01*
X174968846Y-132136896D01*
X174911250Y-132023858D01*
X174911246Y-132023854D01*
X174911245Y-132023852D01*
X174821547Y-131934154D01*
X174821544Y-131934152D01*
X174821542Y-131934150D01*
X174744717Y-131895005D01*
X174708501Y-131876552D01*
X174614724Y-131861700D01*
X174614719Y-131861700D01*
X174222217Y-131861700D01*
X174155178Y-131842015D01*
X174134536Y-131825381D01*
X173866436Y-131557281D01*
X173832951Y-131495958D01*
X173837935Y-131426266D01*
X173866436Y-131381919D01*
X174272069Y-130976286D01*
X174683865Y-130564490D01*
X174726981Y-130489810D01*
X174749300Y-130406516D01*
X174749300Y-130320284D01*
X174749300Y-112001129D01*
X174726981Y-111917835D01*
X174683865Y-111843155D01*
X174622890Y-111782180D01*
X168270832Y-105430122D01*
X168237347Y-105368799D01*
X168235574Y-105358626D01*
X168225044Y-105278638D01*
X168164536Y-105132559D01*
X168068282Y-105007118D01*
X167942841Y-104910864D01*
X167796762Y-104850356D01*
X167796760Y-104850355D01*
X167640001Y-104829718D01*
X167639999Y-104829718D01*
X167483239Y-104850355D01*
X167483237Y-104850356D01*
X167337160Y-104910863D01*
X167211718Y-105007118D01*
X167115463Y-105132560D01*
X167054956Y-105278637D01*
X167054955Y-105278639D01*
X167034318Y-105435398D01*
X167034318Y-105435401D01*
X167054955Y-105592160D01*
X167054956Y-105592162D01*
X167115464Y-105738241D01*
X167211718Y-105863682D01*
X167337159Y-105959936D01*
X167483238Y-106020444D01*
X167561619Y-106030763D01*
X167639999Y-106041082D01*
X167640000Y-106041082D01*
X167640001Y-106041082D01*
X167656337Y-106038931D01*
X167796762Y-106020444D01*
X167817852Y-106011707D01*
X167887319Y-106004238D01*
X167949799Y-106035511D01*
X167952987Y-106038587D01*
X168235536Y-106321136D01*
X168269021Y-106382459D01*
X168264037Y-106452151D01*
X168222165Y-106508084D01*
X168195308Y-106523378D01*
X168071592Y-106574623D01*
X168071582Y-106574628D01*
X167956858Y-106651285D01*
X167956854Y-106651288D01*
X167859288Y-106748854D01*
X167859285Y-106748858D01*
X167782628Y-106863582D01*
X167782621Y-106863595D01*
X167729821Y-106991067D01*
X167729818Y-106991077D01*
X167702900Y-107126404D01*
X167702900Y-107126407D01*
X167702900Y-107264393D01*
X167702900Y-107264395D01*
X167702899Y-107264395D01*
X167729818Y-107399722D01*
X167729821Y-107399732D01*
X167782621Y-107527204D01*
X167782628Y-107527217D01*
X167859285Y-107641941D01*
X167859288Y-107641945D01*
X167956854Y-107739511D01*
X167956858Y-107739514D01*
X168071582Y-107816171D01*
X168071595Y-107816178D01*
X168199067Y-107868978D01*
X168199072Y-107868980D01*
X168199076Y-107868980D01*
X168199077Y-107868981D01*
X168334404Y-107895900D01*
X168334407Y-107895900D01*
X168472395Y-107895900D01*
X168563441Y-107877789D01*
X168607728Y-107868980D01*
X168735211Y-107816175D01*
X168849942Y-107739514D01*
X168947514Y-107641942D01*
X169024175Y-107527211D01*
X169045271Y-107476282D01*
X169075421Y-107403492D01*
X169119262Y-107349088D01*
X169185556Y-107327023D01*
X169253255Y-107344302D01*
X169277663Y-107363263D01*
X174057981Y-112143581D01*
X174091466Y-112204904D01*
X174094300Y-112231262D01*
X174094300Y-130176383D01*
X174074615Y-130243422D01*
X174057981Y-130264064D01*
X173216264Y-131105781D01*
X173154941Y-131139266D01*
X173128583Y-131142100D01*
X172219965Y-131142100D01*
X172152926Y-131122415D01*
X172121590Y-131093587D01*
X172083993Y-131044591D01*
X172081482Y-131041318D01*
X171956041Y-130945064D01*
X171897892Y-130920978D01*
X171809962Y-130884556D01*
X171809960Y-130884555D01*
X171653201Y-130863918D01*
X171653199Y-130863918D01*
X171496439Y-130884555D01*
X171496437Y-130884556D01*
X171350360Y-130945063D01*
X171224918Y-131041318D01*
X171128663Y-131166760D01*
X171068156Y-131312837D01*
X171068155Y-131312839D01*
X171047518Y-131469598D01*
X171047518Y-131469601D01*
X171068155Y-131626360D01*
X171068156Y-131626362D01*
X171118007Y-131746714D01*
X171128664Y-131772441D01*
X171224918Y-131897882D01*
X171341482Y-131987325D01*
X171382684Y-132043752D01*
X171386839Y-132113498D01*
X171352626Y-132174419D01*
X171290909Y-132207171D01*
X171265995Y-132209700D01*
X170572618Y-132209700D01*
X170522355Y-132196232D01*
X170521551Y-132198174D01*
X170367965Y-132134557D01*
X170367960Y-132134555D01*
X170211201Y-132113918D01*
X170211199Y-132113918D01*
X170054439Y-132134555D01*
X170054437Y-132134556D01*
X169908360Y-132195063D01*
X169782918Y-132291318D01*
X169686663Y-132416760D01*
X169626156Y-132562837D01*
X169626155Y-132562839D01*
X169605518Y-132719598D01*
X169605518Y-132719601D01*
X169626155Y-132876360D01*
X169626156Y-132876362D01*
X169686664Y-133022441D01*
X169782918Y-133147882D01*
X169880814Y-133223000D01*
X169911080Y-133246224D01*
X169952282Y-133302653D01*
X169956437Y-133372399D01*
X169922224Y-133433319D01*
X169911080Y-133442976D01*
X169782918Y-133541318D01*
X169686663Y-133666760D01*
X169626156Y-133812837D01*
X169626156Y-133812838D01*
X169624114Y-133828348D01*
X169617262Y-133880392D01*
X169588995Y-133944289D01*
X169530670Y-133982759D01*
X169460805Y-133983590D01*
X169406642Y-133951887D01*
X167501291Y-132046536D01*
X167501290Y-132046535D01*
X167426610Y-132003419D01*
X167426611Y-132003419D01*
X167391966Y-131994136D01*
X167343316Y-131981100D01*
X167343314Y-131981100D01*
X165806262Y-131981100D01*
X165739223Y-131961415D01*
X165693468Y-131908611D01*
X165683524Y-131839453D01*
X165712549Y-131775897D01*
X165771327Y-131738123D01*
X165782072Y-131735482D01*
X165787508Y-131734400D01*
X165787513Y-131734400D01*
X165884544Y-131694208D01*
X171422509Y-126156244D01*
X171456017Y-126075347D01*
X171462700Y-126059213D01*
X171462700Y-117958587D01*
X171422508Y-117861556D01*
X171348244Y-117787292D01*
X170827293Y-117266341D01*
X170793808Y-117205018D01*
X170792035Y-117162474D01*
X170811082Y-117017799D01*
X170811082Y-117017798D01*
X170790444Y-116861039D01*
X170790444Y-116861038D01*
X170729936Y-116714959D01*
X170633682Y-116589518D01*
X170508241Y-116493264D01*
X170362162Y-116432756D01*
X170362160Y-116432755D01*
X170205401Y-116412118D01*
X170205399Y-116412118D01*
X170048639Y-116432755D01*
X170048637Y-116432756D01*
X169902560Y-116493263D01*
X169777118Y-116589518D01*
X169680863Y-116714960D01*
X169620356Y-116861037D01*
X169620355Y-116861039D01*
X169599718Y-117017798D01*
X169599718Y-117017801D01*
X169620355Y-117174560D01*
X169620356Y-117174562D01*
X169674825Y-117306063D01*
X169680864Y-117320641D01*
X169777118Y-117446082D01*
X169902559Y-117542336D01*
X169902560Y-117542336D01*
X169909008Y-117547284D01*
X169907191Y-117549650D01*
X169945566Y-117589897D01*
X169958788Y-117658504D01*
X169932820Y-117723369D01*
X169910837Y-117745091D01*
X169827920Y-117808715D01*
X169731663Y-117934160D01*
X169671156Y-118080237D01*
X169671155Y-118080240D01*
X169669373Y-118093783D01*
X169641108Y-118157680D01*
X169582784Y-118196152D01*
X169546434Y-118201600D01*
X166561287Y-118201600D01*
X166532869Y-118213369D01*
X166532867Y-118213371D01*
X166498561Y-118227581D01*
X166464253Y-118241792D01*
X166464253Y-118241793D01*
X162388983Y-122317063D01*
X162327660Y-122350548D01*
X162263896Y-122345987D01*
X162263663Y-122346859D01*
X162259142Y-122345648D01*
X162257968Y-122345564D01*
X162256133Y-122344841D01*
X162255811Y-122344755D01*
X162099047Y-122324117D01*
X162099045Y-122324117D01*
X161942285Y-122344754D01*
X161942283Y-122344755D01*
X161796206Y-122405262D01*
X161670764Y-122501517D01*
X161574509Y-122626959D01*
X161514002Y-122773036D01*
X161514001Y-122773038D01*
X161493364Y-122929797D01*
X161493364Y-122929800D01*
X161512410Y-123074472D01*
X161501644Y-123143507D01*
X161477153Y-123178338D01*
X161420210Y-123235282D01*
X161140456Y-123515037D01*
X161066193Y-123589299D01*
X161026000Y-123686331D01*
X161026000Y-127180886D01*
X161006315Y-127247925D01*
X160953511Y-127293680D01*
X160884353Y-127303624D01*
X160820797Y-127274599D01*
X160814319Y-127268567D01*
X160509845Y-126964093D01*
X160476360Y-126902770D01*
X160474587Y-126860230D01*
X160486282Y-126771400D01*
X160465644Y-126614638D01*
X160405136Y-126468559D01*
X160308882Y-126343118D01*
X160183441Y-126246864D01*
X160037362Y-126186356D01*
X160037360Y-126186355D01*
X159880601Y-126165718D01*
X159880599Y-126165718D01*
X159723839Y-126186355D01*
X159723837Y-126186356D01*
X159577760Y-126246863D01*
X159452318Y-126343118D01*
X159356063Y-126468560D01*
X159295556Y-126614637D01*
X159295555Y-126614639D01*
X159274918Y-126771398D01*
X159274918Y-126771401D01*
X159295555Y-126928160D01*
X159295556Y-126928162D01*
X159347599Y-127053806D01*
X159356064Y-127074241D01*
X159452318Y-127199682D01*
X159577759Y-127295936D01*
X159723838Y-127356444D01*
X159802219Y-127366763D01*
X159880599Y-127377082D01*
X159880600Y-127377082D01*
X159880601Y-127377082D01*
X159907656Y-127373520D01*
X160037362Y-127356444D01*
X160044341Y-127353552D01*
X160113810Y-127346081D01*
X160176290Y-127377354D01*
X160179479Y-127380431D01*
X160989681Y-128190633D01*
X161023166Y-128251956D01*
X161026000Y-128278314D01*
X161026000Y-132784013D01*
X161006315Y-132851052D01*
X160977486Y-132882389D01*
X160860986Y-132971782D01*
X160860985Y-132971783D01*
X160860984Y-132971784D01*
X160826840Y-133016282D01*
X160764729Y-133097226D01*
X160704222Y-133243303D01*
X160704221Y-133243305D01*
X160683584Y-133400064D01*
X160683584Y-133400068D01*
X160689183Y-133442602D01*
X160678417Y-133511638D01*
X160632036Y-133563893D01*
X160564767Y-133582777D01*
X160497967Y-133562295D01*
X160478566Y-133546470D01*
X157854888Y-130922792D01*
X157757857Y-130882600D01*
X153156562Y-130882600D01*
X153089523Y-130862915D01*
X153068881Y-130846281D01*
X152016598Y-129793998D01*
X156747318Y-129793998D01*
X156747318Y-129794001D01*
X156767955Y-129950760D01*
X156767956Y-129950762D01*
X156828464Y-130096841D01*
X156924718Y-130222282D01*
X157050159Y-130318536D01*
X157196238Y-130379044D01*
X157274619Y-130389363D01*
X157352999Y-130399682D01*
X157353000Y-130399682D01*
X157353001Y-130399682D01*
X157405254Y-130392802D01*
X157509762Y-130379044D01*
X157655841Y-130318536D01*
X157781282Y-130222282D01*
X157877536Y-130096841D01*
X157938044Y-129950762D01*
X157958682Y-129794000D01*
X157938044Y-129637238D01*
X157877536Y-129491159D01*
X157781282Y-129365718D01*
X157655841Y-129269464D01*
X157509762Y-129208956D01*
X157509760Y-129208955D01*
X157353001Y-129188318D01*
X157352999Y-129188318D01*
X157196239Y-129208955D01*
X157196237Y-129208956D01*
X157050160Y-129269463D01*
X156924718Y-129365718D01*
X156828463Y-129491160D01*
X156767956Y-129637237D01*
X156767955Y-129637239D01*
X156747318Y-129793998D01*
X152016598Y-129793998D01*
X151633519Y-129410919D01*
X151600034Y-129349596D01*
X151597200Y-129323238D01*
X151597200Y-128441738D01*
X151616885Y-128374699D01*
X151633519Y-128354057D01*
X151639142Y-128348433D01*
X151658843Y-128322759D01*
X151735398Y-128222990D01*
X151795906Y-128076911D01*
X151805880Y-128001146D01*
X151834146Y-127937251D01*
X151892471Y-127898780D01*
X151962335Y-127897948D01*
X152016497Y-127929650D01*
X152042861Y-127956014D01*
X152076345Y-128017337D01*
X152071359Y-128087029D01*
X152057264Y-128112482D01*
X152057328Y-128112519D01*
X152055290Y-128116048D01*
X152053563Y-128119168D01*
X152053265Y-128119555D01*
X152053265Y-128119556D01*
X151992756Y-128265637D01*
X151992755Y-128265639D01*
X151972118Y-128422398D01*
X151972118Y-128422401D01*
X151992755Y-128579160D01*
X151992756Y-128579162D01*
X152053264Y-128725241D01*
X152149518Y-128850682D01*
X152274959Y-128946936D01*
X152421038Y-129007444D01*
X152499419Y-129017763D01*
X152577799Y-129028082D01*
X152577800Y-129028082D01*
X152577801Y-129028082D01*
X152630054Y-129021202D01*
X152734562Y-129007444D01*
X152880641Y-128946936D01*
X153006082Y-128850682D01*
X153102336Y-128725241D01*
X153162844Y-128579162D01*
X153183482Y-128422400D01*
X153162844Y-128265638D01*
X153102336Y-128119559D01*
X153006082Y-127994118D01*
X152880641Y-127897864D01*
X152880639Y-127897863D01*
X152874192Y-127892916D01*
X152875197Y-127891605D01*
X152833590Y-127847965D01*
X152820370Y-127779357D01*
X152846341Y-127714494D01*
X152896353Y-127676590D01*
X152956841Y-127651536D01*
X153082282Y-127555282D01*
X153171114Y-127439512D01*
X153227542Y-127398311D01*
X153269490Y-127391000D01*
X153341512Y-127391000D01*
X153341513Y-127391000D01*
X153438544Y-127350808D01*
X153853260Y-126936091D01*
X153914581Y-126902608D01*
X153957123Y-126900835D01*
X154032625Y-126910775D01*
X154101799Y-126919882D01*
X154101800Y-126919882D01*
X154101801Y-126919882D01*
X154154054Y-126913002D01*
X154258562Y-126899244D01*
X154404641Y-126838736D01*
X154530082Y-126742482D01*
X154626336Y-126617041D01*
X154686844Y-126470962D01*
X154707482Y-126314200D01*
X154706176Y-126304283D01*
X154686844Y-126157439D01*
X154686844Y-126157438D01*
X154626336Y-126011359D01*
X154530082Y-125885918D01*
X154404641Y-125789664D01*
X154381201Y-125779955D01*
X154258562Y-125729156D01*
X154258560Y-125729155D01*
X154101801Y-125708518D01*
X154101799Y-125708518D01*
X153945039Y-125729155D01*
X153945037Y-125729156D01*
X153798960Y-125789663D01*
X153673518Y-125885918D01*
X153577263Y-126011360D01*
X153516756Y-126157437D01*
X153516755Y-126157439D01*
X153496118Y-126314198D01*
X153496118Y-126314201D01*
X153515164Y-126458873D01*
X153504398Y-126527908D01*
X153479906Y-126562739D01*
X153295862Y-126746783D01*
X153234539Y-126780268D01*
X153164847Y-126775284D01*
X153109806Y-126734589D01*
X153082282Y-126698718D01*
X152956841Y-126602464D01*
X152895114Y-126576896D01*
X152810762Y-126541956D01*
X152810760Y-126541955D01*
X152654001Y-126521318D01*
X152653999Y-126521318D01*
X152497239Y-126541955D01*
X152497237Y-126541956D01*
X152351160Y-126602463D01*
X152225718Y-126698718D01*
X152129463Y-126824160D01*
X152068956Y-126970236D01*
X152068508Y-126971912D01*
X152067743Y-126973166D01*
X152065846Y-126977747D01*
X152065131Y-126977451D01*
X152032142Y-127031572D01*
X151969295Y-127062101D01*
X151899920Y-127053806D01*
X151861052Y-127027499D01*
X151612692Y-126779139D01*
X151579207Y-126717816D01*
X151584191Y-126648124D01*
X151626063Y-126592191D01*
X151652910Y-126576902D01*
X151724207Y-126547370D01*
X151849648Y-126451116D01*
X151945902Y-126325675D01*
X152006410Y-126179596D01*
X152027048Y-126022834D01*
X152025537Y-126011360D01*
X152008001Y-125878157D01*
X152018767Y-125809122D01*
X152043256Y-125774294D01*
X152176125Y-125641425D01*
X152237446Y-125607942D01*
X152279989Y-125606169D01*
X152424665Y-125625216D01*
X152424666Y-125625216D01*
X152424667Y-125625216D01*
X152476920Y-125618336D01*
X152581428Y-125604578D01*
X152727507Y-125544070D01*
X152852948Y-125447816D01*
X152948264Y-125323598D01*
X157458518Y-125323598D01*
X157458518Y-125323601D01*
X157479155Y-125480360D01*
X157479156Y-125480362D01*
X157539156Y-125625216D01*
X157539664Y-125626441D01*
X157635918Y-125751882D01*
X157761359Y-125848136D01*
X157907438Y-125908644D01*
X157940708Y-125913024D01*
X158064199Y-125929282D01*
X158064200Y-125929282D01*
X158064201Y-125929282D01*
X158116454Y-125922402D01*
X158220962Y-125908644D01*
X158367041Y-125848136D01*
X158492482Y-125751882D01*
X158588736Y-125626441D01*
X158649244Y-125480362D01*
X158669882Y-125323600D01*
X158669720Y-125322373D01*
X158655603Y-125215137D01*
X158649244Y-125166838D01*
X158588736Y-125020759D01*
X158492482Y-124895318D01*
X158367041Y-124799064D01*
X158366734Y-124798937D01*
X158220962Y-124738556D01*
X158220960Y-124738555D01*
X158064201Y-124717918D01*
X158064199Y-124717918D01*
X157907439Y-124738555D01*
X157907437Y-124738556D01*
X157761360Y-124799063D01*
X157635918Y-124895318D01*
X157539663Y-125020760D01*
X157479156Y-125166837D01*
X157479155Y-125166839D01*
X157458518Y-125323598D01*
X152948264Y-125323598D01*
X152949202Y-125322375D01*
X153009710Y-125176296D01*
X153030348Y-125019534D01*
X153029954Y-125016544D01*
X153009710Y-124862773D01*
X153009710Y-124862772D01*
X152949202Y-124716693D01*
X152852948Y-124591252D01*
X152727507Y-124494998D01*
X152708321Y-124487051D01*
X152581428Y-124434490D01*
X152581426Y-124434489D01*
X152424667Y-124413852D01*
X152424665Y-124413852D01*
X152267905Y-124434489D01*
X152267903Y-124434490D01*
X152121826Y-124494997D01*
X151996384Y-124591252D01*
X151900129Y-124716694D01*
X151839622Y-124862771D01*
X151839621Y-124862773D01*
X151818984Y-125019532D01*
X151818984Y-125019535D01*
X151838030Y-125164208D01*
X151827264Y-125233243D01*
X151802772Y-125268074D01*
X151669906Y-125400940D01*
X151608583Y-125434425D01*
X151566040Y-125436198D01*
X151421367Y-125417152D01*
X151421365Y-125417152D01*
X151264605Y-125437789D01*
X151264603Y-125437790D01*
X151118526Y-125498297D01*
X150993084Y-125594552D01*
X150896829Y-125719994D01*
X150867302Y-125791279D01*
X150823461Y-125845683D01*
X150757166Y-125867747D01*
X150689467Y-125850467D01*
X150665060Y-125831507D01*
X149513491Y-124679939D01*
X149480006Y-124618616D01*
X149481062Y-124574321D01*
X149478783Y-124574021D01*
X149500482Y-124409201D01*
X149500482Y-124409198D01*
X149479844Y-124252439D01*
X149479844Y-124252438D01*
X149419336Y-124106359D01*
X149323082Y-123980918D01*
X149197641Y-123884664D01*
X149178006Y-123876531D01*
X149051562Y-123824156D01*
X149051560Y-123824155D01*
X148894801Y-123803518D01*
X148894799Y-123803518D01*
X148738039Y-123824155D01*
X148738037Y-123824156D01*
X148591960Y-123884663D01*
X148466518Y-123980918D01*
X148370263Y-124106360D01*
X148309756Y-124252437D01*
X148309755Y-124252439D01*
X148289118Y-124409198D01*
X148289118Y-124409201D01*
X148309755Y-124565960D01*
X148309756Y-124565962D01*
X148370264Y-124712041D01*
X148466518Y-124837482D01*
X148591959Y-124933736D01*
X148738038Y-124994244D01*
X148816419Y-125004563D01*
X148894799Y-125014882D01*
X148894800Y-125014882D01*
X148894801Y-125014882D01*
X148943309Y-125008495D01*
X149017030Y-124998790D01*
X149086065Y-125009555D01*
X149120896Y-125034048D01*
X150329807Y-126242960D01*
X150363292Y-126304283D01*
X150358308Y-126373975D01*
X150316436Y-126429908D01*
X150289579Y-126445202D01*
X150218294Y-126474729D01*
X150092852Y-126570984D01*
X149996597Y-126696426D01*
X149936090Y-126842503D01*
X149936089Y-126842505D01*
X149915452Y-126999264D01*
X149915452Y-126999267D01*
X149934498Y-127143940D01*
X149923732Y-127212975D01*
X149899240Y-127247806D01*
X149710765Y-127436282D01*
X149649445Y-127469766D01*
X149623086Y-127472600D01*
X149180090Y-127472600D01*
X149113051Y-127452915D01*
X149081714Y-127424087D01*
X148992882Y-127308318D01*
X148867441Y-127212064D01*
X148867440Y-127212063D01*
X148867438Y-127212062D01*
X148754690Y-127165361D01*
X148700286Y-127121520D01*
X148678221Y-127055226D01*
X148695500Y-126987527D01*
X148746637Y-126939916D01*
X148754690Y-126936239D01*
X148867441Y-126889536D01*
X148992882Y-126793282D01*
X149089136Y-126667841D01*
X149149644Y-126521762D01*
X149163802Y-126414222D01*
X149170282Y-126365001D01*
X149170282Y-126364998D01*
X149149644Y-126208239D01*
X149149644Y-126208238D01*
X149089136Y-126062159D01*
X148992882Y-125936718D01*
X148867441Y-125840464D01*
X148835491Y-125827230D01*
X148721362Y-125779956D01*
X148721360Y-125779955D01*
X148564602Y-125759318D01*
X148564598Y-125759318D01*
X148554594Y-125760635D01*
X148485559Y-125749869D01*
X148450729Y-125725377D01*
X148358545Y-125633193D01*
X148358544Y-125633192D01*
X148261513Y-125593000D01*
X140448014Y-125593000D01*
X140380975Y-125573315D01*
X140360333Y-125556681D01*
X139483693Y-124680041D01*
X139450208Y-124618718D01*
X139448435Y-124576174D01*
X139448719Y-124574021D01*
X139456189Y-124517275D01*
X141554200Y-124561600D01*
X143103600Y-124510800D01*
X148818600Y-119075200D01*
X148590000Y-113512600D01*
X143611600Y-113055400D01*
X139903200Y-113030000D01*
X137795000Y-114376200D01*
X137007600Y-118541800D01*
X137439400Y-121488200D01*
X137947400Y-124485400D01*
X138264094Y-124492090D01*
X138276755Y-124588260D01*
X138276756Y-124588262D01*
X138331256Y-124719838D01*
X138337264Y-124734341D01*
X138433518Y-124859782D01*
X138558959Y-124956036D01*
X138705038Y-125016544D01*
X138737062Y-125020760D01*
X138861799Y-125037182D01*
X138861800Y-125037182D01*
X139006475Y-125018135D01*
X139075510Y-125028900D01*
X139110341Y-125053393D01*
X140063492Y-126006544D01*
X140137756Y-126080808D01*
X140234787Y-126121000D01*
X147849646Y-126121000D01*
X147916685Y-126140685D01*
X147962440Y-126193489D01*
X147972585Y-126261185D01*
X147958918Y-126364998D01*
X147958918Y-126365001D01*
X147979555Y-126521760D01*
X147979556Y-126521762D01*
X148018026Y-126614638D01*
X148040064Y-126667841D01*
X148136318Y-126793282D01*
X148261759Y-126889536D01*
X148374510Y-126936239D01*
X148428913Y-126980080D01*
X148450978Y-127046374D01*
X148433699Y-127114074D01*
X148382561Y-127161684D01*
X148374510Y-127165361D01*
X148261760Y-127212063D01*
X148136318Y-127308318D01*
X148040063Y-127433760D01*
X147979556Y-127579837D01*
X147979555Y-127579839D01*
X147958918Y-127736598D01*
X147958918Y-127736601D01*
X147979555Y-127893360D01*
X147979556Y-127893362D01*
X148037357Y-128032907D01*
X148040064Y-128039441D01*
X148136318Y-128164882D01*
X148261759Y-128261136D01*
X148407838Y-128321644D01*
X148486219Y-128331963D01*
X148564599Y-128342282D01*
X148564600Y-128342282D01*
X148564601Y-128342282D01*
X148616854Y-128335402D01*
X148721362Y-128321644D01*
X148867441Y-128261136D01*
X148992882Y-128164882D01*
X149081714Y-128049112D01*
X149138142Y-128007911D01*
X149180090Y-128000600D01*
X149836312Y-128000600D01*
X149836313Y-128000600D01*
X149933344Y-127960408D01*
X150272592Y-127621158D01*
X150333915Y-127587674D01*
X150376457Y-127585901D01*
X150521134Y-127604948D01*
X150521134Y-127604947D01*
X150523072Y-127605203D01*
X150586969Y-127633469D01*
X150625440Y-127691794D01*
X150626575Y-127755290D01*
X150626879Y-127755330D01*
X150626612Y-127757353D01*
X150626664Y-127760226D01*
X150625819Y-127763380D01*
X150606050Y-127913533D01*
X150577783Y-127977430D01*
X150519458Y-128015900D01*
X150499297Y-128020286D01*
X150362938Y-128038238D01*
X150345338Y-128040556D01*
X150345337Y-128040556D01*
X150199260Y-128101063D01*
X150073818Y-128197318D01*
X149977563Y-128322760D01*
X149917056Y-128468837D01*
X149917055Y-128468839D01*
X149896418Y-128625598D01*
X149896418Y-128625601D01*
X149917055Y-128782360D01*
X149917056Y-128782362D01*
X149977564Y-128928441D01*
X150073818Y-129053882D01*
X150189587Y-129142714D01*
X150230789Y-129199141D01*
X150238100Y-129241089D01*
X150238100Y-129269413D01*
X150278292Y-129366444D01*
X150278293Y-129366445D01*
X151895115Y-130983268D01*
X151928600Y-131044591D01*
X151923616Y-131114283D01*
X151881744Y-131170216D01*
X151823620Y-131193888D01*
X151659038Y-131215556D01*
X151659037Y-131215556D01*
X151512960Y-131276063D01*
X151387518Y-131372318D01*
X151291263Y-131497760D01*
X151230756Y-131643837D01*
X151230755Y-131643839D01*
X151210118Y-131800598D01*
X151210118Y-131800601D01*
X151230755Y-131957360D01*
X151230757Y-131957365D01*
X151260283Y-132028648D01*
X151267752Y-132098117D01*
X151236476Y-132160596D01*
X151176387Y-132196248D01*
X151145722Y-132200100D01*
X151082545Y-132200100D01*
X151015506Y-132180415D01*
X150969751Y-132127611D01*
X150959606Y-132059916D01*
X150973682Y-131953000D01*
X150971200Y-131934151D01*
X150953044Y-131796239D01*
X150953044Y-131796238D01*
X150892536Y-131650159D01*
X150796282Y-131524718D01*
X150670841Y-131428464D01*
X150524762Y-131367956D01*
X150524760Y-131367955D01*
X150368001Y-131347318D01*
X150367999Y-131347318D01*
X150211239Y-131367955D01*
X150211237Y-131367956D01*
X150065160Y-131428463D01*
X149939718Y-131524718D01*
X149843464Y-131650159D01*
X149813936Y-131721445D01*
X149770094Y-131775848D01*
X149703800Y-131797912D01*
X149636101Y-131780632D01*
X149611694Y-131761672D01*
X149020414Y-131170393D01*
X149020413Y-131170392D01*
X148923382Y-131130200D01*
X144980018Y-131130200D01*
X144980017Y-131130200D01*
X144980013Y-131130201D01*
X144958837Y-131138973D01*
X144958819Y-131138981D01*
X144953223Y-131141298D01*
X144883753Y-131148757D01*
X144821278Y-131117473D01*
X144791226Y-131074182D01*
X144777613Y-131041318D01*
X144745736Y-130964359D01*
X144649482Y-130838918D01*
X144524041Y-130742664D01*
X144470998Y-130720693D01*
X144377962Y-130682156D01*
X144377960Y-130682155D01*
X144221201Y-130661518D01*
X144221199Y-130661518D01*
X144064439Y-130682155D01*
X144064437Y-130682156D01*
X143918360Y-130742663D01*
X143880667Y-130771586D01*
X143834631Y-130806911D01*
X143792917Y-130838919D01*
X143764754Y-130875622D01*
X143708326Y-130916824D01*
X143638579Y-130920978D01*
X143578698Y-130887815D01*
X143375576Y-130684693D01*
X143375575Y-130684692D01*
X143278544Y-130644500D01*
X141499108Y-130644500D01*
X141499105Y-130644500D01*
X141485496Y-130650138D01*
X141485495Y-130650138D01*
X141402080Y-130684688D01*
X141402077Y-130684690D01*
X141402077Y-130684691D01*
X141243686Y-130843082D01*
X141182365Y-130876566D01*
X141156007Y-130879400D01*
X125183972Y-130879400D01*
X125116933Y-130859715D01*
X125071178Y-130806911D01*
X125061033Y-130771586D01*
X125057225Y-130742663D01*
X125045044Y-130650138D01*
X124984536Y-130504059D01*
X124888282Y-130378618D01*
X124762841Y-130282364D01*
X124698135Y-130255562D01*
X124616762Y-130221856D01*
X124616760Y-130221855D01*
X124460001Y-130201218D01*
X124459999Y-130201218D01*
X124303239Y-130221855D01*
X124303237Y-130221856D01*
X124157160Y-130282363D01*
X124031718Y-130378618D01*
X123935463Y-130504060D01*
X123874956Y-130650137D01*
X123874956Y-130650138D01*
X123861117Y-130755250D01*
X123832850Y-130819147D01*
X123774525Y-130857617D01*
X123704660Y-130858448D01*
X123650497Y-130826745D01*
X123171093Y-130347341D01*
X123137608Y-130286018D01*
X123135835Y-130243474D01*
X123138626Y-130222281D01*
X123154882Y-130098800D01*
X123134244Y-129942038D01*
X123073736Y-129795959D01*
X123013761Y-129717798D01*
X142955118Y-129717798D01*
X142955118Y-129717801D01*
X142975755Y-129874560D01*
X142975756Y-129874562D01*
X143003705Y-129942038D01*
X143036264Y-130020641D01*
X143132518Y-130146082D01*
X143257959Y-130242336D01*
X143404038Y-130302844D01*
X143482419Y-130313163D01*
X143560799Y-130323482D01*
X143560800Y-130323482D01*
X143560801Y-130323482D01*
X143613054Y-130316602D01*
X143717562Y-130302844D01*
X143863641Y-130242336D01*
X143989082Y-130146082D01*
X144085336Y-130020641D01*
X144145844Y-129874562D01*
X144166482Y-129717800D01*
X144145844Y-129561038D01*
X144085336Y-129414959D01*
X143989082Y-129289518D01*
X143863641Y-129193264D01*
X143851700Y-129188318D01*
X143717562Y-129132756D01*
X143717560Y-129132755D01*
X143560801Y-129112118D01*
X143560799Y-129112118D01*
X143404039Y-129132755D01*
X143404037Y-129132756D01*
X143257960Y-129193263D01*
X143132518Y-129289518D01*
X143036263Y-129414960D01*
X142975756Y-129561037D01*
X142975755Y-129561039D01*
X142955118Y-129717798D01*
X123013761Y-129717798D01*
X122977482Y-129670518D01*
X122852041Y-129574264D01*
X122820108Y-129561037D01*
X122705962Y-129513756D01*
X122705960Y-129513755D01*
X122549201Y-129493118D01*
X122549199Y-129493118D01*
X122392439Y-129513755D01*
X122392437Y-129513756D01*
X122246360Y-129574263D01*
X122120918Y-129670518D01*
X122024663Y-129795960D01*
X121964156Y-129942037D01*
X121964155Y-129942039D01*
X121943518Y-130098798D01*
X119032037Y-130098798D01*
X118989406Y-126364998D01*
X133038918Y-126364998D01*
X133038918Y-126365001D01*
X133059555Y-126521760D01*
X133059556Y-126521762D01*
X133098026Y-126614638D01*
X133120064Y-126667841D01*
X133216318Y-126793282D01*
X133341759Y-126889536D01*
X133487838Y-126950044D01*
X133566219Y-126960363D01*
X133644599Y-126970682D01*
X133644600Y-126970682D01*
X133644601Y-126970682D01*
X133696854Y-126963802D01*
X133801362Y-126950044D01*
X133947441Y-126889536D01*
X134072882Y-126793282D01*
X134169136Y-126667841D01*
X134229644Y-126521762D01*
X134243802Y-126414222D01*
X134250282Y-126365001D01*
X134250282Y-126364998D01*
X134229644Y-126208239D01*
X134229644Y-126208238D01*
X134169136Y-126062159D01*
X134072882Y-125936718D01*
X133947441Y-125840464D01*
X133915491Y-125827230D01*
X133801362Y-125779956D01*
X133801360Y-125779955D01*
X133644601Y-125759318D01*
X133644599Y-125759318D01*
X133487839Y-125779955D01*
X133487837Y-125779956D01*
X133341760Y-125840463D01*
X133216318Y-125936718D01*
X133120063Y-126062160D01*
X133059556Y-126208237D01*
X133059555Y-126208239D01*
X133038918Y-126364998D01*
X118989406Y-126364998D01*
X118898053Y-118364000D01*
X120929400Y-118364000D01*
X121361200Y-121310400D01*
X121869200Y-124307600D01*
X125450600Y-124307600D01*
X125476000Y-124307600D01*
X127762000Y-124307600D01*
X128663422Y-123327993D01*
X134025313Y-123327993D01*
X134025313Y-123327996D01*
X134045950Y-123484755D01*
X134045951Y-123484757D01*
X134101432Y-123618701D01*
X134106459Y-123630836D01*
X134202713Y-123756277D01*
X134328154Y-123852531D01*
X134474233Y-123913039D01*
X134552614Y-123923358D01*
X134630994Y-123933677D01*
X134630995Y-123933677D01*
X134630996Y-123933677D01*
X134683249Y-123926797D01*
X134787757Y-123913039D01*
X134933836Y-123852531D01*
X135059277Y-123756277D01*
X135155531Y-123630836D01*
X135160559Y-123618698D01*
X135785218Y-123618698D01*
X135785218Y-123618701D01*
X135805855Y-123775460D01*
X135805856Y-123775462D01*
X135860325Y-123906963D01*
X135866364Y-123921541D01*
X135962618Y-124046982D01*
X136088059Y-124143236D01*
X136234138Y-124203744D01*
X136312519Y-124214063D01*
X136390899Y-124224382D01*
X136390900Y-124224382D01*
X136390901Y-124224382D01*
X136443154Y-124217502D01*
X136547662Y-124203744D01*
X136693741Y-124143236D01*
X136819182Y-124046982D01*
X136915436Y-123921541D01*
X136975944Y-123775462D01*
X136996582Y-123618700D01*
X136983118Y-123516434D01*
X136978948Y-123484755D01*
X136975944Y-123461938D01*
X136915436Y-123315859D01*
X136819182Y-123190418D01*
X136693741Y-123094164D01*
X136673261Y-123085681D01*
X136547662Y-123033656D01*
X136547660Y-123033655D01*
X136390901Y-123013018D01*
X136390899Y-123013018D01*
X136234139Y-123033655D01*
X136234137Y-123033656D01*
X136088060Y-123094163D01*
X135962618Y-123190418D01*
X135866363Y-123315860D01*
X135805856Y-123461937D01*
X135805855Y-123461939D01*
X135785218Y-123618698D01*
X135160559Y-123618698D01*
X135216039Y-123484757D01*
X135236677Y-123327995D01*
X135235118Y-123316156D01*
X135216039Y-123171234D01*
X135216039Y-123171233D01*
X135155531Y-123025154D01*
X135059277Y-122899713D01*
X134933836Y-122803459D01*
X134860393Y-122773038D01*
X134787757Y-122742951D01*
X134787755Y-122742950D01*
X134630996Y-122722313D01*
X134630994Y-122722313D01*
X134474234Y-122742950D01*
X134474232Y-122742951D01*
X134328155Y-122803458D01*
X134202713Y-122899713D01*
X134106458Y-123025155D01*
X134045951Y-123171232D01*
X134045950Y-123171234D01*
X134025313Y-123327993D01*
X128663422Y-123327993D01*
X132740400Y-118897400D01*
X132511800Y-113334800D01*
X127254000Y-112496600D01*
X124180600Y-112242600D01*
X121716800Y-114198400D01*
X120929400Y-118364000D01*
X118898053Y-118364000D01*
X118821200Y-111633000D01*
X121310400Y-107670600D01*
X121207947Y-107047998D01*
X135180118Y-107047998D01*
X135180118Y-107048001D01*
X135200755Y-107204760D01*
X135200756Y-107204762D01*
X135245175Y-107312000D01*
X135261264Y-107350841D01*
X135357518Y-107476282D01*
X135482959Y-107572536D01*
X135629038Y-107633044D01*
X135696648Y-107641945D01*
X135785799Y-107653682D01*
X135785800Y-107653682D01*
X135785801Y-107653682D01*
X135838054Y-107646802D01*
X135942562Y-107633044D01*
X136088641Y-107572536D01*
X136214082Y-107476282D01*
X136302914Y-107360512D01*
X136359342Y-107319311D01*
X136401290Y-107312000D01*
X146544312Y-107312000D01*
X146544313Y-107312000D01*
X146641344Y-107271808D01*
X147855860Y-106057291D01*
X147917181Y-106023808D01*
X147959723Y-106022035D01*
X148035225Y-106031975D01*
X148104399Y-106041082D01*
X148104400Y-106041082D01*
X148104401Y-106041082D01*
X148156654Y-106034202D01*
X148261162Y-106020444D01*
X148407241Y-105959936D01*
X148532682Y-105863682D01*
X148628936Y-105738241D01*
X148689444Y-105592162D01*
X148710082Y-105435400D01*
X148689444Y-105278638D01*
X148628936Y-105132559D01*
X148532682Y-105007118D01*
X148407241Y-104910864D01*
X148261162Y-104850356D01*
X148261160Y-104850355D01*
X148104401Y-104829718D01*
X148104399Y-104829718D01*
X147947639Y-104850355D01*
X147947637Y-104850356D01*
X147801560Y-104910863D01*
X147676118Y-105007118D01*
X147579863Y-105132560D01*
X147519356Y-105278637D01*
X147519355Y-105278639D01*
X147498718Y-105435398D01*
X147498718Y-105435401D01*
X147517764Y-105580073D01*
X147506998Y-105649108D01*
X147482506Y-105683939D01*
X146418767Y-106747681D01*
X146357444Y-106781166D01*
X146331086Y-106784000D01*
X136401290Y-106784000D01*
X136334251Y-106764315D01*
X136302914Y-106735487D01*
X136214082Y-106619718D01*
X136088641Y-106523464D01*
X136088433Y-106523378D01*
X135942562Y-106462956D01*
X135942560Y-106462955D01*
X135785801Y-106442318D01*
X135785799Y-106442318D01*
X135629039Y-106462955D01*
X135629037Y-106462956D01*
X135482960Y-106523463D01*
X135357518Y-106619718D01*
X135261263Y-106745160D01*
X135200756Y-106891237D01*
X135200755Y-106891239D01*
X135180118Y-107047998D01*
X121207947Y-107047998D01*
X120650000Y-103657400D01*
X119581901Y-103049177D01*
X150216099Y-103049177D01*
X150243018Y-103184504D01*
X150243021Y-103184514D01*
X150295821Y-103311986D01*
X150295828Y-103311999D01*
X150372485Y-103426723D01*
X150372488Y-103426727D01*
X150470054Y-103524293D01*
X150470062Y-103524299D01*
X150538612Y-103570103D01*
X150583418Y-103623715D01*
X150592125Y-103693040D01*
X150561971Y-103756067D01*
X150545210Y-103771579D01*
X150523921Y-103787915D01*
X150523919Y-103787916D01*
X150523918Y-103787918D01*
X150453132Y-103880168D01*
X150427663Y-103913360D01*
X150367156Y-104059437D01*
X150367155Y-104059439D01*
X150346518Y-104216198D01*
X150346518Y-104216201D01*
X150367155Y-104372960D01*
X150367156Y-104372962D01*
X150427664Y-104519041D01*
X150523918Y-104644482D01*
X150649359Y-104740736D01*
X150649360Y-104740736D01*
X150649361Y-104740737D01*
X150649409Y-104740757D01*
X150649445Y-104740786D01*
X150656396Y-104744799D01*
X150655770Y-104745883D01*
X150703813Y-104784598D01*
X150725878Y-104850892D01*
X150708599Y-104918591D01*
X150677444Y-104953694D01*
X150574718Y-105032518D01*
X150478463Y-105157960D01*
X150417956Y-105304037D01*
X150417955Y-105304039D01*
X150397318Y-105460798D01*
X150397318Y-105460801D01*
X150417955Y-105617560D01*
X150417956Y-105617562D01*
X150478464Y-105763641D01*
X150574718Y-105889082D01*
X150700159Y-105985336D01*
X150831412Y-106039702D01*
X150885815Y-106083543D01*
X150907880Y-106149837D01*
X150890601Y-106217536D01*
X150839464Y-106265147D01*
X150828248Y-106269407D01*
X150828347Y-106269646D01*
X150820839Y-106272755D01*
X150820838Y-106272756D01*
X150772508Y-106292774D01*
X150674760Y-106333263D01*
X150549318Y-106429518D01*
X150453063Y-106554960D01*
X150392556Y-106701037D01*
X150392555Y-106701039D01*
X150371918Y-106857798D01*
X150371918Y-106857801D01*
X150392555Y-107014560D01*
X150392556Y-107014562D01*
X150438882Y-107126404D01*
X150453064Y-107160641D01*
X150549318Y-107286082D01*
X150674759Y-107382336D01*
X150820838Y-107442844D01*
X150899219Y-107453163D01*
X150977599Y-107463482D01*
X150977600Y-107463482D01*
X150977601Y-107463482D01*
X151029854Y-107456602D01*
X151134362Y-107442844D01*
X151280441Y-107382336D01*
X151405882Y-107286082D01*
X151502136Y-107160641D01*
X151562644Y-107014562D01*
X151583282Y-106857800D01*
X151580512Y-106836762D01*
X151562644Y-106701039D01*
X151562644Y-106701038D01*
X151502136Y-106554959D01*
X151405882Y-106429518D01*
X151280441Y-106333264D01*
X151251161Y-106321136D01*
X151229909Y-106312333D01*
X151149186Y-106278896D01*
X151094784Y-106235056D01*
X151072719Y-106168762D01*
X151089998Y-106101063D01*
X151141135Y-106053452D01*
X151152352Y-106049193D01*
X151152253Y-106048954D01*
X151159760Y-106045844D01*
X151159762Y-106045844D01*
X151305841Y-105985336D01*
X151431282Y-105889082D01*
X151471390Y-105836813D01*
X151527818Y-105795611D01*
X151569765Y-105788300D01*
X151616649Y-105788300D01*
X151683688Y-105807985D01*
X151704330Y-105824619D01*
X158772724Y-112893013D01*
X156057600Y-112953800D01*
X153949400Y-114325400D01*
X153162000Y-118491000D01*
X153593800Y-121437400D01*
X154101800Y-124434600D01*
X157632400Y-124434600D01*
X159639000Y-124434600D01*
X160553400Y-122072400D01*
X164261800Y-116713000D01*
X164744400Y-113461800D01*
X159711273Y-112905252D01*
X159632819Y-112826798D01*
X167745518Y-112826798D01*
X167745518Y-112826801D01*
X167766155Y-112983560D01*
X167766156Y-112983562D01*
X167826664Y-113129641D01*
X167922918Y-113255082D01*
X168048359Y-113351336D01*
X168194438Y-113411844D01*
X168272819Y-113422163D01*
X168351199Y-113432482D01*
X168351200Y-113432482D01*
X168351201Y-113432482D01*
X168403454Y-113425602D01*
X168507962Y-113411844D01*
X168654041Y-113351336D01*
X168779482Y-113255082D01*
X168875736Y-113129641D01*
X168936244Y-112983562D01*
X168956882Y-112826800D01*
X168936244Y-112670038D01*
X168875736Y-112523959D01*
X168779482Y-112398518D01*
X168654041Y-112302264D01*
X168507962Y-112241756D01*
X168507960Y-112241755D01*
X168351201Y-112221118D01*
X168351199Y-112221118D01*
X168194439Y-112241755D01*
X168194437Y-112241756D01*
X168048360Y-112302263D01*
X167922918Y-112398518D01*
X167826663Y-112523960D01*
X167766156Y-112670037D01*
X167766155Y-112670039D01*
X167745518Y-112826798D01*
X159632819Y-112826798D01*
X153486019Y-106679998D01*
X160938318Y-106679998D01*
X160938318Y-106680001D01*
X160958955Y-106836760D01*
X160958956Y-106836762D01*
X161019464Y-106982841D01*
X161115718Y-107108282D01*
X161241159Y-107204536D01*
X161387238Y-107265044D01*
X161438601Y-107271806D01*
X161543999Y-107285682D01*
X161544000Y-107285682D01*
X161544001Y-107285682D01*
X161596254Y-107278802D01*
X161700762Y-107265044D01*
X161702329Y-107264395D01*
X164702899Y-107264395D01*
X164729818Y-107399722D01*
X164729821Y-107399732D01*
X164782621Y-107527204D01*
X164782628Y-107527217D01*
X164859285Y-107641941D01*
X164859288Y-107641945D01*
X164956854Y-107739511D01*
X164956858Y-107739514D01*
X165071582Y-107816171D01*
X165071595Y-107816178D01*
X165199067Y-107868978D01*
X165199072Y-107868980D01*
X165199076Y-107868980D01*
X165199077Y-107868981D01*
X165334404Y-107895900D01*
X165334407Y-107895900D01*
X165472395Y-107895900D01*
X165563441Y-107877789D01*
X165607728Y-107868980D01*
X165735211Y-107816175D01*
X165849942Y-107739514D01*
X165947514Y-107641942D01*
X166024175Y-107527211D01*
X166076980Y-107399728D01*
X166092976Y-107319311D01*
X166103900Y-107264395D01*
X166103900Y-107126404D01*
X166076981Y-106991077D01*
X166076980Y-106991076D01*
X166076980Y-106991072D01*
X166035628Y-106891238D01*
X166024178Y-106863595D01*
X166024171Y-106863582D01*
X165947514Y-106748858D01*
X165947511Y-106748854D01*
X165849945Y-106651288D01*
X165849941Y-106651285D01*
X165735217Y-106574628D01*
X165735204Y-106574621D01*
X165607732Y-106521821D01*
X165607722Y-106521818D01*
X165472395Y-106494900D01*
X165472393Y-106494900D01*
X165334407Y-106494900D01*
X165334405Y-106494900D01*
X165199077Y-106521818D01*
X165199067Y-106521821D01*
X165071595Y-106574621D01*
X165071582Y-106574628D01*
X164956858Y-106651285D01*
X164956854Y-106651288D01*
X164859288Y-106748854D01*
X164859285Y-106748858D01*
X164782628Y-106863582D01*
X164782621Y-106863595D01*
X164729821Y-106991067D01*
X164729818Y-106991077D01*
X164702900Y-107126404D01*
X164702900Y-107126407D01*
X164702900Y-107264393D01*
X164702900Y-107264395D01*
X164702899Y-107264395D01*
X161702329Y-107264395D01*
X161846841Y-107204536D01*
X161972282Y-107108282D01*
X162068536Y-106982841D01*
X162129044Y-106836762D01*
X162146912Y-106701038D01*
X162149682Y-106680001D01*
X162149682Y-106679998D01*
X162129074Y-106523464D01*
X162129044Y-106523238D01*
X162068536Y-106377159D01*
X161972282Y-106251718D01*
X161846841Y-106155464D01*
X161833256Y-106149837D01*
X161700762Y-106094956D01*
X161700760Y-106094955D01*
X161544001Y-106074318D01*
X161543999Y-106074318D01*
X161387239Y-106094955D01*
X161387237Y-106094956D01*
X161241160Y-106155463D01*
X161115718Y-106251718D01*
X161019463Y-106377160D01*
X160958956Y-106523237D01*
X160958955Y-106523239D01*
X160938318Y-106679998D01*
X153486019Y-106679998D01*
X152004756Y-105198735D01*
X151930076Y-105155619D01*
X151930077Y-105155619D01*
X151902311Y-105148179D01*
X151846782Y-105133300D01*
X151846780Y-105133300D01*
X151569765Y-105133300D01*
X151502726Y-105113615D01*
X151471390Y-105084787D01*
X151452945Y-105060750D01*
X151431282Y-105032518D01*
X151305841Y-104936264D01*
X151305837Y-104936262D01*
X151305782Y-104936239D01*
X151305740Y-104936205D01*
X151298804Y-104932201D01*
X151299428Y-104931118D01*
X151251381Y-104892395D01*
X151229321Y-104826099D01*
X151246604Y-104758401D01*
X151277752Y-104723308D01*
X151380482Y-104644482D01*
X151476736Y-104519041D01*
X151537244Y-104372962D01*
X151557882Y-104216200D01*
X151537244Y-104059438D01*
X151476736Y-103913359D01*
X151476735Y-103913358D01*
X151476735Y-103913357D01*
X151451268Y-103880168D01*
X151426074Y-103814999D01*
X151440112Y-103746554D01*
X151488926Y-103696565D01*
X151549644Y-103680682D01*
X163903414Y-103680682D01*
X164019431Y-103657604D01*
X164038746Y-103653762D01*
X164111286Y-103623715D01*
X164166225Y-103600959D01*
X164166226Y-103600958D01*
X164166229Y-103600957D01*
X164280961Y-103524296D01*
X165364714Y-102440543D01*
X165441375Y-102325811D01*
X165449333Y-102306600D01*
X165490316Y-102207656D01*
X165494180Y-102198328D01*
X165521100Y-102062994D01*
X165521100Y-101925006D01*
X165521100Y-101925003D01*
X165494181Y-101789677D01*
X165494180Y-101789676D01*
X165494180Y-101789672D01*
X165494178Y-101789667D01*
X165441377Y-101662192D01*
X165364712Y-101547454D01*
X165267145Y-101449887D01*
X165152407Y-101373222D01*
X165024932Y-101320421D01*
X165024922Y-101320418D01*
X164889596Y-101293500D01*
X164889594Y-101293500D01*
X164751606Y-101293500D01*
X164751604Y-101293500D01*
X164616277Y-101320418D01*
X164616267Y-101320421D01*
X164488792Y-101373222D01*
X164374054Y-101449887D01*
X164374053Y-101449888D01*
X163580580Y-102243363D01*
X163519257Y-102276848D01*
X163492899Y-102279682D01*
X150847605Y-102279682D01*
X150712277Y-102306600D01*
X150712267Y-102306603D01*
X150584795Y-102359403D01*
X150584782Y-102359410D01*
X150470058Y-102436067D01*
X150470054Y-102436070D01*
X150372488Y-102533636D01*
X150372485Y-102533640D01*
X150295828Y-102648364D01*
X150295821Y-102648377D01*
X150243021Y-102775849D01*
X150243018Y-102775859D01*
X150216100Y-102911186D01*
X150216100Y-102911189D01*
X150216100Y-103049175D01*
X150216100Y-103049177D01*
X150216099Y-103049177D01*
X119581901Y-103049177D01*
X118821200Y-102616000D01*
X117475000Y-101854000D01*
X116230400Y-101777800D01*
X116095900Y-102214925D01*
X116095900Y-98236700D01*
X116115585Y-98169661D01*
X116168389Y-98123906D01*
X116219900Y-98112700D01*
X175499100Y-98112700D01*
X175566139Y-98132385D01*
G37*
%TD.AperFunction*%
%TA.AperFunction,Conductor*%
G36*
X116306600Y-104698800D02*
G01*
X117271800Y-106248200D01*
X117271800Y-108204000D01*
X116095900Y-109764328D01*
X116095900Y-104000163D01*
X116306600Y-104698800D01*
G37*
%TD.AperFunction*%
%TD*%
%TA.AperFunction,Conductor*%
%TO.N,GND*%
G36*
X116301103Y-103284727D02*
G01*
X116307581Y-103290759D01*
X116311784Y-103294962D01*
X116439338Y-103422516D01*
X116592078Y-103518489D01*
X116762345Y-103578068D01*
X116769574Y-103578882D01*
X116833988Y-103605946D01*
X116843376Y-103614422D01*
X118120781Y-104891827D01*
X118154266Y-104953150D01*
X118157100Y-104979508D01*
X118157100Y-108430191D01*
X118137415Y-108497230D01*
X118120781Y-108517872D01*
X116690327Y-109948325D01*
X116690326Y-109948326D01*
X116619134Y-110054874D01*
X116570099Y-110173255D01*
X116570097Y-110173261D01*
X116545100Y-110298928D01*
X116545100Y-110298931D01*
X116545100Y-138443269D01*
X116545100Y-138443271D01*
X116545099Y-138443271D01*
X116570097Y-138568938D01*
X116570099Y-138568944D01*
X116619134Y-138687325D01*
X116690326Y-138793873D01*
X120056726Y-142160273D01*
X120056729Y-142160275D01*
X120056731Y-142160277D01*
X120163273Y-142231465D01*
X120281656Y-142280501D01*
X120281660Y-142280501D01*
X120281661Y-142280502D01*
X120407328Y-142305500D01*
X120407331Y-142305500D01*
X123324501Y-142305500D01*
X123391540Y-142325185D01*
X123437295Y-142377989D01*
X123448501Y-142429500D01*
X123448501Y-143061518D01*
X123463354Y-143155304D01*
X123520950Y-143268342D01*
X123520952Y-143268344D01*
X123520954Y-143268347D01*
X123610652Y-143358045D01*
X123610654Y-143358046D01*
X123610658Y-143358050D01*
X123723694Y-143415645D01*
X123723698Y-143415647D01*
X123817475Y-143430499D01*
X123817481Y-143430500D01*
X124880518Y-143430499D01*
X124974304Y-143415646D01*
X125087342Y-143358050D01*
X125177050Y-143268342D01*
X125234646Y-143155304D01*
X125234646Y-143155301D01*
X125238515Y-143147709D01*
X125286490Y-143096913D01*
X125354311Y-143080118D01*
X125420446Y-143102655D01*
X125459485Y-143147709D01*
X125463353Y-143155301D01*
X125463354Y-143155304D01*
X125520950Y-143268342D01*
X125520952Y-143268344D01*
X125520954Y-143268347D01*
X125577600Y-143324993D01*
X125577600Y-144018000D01*
X122682000Y-143840200D01*
X122605800Y-142976600D01*
X119811800Y-142976600D01*
X116095900Y-139513014D01*
X116095900Y-109764328D01*
X117271800Y-108204000D01*
X117271800Y-106248200D01*
X116306600Y-104698800D01*
X116095900Y-104000163D01*
X116095900Y-103378440D01*
X116115585Y-103311401D01*
X116168389Y-103265646D01*
X116237547Y-103255702D01*
X116301103Y-103284727D01*
G37*
%TD.AperFunction*%
%TA.AperFunction,Conductor*%
G36*
X117475000Y-101854000D02*
G01*
X118821200Y-102616000D01*
X120650000Y-103657400D01*
X121310400Y-107670600D01*
X118821200Y-111633000D01*
X119126000Y-138328400D01*
X121259600Y-140055600D01*
X122834400Y-140030200D01*
X123469400Y-138836400D01*
X125577600Y-138836400D01*
X125577600Y-139985006D01*
X125520954Y-140041652D01*
X125520949Y-140041659D01*
X125459483Y-140162291D01*
X125411508Y-140213086D01*
X125343687Y-140229881D01*
X125277553Y-140207343D01*
X125238514Y-140162290D01*
X125234646Y-140154698D01*
X125234646Y-140154696D01*
X125177050Y-140041658D01*
X125177048Y-140041656D01*
X125177045Y-140041652D01*
X125087347Y-139951954D01*
X125087344Y-139951952D01*
X125087342Y-139951950D01*
X125010517Y-139912805D01*
X124974301Y-139894352D01*
X124880524Y-139879500D01*
X123817482Y-139879500D01*
X123736519Y-139892323D01*
X123723696Y-139894354D01*
X123610658Y-139951950D01*
X123610657Y-139951951D01*
X123610652Y-139951954D01*
X123520954Y-140041652D01*
X123520952Y-140041656D01*
X123520950Y-140041658D01*
X123513846Y-140055600D01*
X123463352Y-140154698D01*
X123448500Y-140248475D01*
X123448500Y-140880500D01*
X123428815Y-140947539D01*
X123376011Y-140993294D01*
X123324500Y-141004500D01*
X120792208Y-141004500D01*
X120725169Y-140984815D01*
X120704527Y-140968181D01*
X117882419Y-138146073D01*
X117848934Y-138084750D01*
X117846100Y-138058392D01*
X117846100Y-110683808D01*
X117865785Y-110616769D01*
X117882419Y-110596127D01*
X119312871Y-109165675D01*
X119312876Y-109165670D01*
X119384065Y-109059127D01*
X119433101Y-108940744D01*
X119458100Y-108815069D01*
X119458100Y-104594631D01*
X119458100Y-104594628D01*
X119433102Y-104468960D01*
X119433100Y-104468954D01*
X119412789Y-104419921D01*
X119412787Y-104419916D01*
X119384068Y-104350578D01*
X119384062Y-104350568D01*
X119312878Y-104244032D01*
X119312872Y-104244025D01*
X117763322Y-102694476D01*
X117729837Y-102633153D01*
X117727782Y-102620673D01*
X117726968Y-102613445D01*
X117667389Y-102443178D01*
X117571416Y-102290438D01*
X117443862Y-102162884D01*
X117291123Y-102066911D01*
X117120854Y-102007331D01*
X117120849Y-102007330D01*
X116941604Y-101987135D01*
X116941596Y-101987135D01*
X116762350Y-102007330D01*
X116762345Y-102007331D01*
X116592076Y-102066911D01*
X116439337Y-102162884D01*
X116307581Y-102294641D01*
X116246258Y-102328126D01*
X116176566Y-102323142D01*
X116120633Y-102281270D01*
X116096216Y-102215806D01*
X116096154Y-102214096D01*
X116230400Y-101777800D01*
X117475000Y-101854000D01*
G37*
%TD.AperFunction*%
%TD*%
M02*
