M48
; DRILL file {KiCad 8.0.2} date 2025-04-21T15:08:08+0200
; FORMAT={-:-/ absolute / metric / decimal}
; #@! TF.CreationDate,2025-04-21T15:08:08+02:00
; #@! TF.GenerationSoftware,Kicad,Pcbnew,8.0.2
; #@! TF.FileFunction,Plated,1,4,PTH
FMAT,2
METRIC
; #@! TA.AperFunction,Plated,PTH,ViaDrill
T1C0.400
; #@! TA.AperFunction,Plated,PTH,ComponentDrill
T2C0.650
; #@! TA.AperFunction,Plated,PTH,ComponentDrill
T3C0.700
%
G90
G05
T1
X116.611Y-100.305
X116.738Y-98.73
X116.942Y-101.068
X116.942Y-102.793
X117.958Y-105.283
X118.44Y-100.152
X118.491Y-141.529
X118.516Y-98.806
X118.837Y-134.354
X119.199Y-125.749
X119.199Y-125.749
X119.199Y-125.749
X119.304Y-112.268
X119.355Y-100.152
X119.456Y-136.474
X119.634Y-147.142
X119.658Y-105.575
X119.659Y-134.569
X119.964Y-144.729
X120.04Y-156.743
X120.32Y-139.421
X120.396Y-138.303
X120.472Y-99.949
X120.472Y-112.903
X120.548Y-98.603
X121.31Y-123.114
X121.514Y-122.047
X121.717Y-100.076
X121.92Y-105.105
X121.971Y-106.096
X121.996Y-148.768
X122.022Y-147.65
X122.352Y-150.647
X122.479Y-111.785
X122.53Y-132.588
X122.549Y-130.099
X122.733Y-142.9
X123.012Y-126.619
X123.086Y-148.59
X123.139Y-98.654
X123.139Y-106.248
X123.165Y-104.927
X123.215Y-100.152
X123.317Y-125.07
X123.841Y-116.407
X123.952Y-150.495
X123.967Y-154.457
X124.181Y-98.527
X124.181Y-100.33
X124.231Y-120.371
X124.349Y-141.655
X124.46Y-130.807
X124.562Y-136.627
X124.612Y-148.717
X124.727Y-156.489
X125.349Y-134.137
X125.527Y-113.731
X125.527Y-127.279
X125.689Y-150.759
X125.73Y-120.091
X126.431Y-151.501
X126.594Y-136.779
X126.746Y-122.744
X126.746Y-133.401
X127.152Y-115.164
X127.152Y-115.164
X127.965Y-102.718
X128.118Y-104.978
X128.194Y-118.897
X128.295Y-107.366
X128.346Y-111.608
X128.549Y-122.961
X128.676Y-122.047
X128.905Y-126.39
X129.642Y-102.692
X129.642Y-105.029
X129.921Y-117.82
X129.972Y-120.091
X130.023Y-125.781
X130.2Y-150.622
X130.632Y-134.315
X130.835Y-98.628
X131.496Y-117.678
X131.851Y-154.432
X131.877Y-126.898
X131.953Y-98.704
X131.978Y-136.957
X132.004Y-134.391
X132.004Y-143.408
X132.359Y-117.627
X132.461Y-115.57
X132.696Y-139.656
X133.184Y-143.395
X133.274Y-104.648
X133.645Y-126.365
X134.239Y-132.359
X134.341Y-113.182
X134.536Y-128.69
X134.631Y-123.328
X135.128Y-129.896
X135.23Y-121.844
X135.495Y-138.884
X135.738Y-111.404
X135.786Y-107.048
X135.89Y-105.004
X136.391Y-123.619
X136.55Y-142.519
X136.55Y-144.348
X136.652Y-99.492
X136.779Y-119.863
X137.052Y-148.285
X137.109Y-100.711
X137.49Y-109.576
X137.516Y-111.404
X137.541Y-101.676
X137.795Y-122.53
X138.43Y-99.492
X138.43Y-141.085
X138.735Y-153.086
X138.862Y-124.431
X138.862Y-150.038
X139.055Y-137.516
X139.116Y-156.362
X139.141Y-111.404
X139.164Y-144.153
X139.164Y-145.203
X139.446Y-127.025
X139.843Y-116.407
X140.056Y-99.492
X140.183Y-157.15
X140.259Y-120.117
X140.36Y-128.321
X140.64Y-111.379
X140.995Y-145.745
X141.326Y-129.413
X141.451Y-141.455
X141.554Y-99.466
X141.568Y-113.782
X141.63Y-154.203
X141.757Y-132.103
X141.859Y-120.066
X142.088Y-133.43
X142.118Y-134.43
X142.418Y-111.379
X142.947Y-134.99
X142.951Y-114.681
X142.951Y-131.572
X143.104Y-151.676
X143.332Y-99.466
X143.561Y-129.718
X143.662Y-127.483
X144.043Y-111.379
X144.061Y-140.548
X144.145Y-142.418
X144.221Y-131.267
X144.297Y-119.151
X144.297Y-150.299
X144.501Y-122.631
X144.602Y-154.229
X144.678Y-149.047
X144.882Y-141.656
X144.958Y-99.466
X145.034Y-116.154
X145.263Y-130.584
X145.415Y-144.018
X145.517Y-153.924
X145.542Y-142.433
X145.72Y-111.379
X145.72Y-137.693
X145.809Y-133.972
X146.025Y-117.831
X146.101Y-132.283
X146.555Y-133.307
X146.634Y-99.466
X146.812Y-119.99
X146.863Y-122.58
X146.888Y-110.541
X147.142Y-145.644
X147.396Y-137.846
X147.564Y-132.149
X147.777Y-128.702
X147.876Y-147.371
X147.98Y-135.204
X148.104Y-105.435
X148.158Y-109.144
X148.158Y-144.45
X148.412Y-99.466
X148.438Y-122.58
X148.539Y-154.33
X148.565Y-126.365
X148.565Y-127.737
X148.614Y-132.149
X148.692Y-118.262
X148.895Y-124.409
X148.946Y-100.863
X148.996Y-116.053
X149.022Y-101.752
X149.123Y-111.379
X149.123Y-144.805
X149.276Y-133.223
X149.301Y-135.509
X149.339Y-140.157
X149.479Y-153.899
X150.038Y-99.466
X150.038Y-110.719
X150.038Y-122.58
X150.368Y-131.953
X150.419Y-147.422
X150.502Y-128.626
X150.521Y-126.999
X150.571Y-143.612
X150.825Y-98.501
X150.876Y-114.071
X150.917Y-102.98
X150.952Y-104.216
X150.978Y-106.858
X151.003Y-105.461
X151.054Y-109.652
X151.206Y-137.617
X151.211Y-127.92
X151.308Y-145.796
X151.335Y-144.258
X151.421Y-126.023
X151.511Y-100.33
X151.511Y-139.725
X151.714Y-122.53
X151.816Y-131.801
X152.248Y-116.256
X152.425Y-125.02
X152.502Y-133.223
X152.552Y-144.094
X152.578Y-128.422
X152.654Y-127.127
X152.819Y-147.142
X152.883Y-137.389
X152.959Y-108.102
X152.984Y-104.572
X153.035Y-114.96
X153.086Y-105.715
X153.264Y-122.53
X153.34Y-110.947
X153.391Y-121.285
X153.416Y-135.026
X153.543Y-119.964
X153.772Y-133.248
X153.822Y-152.654
X153.873Y-124.866
X154.102Y-126.314
X154.102Y-148.133
X154.28Y-146.494
X154.432Y-156.82
X154.61Y-104.445
X154.661Y-113.36
X154.737Y-140.64
X154.889Y-130.226
X155.219Y-142.697
X155.458Y-144.148
X155.55Y-148.031
X155.575Y-101.194
X155.594Y-146.402
X155.651Y-104.419
X155.753Y-128.575
X155.997Y-116.407
X156.337Y-120.294
X157.023Y-107.747
X157.048Y-147.879
X157.175Y-137.058
X157.251Y-105.766
X157.353Y-129.794
X157.455Y-139.725
X157.747Y-113.807
X157.886Y-120.218
X158.064Y-125.324
X158.191Y-134.166
X158.369Y-126.898
X158.369Y-128.651
X158.521Y-107.645
X158.572Y-105.766
X158.816Y-122.657
X158.928Y-134.857
X159.067Y-137.922
X159.207Y-130.048
X159.258Y-114.808
X159.309Y-104.724
X159.395Y-151.679
X159.461Y-105.715
X159.463Y-119.481
X159.881Y-126.771
X159.893Y-101.676
X159.969Y-99.847
X160.02Y-146.863
X160.122Y-129.769
X160.137Y-150.937
X160.223Y-119.101
X160.223Y-119.126
X160.934Y-137.109
X161.163Y-110.896
X161.265Y-116.332
X161.289Y-133.4
X161.366Y-148.587
X161.508Y-141.391
X161.544Y-106.68
X161.61Y-144.109
X162.032Y-134.534
X162.099Y-122.93
X162.099Y-124.923
X162.179Y-123.927
X162.281Y-133.274
X162.56Y-117.846
X162.611Y-153.238
X162.726Y-132.246
X162.918Y-148.525
X163.017Y-113.005
X163.424Y-126.416
X163.51Y-141.29
X163.51Y-144.109
X163.51Y-146.929
X164.16Y-133.35
X164.313Y-122.936
X164.338Y-99.771
X164.378Y-124.877
X164.64Y-123.901
X164.744Y-110.769
X164.791Y-115.21
X164.821Y-101.994
X164.821Y-130.327
X165.024Y-132.309
X165.075Y-139.687
X165.075Y-142.659
X165.075Y-145.631
X165.1Y-141.249
X165.202Y-147.371
X165.278Y-129.438
X165.303Y-137.719
X165.379Y-100.305
X165.457Y-135.438
X165.862Y-121.869
X165.862Y-121.869
X165.938Y-144.247
X166.065Y-124.13
X167.234Y-102.362
X167.31Y-103.962
X167.357Y-137.713
X167.357Y-137.713
X167.538Y-135.438
X167.564Y-133.934
X167.64Y-105.435
X167.818Y-144.348
X168.021Y-142.723
X168.123Y-149.454
X168.351Y-112.827
X168.351Y-127.533
X168.402Y-130.683
X168.453Y-120.752
X168.554Y-125.019
X168.961Y-137.566
X169.012Y-115.468
X169.037Y-146.888
X169.088Y-140.614
X169.189Y-142.418
X169.266Y-101.041
X169.316Y-154.153
X169.418Y-125.705
X170.18Y-119.532
X170.18Y-120.777
X170.205Y-117.018
X170.205Y-144.678
X170.208Y-122.014
X170.208Y-123.341
X170.211Y-132.72
X170.211Y-133.97
X170.211Y-135.22
X170.211Y-136.47
X170.231Y-124.485
X170.231Y-143.459
X170.256Y-118.237
X171.359Y-154.254
X171.653Y-131.47
X171.653Y-141.478
X171.704Y-147.93
X171.907Y-149.276
X172.085Y-146.558
X172.136Y-105.029
X172.187Y-107.213
X172.39Y-101.016
X172.39Y-113.208
X172.974Y-129.642
X173.101Y-115.189
X173.101Y-127.635
X173.126Y-124.257
X173.355Y-141.707
X174.041Y-139.776
X174.396Y-136.957
X174.549Y-146.507
X174.904Y-109.804
T2
X167.234Y-151.536
X168.504Y-151.536
X169.774Y-151.536
X171.044Y-151.536
X172.314Y-151.536
X173.584Y-151.536
T3
X123.527Y-152.305
X123.527Y-156.605
X128.327Y-152.305
X128.327Y-156.605
M30
