%TF.GenerationSoftware,KiCad,Pcbnew,8.0.2*%
%TF.CreationDate,2025-04-21T15:08:20+02:00*%
%TF.ProjectId,logic,6c6f6769-632e-46b6-9963-61645f706362,rev?*%
%TF.SameCoordinates,Original*%
%TF.FileFunction,Copper,L2,Inr*%
%TF.FilePolarity,Positive*%
%FSLAX46Y46*%
G04 Gerber Fmt 4.6, Leading zero omitted, Abs format (unit mm)*
G04 Created by KiCad (PCBNEW 8.0.2) date 2025-04-21 15:08:20*
%MOMM*%
%LPD*%
G01*
G04 APERTURE LIST*
%TA.AperFunction,ComponentPad*%
%ADD10R,1.000000X1.000000*%
%TD*%
%TA.AperFunction,ComponentPad*%
%ADD11O,1.000000X1.000000*%
%TD*%
%TA.AperFunction,ComponentPad*%
%ADD12C,1.100000*%
%TD*%
%TA.AperFunction,ViaPad*%
%ADD13C,0.800000*%
%TD*%
G04 APERTURE END LIST*
D10*
%TO.N,GND*%
%TO.C,J23*%
X167233600Y-151536400D03*
D11*
%TO.N,nrf_rx*%
X168503600Y-151536400D03*
%TO.N,nrf_tx*%
X169773600Y-151536400D03*
%TO.N,/mcu/NRF_swclk*%
X171043600Y-151536400D03*
%TO.N,/mcu/NRF_swdio*%
X172313600Y-151536400D03*
%TO.N,+3V3*%
X173583600Y-151536400D03*
%TD*%
D12*
%TO.N,GND*%
%TO.C,J2*%
X128327000Y-156605400D03*
X128327000Y-152305400D03*
X123527000Y-156605400D03*
X123527000Y-152305400D03*
%TD*%
D13*
%TO.N,TM*%
X165456700Y-135438300D03*
X162031531Y-134534457D03*
X170211200Y-136469600D03*
%TO.N,H3*%
X170211200Y-135219600D03*
X150502100Y-128625600D03*
X167538400Y-135438300D03*
X165023800Y-132308600D03*
%TO.N,H2*%
X170211200Y-133969600D03*
X168021000Y-142722600D03*
X167356700Y-137713300D03*
X167356700Y-137713300D03*
X151210862Y-127920149D03*
%TO.N,H1*%
X165303200Y-137718800D03*
X151815800Y-131800600D03*
X170211200Y-132719600D03*
%TO.N,+3V3*%
X168351200Y-112826800D03*
X133644600Y-126365000D03*
X165074600Y-145630600D03*
X158064200Y-125323600D03*
X159067200Y-137922000D03*
X143560800Y-129717800D03*
X157353000Y-129794000D03*
X134630995Y-123327995D03*
X170230800Y-124485400D03*
X152819400Y-147142200D03*
X174396400Y-136956800D03*
X145542000Y-142433200D03*
X164640300Y-123901200D03*
X162918200Y-148525000D03*
X171358600Y-154254200D03*
X122529600Y-132588000D03*
X165074600Y-139687000D03*
X165074600Y-142658800D03*
X123085800Y-148590000D03*
X138430000Y-141084600D03*
X137052000Y-148285200D03*
X136390900Y-123618700D03*
%TO.N,/mcu/NRST*%
X149338600Y-140157200D03*
X132695975Y-139655575D03*
%TO.N,/Fet/SENSE_B*%
X150571200Y-143611600D03*
X149123400Y-144805400D03*
%TO.N,/Fet/SENSE_C*%
X147875700Y-147370800D03*
X151334588Y-144257544D03*
X144297400Y-150298800D03*
X143103600Y-151675800D03*
%TO.N,in_2_-*%
X139164403Y-144153400D03*
%TO.N,in_3_-*%
X159394768Y-151679032D03*
%TO.N,+BATT*%
X124349000Y-141655000D03*
X116941600Y-102792700D03*
%TO.N,/Fet/TEMP*%
X154279600Y-146494200D03*
X154736800Y-140639800D03*
X155593967Y-146401945D03*
%TO.N,/Fet/TEMP1*%
X141451200Y-141455000D03*
X144881600Y-141655800D03*
X144060599Y-140547869D03*
X153416000Y-135026400D03*
X158927800Y-134856586D03*
%TO.N,/Fet/TEMP2*%
X159880600Y-126771400D03*
X161289266Y-133400066D03*
%TO.N,+12V*%
X135785800Y-107048000D03*
X162560000Y-117845800D03*
X150952200Y-104216200D03*
X150977600Y-106857800D03*
X146024600Y-117830600D03*
X150916600Y-102980182D03*
X151003000Y-105460800D03*
X164820600Y-101994000D03*
X129921000Y-117820400D03*
X148104400Y-105435400D03*
%TO.N,/Drivers/PHASE_B*%
X141568400Y-113781800D03*
%TO.N,/Drivers/PHASE_A*%
X125526800Y-113731000D03*
%TO.N,+5V*%
X130200400Y-150622000D03*
X161544000Y-106680000D03*
X139054800Y-137515600D03*
X170208200Y-123340600D03*
X133184166Y-143394966D03*
%TO.N,/Drivers/PHASE_C*%
X157747400Y-113807200D03*
%TO.N,/mcu/USBD-*%
X148613600Y-132148932D03*
X124727000Y-156489400D03*
X126431432Y-151501232D03*
%TO.N,/mcu/USBD+*%
X147563600Y-132148932D03*
X125688968Y-150758768D03*
%TO.N,LINE*%
X167640000Y-105435400D03*
X171653200Y-131469600D03*
%TO.N,/Drivers/G_T_A*%
X123841000Y-116407400D03*
%TO.N,/Drivers/G_B_A*%
X126746000Y-122744000D03*
%TO.N,/Drivers/G_T_B*%
X139843000Y-116407400D03*
%TO.N,/Drivers/G_T_C*%
X155997400Y-116407400D03*
%TO.N,/Drivers/G_B_C*%
X158815800Y-122657400D03*
%TO.N,nrf_rx*%
X145808700Y-133972300D03*
X170205400Y-144678400D03*
X142118045Y-134430038D03*
%TO.N,nrf_tx*%
X170230800Y-143459200D03*
X146555124Y-133306826D03*
X142087600Y-133430500D03*
%TO.N,adc1*%
X170208200Y-122013600D03*
X164312600Y-122936000D03*
%TO.N,tx*%
X162099046Y-124923401D03*
X170180000Y-119532400D03*
%TO.N,rx*%
X164377800Y-124876600D03*
X170180000Y-120777000D03*
%TO.N,adc2*%
X162099046Y-122929799D03*
X170256200Y-118237000D03*
X157175200Y-137058400D03*
X162725834Y-132245834D03*
%TO.N,/mcu/ADC_15*%
X170205400Y-117017800D03*
X162281255Y-133273717D03*
%TO.N,/mcu/SWDIO*%
X124460000Y-130806900D03*
X144221200Y-131267200D03*
%TO.N,/mcu/SWCLK*%
X142951200Y-131572000D03*
X122549200Y-130098800D03*
%TO.N,/mcu/NRF_swdio*%
X161366200Y-148586900D03*
X152501600Y-133223000D03*
%TO.N,/mcu/NRF_swclk*%
X142946740Y-134989743D03*
%TO.N,/Drivers/sens supply*%
X152552400Y-144094200D03*
X132003800Y-143408400D03*
%TO.N,/Fet/CURR_FILTER*%
X138734800Y-153085800D03*
X138861800Y-150037800D03*
%TO.N,/Drivers/Tin_B*%
X138861800Y-124431500D03*
X148564600Y-126365000D03*
%TO.N,/Drivers/Bin_C*%
X154101800Y-126314200D03*
X152654000Y-127127000D03*
%TO.N,/Drivers/sensfil*%
X150368000Y-131953000D03*
X163510000Y-141289800D03*
X163510000Y-144109200D03*
X163510000Y-146928600D03*
%TO.N,/Drivers/Bin_B*%
X152577800Y-128422400D03*
X148894800Y-124409200D03*
%TO.N,/Drivers/Tin_C*%
X152424666Y-125019534D03*
X150521134Y-126999266D03*
X148564600Y-127736600D03*
X151421366Y-126022834D03*
%TO.N,in_2_+*%
X139164403Y-145203400D03*
%TO.N,GND*%
X123012200Y-126619000D03*
X127152400Y-115163600D03*
X168122600Y-149453600D03*
X124180600Y-100330000D03*
X155458031Y-144148099D03*
X155752800Y-128574800D03*
X153771600Y-133248400D03*
X151053800Y-109651800D03*
X120319800Y-139420600D03*
X128346200Y-111607600D03*
X168554400Y-125018800D03*
X123139200Y-98653600D03*
X131978400Y-136956800D03*
X142951200Y-114681000D03*
X174904400Y-109804200D03*
X141325600Y-129413000D03*
X137515600Y-111404400D03*
X163423600Y-126415800D03*
X134536034Y-128689693D03*
X121996200Y-148767800D03*
X123164600Y-104927400D03*
X164160200Y-133350000D03*
X155219400Y-142697200D03*
X119354600Y-100152200D03*
X165277800Y-129438400D03*
X133273800Y-104648000D03*
X123215400Y-100152200D03*
X122732800Y-142900400D03*
X130835400Y-98628200D03*
X136779000Y-119862600D03*
X169316400Y-154152600D03*
X141859000Y-120065800D03*
X144678400Y-149047200D03*
X146100800Y-132283200D03*
X159461200Y-105714800D03*
X165938200Y-144246600D03*
X172974000Y-129641600D03*
X148158200Y-109143800D03*
X150825200Y-98501200D03*
X137541000Y-101676200D03*
X155651200Y-104419400D03*
X136652000Y-99491800D03*
X160121600Y-129768600D03*
X172389800Y-113207800D03*
X120548400Y-98602800D03*
X146862800Y-122580400D03*
X147396200Y-137845800D03*
X145719800Y-137693400D03*
X165379400Y-100304600D03*
X150876000Y-114071400D03*
X165201600Y-147370800D03*
X132003800Y-134391400D03*
X141554200Y-99466400D03*
X168960800Y-137566400D03*
X120396000Y-138303000D03*
X173101000Y-115189000D03*
X148539200Y-154330400D03*
X145719800Y-111379000D03*
X131953000Y-98704400D03*
X153263600Y-122529600D03*
X153339800Y-110947200D03*
X151307800Y-145796000D03*
X125349000Y-134137400D03*
X160223200Y-119100600D03*
X169418000Y-125704600D03*
X157022800Y-107746800D03*
X118491000Y-141528800D03*
X152984200Y-104571800D03*
X148945600Y-100863400D03*
X132359400Y-117627400D03*
X164338000Y-99771200D03*
X123317000Y-125069600D03*
X121920000Y-105105200D03*
X136550400Y-142519400D03*
X135494800Y-138884100D03*
X142417800Y-111379000D03*
X152247600Y-116255800D03*
X120472200Y-99949000D03*
X155549600Y-148031200D03*
X137795000Y-122529600D03*
X121716800Y-100076000D03*
X153822400Y-152654000D03*
X124231400Y-120370600D03*
X151511000Y-100330000D03*
X144602200Y-154228800D03*
X118837075Y-134354059D03*
X127965200Y-102717600D03*
X122478800Y-111785400D03*
X153390600Y-121285000D03*
X119657600Y-105575400D03*
X158572200Y-105765600D03*
X154609800Y-104444800D03*
X150418800Y-147421600D03*
X140995400Y-145745200D03*
X139115800Y-156362400D03*
X167309800Y-103962200D03*
X124180600Y-98526600D03*
X171704000Y-147929600D03*
X161264600Y-116332000D03*
X145034000Y-116154200D03*
X121310400Y-123113800D03*
X144957800Y-99466400D03*
X131876800Y-126898400D03*
X158521400Y-107645200D03*
X150037800Y-110718600D03*
X119964200Y-144729200D03*
X117957600Y-105283000D03*
X157454600Y-139725400D03*
X159207200Y-130048000D03*
X150037800Y-122580400D03*
X129641600Y-102692200D03*
X171907200Y-149275800D03*
X161610000Y-144109200D03*
X151714200Y-122529600D03*
X148158200Y-144449800D03*
X157048200Y-147878800D03*
X147980400Y-135204200D03*
X163017200Y-113004600D03*
X145262600Y-130584500D03*
X158369000Y-126898400D03*
X153543000Y-119964200D03*
X118440200Y-100152200D03*
X173355000Y-141706600D03*
X144043400Y-111379000D03*
X140639800Y-111379000D03*
X162610800Y-153238200D03*
X174548800Y-146507200D03*
X128117600Y-104978200D03*
X146634200Y-99466400D03*
X129971800Y-120091200D03*
X144500600Y-122631200D03*
X146888200Y-110540800D03*
X143662400Y-127482600D03*
X149275800Y-133223000D03*
X139446000Y-127025400D03*
X147777200Y-128701800D03*
X125730000Y-120091200D03*
X164744400Y-110769400D03*
X122021600Y-147650200D03*
X128905000Y-126390400D03*
X125526800Y-127279400D03*
X140360400Y-128320800D03*
X156337000Y-120294400D03*
X135890000Y-105003600D03*
X128676400Y-122047000D03*
X169037000Y-146888200D03*
X168351200Y-127533400D03*
X146812000Y-119989600D03*
X169087800Y-140614400D03*
X134340600Y-113182400D03*
X150037800Y-99466400D03*
X152958800Y-108102400D03*
X159969200Y-99847400D03*
X161163000Y-110896400D03*
X143332200Y-99466400D03*
X159258000Y-114808000D03*
X131495800Y-117678200D03*
X136550400Y-144348200D03*
X128549400Y-122961400D03*
X135737600Y-111404400D03*
X148437600Y-122580400D03*
X169011600Y-115468400D03*
X151206200Y-137617200D03*
X119199200Y-125748800D03*
X159893000Y-101676200D03*
X148412200Y-99466400D03*
X128295400Y-107365800D03*
X165862000Y-121869200D03*
X153035000Y-114960400D03*
X149021800Y-101752400D03*
X172389800Y-101015800D03*
X168402000Y-130683000D03*
X126593600Y-136779000D03*
X160934400Y-137109200D03*
X161508433Y-141391367D03*
X119303800Y-112268000D03*
X123139200Y-106248200D03*
X116611400Y-100304600D03*
X152882600Y-137388600D03*
X160223200Y-119126000D03*
X139141200Y-111404400D03*
X153873200Y-124866400D03*
X164820600Y-130327400D03*
X158369000Y-128651000D03*
X140182600Y-157149800D03*
X164791059Y-115210259D03*
X173126400Y-124256800D03*
X137490200Y-109575600D03*
X121513600Y-122047000D03*
X168452800Y-120751600D03*
X147142200Y-145643600D03*
X116738400Y-98729800D03*
X172135800Y-105029000D03*
X174040800Y-139776200D03*
X126746000Y-133400800D03*
X154432000Y-156819600D03*
X138430000Y-99491800D03*
X159308800Y-104724200D03*
X172186600Y-107213400D03*
X154660600Y-113360200D03*
X135229600Y-121843800D03*
X116941600Y-101067700D03*
X141630400Y-154203400D03*
X171653200Y-141478000D03*
X154101800Y-148132800D03*
X153085800Y-105714800D03*
X140055600Y-99491800D03*
X124612400Y-148717000D03*
X157886400Y-120218200D03*
X135128000Y-129895600D03*
X131851400Y-154432000D03*
X157251400Y-105765600D03*
X148996400Y-116052600D03*
X137109200Y-100711000D03*
X149301200Y-135509000D03*
X130022600Y-125780800D03*
X119199200Y-125748800D03*
X144297400Y-119151400D03*
X159462935Y-119480733D03*
X119199200Y-125748800D03*
X124561600Y-136626600D03*
X121970800Y-106095800D03*
X149123400Y-111379000D03*
X173101000Y-127635000D03*
X167563800Y-133934200D03*
X149479000Y-153898600D03*
X166065200Y-124129800D03*
X119659400Y-134569200D03*
X120040400Y-156743400D03*
X155575000Y-101193600D03*
X130632200Y-134315200D03*
X129641600Y-105029000D03*
X128193800Y-118897400D03*
X118516400Y-98806000D03*
X119634000Y-147142200D03*
X172085000Y-146558000D03*
X162179000Y-123926600D03*
X134239000Y-132359400D03*
X160020000Y-146862800D03*
X154889200Y-130225800D03*
X122351800Y-150647400D03*
X144145000Y-142417800D03*
X169189400Y-142417800D03*
X145516600Y-153924000D03*
X119456200Y-136474200D03*
X167817800Y-144348200D03*
X169265600Y-101041200D03*
X165100000Y-141249400D03*
X148691600Y-118262400D03*
X151511000Y-139725400D03*
X120472200Y-112903000D03*
X145415000Y-144018000D03*
X132461000Y-115570000D03*
X167233600Y-102362000D03*
X127152400Y-115163600D03*
X140258800Y-120116600D03*
X165862000Y-121869200D03*
%TO.N,in_3_+*%
X160137232Y-150936568D03*
%TO.N,/IMU/sda*%
X141757400Y-132103500D03*
X158191200Y-134165900D03*
%TO.N,Net-(C100-Pad2)*%
X123952000Y-150495000D03*
X123967000Y-154457400D03*
%TD*%
%TA.AperFunction,Conductor*%
%TO.N,GND*%
G36*
X127254000Y-112496600D02*
G01*
X132511800Y-113334800D01*
X132740400Y-118897400D01*
X127762000Y-124307600D01*
X125476000Y-124307600D01*
X125450600Y-124307600D01*
X121869200Y-124307600D01*
X121604182Y-122743996D01*
X125940435Y-122743996D01*
X125940435Y-122744003D01*
X125960630Y-122923249D01*
X125960631Y-122923254D01*
X126020211Y-123093523D01*
X126116184Y-123246262D01*
X126243738Y-123373816D01*
X126396478Y-123469789D01*
X126566745Y-123529368D01*
X126566750Y-123529369D01*
X126745996Y-123549565D01*
X126746000Y-123549565D01*
X126746004Y-123549565D01*
X126925249Y-123529369D01*
X126925252Y-123529368D01*
X126925255Y-123529368D01*
X127095522Y-123469789D01*
X127248262Y-123373816D01*
X127375816Y-123246262D01*
X127471789Y-123093522D01*
X127531368Y-122923255D01*
X127551565Y-122744000D01*
X127531368Y-122564745D01*
X127471789Y-122394478D01*
X127375816Y-122241738D01*
X127248262Y-122114184D01*
X127095523Y-122018211D01*
X126925254Y-121958631D01*
X126925249Y-121958630D01*
X126746004Y-121938435D01*
X126745996Y-121938435D01*
X126566750Y-121958630D01*
X126566745Y-121958631D01*
X126396476Y-122018211D01*
X126243737Y-122114184D01*
X126116184Y-122241737D01*
X126020211Y-122394476D01*
X125960631Y-122564745D01*
X125960630Y-122564750D01*
X125940435Y-122743996D01*
X121604182Y-122743996D01*
X121361200Y-121310400D01*
X120929400Y-118364000D01*
X121032154Y-117820396D01*
X129115435Y-117820396D01*
X129115435Y-117820403D01*
X129135630Y-117999649D01*
X129135631Y-117999654D01*
X129195211Y-118169923D01*
X129291184Y-118322662D01*
X129418738Y-118450216D01*
X129571478Y-118546189D01*
X129741745Y-118605768D01*
X129741750Y-118605769D01*
X129920996Y-118625965D01*
X129921000Y-118625965D01*
X129921004Y-118625965D01*
X130100249Y-118605769D01*
X130100252Y-118605768D01*
X130100255Y-118605768D01*
X130270522Y-118546189D01*
X130423262Y-118450216D01*
X130550816Y-118322662D01*
X130646789Y-118169922D01*
X130706368Y-117999655D01*
X130726565Y-117820400D01*
X130706368Y-117641145D01*
X130646789Y-117470878D01*
X130550816Y-117318138D01*
X130423262Y-117190584D01*
X130270523Y-117094611D01*
X130100254Y-117035031D01*
X130100249Y-117035030D01*
X129921004Y-117014835D01*
X129920996Y-117014835D01*
X129741750Y-117035030D01*
X129741745Y-117035031D01*
X129571476Y-117094611D01*
X129418737Y-117190584D01*
X129291184Y-117318137D01*
X129195211Y-117470876D01*
X129135631Y-117641145D01*
X129135630Y-117641150D01*
X129115435Y-117820396D01*
X121032154Y-117820396D01*
X121299246Y-116407396D01*
X123035435Y-116407396D01*
X123035435Y-116407403D01*
X123055630Y-116586649D01*
X123055631Y-116586654D01*
X123115211Y-116756923D01*
X123211184Y-116909662D01*
X123338738Y-117037216D01*
X123491478Y-117133189D01*
X123661745Y-117192768D01*
X123661750Y-117192769D01*
X123840996Y-117212965D01*
X123841000Y-117212965D01*
X123841004Y-117212965D01*
X124020249Y-117192769D01*
X124020252Y-117192768D01*
X124020255Y-117192768D01*
X124190522Y-117133189D01*
X124343262Y-117037216D01*
X124470816Y-116909662D01*
X124566789Y-116756922D01*
X124626368Y-116586655D01*
X124646565Y-116407400D01*
X124626368Y-116228145D01*
X124566789Y-116057878D01*
X124470816Y-115905138D01*
X124343262Y-115777584D01*
X124190523Y-115681611D01*
X124020254Y-115622031D01*
X124020249Y-115622030D01*
X123841004Y-115601835D01*
X123840996Y-115601835D01*
X123661750Y-115622030D01*
X123661745Y-115622031D01*
X123491476Y-115681611D01*
X123338737Y-115777584D01*
X123211184Y-115905137D01*
X123115211Y-116057876D01*
X123055631Y-116228145D01*
X123055630Y-116228150D01*
X123035435Y-116407396D01*
X121299246Y-116407396D01*
X121716800Y-114198400D01*
X122305608Y-113730996D01*
X124721235Y-113730996D01*
X124721235Y-113731003D01*
X124741430Y-113910249D01*
X124741431Y-113910254D01*
X124801011Y-114080523D01*
X124875079Y-114198400D01*
X124896984Y-114233262D01*
X125024538Y-114360816D01*
X125177278Y-114456789D01*
X125347545Y-114516368D01*
X125347550Y-114516369D01*
X125526796Y-114536565D01*
X125526800Y-114536565D01*
X125526804Y-114536565D01*
X125706049Y-114516369D01*
X125706052Y-114516368D01*
X125706055Y-114516368D01*
X125876322Y-114456789D01*
X126029062Y-114360816D01*
X126156616Y-114233262D01*
X126252589Y-114080522D01*
X126312168Y-113910255D01*
X126332365Y-113731000D01*
X126312168Y-113551745D01*
X126252589Y-113381478D01*
X126156616Y-113228738D01*
X126029062Y-113101184D01*
X125876323Y-113005211D01*
X125706054Y-112945631D01*
X125706049Y-112945630D01*
X125526804Y-112925435D01*
X125526796Y-112925435D01*
X125347550Y-112945630D01*
X125347545Y-112945631D01*
X125177276Y-113005211D01*
X125024537Y-113101184D01*
X124896984Y-113228737D01*
X124801011Y-113381476D01*
X124741431Y-113551745D01*
X124741430Y-113551750D01*
X124721235Y-113730996D01*
X122305608Y-113730996D01*
X124180600Y-112242600D01*
X127254000Y-112496600D01*
G37*
%TD.AperFunction*%
%TD*%
%TA.AperFunction,Conductor*%
%TO.N,GND*%
G36*
X164744400Y-113461800D02*
G01*
X164261800Y-116713000D01*
X163336607Y-118050093D01*
X163345366Y-118025062D01*
X163345369Y-118025049D01*
X163365565Y-117845803D01*
X163365565Y-117845796D01*
X163345369Y-117666550D01*
X163345368Y-117666545D01*
X163285788Y-117496276D01*
X163189815Y-117343537D01*
X163062262Y-117215984D01*
X162909523Y-117120011D01*
X162739254Y-117060431D01*
X162739249Y-117060430D01*
X162560004Y-117040235D01*
X162559996Y-117040235D01*
X162380750Y-117060430D01*
X162380745Y-117060431D01*
X162210476Y-117120011D01*
X162057737Y-117215984D01*
X161930184Y-117343537D01*
X161834211Y-117496276D01*
X161774631Y-117666545D01*
X161774630Y-117666550D01*
X161754435Y-117845796D01*
X161754435Y-117845803D01*
X161774630Y-118025049D01*
X161774631Y-118025054D01*
X161834211Y-118195323D01*
X161930184Y-118348062D01*
X162057738Y-118475616D01*
X162210478Y-118571589D01*
X162380745Y-118631168D01*
X162380750Y-118631169D01*
X162559996Y-118651365D01*
X162560000Y-118651365D01*
X162560004Y-118651365D01*
X162739249Y-118631169D01*
X162739252Y-118631168D01*
X162739255Y-118631168D01*
X162909522Y-118571589D01*
X163026712Y-118497952D01*
X160553400Y-122072400D01*
X159639000Y-124434600D01*
X157632400Y-124434600D01*
X154101800Y-124434600D01*
X153800579Y-122657396D01*
X158010235Y-122657396D01*
X158010235Y-122657403D01*
X158030430Y-122836649D01*
X158030431Y-122836654D01*
X158090011Y-123006923D01*
X158154185Y-123109054D01*
X158185984Y-123159662D01*
X158313538Y-123287216D01*
X158466278Y-123383189D01*
X158605946Y-123432061D01*
X158636545Y-123442768D01*
X158636550Y-123442769D01*
X158815796Y-123462965D01*
X158815800Y-123462965D01*
X158815804Y-123462965D01*
X158995049Y-123442769D01*
X158995052Y-123442768D01*
X158995055Y-123442768D01*
X159165322Y-123383189D01*
X159318062Y-123287216D01*
X159445616Y-123159662D01*
X159541589Y-123006922D01*
X159601168Y-122836655D01*
X159610172Y-122756745D01*
X159621365Y-122657403D01*
X159621365Y-122657396D01*
X159601169Y-122478150D01*
X159601168Y-122478145D01*
X159541588Y-122307876D01*
X159445615Y-122155137D01*
X159318062Y-122027584D01*
X159165323Y-121931611D01*
X158995054Y-121872031D01*
X158995049Y-121872030D01*
X158815804Y-121851835D01*
X158815796Y-121851835D01*
X158636550Y-121872030D01*
X158636545Y-121872031D01*
X158466276Y-121931611D01*
X158313537Y-122027584D01*
X158185984Y-122155137D01*
X158090011Y-122307876D01*
X158030431Y-122478145D01*
X158030430Y-122478150D01*
X158010235Y-122657396D01*
X153800579Y-122657396D01*
X153593800Y-121437400D01*
X153162000Y-118491000D01*
X153555852Y-116407396D01*
X155191835Y-116407396D01*
X155191835Y-116407403D01*
X155212030Y-116586649D01*
X155212031Y-116586654D01*
X155271611Y-116756923D01*
X155367584Y-116909662D01*
X155495138Y-117037216D01*
X155647878Y-117133189D01*
X155818145Y-117192768D01*
X155818150Y-117192769D01*
X155997396Y-117212965D01*
X155997400Y-117212965D01*
X155997404Y-117212965D01*
X156176649Y-117192769D01*
X156176652Y-117192768D01*
X156176655Y-117192768D01*
X156346922Y-117133189D01*
X156499662Y-117037216D01*
X156627216Y-116909662D01*
X156723189Y-116756922D01*
X156782768Y-116586655D01*
X156802965Y-116407400D01*
X156782768Y-116228145D01*
X156723189Y-116057878D01*
X156627216Y-115905138D01*
X156499662Y-115777584D01*
X156346923Y-115681611D01*
X156176654Y-115622031D01*
X156176649Y-115622030D01*
X155997404Y-115601835D01*
X155997396Y-115601835D01*
X155818150Y-115622030D01*
X155818145Y-115622031D01*
X155647876Y-115681611D01*
X155495137Y-115777584D01*
X155367584Y-115905137D01*
X155271611Y-116057876D01*
X155212031Y-116228145D01*
X155212030Y-116228150D01*
X155191835Y-116407396D01*
X153555852Y-116407396D01*
X153949400Y-114325400D01*
X154745899Y-113807196D01*
X156941835Y-113807196D01*
X156941835Y-113807203D01*
X156962030Y-113986449D01*
X156962031Y-113986454D01*
X157021611Y-114156723D01*
X157117584Y-114309462D01*
X157245138Y-114437016D01*
X157397878Y-114532989D01*
X157568145Y-114592568D01*
X157568150Y-114592569D01*
X157747396Y-114612765D01*
X157747400Y-114612765D01*
X157747404Y-114612765D01*
X157926649Y-114592569D01*
X157926652Y-114592568D01*
X157926655Y-114592568D01*
X158096922Y-114532989D01*
X158249662Y-114437016D01*
X158377216Y-114309462D01*
X158473189Y-114156722D01*
X158532768Y-113986455D01*
X158552965Y-113807200D01*
X158532768Y-113627945D01*
X158473189Y-113457678D01*
X158377216Y-113304938D01*
X158249662Y-113177384D01*
X158096923Y-113081411D01*
X157926654Y-113021831D01*
X157926649Y-113021830D01*
X157747404Y-113001635D01*
X157747396Y-113001635D01*
X157568150Y-113021830D01*
X157568145Y-113021831D01*
X157397876Y-113081411D01*
X157245137Y-113177384D01*
X157117584Y-113304937D01*
X157021611Y-113457676D01*
X156962031Y-113627945D01*
X156962030Y-113627950D01*
X156941835Y-113807196D01*
X154745899Y-113807196D01*
X156057600Y-112953800D01*
X159461200Y-112877600D01*
X164744400Y-113461800D01*
G37*
%TD.AperFunction*%
%TD*%
%TA.AperFunction,Conductor*%
%TO.N,GND*%
G36*
X141266522Y-113039337D02*
G01*
X141218879Y-113056009D01*
X141066137Y-113151984D01*
X140938584Y-113279537D01*
X140842611Y-113432276D01*
X140783031Y-113602545D01*
X140783030Y-113602550D01*
X140762835Y-113781796D01*
X140762835Y-113781803D01*
X140783030Y-113961049D01*
X140783031Y-113961054D01*
X140842611Y-114131323D01*
X140938584Y-114284062D01*
X141066138Y-114411616D01*
X141218878Y-114507589D01*
X141389145Y-114567168D01*
X141389150Y-114567169D01*
X141568396Y-114587365D01*
X141568400Y-114587365D01*
X141568404Y-114587365D01*
X141747649Y-114567169D01*
X141747652Y-114567168D01*
X141747655Y-114567168D01*
X141917922Y-114507589D01*
X142070662Y-114411616D01*
X142198216Y-114284062D01*
X142294189Y-114131322D01*
X142353768Y-113961055D01*
X142373965Y-113781800D01*
X142353768Y-113602545D01*
X142294189Y-113432278D01*
X142198216Y-113279538D01*
X142070662Y-113151984D01*
X141917920Y-113056009D01*
X141882330Y-113043555D01*
X143611600Y-113055400D01*
X148590000Y-113512600D01*
X148818600Y-119075200D01*
X143103600Y-124510800D01*
X141554200Y-124561600D01*
X139657222Y-124521523D01*
X139667365Y-124431503D01*
X139667365Y-124431496D01*
X139647169Y-124252250D01*
X139647168Y-124252245D01*
X139587588Y-124081976D01*
X139491615Y-123929237D01*
X139364062Y-123801684D01*
X139211323Y-123705711D01*
X139041054Y-123646131D01*
X139041049Y-123646130D01*
X138861804Y-123625935D01*
X138861796Y-123625935D01*
X138682550Y-123646130D01*
X138682545Y-123646131D01*
X138512276Y-123705711D01*
X138359537Y-123801684D01*
X138231984Y-123929237D01*
X138136011Y-124081976D01*
X138076431Y-124252245D01*
X138076430Y-124252250D01*
X138056235Y-124431496D01*
X138056235Y-124431504D01*
X138062581Y-124487833D01*
X137947400Y-124485400D01*
X137439400Y-121488200D01*
X137007600Y-118541800D01*
X137142035Y-117830596D01*
X145219035Y-117830596D01*
X145219035Y-117830603D01*
X145239230Y-118009849D01*
X145239231Y-118009854D01*
X145298811Y-118180123D01*
X145394784Y-118332862D01*
X145522338Y-118460416D01*
X145675078Y-118556389D01*
X145845345Y-118615968D01*
X145845350Y-118615969D01*
X146024596Y-118636165D01*
X146024600Y-118636165D01*
X146024604Y-118636165D01*
X146203849Y-118615969D01*
X146203852Y-118615968D01*
X146203855Y-118615968D01*
X146374122Y-118556389D01*
X146526862Y-118460416D01*
X146654416Y-118332862D01*
X146750389Y-118180122D01*
X146809968Y-118009855D01*
X146830165Y-117830600D01*
X146809968Y-117651345D01*
X146750389Y-117481078D01*
X146654416Y-117328338D01*
X146526862Y-117200784D01*
X146514105Y-117192768D01*
X146374123Y-117104811D01*
X146203854Y-117045231D01*
X146203849Y-117045230D01*
X146024604Y-117025035D01*
X146024596Y-117025035D01*
X145845350Y-117045230D01*
X145845345Y-117045231D01*
X145675076Y-117104811D01*
X145522337Y-117200784D01*
X145394784Y-117328337D01*
X145298811Y-117481076D01*
X145239231Y-117651345D01*
X145239230Y-117651350D01*
X145219035Y-117830596D01*
X137142035Y-117830596D01*
X137411054Y-116407396D01*
X139037435Y-116407396D01*
X139037435Y-116407403D01*
X139057630Y-116586649D01*
X139057631Y-116586654D01*
X139117211Y-116756923D01*
X139213184Y-116909662D01*
X139340738Y-117037216D01*
X139493478Y-117133189D01*
X139663745Y-117192768D01*
X139663750Y-117192769D01*
X139842996Y-117212965D01*
X139843000Y-117212965D01*
X139843004Y-117212965D01*
X140022249Y-117192769D01*
X140022252Y-117192768D01*
X140022255Y-117192768D01*
X140192522Y-117133189D01*
X140345262Y-117037216D01*
X140472816Y-116909662D01*
X140568789Y-116756922D01*
X140628368Y-116586655D01*
X140648565Y-116407400D01*
X140628368Y-116228145D01*
X140568789Y-116057878D01*
X140472816Y-115905138D01*
X140345262Y-115777584D01*
X140192523Y-115681611D01*
X140022254Y-115622031D01*
X140022249Y-115622030D01*
X139843004Y-115601835D01*
X139842996Y-115601835D01*
X139663750Y-115622030D01*
X139663745Y-115622031D01*
X139493476Y-115681611D01*
X139340737Y-115777584D01*
X139213184Y-115905137D01*
X139117211Y-116057876D01*
X139057631Y-116228145D01*
X139057630Y-116228150D01*
X139037435Y-116407396D01*
X137411054Y-116407396D01*
X137795000Y-114376200D01*
X139903200Y-113030000D01*
X141266522Y-113039337D01*
G37*
%TD.AperFunction*%
%TD*%
%TA.AperFunction,Conductor*%
%TO.N,GND*%
G36*
X175566139Y-98132385D02*
G01*
X175611894Y-98185189D01*
X175623100Y-98236700D01*
X175623100Y-157642900D01*
X175603415Y-157709939D01*
X175550611Y-157755694D01*
X175499100Y-157766900D01*
X116219900Y-157766900D01*
X116152861Y-157747215D01*
X116107106Y-157694411D01*
X116095900Y-157642900D01*
X116095900Y-156489398D01*
X124121318Y-156489398D01*
X124121318Y-156489401D01*
X124141955Y-156646160D01*
X124141956Y-156646162D01*
X124202464Y-156792241D01*
X124298718Y-156917682D01*
X124424159Y-157013936D01*
X124570238Y-157074444D01*
X124648619Y-157084763D01*
X124726999Y-157095082D01*
X124727000Y-157095082D01*
X124727001Y-157095082D01*
X124779254Y-157088202D01*
X124883762Y-157074444D01*
X125029841Y-157013936D01*
X125155282Y-156917682D01*
X125251536Y-156792241D01*
X125312044Y-156646162D01*
X125332682Y-156489400D01*
X125312044Y-156332638D01*
X125251536Y-156186559D01*
X125155282Y-156061118D01*
X125029841Y-155964864D01*
X124883762Y-155904356D01*
X124883760Y-155904355D01*
X124727001Y-155883718D01*
X124726999Y-155883718D01*
X124570239Y-155904355D01*
X124570237Y-155904356D01*
X124424160Y-155964863D01*
X124298718Y-156061118D01*
X124202463Y-156186560D01*
X124141956Y-156332637D01*
X124141955Y-156332639D01*
X124121318Y-156489398D01*
X116095900Y-156489398D01*
X116095900Y-154384242D01*
X121426500Y-154384242D01*
X121426500Y-154526558D01*
X121449974Y-154614162D01*
X121463334Y-154664024D01*
X121463335Y-154664027D01*
X121534489Y-154787271D01*
X121534491Y-154787274D01*
X121534492Y-154787275D01*
X121635125Y-154887908D01*
X121635126Y-154887909D01*
X121635128Y-154887910D01*
X121696750Y-154923487D01*
X121758375Y-154959066D01*
X121895842Y-154995900D01*
X121895844Y-154995900D01*
X122458156Y-154995900D01*
X122458158Y-154995900D01*
X122595625Y-154959066D01*
X122718875Y-154887908D01*
X122819508Y-154787275D01*
X122890666Y-154664025D01*
X122927500Y-154526558D01*
X122927500Y-154457398D01*
X123361318Y-154457398D01*
X123361318Y-154457401D01*
X123381955Y-154614160D01*
X123381956Y-154614162D01*
X123402609Y-154664024D01*
X123442464Y-154760241D01*
X123538718Y-154885682D01*
X123664159Y-154981936D01*
X123810238Y-155042444D01*
X123888619Y-155052763D01*
X123966999Y-155063082D01*
X123967000Y-155063082D01*
X123967001Y-155063082D01*
X124019254Y-155056202D01*
X124123762Y-155042444D01*
X124269841Y-154981936D01*
X124395282Y-154885682D01*
X124491536Y-154760241D01*
X124552044Y-154614162D01*
X124572682Y-154457400D01*
X124562357Y-154378976D01*
X129096500Y-154378976D01*
X129096500Y-154531824D01*
X129136060Y-154679465D01*
X129212484Y-154811835D01*
X129320565Y-154919916D01*
X129452935Y-154996340D01*
X129600576Y-155035900D01*
X129600578Y-155035900D01*
X129753422Y-155035900D01*
X129753424Y-155035900D01*
X129901065Y-154996340D01*
X130033435Y-154919916D01*
X130141516Y-154811835D01*
X130217940Y-154679465D01*
X130257500Y-154531824D01*
X130257500Y-154378976D01*
X130224066Y-154254198D01*
X170752918Y-154254198D01*
X170752918Y-154254201D01*
X170773555Y-154410960D01*
X170773556Y-154410962D01*
X170821437Y-154526558D01*
X170834064Y-154557041D01*
X170930318Y-154682482D01*
X171055759Y-154778736D01*
X171201838Y-154839244D01*
X171280219Y-154849563D01*
X171358599Y-154859882D01*
X171358600Y-154859882D01*
X171358601Y-154859882D01*
X171410854Y-154853002D01*
X171515362Y-154839244D01*
X171661441Y-154778736D01*
X171786882Y-154682482D01*
X171883136Y-154557041D01*
X171943644Y-154410962D01*
X171964282Y-154254200D01*
X171963304Y-154246775D01*
X171943644Y-154097439D01*
X171943644Y-154097438D01*
X171883136Y-153951359D01*
X171786882Y-153825918D01*
X171661441Y-153729664D01*
X171515362Y-153669156D01*
X171515360Y-153669155D01*
X171358601Y-153648518D01*
X171358599Y-153648518D01*
X171201839Y-153669155D01*
X171201837Y-153669156D01*
X171055760Y-153729663D01*
X170930318Y-153825918D01*
X170834063Y-153951360D01*
X170773556Y-154097437D01*
X170773555Y-154097439D01*
X170752918Y-154254198D01*
X130224066Y-154254198D01*
X130217940Y-154231335D01*
X130141516Y-154098965D01*
X130033435Y-153990884D01*
X129901065Y-153914460D01*
X129753424Y-153874900D01*
X129600576Y-153874900D01*
X129452935Y-153914460D01*
X129452932Y-153914461D01*
X129320568Y-153990882D01*
X129320562Y-153990886D01*
X129212486Y-154098962D01*
X129212482Y-154098968D01*
X129136061Y-154231332D01*
X129136060Y-154231335D01*
X129096500Y-154378976D01*
X124562357Y-154378976D01*
X124552044Y-154300638D01*
X124491536Y-154154559D01*
X124395282Y-154029118D01*
X124269841Y-153932864D01*
X124225412Y-153914461D01*
X124123762Y-153872356D01*
X124123760Y-153872355D01*
X123967001Y-153851718D01*
X123966999Y-153851718D01*
X123810239Y-153872355D01*
X123810237Y-153872356D01*
X123664160Y-153932863D01*
X123538718Y-154029118D01*
X123442463Y-154154560D01*
X123381956Y-154300637D01*
X123381955Y-154300639D01*
X123361318Y-154457398D01*
X122927500Y-154457398D01*
X122927500Y-154384242D01*
X122890666Y-154246775D01*
X122837426Y-154154560D01*
X122819510Y-154123528D01*
X122819506Y-154123523D01*
X122718876Y-154022893D01*
X122718871Y-154022889D01*
X122595627Y-153951735D01*
X122595626Y-153951734D01*
X122595625Y-153951734D01*
X122458158Y-153914900D01*
X121895842Y-153914900D01*
X121758375Y-153951734D01*
X121758372Y-153951735D01*
X121635128Y-154022889D01*
X121635123Y-154022893D01*
X121534493Y-154123523D01*
X121534489Y-154123528D01*
X121463335Y-154246772D01*
X121463334Y-154246775D01*
X121426500Y-154384242D01*
X116095900Y-154384242D01*
X116095900Y-153085798D01*
X138129118Y-153085798D01*
X138129118Y-153085801D01*
X138149755Y-153242560D01*
X138149756Y-153242562D01*
X138210264Y-153388641D01*
X138306518Y-153514082D01*
X138431959Y-153610336D01*
X138578038Y-153670844D01*
X138656419Y-153681163D01*
X138734799Y-153691482D01*
X138734800Y-153691482D01*
X138734801Y-153691482D01*
X138787054Y-153684602D01*
X138891562Y-153670844D01*
X139037641Y-153610336D01*
X139163082Y-153514082D01*
X139259336Y-153388641D01*
X139319844Y-153242562D01*
X139340482Y-153085800D01*
X139319844Y-152929038D01*
X139259336Y-152782959D01*
X139163082Y-152657518D01*
X139037641Y-152561264D01*
X138891562Y-152500756D01*
X138891560Y-152500755D01*
X138734801Y-152480118D01*
X138734799Y-152480118D01*
X138578039Y-152500755D01*
X138578037Y-152500756D01*
X138431960Y-152561263D01*
X138306518Y-152657518D01*
X138210263Y-152782960D01*
X138149756Y-152929037D01*
X138149755Y-152929039D01*
X138129118Y-153085798D01*
X116095900Y-153085798D01*
X116095900Y-150494998D01*
X123346318Y-150494998D01*
X123346318Y-150495001D01*
X123366955Y-150651760D01*
X123366956Y-150651762D01*
X123419993Y-150779806D01*
X123427464Y-150797841D01*
X123523718Y-150923282D01*
X123649159Y-151019536D01*
X123795238Y-151080044D01*
X123873619Y-151090363D01*
X123951999Y-151100682D01*
X123952000Y-151100682D01*
X123952001Y-151100682D01*
X124007859Y-151093328D01*
X124108762Y-151080044D01*
X124254841Y-151019536D01*
X124380282Y-150923282D01*
X124476536Y-150797841D01*
X124492721Y-150758766D01*
X125083286Y-150758766D01*
X125083286Y-150758769D01*
X125103923Y-150915528D01*
X125103924Y-150915530D01*
X125164432Y-151061609D01*
X125260686Y-151187050D01*
X125386127Y-151283304D01*
X125532206Y-151343812D01*
X125610587Y-151354131D01*
X125688967Y-151364450D01*
X125697095Y-151364450D01*
X125697095Y-151366494D01*
X125755298Y-151375567D01*
X125807557Y-151421944D01*
X125826446Y-151489212D01*
X125825750Y-151498964D01*
X125825750Y-151501233D01*
X125846387Y-151657992D01*
X125846388Y-151657994D01*
X125906896Y-151804073D01*
X126003150Y-151929514D01*
X126128591Y-152025768D01*
X126274670Y-152086276D01*
X126353051Y-152096595D01*
X126431431Y-152106914D01*
X126431432Y-152106914D01*
X126431433Y-152106914D01*
X126483686Y-152100034D01*
X126588194Y-152086276D01*
X126734273Y-152025768D01*
X126859714Y-151929514D01*
X126955968Y-151804073D01*
X127009101Y-151675798D01*
X142497918Y-151675798D01*
X142497918Y-151675801D01*
X142518555Y-151832560D01*
X142518556Y-151832562D01*
X142578331Y-151976873D01*
X142579064Y-151978641D01*
X142675318Y-152104082D01*
X142800759Y-152200336D01*
X142946838Y-152260844D01*
X142971388Y-152264076D01*
X143103599Y-152281482D01*
X143103600Y-152281482D01*
X143103601Y-152281482D01*
X143155854Y-152274602D01*
X143260362Y-152260844D01*
X143406441Y-152200336D01*
X143531882Y-152104082D01*
X143628136Y-151978641D01*
X143688644Y-151832562D01*
X143708857Y-151679030D01*
X158789086Y-151679030D01*
X158789086Y-151679033D01*
X158809723Y-151835792D01*
X158809724Y-151835794D01*
X158870232Y-151981873D01*
X158966486Y-152107314D01*
X159091927Y-152203568D01*
X159238006Y-152264076D01*
X159316387Y-152274395D01*
X159394767Y-152284714D01*
X159394768Y-152284714D01*
X159394769Y-152284714D01*
X159447022Y-152277834D01*
X159551530Y-152264076D01*
X159697609Y-152203568D01*
X159823050Y-152107314D01*
X159919304Y-151981873D01*
X159979812Y-151835794D01*
X159996995Y-151705274D01*
X160000450Y-151679033D01*
X160000450Y-151670905D01*
X160002493Y-151670905D01*
X160011569Y-151612698D01*
X160057947Y-151560441D01*
X160125215Y-151541553D01*
X160134967Y-151542250D01*
X160137232Y-151542250D01*
X160137233Y-151542250D01*
X160181663Y-151536400D01*
X167797955Y-151536400D01*
X167818459Y-151705269D01*
X167818460Y-151705274D01*
X167878782Y-151864331D01*
X167934998Y-151945772D01*
X167975417Y-152004329D01*
X168081105Y-152097960D01*
X168102750Y-152117136D01*
X168253373Y-152196189D01*
X168253375Y-152196190D01*
X168418544Y-152236900D01*
X168588656Y-152236900D01*
X168753825Y-152196190D01*
X168833292Y-152154481D01*
X168904449Y-152117136D01*
X168904450Y-152117134D01*
X168904452Y-152117134D01*
X169031783Y-152004329D01*
X169036550Y-151997421D01*
X169090830Y-151953433D01*
X169160278Y-151945772D01*
X169222844Y-151976873D01*
X169240646Y-151997417D01*
X169245417Y-152004329D01*
X169269617Y-152025768D01*
X169372750Y-152117136D01*
X169523373Y-152196189D01*
X169523375Y-152196190D01*
X169688544Y-152236900D01*
X169858656Y-152236900D01*
X170023825Y-152196190D01*
X170103292Y-152154481D01*
X170174449Y-152117136D01*
X170174450Y-152117134D01*
X170174452Y-152117134D01*
X170301783Y-152004329D01*
X170306550Y-151997421D01*
X170360830Y-151953433D01*
X170430278Y-151945772D01*
X170492844Y-151976873D01*
X170510646Y-151997417D01*
X170515417Y-152004329D01*
X170539617Y-152025768D01*
X170642750Y-152117136D01*
X170793373Y-152196189D01*
X170793375Y-152196190D01*
X170958544Y-152236900D01*
X171128656Y-152236900D01*
X171293825Y-152196190D01*
X171373292Y-152154481D01*
X171444449Y-152117136D01*
X171444450Y-152117134D01*
X171444452Y-152117134D01*
X171571783Y-152004329D01*
X171576550Y-151997421D01*
X171630830Y-151953433D01*
X171700278Y-151945772D01*
X171762844Y-151976873D01*
X171780646Y-151997417D01*
X171785417Y-152004329D01*
X171809617Y-152025768D01*
X171912750Y-152117136D01*
X172063373Y-152196189D01*
X172063375Y-152196190D01*
X172228544Y-152236900D01*
X172398656Y-152236900D01*
X172563825Y-152196190D01*
X172643292Y-152154481D01*
X172714449Y-152117136D01*
X172714450Y-152117134D01*
X172714452Y-152117134D01*
X172841783Y-152004329D01*
X172846550Y-151997421D01*
X172900830Y-151953433D01*
X172970278Y-151945772D01*
X173032844Y-151976873D01*
X173050646Y-151997417D01*
X173055417Y-152004329D01*
X173079617Y-152025768D01*
X173182750Y-152117136D01*
X173333373Y-152196189D01*
X173333375Y-152196190D01*
X173498544Y-152236900D01*
X173668656Y-152236900D01*
X173833825Y-152196190D01*
X173913292Y-152154481D01*
X173984449Y-152117136D01*
X173984450Y-152117134D01*
X173984452Y-152117134D01*
X174111783Y-152004329D01*
X174208418Y-151864330D01*
X174268740Y-151705272D01*
X174289245Y-151536400D01*
X174268740Y-151367528D01*
X174267724Y-151364850D01*
X174208417Y-151208468D01*
X174165668Y-151146536D01*
X174111783Y-151068471D01*
X173984452Y-150955666D01*
X173984449Y-150955663D01*
X173833826Y-150876610D01*
X173668656Y-150835900D01*
X173498544Y-150835900D01*
X173333373Y-150876610D01*
X173182750Y-150955663D01*
X173055415Y-151068472D01*
X173050649Y-151075378D01*
X172996366Y-151119368D01*
X172926917Y-151127027D01*
X172864353Y-151095923D01*
X172846551Y-151075378D01*
X172841784Y-151068472D01*
X172714449Y-150955663D01*
X172563826Y-150876610D01*
X172398656Y-150835900D01*
X172228544Y-150835900D01*
X172063373Y-150876610D01*
X171912750Y-150955663D01*
X171785415Y-151068472D01*
X171780649Y-151075378D01*
X171726366Y-151119368D01*
X171656917Y-151127027D01*
X171594353Y-151095923D01*
X171576551Y-151075378D01*
X171571784Y-151068472D01*
X171444449Y-150955663D01*
X171293826Y-150876610D01*
X171128656Y-150835900D01*
X170958544Y-150835900D01*
X170793373Y-150876610D01*
X170642750Y-150955663D01*
X170515415Y-151068472D01*
X170510649Y-151075378D01*
X170456366Y-151119368D01*
X170386917Y-151127027D01*
X170324353Y-151095923D01*
X170306551Y-151075378D01*
X170301784Y-151068472D01*
X170174449Y-150955663D01*
X170023826Y-150876610D01*
X169858656Y-150835900D01*
X169688544Y-150835900D01*
X169523373Y-150876610D01*
X169372750Y-150955663D01*
X169245415Y-151068472D01*
X169240649Y-151075378D01*
X169186366Y-151119368D01*
X169116917Y-151127027D01*
X169054353Y-151095923D01*
X169036551Y-151075378D01*
X169031784Y-151068472D01*
X168904449Y-150955663D01*
X168753826Y-150876610D01*
X168588656Y-150835900D01*
X168418544Y-150835900D01*
X168253373Y-150876610D01*
X168102750Y-150955663D01*
X167975416Y-151068472D01*
X167878782Y-151208468D01*
X167818460Y-151367525D01*
X167818459Y-151367530D01*
X167797955Y-151536400D01*
X160181663Y-151536400D01*
X160189486Y-151535370D01*
X160293994Y-151521612D01*
X160440073Y-151461104D01*
X160565514Y-151364850D01*
X160661768Y-151239409D01*
X160722276Y-151093330D01*
X160742914Y-150936568D01*
X160740144Y-150915530D01*
X160722276Y-150779807D01*
X160722276Y-150779806D01*
X160661768Y-150633727D01*
X160565514Y-150508286D01*
X160440073Y-150412032D01*
X160293994Y-150351524D01*
X160293992Y-150351523D01*
X160137233Y-150330886D01*
X160137231Y-150330886D01*
X159980471Y-150351523D01*
X159980469Y-150351524D01*
X159834392Y-150412031D01*
X159708950Y-150508286D01*
X159612695Y-150633728D01*
X159552188Y-150779805D01*
X159552187Y-150779807D01*
X159531550Y-150936566D01*
X159531550Y-150944695D01*
X159529509Y-150944695D01*
X159520422Y-151002919D01*
X159474036Y-151055169D01*
X159406764Y-151074046D01*
X159397034Y-151073350D01*
X159394767Y-151073350D01*
X159238007Y-151093987D01*
X159238005Y-151093988D01*
X159091928Y-151154495D01*
X158966486Y-151250750D01*
X158870231Y-151376192D01*
X158809724Y-151522269D01*
X158809723Y-151522271D01*
X158789086Y-151679030D01*
X143708857Y-151679030D01*
X143709282Y-151675800D01*
X143688644Y-151519038D01*
X143628136Y-151372959D01*
X143531882Y-151247518D01*
X143406441Y-151151264D01*
X143329437Y-151119368D01*
X143260362Y-151090756D01*
X143260360Y-151090755D01*
X143103601Y-151070118D01*
X143103599Y-151070118D01*
X142946839Y-151090755D01*
X142946837Y-151090756D01*
X142800760Y-151151263D01*
X142675318Y-151247518D01*
X142579063Y-151372960D01*
X142518556Y-151519037D01*
X142518555Y-151519039D01*
X142497918Y-151675798D01*
X127009101Y-151675798D01*
X127016476Y-151657994D01*
X127034344Y-151522270D01*
X127037114Y-151501233D01*
X127037114Y-151501230D01*
X127016476Y-151344471D01*
X127016476Y-151344470D01*
X126955968Y-151198391D01*
X126859714Y-151072950D01*
X126734273Y-150976696D01*
X126588194Y-150916188D01*
X126588192Y-150916187D01*
X126431433Y-150895550D01*
X126423305Y-150895550D01*
X126423305Y-150893510D01*
X126365078Y-150884421D01*
X126312829Y-150838033D01*
X126293953Y-150770761D01*
X126294650Y-150761031D01*
X126294650Y-150758766D01*
X126276644Y-150621998D01*
X129594718Y-150621998D01*
X129594718Y-150622001D01*
X129615355Y-150778760D01*
X129615356Y-150778762D01*
X129675864Y-150924841D01*
X129772118Y-151050282D01*
X129897559Y-151146536D01*
X130043638Y-151207044D01*
X130054470Y-151208470D01*
X130200399Y-151227682D01*
X130200400Y-151227682D01*
X130200401Y-151227682D01*
X130252654Y-151220802D01*
X130357162Y-151207044D01*
X130503241Y-151146536D01*
X130628682Y-151050282D01*
X130724936Y-150924841D01*
X130785444Y-150778762D01*
X130806082Y-150622000D01*
X130803401Y-150601639D01*
X130785444Y-150465239D01*
X130785444Y-150465238D01*
X130724936Y-150319159D01*
X130628682Y-150193718D01*
X130503241Y-150097464D01*
X130359195Y-150037798D01*
X138256118Y-150037798D01*
X138256118Y-150037801D01*
X138276755Y-150194560D01*
X138276756Y-150194562D01*
X138336268Y-150338238D01*
X138337264Y-150340641D01*
X138433518Y-150466082D01*
X138558959Y-150562336D01*
X138705038Y-150622844D01*
X138783419Y-150633163D01*
X138861799Y-150643482D01*
X138861800Y-150643482D01*
X138861801Y-150643482D01*
X138935897Y-150633727D01*
X139018562Y-150622844D01*
X139164641Y-150562336D01*
X139290082Y-150466082D01*
X139386336Y-150340641D01*
X139403668Y-150298798D01*
X143691718Y-150298798D01*
X143691718Y-150298801D01*
X143712355Y-150455560D01*
X143712356Y-150455562D01*
X143772864Y-150601641D01*
X143869118Y-150727082D01*
X143994559Y-150823336D01*
X144140638Y-150883844D01*
X144214059Y-150893510D01*
X144297399Y-150904482D01*
X144297400Y-150904482D01*
X144297401Y-150904482D01*
X144349654Y-150897602D01*
X144454162Y-150883844D01*
X144600241Y-150823336D01*
X144725682Y-150727082D01*
X144821936Y-150601641D01*
X144882444Y-150455562D01*
X144898858Y-150330886D01*
X144903082Y-150298801D01*
X144903082Y-150298798D01*
X144889043Y-150192159D01*
X144882444Y-150142038D01*
X144821936Y-149995959D01*
X144725682Y-149870518D01*
X144600241Y-149774264D01*
X144505350Y-149734959D01*
X144454162Y-149713756D01*
X144454160Y-149713755D01*
X144297401Y-149693118D01*
X144297399Y-149693118D01*
X144140639Y-149713755D01*
X144140637Y-149713756D01*
X143994560Y-149774263D01*
X143869118Y-149870518D01*
X143772863Y-149995960D01*
X143712356Y-150142037D01*
X143712355Y-150142039D01*
X143691718Y-150298798D01*
X139403668Y-150298798D01*
X139446844Y-150194562D01*
X139467482Y-150037800D01*
X139446844Y-149881038D01*
X139386336Y-149734959D01*
X139290082Y-149609518D01*
X139164641Y-149513264D01*
X139018562Y-149452756D01*
X139018560Y-149452755D01*
X138861801Y-149432118D01*
X138861799Y-149432118D01*
X138705039Y-149452755D01*
X138705037Y-149452756D01*
X138558960Y-149513263D01*
X138433518Y-149609518D01*
X138337263Y-149734960D01*
X138276756Y-149881037D01*
X138276755Y-149881039D01*
X138256118Y-150037798D01*
X130359195Y-150037798D01*
X130357162Y-150036956D01*
X130357160Y-150036955D01*
X130200401Y-150016318D01*
X130200399Y-150016318D01*
X130043639Y-150036955D01*
X130043637Y-150036956D01*
X129897560Y-150097463D01*
X129772118Y-150193718D01*
X129675863Y-150319160D01*
X129615356Y-150465237D01*
X129615355Y-150465239D01*
X129594718Y-150621998D01*
X126276644Y-150621998D01*
X126274012Y-150602007D01*
X126274012Y-150602006D01*
X126213504Y-150455927D01*
X126117250Y-150330486D01*
X125991809Y-150234232D01*
X125896032Y-150194560D01*
X125845730Y-150173724D01*
X125845728Y-150173723D01*
X125688969Y-150153086D01*
X125688967Y-150153086D01*
X125532207Y-150173723D01*
X125532205Y-150173724D01*
X125386128Y-150234231D01*
X125260686Y-150330486D01*
X125164431Y-150455928D01*
X125103924Y-150602005D01*
X125103923Y-150602007D01*
X125083286Y-150758766D01*
X124492721Y-150758766D01*
X124537044Y-150651762D01*
X124557682Y-150495000D01*
X124537044Y-150338238D01*
X124476536Y-150192159D01*
X124380282Y-150066718D01*
X124254841Y-149970464D01*
X124108762Y-149909956D01*
X124108760Y-149909955D01*
X123952001Y-149889318D01*
X123951999Y-149889318D01*
X123795239Y-149909955D01*
X123795237Y-149909956D01*
X123649160Y-149970463D01*
X123523718Y-150066718D01*
X123427463Y-150192160D01*
X123366956Y-150338237D01*
X123366955Y-150338239D01*
X123346318Y-150494998D01*
X116095900Y-150494998D01*
X116095900Y-148589998D01*
X122480118Y-148589998D01*
X122480118Y-148590001D01*
X122500755Y-148746760D01*
X122500756Y-148746762D01*
X122560452Y-148890882D01*
X122561264Y-148892841D01*
X122657518Y-149018282D01*
X122782959Y-149114536D01*
X122929038Y-149175044D01*
X123007419Y-149185363D01*
X123085799Y-149195682D01*
X123085800Y-149195682D01*
X123085801Y-149195682D01*
X123138054Y-149188802D01*
X123242562Y-149175044D01*
X123388641Y-149114536D01*
X123514082Y-149018282D01*
X123610336Y-148892841D01*
X123670844Y-148746762D01*
X123691482Y-148590000D01*
X123670844Y-148433238D01*
X123610336Y-148287159D01*
X123608831Y-148285198D01*
X136446318Y-148285198D01*
X136446318Y-148285201D01*
X136466955Y-148441960D01*
X136466956Y-148441962D01*
X136526990Y-148586898D01*
X136527464Y-148588041D01*
X136623718Y-148713482D01*
X136749159Y-148809736D01*
X136895238Y-148870244D01*
X136973619Y-148880563D01*
X137051999Y-148890882D01*
X137052000Y-148890882D01*
X137052001Y-148890882D01*
X137104254Y-148884002D01*
X137208762Y-148870244D01*
X137354841Y-148809736D01*
X137480282Y-148713482D01*
X137576536Y-148588041D01*
X137577009Y-148586898D01*
X160760518Y-148586898D01*
X160760518Y-148586901D01*
X160781155Y-148743660D01*
X160781156Y-148743662D01*
X160841664Y-148889741D01*
X160937918Y-149015182D01*
X161063359Y-149111436D01*
X161209438Y-149171944D01*
X161287819Y-149182263D01*
X161366199Y-149192582D01*
X161366200Y-149192582D01*
X161366201Y-149192582D01*
X161418454Y-149185702D01*
X161522962Y-149171944D01*
X161669041Y-149111436D01*
X161794482Y-149015182D01*
X161890736Y-148889741D01*
X161951244Y-148743662D01*
X161971882Y-148586900D01*
X161963732Y-148524998D01*
X162312518Y-148524998D01*
X162312518Y-148525001D01*
X162333155Y-148681760D01*
X162333156Y-148681762D01*
X162393664Y-148827841D01*
X162489918Y-148953282D01*
X162615359Y-149049536D01*
X162761438Y-149110044D01*
X162839819Y-149120363D01*
X162918199Y-149130682D01*
X162918200Y-149130682D01*
X162918201Y-149130682D01*
X162970454Y-149123802D01*
X163074962Y-149110044D01*
X163221041Y-149049536D01*
X163346482Y-148953282D01*
X163442736Y-148827841D01*
X163503244Y-148681762D01*
X163523882Y-148525000D01*
X163511801Y-148433239D01*
X163503244Y-148368239D01*
X163503244Y-148368238D01*
X163442736Y-148222159D01*
X163346482Y-148096718D01*
X163221041Y-148000464D01*
X163163143Y-147976482D01*
X163074962Y-147939956D01*
X163074960Y-147939955D01*
X162918201Y-147919318D01*
X162918199Y-147919318D01*
X162761439Y-147939955D01*
X162761437Y-147939956D01*
X162615360Y-148000463D01*
X162489918Y-148096718D01*
X162393663Y-148222160D01*
X162333156Y-148368237D01*
X162333155Y-148368239D01*
X162312518Y-148524998D01*
X161963732Y-148524998D01*
X161951244Y-148430139D01*
X161951244Y-148430138D01*
X161890736Y-148284059D01*
X161794482Y-148158618D01*
X161669041Y-148062364D01*
X161522962Y-148001856D01*
X161522960Y-148001855D01*
X161366201Y-147981218D01*
X161366199Y-147981218D01*
X161209439Y-148001855D01*
X161209437Y-148001856D01*
X161063360Y-148062363D01*
X160937918Y-148158618D01*
X160841663Y-148284060D01*
X160781156Y-148430137D01*
X160781155Y-148430139D01*
X160760518Y-148586898D01*
X137577009Y-148586898D01*
X137637044Y-148441962D01*
X137657682Y-148285200D01*
X137637044Y-148128438D01*
X137576536Y-147982359D01*
X137480282Y-147856918D01*
X137354841Y-147760664D01*
X137208762Y-147700156D01*
X137208760Y-147700155D01*
X137052001Y-147679518D01*
X137051999Y-147679518D01*
X136895239Y-147700155D01*
X136895237Y-147700156D01*
X136749160Y-147760663D01*
X136623718Y-147856918D01*
X136527463Y-147982360D01*
X136466956Y-148128437D01*
X136466955Y-148128439D01*
X136446318Y-148285198D01*
X123608831Y-148285198D01*
X123514082Y-148161718D01*
X123388641Y-148065464D01*
X123242562Y-148004956D01*
X123242560Y-148004955D01*
X123085801Y-147984318D01*
X123085799Y-147984318D01*
X122929039Y-148004955D01*
X122929037Y-148004956D01*
X122782960Y-148065463D01*
X122657518Y-148161718D01*
X122561263Y-148287160D01*
X122500756Y-148433237D01*
X122500755Y-148433239D01*
X122480118Y-148589998D01*
X116095900Y-148589998D01*
X116095900Y-147370798D01*
X147270018Y-147370798D01*
X147270018Y-147370801D01*
X147290655Y-147527560D01*
X147290656Y-147527562D01*
X147351164Y-147673641D01*
X147447418Y-147799082D01*
X147572859Y-147895336D01*
X147718938Y-147955844D01*
X147797319Y-147966163D01*
X147875699Y-147976482D01*
X147875700Y-147976482D01*
X147875701Y-147976482D01*
X147927954Y-147969602D01*
X148032462Y-147955844D01*
X148178541Y-147895336D01*
X148303982Y-147799082D01*
X148400236Y-147673641D01*
X148460744Y-147527562D01*
X148481382Y-147370800D01*
X148460744Y-147214038D01*
X148430987Y-147142198D01*
X152213718Y-147142198D01*
X152213718Y-147142201D01*
X152234355Y-147298960D01*
X152234356Y-147298962D01*
X152294864Y-147445041D01*
X152391118Y-147570482D01*
X152516559Y-147666736D01*
X152662638Y-147727244D01*
X152741019Y-147737563D01*
X152819399Y-147747882D01*
X152819400Y-147747882D01*
X152819401Y-147747882D01*
X152871654Y-147741002D01*
X152976162Y-147727244D01*
X153122241Y-147666736D01*
X153247682Y-147570482D01*
X153343936Y-147445041D01*
X153404444Y-147298962D01*
X153425082Y-147142200D01*
X153404444Y-146985438D01*
X153343936Y-146839359D01*
X153247682Y-146713918D01*
X153122241Y-146617664D01*
X152976162Y-146557156D01*
X152976160Y-146557155D01*
X152819401Y-146536518D01*
X152819399Y-146536518D01*
X152662639Y-146557155D01*
X152662637Y-146557156D01*
X152516560Y-146617663D01*
X152391118Y-146713918D01*
X152294863Y-146839360D01*
X152234356Y-146985437D01*
X152234355Y-146985439D01*
X152213718Y-147142198D01*
X148430987Y-147142198D01*
X148400236Y-147067959D01*
X148303982Y-146942518D01*
X148178541Y-146846264D01*
X148161873Y-146839360D01*
X148032462Y-146785756D01*
X148032460Y-146785755D01*
X147875701Y-146765118D01*
X147875699Y-146765118D01*
X147718939Y-146785755D01*
X147718937Y-146785756D01*
X147572860Y-146846263D01*
X147447418Y-146942518D01*
X147351163Y-147067960D01*
X147290656Y-147214037D01*
X147290655Y-147214039D01*
X147270018Y-147370798D01*
X116095900Y-147370798D01*
X116095900Y-146494198D01*
X153673918Y-146494198D01*
X153673918Y-146494201D01*
X153694555Y-146650960D01*
X153694556Y-146650962D01*
X153750389Y-146785756D01*
X153755064Y-146797041D01*
X153851318Y-146922482D01*
X153976759Y-147018736D01*
X154122838Y-147079244D01*
X154169294Y-147085360D01*
X154279599Y-147099882D01*
X154279600Y-147099882D01*
X154279601Y-147099882D01*
X154331854Y-147093002D01*
X154436362Y-147079244D01*
X154582441Y-147018736D01*
X154707882Y-146922482D01*
X154804136Y-146797041D01*
X154841329Y-146707248D01*
X154885170Y-146652845D01*
X154951464Y-146630780D01*
X155019163Y-146648059D01*
X155066774Y-146699196D01*
X155068932Y-146703922D01*
X155069427Y-146704781D01*
X155069431Y-146704786D01*
X155165685Y-146830227D01*
X155291126Y-146926481D01*
X155437205Y-146986989D01*
X155515586Y-146997308D01*
X155593966Y-147007627D01*
X155593967Y-147007627D01*
X155593968Y-147007627D01*
X155646221Y-147000747D01*
X155750729Y-146986989D01*
X155891697Y-146928598D01*
X162904318Y-146928598D01*
X162904318Y-146928601D01*
X162924955Y-147085360D01*
X162924956Y-147085362D01*
X162948499Y-147142201D01*
X162985464Y-147231441D01*
X163081718Y-147356882D01*
X163207159Y-147453136D01*
X163353238Y-147513644D01*
X163431619Y-147523963D01*
X163509999Y-147534282D01*
X163510000Y-147534282D01*
X163510001Y-147534282D01*
X163562254Y-147527402D01*
X163666762Y-147513644D01*
X163812841Y-147453136D01*
X163938282Y-147356882D01*
X164034536Y-147231441D01*
X164095044Y-147085362D01*
X164115682Y-146928600D01*
X164114876Y-146922481D01*
X164095044Y-146771839D01*
X164095044Y-146771838D01*
X164034536Y-146625759D01*
X163938282Y-146500318D01*
X163812841Y-146404064D01*
X163807725Y-146401945D01*
X163666762Y-146343556D01*
X163666760Y-146343555D01*
X163510001Y-146322918D01*
X163509999Y-146322918D01*
X163353239Y-146343555D01*
X163353237Y-146343556D01*
X163207160Y-146404063D01*
X163081718Y-146500318D01*
X162985463Y-146625760D01*
X162924956Y-146771837D01*
X162924955Y-146771839D01*
X162904318Y-146928598D01*
X155891697Y-146928598D01*
X155896808Y-146926481D01*
X156022249Y-146830227D01*
X156118503Y-146704786D01*
X156179011Y-146558707D01*
X156199649Y-146401945D01*
X156191156Y-146337437D01*
X156179011Y-146245184D01*
X156179011Y-146245183D01*
X156118503Y-146099104D01*
X156022249Y-145973663D01*
X155896808Y-145877409D01*
X155750729Y-145816901D01*
X155750727Y-145816900D01*
X155593968Y-145796263D01*
X155593966Y-145796263D01*
X155437206Y-145816900D01*
X155437204Y-145816901D01*
X155291127Y-145877408D01*
X155165685Y-145973663D01*
X155069431Y-146099104D01*
X155032237Y-146188897D01*
X154988395Y-146243300D01*
X154922101Y-146265364D01*
X154854402Y-146248084D01*
X154806792Y-146196947D01*
X154804632Y-146192219D01*
X154804139Y-146191363D01*
X154776341Y-146155136D01*
X154707882Y-146065918D01*
X154582441Y-145969664D01*
X154436362Y-145909156D01*
X154436360Y-145909155D01*
X154279601Y-145888518D01*
X154279599Y-145888518D01*
X154122839Y-145909155D01*
X154122837Y-145909156D01*
X153976760Y-145969663D01*
X153851318Y-146065918D01*
X153755063Y-146191360D01*
X153694556Y-146337437D01*
X153694555Y-146337439D01*
X153673918Y-146494198D01*
X116095900Y-146494198D01*
X116095900Y-144153398D01*
X138558721Y-144153398D01*
X138558721Y-144153401D01*
X138579358Y-144310160D01*
X138579359Y-144310162D01*
X138637582Y-144450726D01*
X138639867Y-144456241D01*
X138736121Y-144581682D01*
X138736123Y-144581683D01*
X138736125Y-144581686D01*
X138741868Y-144587429D01*
X138740423Y-144588873D01*
X138775166Y-144636460D01*
X138779316Y-144706206D01*
X138745100Y-144767124D01*
X138737720Y-144773518D01*
X138736125Y-144775113D01*
X138639866Y-144900560D01*
X138579359Y-145046637D01*
X138579358Y-145046639D01*
X138558721Y-145203398D01*
X138558721Y-145203401D01*
X138579358Y-145360160D01*
X138579359Y-145360162D01*
X138626445Y-145473839D01*
X138639867Y-145506241D01*
X138736121Y-145631682D01*
X138861562Y-145727936D01*
X139007641Y-145788444D01*
X139067033Y-145796263D01*
X139164402Y-145809082D01*
X139164403Y-145809082D01*
X139164404Y-145809082D01*
X139261773Y-145796263D01*
X139321165Y-145788444D01*
X139467244Y-145727936D01*
X139592685Y-145631682D01*
X139593517Y-145630598D01*
X164468918Y-145630598D01*
X164468918Y-145630601D01*
X164489555Y-145787360D01*
X164489556Y-145787362D01*
X164550064Y-145933441D01*
X164646318Y-146058882D01*
X164771759Y-146155136D01*
X164917838Y-146215644D01*
X164996219Y-146225963D01*
X165074599Y-146236282D01*
X165074600Y-146236282D01*
X165074601Y-146236282D01*
X165126854Y-146229402D01*
X165231362Y-146215644D01*
X165377441Y-146155136D01*
X165502882Y-146058882D01*
X165599136Y-145933441D01*
X165659644Y-145787362D01*
X165680282Y-145630600D01*
X165659644Y-145473838D01*
X165599136Y-145327759D01*
X165502882Y-145202318D01*
X165377441Y-145106064D01*
X165231362Y-145045556D01*
X165231360Y-145045555D01*
X165074601Y-145024918D01*
X165074599Y-145024918D01*
X164917839Y-145045555D01*
X164917837Y-145045556D01*
X164771760Y-145106063D01*
X164646318Y-145202318D01*
X164550063Y-145327760D01*
X164489556Y-145473837D01*
X164489555Y-145473839D01*
X164468918Y-145630598D01*
X139593517Y-145630598D01*
X139688939Y-145506241D01*
X139749447Y-145360162D01*
X139766098Y-145233682D01*
X139770085Y-145203401D01*
X139770085Y-145203398D01*
X139749447Y-145046639D01*
X139749447Y-145046638D01*
X139688939Y-144900559D01*
X139615920Y-144805398D01*
X148517718Y-144805398D01*
X148517718Y-144805401D01*
X148538355Y-144962160D01*
X148538356Y-144962162D01*
X148573347Y-145046639D01*
X148598864Y-145108241D01*
X148695118Y-145233682D01*
X148820559Y-145329936D01*
X148966638Y-145390444D01*
X149045019Y-145400763D01*
X149123399Y-145411082D01*
X149123400Y-145411082D01*
X149123401Y-145411082D01*
X149175654Y-145404202D01*
X149280162Y-145390444D01*
X149426241Y-145329936D01*
X149551682Y-145233682D01*
X149647936Y-145108241D01*
X149708444Y-144962162D01*
X149729082Y-144805400D01*
X149725095Y-144775118D01*
X149708444Y-144648639D01*
X149708444Y-144648638D01*
X149647936Y-144502559D01*
X149551682Y-144377118D01*
X149426241Y-144280864D01*
X149402154Y-144270887D01*
X149280162Y-144220356D01*
X149280160Y-144220355D01*
X149123401Y-144199718D01*
X149123399Y-144199718D01*
X148966639Y-144220355D01*
X148966637Y-144220356D01*
X148820560Y-144280863D01*
X148695118Y-144377118D01*
X148598863Y-144502560D01*
X148538356Y-144648637D01*
X148538355Y-144648639D01*
X148517718Y-144805398D01*
X139615920Y-144805398D01*
X139592685Y-144775118D01*
X139592682Y-144775115D01*
X139592680Y-144775113D01*
X139586938Y-144769371D01*
X139588383Y-144767925D01*
X139553644Y-144720353D01*
X139549486Y-144650607D01*
X139583695Y-144589685D01*
X139591083Y-144583283D01*
X139592680Y-144581686D01*
X139592680Y-144581685D01*
X139592685Y-144581682D01*
X139688939Y-144456241D01*
X139749447Y-144310162D01*
X139770085Y-144153400D01*
X139749447Y-143996638D01*
X139688939Y-143850559D01*
X139592685Y-143725118D01*
X139467244Y-143628864D01*
X139425567Y-143611601D01*
X139425560Y-143611598D01*
X149965518Y-143611598D01*
X149965518Y-143611601D01*
X149986155Y-143768360D01*
X149986156Y-143768362D01*
X150035497Y-143887483D01*
X150046664Y-143914441D01*
X150142918Y-144039882D01*
X150268359Y-144136136D01*
X150414438Y-144196644D01*
X150571200Y-144217282D01*
X150598069Y-144213744D01*
X150667102Y-144224508D01*
X150719358Y-144270887D01*
X150737193Y-144320496D01*
X150749544Y-144414305D01*
X150749544Y-144414306D01*
X150794351Y-144522481D01*
X150810052Y-144560385D01*
X150906306Y-144685826D01*
X151031747Y-144782080D01*
X151177826Y-144842588D01*
X151256207Y-144852907D01*
X151334587Y-144863226D01*
X151334588Y-144863226D01*
X151334589Y-144863226D01*
X151386842Y-144856346D01*
X151491350Y-144842588D01*
X151637429Y-144782080D01*
X151762870Y-144685826D01*
X151859124Y-144560385D01*
X151880029Y-144509915D01*
X151923868Y-144455514D01*
X151990162Y-144433448D01*
X152057861Y-144450726D01*
X152092964Y-144481882D01*
X152124115Y-144522479D01*
X152124116Y-144522480D01*
X152124118Y-144522482D01*
X152249559Y-144618736D01*
X152395638Y-144679244D01*
X152445626Y-144685825D01*
X152552399Y-144699882D01*
X152552400Y-144699882D01*
X152552401Y-144699882D01*
X152604654Y-144693002D01*
X152709162Y-144679244D01*
X152855241Y-144618736D01*
X152980682Y-144522482D01*
X153076936Y-144397041D01*
X153137444Y-144250962D01*
X153152561Y-144136136D01*
X153156108Y-144109198D01*
X162904318Y-144109198D01*
X162904318Y-144109201D01*
X162924955Y-144265960D01*
X162924956Y-144265962D01*
X162985464Y-144412041D01*
X163081718Y-144537482D01*
X163207159Y-144633736D01*
X163353238Y-144694244D01*
X163431619Y-144704563D01*
X163509999Y-144714882D01*
X163510000Y-144714882D01*
X163510001Y-144714882D01*
X163575901Y-144706206D01*
X163666762Y-144694244D01*
X163705018Y-144678398D01*
X169599718Y-144678398D01*
X169599718Y-144678401D01*
X169620355Y-144835160D01*
X169620356Y-144835162D01*
X169631980Y-144863226D01*
X169680864Y-144981241D01*
X169777118Y-145106682D01*
X169902559Y-145202936D01*
X170048638Y-145263444D01*
X170127019Y-145273763D01*
X170205399Y-145284082D01*
X170205400Y-145284082D01*
X170205401Y-145284082D01*
X170257654Y-145277202D01*
X170362162Y-145263444D01*
X170508241Y-145202936D01*
X170633682Y-145106682D01*
X170729936Y-144981241D01*
X170790444Y-144835162D01*
X170810104Y-144685826D01*
X170811082Y-144678401D01*
X170811082Y-144678398D01*
X170790444Y-144521639D01*
X170790444Y-144521638D01*
X170729936Y-144375559D01*
X170633682Y-144250118D01*
X170633680Y-144250117D01*
X170633680Y-144250116D01*
X170558875Y-144192717D01*
X170538288Y-144176920D01*
X170497086Y-144120493D01*
X170492931Y-144050747D01*
X170527143Y-143989827D01*
X170538284Y-143980173D01*
X170659082Y-143887482D01*
X170755336Y-143762041D01*
X170815844Y-143615962D01*
X170836482Y-143459200D01*
X170828025Y-143394966D01*
X170815844Y-143302439D01*
X170815844Y-143302438D01*
X170755336Y-143156359D01*
X170659082Y-143030918D01*
X170533641Y-142934664D01*
X170387562Y-142874156D01*
X170387560Y-142874155D01*
X170230801Y-142853518D01*
X170230799Y-142853518D01*
X170074039Y-142874155D01*
X170074037Y-142874156D01*
X169927960Y-142934663D01*
X169802518Y-143030918D01*
X169706263Y-143156360D01*
X169645756Y-143302437D01*
X169645755Y-143302439D01*
X169625118Y-143459198D01*
X169625118Y-143459201D01*
X169645755Y-143615960D01*
X169645756Y-143615962D01*
X169679656Y-143697805D01*
X169706264Y-143762041D01*
X169802518Y-143887482D01*
X169897911Y-143960679D01*
X169939113Y-144017106D01*
X169943268Y-144086852D01*
X169909056Y-144147772D01*
X169897911Y-144157429D01*
X169777120Y-144250116D01*
X169777119Y-144250117D01*
X169777118Y-144250118D01*
X169753527Y-144280863D01*
X169680863Y-144375560D01*
X169620356Y-144521637D01*
X169620355Y-144521639D01*
X169599718Y-144678398D01*
X163705018Y-144678398D01*
X163812841Y-144633736D01*
X163938282Y-144537482D01*
X164034536Y-144412041D01*
X164095044Y-144265962D01*
X164115682Y-144109200D01*
X164113707Y-144094201D01*
X164100863Y-143996637D01*
X164095044Y-143952438D01*
X164034536Y-143806359D01*
X163938282Y-143680918D01*
X163812841Y-143584664D01*
X163776625Y-143569663D01*
X163666762Y-143524156D01*
X163666760Y-143524155D01*
X163510001Y-143503518D01*
X163509999Y-143503518D01*
X163353239Y-143524155D01*
X163353237Y-143524156D01*
X163207160Y-143584663D01*
X163081718Y-143680918D01*
X162985463Y-143806360D01*
X162924956Y-143952437D01*
X162924955Y-143952439D01*
X162904318Y-144109198D01*
X153156108Y-144109198D01*
X153158082Y-144094201D01*
X153158082Y-144094198D01*
X153137444Y-143937439D01*
X153137444Y-143937438D01*
X153076936Y-143791359D01*
X152980682Y-143665918D01*
X152855241Y-143569664D01*
X152852083Y-143568356D01*
X152709162Y-143509156D01*
X152709160Y-143509155D01*
X152552401Y-143488518D01*
X152552399Y-143488518D01*
X152395639Y-143509155D01*
X152395637Y-143509156D01*
X152249560Y-143569663D01*
X152124118Y-143665918D01*
X152027864Y-143791359D01*
X152006959Y-143841828D01*
X151963117Y-143896231D01*
X151896823Y-143918295D01*
X151829124Y-143901015D01*
X151794023Y-143869861D01*
X151772512Y-143841828D01*
X151762870Y-143829262D01*
X151637429Y-143733008D01*
X151552446Y-143697807D01*
X151491350Y-143672500D01*
X151491348Y-143672499D01*
X151334589Y-143651862D01*
X151334585Y-143651862D01*
X151307716Y-143655399D01*
X151238680Y-143644633D01*
X151186425Y-143598252D01*
X151168594Y-143548647D01*
X151156244Y-143454838D01*
X151095736Y-143308759D01*
X150999482Y-143183318D01*
X150874041Y-143087064D01*
X150826406Y-143067333D01*
X150727962Y-143026556D01*
X150727960Y-143026555D01*
X150571201Y-143005918D01*
X150571199Y-143005918D01*
X150414439Y-143026555D01*
X150414437Y-143026556D01*
X150268360Y-143087063D01*
X150142918Y-143183318D01*
X150046663Y-143308760D01*
X149986156Y-143454837D01*
X149986155Y-143454839D01*
X149965518Y-143611598D01*
X139425560Y-143611598D01*
X139321165Y-143568356D01*
X139321163Y-143568355D01*
X139164404Y-143547718D01*
X139164402Y-143547718D01*
X139007642Y-143568355D01*
X139007640Y-143568356D01*
X138861563Y-143628863D01*
X138736121Y-143725118D01*
X138639866Y-143850560D01*
X138579359Y-143996637D01*
X138579358Y-143996639D01*
X138558721Y-144153398D01*
X116095900Y-144153398D01*
X116095900Y-143408398D01*
X131398118Y-143408398D01*
X131398118Y-143408401D01*
X131418755Y-143565160D01*
X131418756Y-143565162D01*
X131473698Y-143697805D01*
X131479264Y-143711241D01*
X131575518Y-143836682D01*
X131700959Y-143932936D01*
X131847038Y-143993444D01*
X131871307Y-143996639D01*
X132003799Y-144014082D01*
X132003800Y-144014082D01*
X132003801Y-144014082D01*
X132056054Y-144007202D01*
X132160562Y-143993444D01*
X132306641Y-143932936D01*
X132432082Y-143836682D01*
X132500761Y-143747176D01*
X132557189Y-143705974D01*
X132626935Y-143701819D01*
X132687855Y-143736031D01*
X132697513Y-143747177D01*
X132742924Y-143806359D01*
X132755884Y-143823248D01*
X132881325Y-143919502D01*
X133027404Y-143980010D01*
X133101972Y-143989827D01*
X133184165Y-144000648D01*
X133184166Y-144000648D01*
X133184167Y-144000648D01*
X133266360Y-143989827D01*
X133340928Y-143980010D01*
X133487007Y-143919502D01*
X133612448Y-143823248D01*
X133708702Y-143697807D01*
X133769210Y-143551728D01*
X133789848Y-143394966D01*
X133769210Y-143238204D01*
X133708702Y-143092125D01*
X133612448Y-142966684D01*
X133487007Y-142870430D01*
X133465402Y-142861481D01*
X133340928Y-142809922D01*
X133340926Y-142809921D01*
X133184167Y-142789284D01*
X133184165Y-142789284D01*
X133027405Y-142809921D01*
X133027403Y-142809922D01*
X132881326Y-142870429D01*
X132755881Y-142966686D01*
X132687203Y-143056189D01*
X132630775Y-143097392D01*
X132561029Y-143101546D01*
X132500109Y-143067333D01*
X132490452Y-143056188D01*
X132432083Y-142980119D01*
X132408002Y-142961641D01*
X132306641Y-142883864D01*
X132295772Y-142879362D01*
X132160562Y-142823356D01*
X132160560Y-142823355D01*
X132003801Y-142802718D01*
X132003799Y-142802718D01*
X131847039Y-142823355D01*
X131847037Y-142823356D01*
X131700960Y-142883863D01*
X131575518Y-142980118D01*
X131479263Y-143105560D01*
X131418756Y-143251637D01*
X131418755Y-143251639D01*
X131398118Y-143408398D01*
X116095900Y-143408398D01*
X116095900Y-141654998D01*
X123743318Y-141654998D01*
X123743318Y-141655001D01*
X123763955Y-141811760D01*
X123763956Y-141811762D01*
X123824464Y-141957841D01*
X123920718Y-142083282D01*
X124046159Y-142179536D01*
X124192238Y-142240044D01*
X124268819Y-142250126D01*
X124348999Y-142260682D01*
X124349000Y-142260682D01*
X124349001Y-142260682D01*
X124429181Y-142250126D01*
X124505762Y-142240044D01*
X124651841Y-142179536D01*
X124777282Y-142083282D01*
X124873536Y-141957841D01*
X124934044Y-141811762D01*
X124954682Y-141655000D01*
X124948989Y-141611760D01*
X124934044Y-141498239D01*
X124934044Y-141498238D01*
X124873536Y-141352159D01*
X124777282Y-141226718D01*
X124651841Y-141130464D01*
X124632988Y-141122655D01*
X124541111Y-141084598D01*
X137824318Y-141084598D01*
X137824318Y-141084601D01*
X137844955Y-141241360D01*
X137844956Y-141241362D01*
X137905464Y-141387441D01*
X138001718Y-141512882D01*
X138127159Y-141609136D01*
X138273238Y-141669644D01*
X138351619Y-141679963D01*
X138429999Y-141690282D01*
X138430000Y-141690282D01*
X138430001Y-141690282D01*
X138482254Y-141683402D01*
X138586762Y-141669644D01*
X138732841Y-141609136D01*
X138858282Y-141512882D01*
X138902698Y-141454998D01*
X140845518Y-141454998D01*
X140845518Y-141455001D01*
X140866155Y-141611760D01*
X140866156Y-141611762D01*
X140890131Y-141669644D01*
X140926664Y-141757841D01*
X141022918Y-141883282D01*
X141148359Y-141979536D01*
X141294438Y-142040044D01*
X141372819Y-142050363D01*
X141451199Y-142060682D01*
X141451200Y-142060682D01*
X141451201Y-142060682D01*
X141503454Y-142053802D01*
X141607962Y-142040044D01*
X141754041Y-141979536D01*
X141879482Y-141883282D01*
X141975736Y-141757841D01*
X142036244Y-141611762D01*
X142056882Y-141455000D01*
X142047987Y-141387439D01*
X142036244Y-141298239D01*
X142036244Y-141298238D01*
X141975736Y-141152159D01*
X141879482Y-141026718D01*
X141754041Y-140930464D01*
X141747701Y-140927838D01*
X141607962Y-140869956D01*
X141607960Y-140869955D01*
X141451201Y-140849318D01*
X141451199Y-140849318D01*
X141294439Y-140869955D01*
X141294437Y-140869956D01*
X141148360Y-140930463D01*
X141022918Y-141026718D01*
X140926663Y-141152160D01*
X140866156Y-141298237D01*
X140866155Y-141298239D01*
X140845518Y-141454998D01*
X138902698Y-141454998D01*
X138954536Y-141387441D01*
X139015044Y-141241362D01*
X139035682Y-141084600D01*
X139033859Y-141070756D01*
X139016993Y-140942641D01*
X139015044Y-140927838D01*
X138954536Y-140781759D01*
X138858282Y-140656318D01*
X138732841Y-140560064D01*
X138703395Y-140547867D01*
X143454917Y-140547867D01*
X143454917Y-140547870D01*
X143475554Y-140704629D01*
X143475555Y-140704631D01*
X143507502Y-140781759D01*
X143536063Y-140850710D01*
X143632317Y-140976151D01*
X143757758Y-141072405D01*
X143903837Y-141132913D01*
X143982218Y-141143232D01*
X144060598Y-141153551D01*
X144060599Y-141153551D01*
X144060600Y-141153551D01*
X144114453Y-141146461D01*
X144217361Y-141132913D01*
X144242126Y-141122654D01*
X144311594Y-141115186D01*
X144374074Y-141146461D01*
X144409726Y-141206550D01*
X144407233Y-141276375D01*
X144387954Y-141312702D01*
X144357064Y-141352957D01*
X144296556Y-141499037D01*
X144296555Y-141499039D01*
X144275918Y-141655798D01*
X144275918Y-141655801D01*
X144296555Y-141812560D01*
X144296556Y-141812562D01*
X144356732Y-141957841D01*
X144357064Y-141958641D01*
X144453318Y-142084082D01*
X144578759Y-142180336D01*
X144724838Y-142240844D01*
X144834669Y-142255303D01*
X144898565Y-142283569D01*
X144937036Y-142341894D01*
X144941422Y-142394426D01*
X144936318Y-142433197D01*
X144936318Y-142433201D01*
X144956955Y-142589960D01*
X144956956Y-142589962D01*
X145011896Y-142722600D01*
X145017464Y-142736041D01*
X145113718Y-142861482D01*
X145239159Y-142957736D01*
X145385238Y-143018244D01*
X145439890Y-143025439D01*
X145541999Y-143038882D01*
X145542000Y-143038882D01*
X145542001Y-143038882D01*
X145602493Y-143030918D01*
X145698762Y-143018244D01*
X145844841Y-142957736D01*
X145970282Y-142861482D01*
X146066536Y-142736041D01*
X146098531Y-142658798D01*
X164468918Y-142658798D01*
X164468918Y-142658801D01*
X164489555Y-142815560D01*
X164489556Y-142815562D01*
X164550064Y-142961641D01*
X164646318Y-143087082D01*
X164771759Y-143183336D01*
X164917838Y-143243844D01*
X164977032Y-143251637D01*
X165074599Y-143264482D01*
X165074600Y-143264482D01*
X165074601Y-143264482D01*
X165126854Y-143257602D01*
X165231362Y-143243844D01*
X165377441Y-143183336D01*
X165502882Y-143087082D01*
X165599136Y-142961641D01*
X165659644Y-142815562D01*
X165671883Y-142722598D01*
X167415318Y-142722598D01*
X167415318Y-142722601D01*
X167435955Y-142879360D01*
X167435956Y-142879362D01*
X167477690Y-142980118D01*
X167496464Y-143025441D01*
X167592718Y-143150882D01*
X167718159Y-143247136D01*
X167864238Y-143307644D01*
X167942619Y-143317963D01*
X168020999Y-143328282D01*
X168021000Y-143328282D01*
X168021001Y-143328282D01*
X168073254Y-143321402D01*
X168177762Y-143307644D01*
X168323841Y-143247136D01*
X168449282Y-143150882D01*
X168545536Y-143025441D01*
X168606044Y-142879362D01*
X168619802Y-142774854D01*
X168626682Y-142722601D01*
X168626682Y-142722598D01*
X168606044Y-142565839D01*
X168606044Y-142565838D01*
X168545536Y-142419759D01*
X168449282Y-142294318D01*
X168323841Y-142198064D01*
X168177762Y-142137556D01*
X168177760Y-142137555D01*
X168021001Y-142116918D01*
X168020999Y-142116918D01*
X167864239Y-142137555D01*
X167864237Y-142137556D01*
X167718160Y-142198063D01*
X167592718Y-142294318D01*
X167496463Y-142419760D01*
X167435956Y-142565837D01*
X167435955Y-142565839D01*
X167415318Y-142722598D01*
X165671883Y-142722598D01*
X165680282Y-142658800D01*
X165659644Y-142502038D01*
X165599136Y-142355959D01*
X165502882Y-142230518D01*
X165377441Y-142134264D01*
X165231362Y-142073756D01*
X165231360Y-142073755D01*
X165074601Y-142053118D01*
X165074599Y-142053118D01*
X164917839Y-142073755D01*
X164917837Y-142073756D01*
X164771760Y-142134263D01*
X164646318Y-142230518D01*
X164550063Y-142355960D01*
X164489556Y-142502037D01*
X164489555Y-142502039D01*
X164468918Y-142658798D01*
X146098531Y-142658798D01*
X146127044Y-142589962D01*
X146147682Y-142433200D01*
X146145912Y-142419759D01*
X146127044Y-142276439D01*
X146127044Y-142276438D01*
X146066536Y-142130359D01*
X145970282Y-142004918D01*
X145844841Y-141908664D01*
X145698762Y-141848156D01*
X145672508Y-141844699D01*
X145588930Y-141833696D01*
X145525034Y-141805429D01*
X145486563Y-141747105D01*
X145482177Y-141694573D01*
X145487282Y-141655800D01*
X145487176Y-141654998D01*
X145473523Y-141551292D01*
X145466644Y-141499038D01*
X145406136Y-141352959D01*
X145357671Y-141289798D01*
X162904318Y-141289798D01*
X162904318Y-141289801D01*
X162924955Y-141446560D01*
X162924956Y-141446562D01*
X162946360Y-141498237D01*
X162985464Y-141592641D01*
X163081718Y-141718082D01*
X163207159Y-141814336D01*
X163353238Y-141874844D01*
X163417324Y-141883281D01*
X163509999Y-141895482D01*
X163510000Y-141895482D01*
X163510001Y-141895482D01*
X163562254Y-141888602D01*
X163666762Y-141874844D01*
X163812841Y-141814336D01*
X163938282Y-141718082D01*
X164034536Y-141592641D01*
X164095044Y-141446562D01*
X164115682Y-141289800D01*
X164109847Y-141245482D01*
X164099164Y-141164336D01*
X164095044Y-141133038D01*
X164034536Y-140986959D01*
X163938282Y-140861518D01*
X163812841Y-140765264D01*
X163807090Y-140762882D01*
X163666762Y-140704756D01*
X163666760Y-140704755D01*
X163510001Y-140684118D01*
X163509999Y-140684118D01*
X163353239Y-140704755D01*
X163353237Y-140704756D01*
X163207160Y-140765263D01*
X163081718Y-140861518D01*
X162985463Y-140986960D01*
X162924956Y-141133037D01*
X162924955Y-141133039D01*
X162904318Y-141289798D01*
X145357671Y-141289798D01*
X145309882Y-141227518D01*
X145184441Y-141131264D01*
X145182507Y-141130463D01*
X145038362Y-141070756D01*
X145038360Y-141070755D01*
X144881601Y-141050118D01*
X144881599Y-141050118D01*
X144724839Y-141070755D01*
X144724837Y-141070756D01*
X144700069Y-141081015D01*
X144630599Y-141088481D01*
X144568121Y-141057204D01*
X144532471Y-140997114D01*
X144534967Y-140927289D01*
X144554241Y-140890970D01*
X144585135Y-140850710D01*
X144645643Y-140704631D01*
X144666281Y-140547869D01*
X144659920Y-140499555D01*
X144645643Y-140391108D01*
X144645643Y-140391107D01*
X144585135Y-140245028D01*
X144517741Y-140157198D01*
X148732918Y-140157198D01*
X148732918Y-140157201D01*
X148753555Y-140313960D01*
X148753556Y-140313962D01*
X148785510Y-140391107D01*
X148814064Y-140460041D01*
X148910318Y-140585482D01*
X149035759Y-140681736D01*
X149181838Y-140742244D01*
X149260219Y-140752563D01*
X149338599Y-140762882D01*
X149338600Y-140762882D01*
X149338601Y-140762882D01*
X149390854Y-140756002D01*
X149495362Y-140742244D01*
X149641441Y-140681736D01*
X149696096Y-140639798D01*
X154131118Y-140639798D01*
X154131118Y-140639801D01*
X154151755Y-140796560D01*
X154151756Y-140796562D01*
X154212264Y-140942641D01*
X154308518Y-141068082D01*
X154433959Y-141164336D01*
X154580038Y-141224844D01*
X154658419Y-141235163D01*
X154736799Y-141245482D01*
X154736800Y-141245482D01*
X154736801Y-141245482D01*
X154789054Y-141238602D01*
X154893562Y-141224844D01*
X155039641Y-141164336D01*
X155165082Y-141068082D01*
X155261336Y-140942641D01*
X155321844Y-140796562D01*
X155342482Y-140639800D01*
X155331984Y-140560063D01*
X155321844Y-140483039D01*
X155321844Y-140483038D01*
X155261336Y-140336959D01*
X155165082Y-140211518D01*
X155039641Y-140115264D01*
X154893562Y-140054756D01*
X154893560Y-140054755D01*
X154736801Y-140034118D01*
X154736799Y-140034118D01*
X154580039Y-140054755D01*
X154580037Y-140054756D01*
X154433960Y-140115263D01*
X154308518Y-140211518D01*
X154212263Y-140336960D01*
X154151756Y-140483037D01*
X154151755Y-140483039D01*
X154131118Y-140639798D01*
X149696096Y-140639798D01*
X149766882Y-140585482D01*
X149863136Y-140460041D01*
X149923644Y-140313962D01*
X149944282Y-140157200D01*
X149938763Y-140115282D01*
X149923644Y-140000439D01*
X149923644Y-140000438D01*
X149863136Y-139854359D01*
X149766882Y-139728918D01*
X149712251Y-139686998D01*
X164468918Y-139686998D01*
X164468918Y-139687001D01*
X164489555Y-139843760D01*
X164489556Y-139843762D01*
X164538873Y-139962825D01*
X164550064Y-139989841D01*
X164646318Y-140115282D01*
X164771759Y-140211536D01*
X164917838Y-140272044D01*
X164996219Y-140282363D01*
X165074599Y-140292682D01*
X165074600Y-140292682D01*
X165074601Y-140292682D01*
X165126854Y-140285802D01*
X165231362Y-140272044D01*
X165377441Y-140211536D01*
X165502882Y-140115282D01*
X165599136Y-139989841D01*
X165659644Y-139843762D01*
X165680282Y-139687000D01*
X165673128Y-139632663D01*
X165665162Y-139572155D01*
X165659644Y-139530238D01*
X165599136Y-139384159D01*
X165502882Y-139258718D01*
X165377441Y-139162464D01*
X165301574Y-139131039D01*
X165231362Y-139101956D01*
X165231360Y-139101955D01*
X165074601Y-139081318D01*
X165074599Y-139081318D01*
X164917839Y-139101955D01*
X164917837Y-139101956D01*
X164771760Y-139162463D01*
X164646318Y-139258718D01*
X164550063Y-139384160D01*
X164489556Y-139530237D01*
X164489555Y-139530239D01*
X164468918Y-139686998D01*
X149712251Y-139686998D01*
X149641441Y-139632664D01*
X149495362Y-139572156D01*
X149495360Y-139572155D01*
X149338601Y-139551518D01*
X149338599Y-139551518D01*
X149181839Y-139572155D01*
X149181837Y-139572156D01*
X149035760Y-139632663D01*
X148910318Y-139728918D01*
X148814063Y-139854360D01*
X148753556Y-140000437D01*
X148753555Y-140000439D01*
X148732918Y-140157198D01*
X144517741Y-140157198D01*
X144488881Y-140119587D01*
X144363440Y-140023333D01*
X144308164Y-140000437D01*
X144217361Y-139962825D01*
X144217359Y-139962824D01*
X144060600Y-139942187D01*
X144060598Y-139942187D01*
X143903838Y-139962824D01*
X143903836Y-139962825D01*
X143757759Y-140023332D01*
X143632317Y-140119587D01*
X143536062Y-140245029D01*
X143475555Y-140391106D01*
X143475554Y-140391108D01*
X143454917Y-140547867D01*
X138703395Y-140547867D01*
X138586762Y-140499556D01*
X138586760Y-140499555D01*
X138430001Y-140478918D01*
X138429999Y-140478918D01*
X138273239Y-140499555D01*
X138273237Y-140499556D01*
X138127160Y-140560063D01*
X138001718Y-140656318D01*
X137905463Y-140781760D01*
X137844956Y-140927837D01*
X137844955Y-140927839D01*
X137824318Y-141084598D01*
X124541111Y-141084598D01*
X124505762Y-141069956D01*
X124505760Y-141069955D01*
X124349001Y-141049318D01*
X124348999Y-141049318D01*
X124192239Y-141069955D01*
X124192237Y-141069956D01*
X124046160Y-141130463D01*
X123920718Y-141226718D01*
X123824463Y-141352160D01*
X123763956Y-141498237D01*
X123763955Y-141498239D01*
X123743318Y-141654998D01*
X116095900Y-141654998D01*
X116095900Y-139655573D01*
X132090293Y-139655573D01*
X132090293Y-139655576D01*
X132110930Y-139812335D01*
X132110931Y-139812337D01*
X132128337Y-139854360D01*
X132171439Y-139958416D01*
X132267693Y-140083857D01*
X132393134Y-140180111D01*
X132539213Y-140240619D01*
X132617594Y-140250938D01*
X132695974Y-140261257D01*
X132695975Y-140261257D01*
X132695976Y-140261257D01*
X132748229Y-140254377D01*
X132852737Y-140240619D01*
X132998816Y-140180111D01*
X133124257Y-140083857D01*
X133220511Y-139958416D01*
X133281019Y-139812337D01*
X133301657Y-139655575D01*
X133281019Y-139498813D01*
X133220511Y-139352734D01*
X133124257Y-139227293D01*
X132998816Y-139131039D01*
X132852737Y-139070531D01*
X132852735Y-139070530D01*
X132695976Y-139049893D01*
X132695974Y-139049893D01*
X132539214Y-139070530D01*
X132539212Y-139070531D01*
X132393135Y-139131038D01*
X132267693Y-139227293D01*
X132171438Y-139352735D01*
X132110931Y-139498812D01*
X132110930Y-139498814D01*
X132090293Y-139655573D01*
X116095900Y-139655573D01*
X116095900Y-137515598D01*
X138449118Y-137515598D01*
X138449118Y-137515601D01*
X138469755Y-137672360D01*
X138469756Y-137672362D01*
X138508226Y-137765238D01*
X138530264Y-137818441D01*
X138626518Y-137943882D01*
X138751959Y-138040136D01*
X138898038Y-138100644D01*
X138976419Y-138110963D01*
X139054799Y-138121282D01*
X139054800Y-138121282D01*
X139054801Y-138121282D01*
X139107054Y-138114402D01*
X139211562Y-138100644D01*
X139357641Y-138040136D01*
X139483082Y-137943882D01*
X139499874Y-137921998D01*
X158461518Y-137921998D01*
X158461518Y-137922001D01*
X158482155Y-138078760D01*
X158482156Y-138078762D01*
X158508176Y-138141581D01*
X158542664Y-138224841D01*
X158638918Y-138350282D01*
X158764359Y-138446536D01*
X158910438Y-138507044D01*
X158988819Y-138517363D01*
X159067199Y-138527682D01*
X159067200Y-138527682D01*
X159067201Y-138527682D01*
X159119454Y-138520802D01*
X159223962Y-138507044D01*
X159370041Y-138446536D01*
X159495482Y-138350282D01*
X159591736Y-138224841D01*
X159652244Y-138078762D01*
X159672882Y-137922000D01*
X159652244Y-137765238D01*
X159633008Y-137718798D01*
X164697518Y-137718798D01*
X164697518Y-137718801D01*
X164718155Y-137875560D01*
X164718156Y-137875562D01*
X164778664Y-138021641D01*
X164874918Y-138147082D01*
X165000359Y-138243336D01*
X165146438Y-138303844D01*
X165224819Y-138314163D01*
X165303199Y-138324482D01*
X165303200Y-138324482D01*
X165303201Y-138324482D01*
X165355454Y-138317602D01*
X165459962Y-138303844D01*
X165606041Y-138243336D01*
X165731482Y-138147082D01*
X165827736Y-138021641D01*
X165888244Y-137875562D01*
X165908882Y-137718800D01*
X165908158Y-137713298D01*
X166751018Y-137713298D01*
X166751018Y-137713301D01*
X166771655Y-137870060D01*
X166771656Y-137870062D01*
X166832164Y-138016141D01*
X166928418Y-138141582D01*
X167053859Y-138237836D01*
X167199938Y-138298344D01*
X167241715Y-138303844D01*
X167356699Y-138318982D01*
X167356700Y-138318982D01*
X167356701Y-138318982D01*
X167408954Y-138312102D01*
X167513462Y-138298344D01*
X167659541Y-138237836D01*
X167784982Y-138141582D01*
X167881236Y-138016141D01*
X167941744Y-137870062D01*
X167962382Y-137713300D01*
X167956992Y-137672362D01*
X167945219Y-137582936D01*
X167941744Y-137556538D01*
X167881236Y-137410459D01*
X167784982Y-137285018D01*
X167659541Y-137188764D01*
X167513462Y-137128256D01*
X167513460Y-137128255D01*
X167356701Y-137107618D01*
X167356699Y-137107618D01*
X167199939Y-137128255D01*
X167199937Y-137128256D01*
X167053860Y-137188763D01*
X166928418Y-137285018D01*
X166832163Y-137410460D01*
X166771656Y-137556537D01*
X166771655Y-137556539D01*
X166751018Y-137713298D01*
X165908158Y-137713298D01*
X165888244Y-137562038D01*
X165827736Y-137415959D01*
X165731482Y-137290518D01*
X165606041Y-137194264D01*
X165592760Y-137188763D01*
X165459962Y-137133756D01*
X165459960Y-137133755D01*
X165303201Y-137113118D01*
X165303199Y-137113118D01*
X165146439Y-137133755D01*
X165146437Y-137133756D01*
X165000360Y-137194263D01*
X164874918Y-137290518D01*
X164778663Y-137415960D01*
X164718156Y-137562037D01*
X164718155Y-137562039D01*
X164697518Y-137718798D01*
X159633008Y-137718798D01*
X159591736Y-137619159D01*
X159495482Y-137493718D01*
X159370041Y-137397464D01*
X159340148Y-137385082D01*
X159223962Y-137336956D01*
X159223960Y-137336955D01*
X159067201Y-137316318D01*
X159067199Y-137316318D01*
X158910439Y-137336955D01*
X158910437Y-137336956D01*
X158764360Y-137397463D01*
X158638918Y-137493718D01*
X158542663Y-137619160D01*
X158482156Y-137765237D01*
X158482155Y-137765239D01*
X158461518Y-137921998D01*
X139499874Y-137921998D01*
X139579336Y-137818441D01*
X139639844Y-137672362D01*
X139660482Y-137515600D01*
X139639844Y-137358838D01*
X139579336Y-137212759D01*
X139483082Y-137087318D01*
X139445393Y-137058398D01*
X156569518Y-137058398D01*
X156569518Y-137058401D01*
X156590155Y-137215160D01*
X156590156Y-137215162D01*
X156649668Y-137358838D01*
X156650664Y-137361241D01*
X156746918Y-137486682D01*
X156872359Y-137582936D01*
X157018438Y-137643444D01*
X157096819Y-137653763D01*
X157175199Y-137664082D01*
X157175200Y-137664082D01*
X157175201Y-137664082D01*
X157227454Y-137657202D01*
X157331962Y-137643444D01*
X157478041Y-137582936D01*
X157603482Y-137486682D01*
X157699736Y-137361241D01*
X157760244Y-137215162D01*
X157777075Y-137087318D01*
X157780882Y-137058401D01*
X157780882Y-137058398D01*
X157760244Y-136901639D01*
X157760244Y-136901638D01*
X157699736Y-136755559D01*
X157603482Y-136630118D01*
X157478041Y-136533864D01*
X157331962Y-136473356D01*
X157331960Y-136473355D01*
X157175201Y-136452718D01*
X157175199Y-136452718D01*
X157018439Y-136473355D01*
X157018437Y-136473356D01*
X156872360Y-136533863D01*
X156746918Y-136630118D01*
X156650663Y-136755560D01*
X156590156Y-136901637D01*
X156590155Y-136901639D01*
X156569518Y-137058398D01*
X139445393Y-137058398D01*
X139357641Y-136991064D01*
X139211562Y-136930556D01*
X139211560Y-136930555D01*
X139054801Y-136909918D01*
X139054799Y-136909918D01*
X138898039Y-136930555D01*
X138898037Y-136930556D01*
X138751960Y-136991063D01*
X138626518Y-137087318D01*
X138530263Y-137212760D01*
X138469756Y-137358837D01*
X138469755Y-137358839D01*
X138449118Y-137515598D01*
X116095900Y-137515598D01*
X116095900Y-132587998D01*
X121923918Y-132587998D01*
X121923918Y-132588001D01*
X121944555Y-132744760D01*
X121944556Y-132744762D01*
X121999066Y-132876362D01*
X122005064Y-132890841D01*
X122101318Y-133016282D01*
X122226759Y-133112536D01*
X122372838Y-133173044D01*
X122451219Y-133183363D01*
X122529599Y-133193682D01*
X122529600Y-133193682D01*
X122529601Y-133193682D01*
X122581854Y-133186802D01*
X122686362Y-133173044D01*
X122832441Y-133112536D01*
X122957882Y-133016282D01*
X123054136Y-132890841D01*
X123114644Y-132744762D01*
X123131422Y-132617318D01*
X123135282Y-132588001D01*
X123135282Y-132587998D01*
X123114644Y-132431239D01*
X123114644Y-132431238D01*
X123054136Y-132285159D01*
X122957882Y-132159718D01*
X122884614Y-132103498D01*
X141151718Y-132103498D01*
X141151718Y-132103501D01*
X141172355Y-132260260D01*
X141172356Y-132260262D01*
X141232839Y-132406282D01*
X141232864Y-132406341D01*
X141329118Y-132531782D01*
X141454559Y-132628036D01*
X141600638Y-132688544D01*
X141702847Y-132702000D01*
X141766741Y-132730265D01*
X141805213Y-132788589D01*
X141806045Y-132858454D01*
X141768973Y-132917678D01*
X141762147Y-132923313D01*
X141659320Y-133002215D01*
X141563063Y-133127660D01*
X141502556Y-133273737D01*
X141502555Y-133273739D01*
X141481918Y-133430498D01*
X141481918Y-133430501D01*
X141502555Y-133587260D01*
X141502556Y-133587262D01*
X141536603Y-133669460D01*
X141563064Y-133733341D01*
X141659318Y-133858782D01*
X141659320Y-133858783D01*
X141659322Y-133858786D01*
X141661725Y-133861189D01*
X141663104Y-133863715D01*
X141664266Y-133865229D01*
X141664029Y-133865410D01*
X141695210Y-133922512D01*
X141690226Y-133992204D01*
X141672420Y-134024356D01*
X141593509Y-134127195D01*
X141533001Y-134273275D01*
X141533000Y-134273277D01*
X141512363Y-134430036D01*
X141512363Y-134430039D01*
X141533000Y-134586798D01*
X141533001Y-134586800D01*
X141589648Y-134723559D01*
X141593509Y-134732879D01*
X141689763Y-134858320D01*
X141815204Y-134954574D01*
X141961283Y-135015082D01*
X142039664Y-135025401D01*
X142118044Y-135035720D01*
X142118044Y-135035719D01*
X142118045Y-135035720D01*
X142220272Y-135022261D01*
X142289303Y-135033026D01*
X142341559Y-135079406D01*
X142359393Y-135129012D01*
X142361696Y-135146505D01*
X142419007Y-135284867D01*
X142422204Y-135292584D01*
X142518458Y-135418025D01*
X142643899Y-135514279D01*
X142789978Y-135574787D01*
X142868359Y-135585106D01*
X142946739Y-135595425D01*
X142946740Y-135595425D01*
X142946741Y-135595425D01*
X142998994Y-135588545D01*
X143103502Y-135574787D01*
X143249581Y-135514279D01*
X143375022Y-135418025D01*
X143471276Y-135292584D01*
X143531784Y-135146505D01*
X143547596Y-135026398D01*
X152810318Y-135026398D01*
X152810318Y-135026401D01*
X152830955Y-135183160D01*
X152830956Y-135183162D01*
X152891464Y-135329241D01*
X152987718Y-135454682D01*
X153113159Y-135550936D01*
X153259238Y-135611444D01*
X153337619Y-135621763D01*
X153415999Y-135632082D01*
X153416000Y-135632082D01*
X153416001Y-135632082D01*
X153468254Y-135625202D01*
X153572762Y-135611444D01*
X153718841Y-135550936D01*
X153844282Y-135454682D01*
X153940536Y-135329241D01*
X154001044Y-135183162D01*
X154021682Y-135026400D01*
X154019963Y-135013346D01*
X154001044Y-134869639D01*
X154001044Y-134869638D01*
X153940536Y-134723559D01*
X153844282Y-134598118D01*
X153718841Y-134501864D01*
X153706702Y-134496836D01*
X153572762Y-134441356D01*
X153572760Y-134441355D01*
X153416001Y-134420718D01*
X153415999Y-134420718D01*
X153259239Y-134441355D01*
X153259237Y-134441356D01*
X153113160Y-134501863D01*
X152987718Y-134598118D01*
X152891463Y-134723560D01*
X152830956Y-134869637D01*
X152830955Y-134869639D01*
X152810318Y-135026398D01*
X143547596Y-135026398D01*
X143549314Y-135013348D01*
X143552422Y-134989744D01*
X143552422Y-134989741D01*
X143531784Y-134832982D01*
X143531784Y-134832981D01*
X143471276Y-134686902D01*
X143375022Y-134561461D01*
X143249581Y-134465207D01*
X143191997Y-134441355D01*
X143103502Y-134404699D01*
X143103500Y-134404698D01*
X142946741Y-134384061D01*
X142946739Y-134384061D01*
X142844515Y-134397519D01*
X142775480Y-134386753D01*
X142723224Y-134340373D01*
X142705391Y-134290764D01*
X142703334Y-134275141D01*
X142703089Y-134273276D01*
X142642581Y-134127197D01*
X142546327Y-134001756D01*
X142546324Y-134001753D01*
X142546322Y-134001751D01*
X142543919Y-133999348D01*
X142542539Y-133996820D01*
X142541379Y-133995309D01*
X142541614Y-133995128D01*
X142529148Y-133972298D01*
X145203018Y-133972298D01*
X145203018Y-133972301D01*
X145223655Y-134129060D01*
X145223656Y-134129062D01*
X145283045Y-134272441D01*
X145284164Y-134275141D01*
X145380418Y-134400582D01*
X145505859Y-134496836D01*
X145651938Y-134557344D01*
X145683210Y-134561461D01*
X145808699Y-134577982D01*
X145808700Y-134577982D01*
X145808701Y-134577982D01*
X145860954Y-134571102D01*
X145965462Y-134557344D01*
X146111541Y-134496836D01*
X146236982Y-134400582D01*
X146333236Y-134275141D01*
X146378486Y-134165898D01*
X157585518Y-134165898D01*
X157585518Y-134165901D01*
X157606155Y-134322660D01*
X157606156Y-134322662D01*
X157638431Y-134400582D01*
X157666664Y-134468741D01*
X157762918Y-134594182D01*
X157888359Y-134690436D01*
X158034438Y-134750944D01*
X158112819Y-134761263D01*
X158191199Y-134771582D01*
X158199327Y-134771582D01*
X158199327Y-134774363D01*
X158254960Y-134783028D01*
X158307225Y-134829397D01*
X158325072Y-134879026D01*
X158330040Y-134916759D01*
X158339648Y-134989744D01*
X158342756Y-135013347D01*
X158342756Y-135013348D01*
X158397911Y-135146505D01*
X158403264Y-135159427D01*
X158499518Y-135284868D01*
X158624959Y-135381122D01*
X158771038Y-135441630D01*
X158849419Y-135451949D01*
X158927799Y-135462268D01*
X158927800Y-135462268D01*
X158927801Y-135462268D01*
X158985429Y-135454681D01*
X159084562Y-135441630D01*
X159092606Y-135438298D01*
X164851018Y-135438298D01*
X164851018Y-135438301D01*
X164871655Y-135595060D01*
X164871656Y-135595062D01*
X164932164Y-135741141D01*
X165028418Y-135866582D01*
X165153859Y-135962836D01*
X165299938Y-136023344D01*
X165378319Y-136033663D01*
X165456699Y-136043982D01*
X165456700Y-136043982D01*
X165456701Y-136043982D01*
X165508954Y-136037102D01*
X165613462Y-136023344D01*
X165759541Y-135962836D01*
X165884982Y-135866582D01*
X165981236Y-135741141D01*
X166041744Y-135595062D01*
X166060225Y-135454682D01*
X166062382Y-135438301D01*
X166062382Y-135438298D01*
X166932718Y-135438298D01*
X166932718Y-135438301D01*
X166953355Y-135595060D01*
X166953356Y-135595062D01*
X167013864Y-135741141D01*
X167110118Y-135866582D01*
X167235559Y-135962836D01*
X167381638Y-136023344D01*
X167460019Y-136033663D01*
X167538399Y-136043982D01*
X167538400Y-136043982D01*
X167538401Y-136043982D01*
X167590654Y-136037102D01*
X167695162Y-136023344D01*
X167841241Y-135962836D01*
X167966682Y-135866582D01*
X168062936Y-135741141D01*
X168123444Y-135595062D01*
X168141925Y-135454682D01*
X168144082Y-135438301D01*
X168144082Y-135438298D01*
X168123444Y-135281539D01*
X168123444Y-135281538D01*
X168062936Y-135135459D01*
X167966682Y-135010018D01*
X167841241Y-134913764D01*
X167703196Y-134856584D01*
X167695162Y-134853256D01*
X167695160Y-134853255D01*
X167538401Y-134832618D01*
X167538399Y-134832618D01*
X167381639Y-134853255D01*
X167381637Y-134853256D01*
X167235560Y-134913763D01*
X167110118Y-135010018D01*
X167013863Y-135135460D01*
X166953356Y-135281537D01*
X166953355Y-135281539D01*
X166932718Y-135438298D01*
X166062382Y-135438298D01*
X166041744Y-135281539D01*
X166041744Y-135281538D01*
X165981236Y-135135459D01*
X165884982Y-135010018D01*
X165759541Y-134913764D01*
X165621496Y-134856584D01*
X165613462Y-134853256D01*
X165613460Y-134853255D01*
X165456701Y-134832618D01*
X165456699Y-134832618D01*
X165299939Y-134853255D01*
X165299937Y-134853256D01*
X165153860Y-134913763D01*
X165028418Y-135010018D01*
X164932163Y-135135460D01*
X164871656Y-135281537D01*
X164871655Y-135281539D01*
X164851018Y-135438298D01*
X159092606Y-135438298D01*
X159230641Y-135381122D01*
X159356082Y-135284868D01*
X159452336Y-135159427D01*
X159512844Y-135013348D01*
X159533482Y-134856586D01*
X159533043Y-134853255D01*
X159512844Y-134699825D01*
X159512844Y-134699824D01*
X159452336Y-134553745D01*
X159356082Y-134428304D01*
X159230641Y-134332050D01*
X159207976Y-134322662D01*
X159084562Y-134271542D01*
X159084560Y-134271541D01*
X158927802Y-134250904D01*
X158919673Y-134250904D01*
X158919673Y-134248129D01*
X158863994Y-134239436D01*
X158811748Y-134193046D01*
X158793927Y-134143458D01*
X158791786Y-134127198D01*
X158776244Y-134009138D01*
X158715736Y-133863059D01*
X158619482Y-133737618D01*
X158494041Y-133641364D01*
X158347962Y-133580856D01*
X158347960Y-133580855D01*
X158191201Y-133560218D01*
X158191199Y-133560218D01*
X158034439Y-133580855D01*
X158034437Y-133580856D01*
X157888360Y-133641363D01*
X157762918Y-133737618D01*
X157666663Y-133863060D01*
X157606156Y-134009137D01*
X157606155Y-134009139D01*
X157585518Y-134165898D01*
X146378486Y-134165898D01*
X146393744Y-134129062D01*
X146408332Y-134018250D01*
X146436598Y-133954355D01*
X146494923Y-133915884D01*
X146547460Y-133911499D01*
X146552490Y-133912161D01*
X146555123Y-133912508D01*
X146555124Y-133912508D01*
X146555125Y-133912508D01*
X146607378Y-133905628D01*
X146711886Y-133891870D01*
X146857965Y-133831362D01*
X146983406Y-133735108D01*
X147079660Y-133609667D01*
X147140168Y-133463588D01*
X147160806Y-133306826D01*
X147149770Y-133222998D01*
X151895918Y-133222998D01*
X151895918Y-133223001D01*
X151916555Y-133379760D01*
X151916556Y-133379762D01*
X151977064Y-133525841D01*
X152073318Y-133651282D01*
X152198759Y-133747536D01*
X152344838Y-133808044D01*
X152423219Y-133818363D01*
X152501599Y-133828682D01*
X152501600Y-133828682D01*
X152501601Y-133828682D01*
X152553854Y-133821802D01*
X152658362Y-133808044D01*
X152804441Y-133747536D01*
X152929882Y-133651282D01*
X153026136Y-133525841D01*
X153078235Y-133400064D01*
X160683584Y-133400064D01*
X160683584Y-133400067D01*
X160704221Y-133556826D01*
X160704222Y-133556828D01*
X160764730Y-133702907D01*
X160860984Y-133828348D01*
X160986425Y-133924602D01*
X161132504Y-133985110D01*
X161151076Y-133987555D01*
X161289265Y-134005748D01*
X161289266Y-134005748D01*
X161427452Y-133987555D01*
X161496485Y-133998320D01*
X161548741Y-134044700D01*
X161567627Y-134111969D01*
X161547147Y-134178770D01*
X161542012Y-134185980D01*
X161506995Y-134231614D01*
X161446487Y-134377694D01*
X161446486Y-134377696D01*
X161425849Y-134534455D01*
X161425849Y-134534458D01*
X161446486Y-134691217D01*
X161446487Y-134691219D01*
X161487948Y-134791316D01*
X161506995Y-134837298D01*
X161603249Y-134962739D01*
X161728690Y-135058993D01*
X161874769Y-135119501D01*
X161947013Y-135129012D01*
X162031530Y-135140139D01*
X162031531Y-135140139D01*
X162031532Y-135140139D01*
X162116049Y-135129012D01*
X162188293Y-135119501D01*
X162334372Y-135058993D01*
X162459813Y-134962739D01*
X162556067Y-134837298D01*
X162616575Y-134691219D01*
X162634674Y-134553745D01*
X162637213Y-134534458D01*
X162637213Y-134534455D01*
X162619233Y-134397882D01*
X162616575Y-134377695D01*
X162556067Y-134231616D01*
X162459813Y-134106175D01*
X162413161Y-134070378D01*
X162371961Y-134013952D01*
X162367806Y-133944206D01*
X162402019Y-133883285D01*
X162441196Y-133857444D01*
X162584096Y-133798253D01*
X162709537Y-133701999D01*
X162805791Y-133576558D01*
X162866299Y-133430479D01*
X162886937Y-133273717D01*
X162883317Y-133246224D01*
X162866299Y-133116956D01*
X162866299Y-133116955D01*
X162814993Y-132993093D01*
X162807525Y-132923627D01*
X162838800Y-132861148D01*
X162882103Y-132831082D01*
X162882595Y-132830878D01*
X162882596Y-132830878D01*
X163028675Y-132770370D01*
X163154116Y-132674116D01*
X163250370Y-132548675D01*
X163310878Y-132402596D01*
X163323253Y-132308598D01*
X164418118Y-132308598D01*
X164418118Y-132308601D01*
X164438755Y-132465360D01*
X164438756Y-132465362D01*
X164492836Y-132595924D01*
X164499264Y-132611441D01*
X164595518Y-132736882D01*
X164720959Y-132833136D01*
X164867038Y-132893644D01*
X164945419Y-132903963D01*
X165023799Y-132914282D01*
X165023800Y-132914282D01*
X165023801Y-132914282D01*
X165086989Y-132905963D01*
X165180562Y-132893644D01*
X165326641Y-132833136D01*
X165452082Y-132736882D01*
X165465344Y-132719598D01*
X169605518Y-132719598D01*
X169605518Y-132719601D01*
X169626155Y-132876360D01*
X169626156Y-132876362D01*
X169686664Y-133022441D01*
X169782918Y-133147882D01*
X169880814Y-133223000D01*
X169911080Y-133246224D01*
X169952282Y-133302653D01*
X169956437Y-133372399D01*
X169922224Y-133433319D01*
X169911080Y-133442976D01*
X169782918Y-133541318D01*
X169686663Y-133666760D01*
X169626156Y-133812837D01*
X169626155Y-133812839D01*
X169605518Y-133969598D01*
X169605518Y-133969601D01*
X169626155Y-134126360D01*
X169626156Y-134126362D01*
X169686291Y-134271542D01*
X169686664Y-134272441D01*
X169782918Y-134397882D01*
X169839575Y-134441356D01*
X169911080Y-134496224D01*
X169952282Y-134552653D01*
X169956437Y-134622399D01*
X169922224Y-134683319D01*
X169911080Y-134692976D01*
X169782918Y-134791318D01*
X169686663Y-134916760D01*
X169626156Y-135062837D01*
X169626155Y-135062839D01*
X169605518Y-135219598D01*
X169605518Y-135219601D01*
X169626155Y-135376360D01*
X169626156Y-135376362D01*
X169653190Y-135441629D01*
X169686664Y-135522441D01*
X169782918Y-135647882D01*
X169898482Y-135736557D01*
X169911080Y-135746224D01*
X169952282Y-135802653D01*
X169956437Y-135872399D01*
X169922224Y-135933319D01*
X169911080Y-135942976D01*
X169782918Y-136041318D01*
X169686663Y-136166760D01*
X169626156Y-136312837D01*
X169626155Y-136312839D01*
X169605518Y-136469598D01*
X169605518Y-136469601D01*
X169626155Y-136626360D01*
X169626156Y-136626362D01*
X169679671Y-136755560D01*
X169686664Y-136772441D01*
X169782918Y-136897882D01*
X169908359Y-136994136D01*
X170054438Y-137054644D01*
X170132819Y-137064963D01*
X170211199Y-137075282D01*
X170211200Y-137075282D01*
X170211201Y-137075282D01*
X170263454Y-137068402D01*
X170367962Y-137054644D01*
X170514041Y-136994136D01*
X170562701Y-136956798D01*
X173790718Y-136956798D01*
X173790718Y-136956801D01*
X173811355Y-137113560D01*
X173811356Y-137113562D01*
X173844783Y-137194263D01*
X173871864Y-137259641D01*
X173968118Y-137385082D01*
X174093559Y-137481336D01*
X174239638Y-137541844D01*
X174318019Y-137552163D01*
X174396399Y-137562482D01*
X174396400Y-137562482D01*
X174396401Y-137562482D01*
X174448654Y-137555602D01*
X174553162Y-137541844D01*
X174699241Y-137481336D01*
X174824682Y-137385082D01*
X174920936Y-137259641D01*
X174981444Y-137113562D01*
X175002082Y-136956800D01*
X174981444Y-136800038D01*
X174920936Y-136653959D01*
X174824682Y-136528518D01*
X174699241Y-136432264D01*
X174553162Y-136371756D01*
X174553160Y-136371755D01*
X174396401Y-136351118D01*
X174396399Y-136351118D01*
X174239639Y-136371755D01*
X174239637Y-136371756D01*
X174093560Y-136432263D01*
X173968118Y-136528518D01*
X173871863Y-136653960D01*
X173811356Y-136800037D01*
X173811355Y-136800039D01*
X173790718Y-136956798D01*
X170562701Y-136956798D01*
X170639482Y-136897882D01*
X170735736Y-136772441D01*
X170796244Y-136626362D01*
X170816882Y-136469600D01*
X170814659Y-136452718D01*
X170796244Y-136312839D01*
X170796244Y-136312838D01*
X170735736Y-136166759D01*
X170639482Y-136041318D01*
X170639480Y-136041317D01*
X170639480Y-136041316D01*
X170511320Y-135942976D01*
X170470117Y-135886548D01*
X170465962Y-135816802D01*
X170500174Y-135755882D01*
X170511320Y-135746224D01*
X170533024Y-135729569D01*
X170639482Y-135647882D01*
X170735736Y-135522441D01*
X170796244Y-135376362D01*
X170816882Y-135219600D01*
X170796244Y-135062838D01*
X170735736Y-134916759D01*
X170639482Y-134791318D01*
X170639480Y-134791317D01*
X170639480Y-134791316D01*
X170511320Y-134692976D01*
X170470117Y-134636548D01*
X170465962Y-134566802D01*
X170500174Y-134505882D01*
X170511320Y-134496224D01*
X170582825Y-134441356D01*
X170639482Y-134397882D01*
X170735736Y-134272441D01*
X170796244Y-134126362D01*
X170813101Y-133998320D01*
X170816882Y-133969601D01*
X170816882Y-133969598D01*
X170798286Y-133828347D01*
X170796244Y-133812838D01*
X170735736Y-133666759D01*
X170639482Y-133541318D01*
X170639480Y-133541317D01*
X170639480Y-133541316D01*
X170511320Y-133442976D01*
X170470117Y-133386548D01*
X170465962Y-133316802D01*
X170500174Y-133255882D01*
X170511320Y-133246224D01*
X170606691Y-133173043D01*
X170639482Y-133147882D01*
X170735736Y-133022441D01*
X170796244Y-132876362D01*
X170816882Y-132719600D01*
X170815510Y-132709182D01*
X170796244Y-132562839D01*
X170796244Y-132562838D01*
X170735736Y-132416759D01*
X170639482Y-132291318D01*
X170514041Y-132195064D01*
X170472077Y-132177682D01*
X170367962Y-132134556D01*
X170367960Y-132134555D01*
X170211201Y-132113918D01*
X170211199Y-132113918D01*
X170054439Y-132134555D01*
X170054437Y-132134556D01*
X169908360Y-132195063D01*
X169782918Y-132291318D01*
X169686663Y-132416760D01*
X169626156Y-132562837D01*
X169626155Y-132562839D01*
X169605518Y-132719598D01*
X165465344Y-132719598D01*
X165548336Y-132611441D01*
X165608844Y-132465362D01*
X165629482Y-132308600D01*
X165629099Y-132305694D01*
X165608844Y-132151839D01*
X165608844Y-132151838D01*
X165548336Y-132005759D01*
X165452082Y-131880318D01*
X165326641Y-131784064D01*
X165195223Y-131729629D01*
X165180562Y-131723556D01*
X165180560Y-131723555D01*
X165023801Y-131702918D01*
X165023799Y-131702918D01*
X164867039Y-131723555D01*
X164867037Y-131723556D01*
X164720960Y-131784063D01*
X164595518Y-131880318D01*
X164499263Y-132005760D01*
X164438756Y-132151837D01*
X164438755Y-132151839D01*
X164418118Y-132308598D01*
X163323253Y-132308598D01*
X163331516Y-132245834D01*
X163310878Y-132089072D01*
X163250370Y-131942993D01*
X163154116Y-131817552D01*
X163028675Y-131721298D01*
X163027120Y-131720654D01*
X162882596Y-131660790D01*
X162882594Y-131660789D01*
X162725835Y-131640152D01*
X162725833Y-131640152D01*
X162569073Y-131660789D01*
X162569071Y-131660790D01*
X162422994Y-131721297D01*
X162297552Y-131817552D01*
X162201297Y-131942994D01*
X162140790Y-132089071D01*
X162140789Y-132089073D01*
X162120152Y-132245832D01*
X162120152Y-132245835D01*
X162140789Y-132402594D01*
X162140790Y-132402596D01*
X162160695Y-132450652D01*
X162192094Y-132526454D01*
X162199563Y-132595924D01*
X162168288Y-132658403D01*
X162124986Y-132688468D01*
X161978415Y-132749180D01*
X161935267Y-132782289D01*
X161869002Y-132833136D01*
X161852972Y-132845436D01*
X161817249Y-132891991D01*
X161760820Y-132933193D01*
X161691074Y-132937347D01*
X161643388Y-132914879D01*
X161592108Y-132875530D01*
X161446028Y-132815022D01*
X161446026Y-132815021D01*
X161289267Y-132794384D01*
X161289265Y-132794384D01*
X161132505Y-132815021D01*
X161132503Y-132815022D01*
X160986426Y-132875529D01*
X160860984Y-132971784D01*
X160764729Y-133097226D01*
X160704222Y-133243303D01*
X160704221Y-133243305D01*
X160683584Y-133400064D01*
X153078235Y-133400064D01*
X153086644Y-133379762D01*
X153107282Y-133223000D01*
X153097392Y-133147881D01*
X153086644Y-133066239D01*
X153086644Y-133066238D01*
X153026136Y-132920159D01*
X152929882Y-132794718D01*
X152804441Y-132698464D01*
X152780803Y-132688673D01*
X152658362Y-132637956D01*
X152658360Y-132637955D01*
X152501601Y-132617318D01*
X152501599Y-132617318D01*
X152344839Y-132637955D01*
X152344837Y-132637956D01*
X152198760Y-132698463D01*
X152073318Y-132794718D01*
X151977063Y-132920160D01*
X151916556Y-133066237D01*
X151916555Y-133066239D01*
X151895918Y-133222998D01*
X147149770Y-133222998D01*
X147140168Y-133150064D01*
X147079660Y-133003985D01*
X146983406Y-132878544D01*
X146857965Y-132782290D01*
X146791149Y-132754614D01*
X146711886Y-132721782D01*
X146711884Y-132721781D01*
X146555125Y-132701144D01*
X146555123Y-132701144D01*
X146398363Y-132721781D01*
X146398361Y-132721782D01*
X146252284Y-132782289D01*
X146126842Y-132878544D01*
X146030587Y-133003986D01*
X145970080Y-133150063D01*
X145970080Y-133150065D01*
X145955491Y-133260874D01*
X145927224Y-133324771D01*
X145868899Y-133363241D01*
X145816369Y-133367627D01*
X145808704Y-133366618D01*
X145808699Y-133366618D01*
X145651939Y-133387255D01*
X145651937Y-133387256D01*
X145505860Y-133447763D01*
X145380418Y-133544018D01*
X145284163Y-133669460D01*
X145223656Y-133815537D01*
X145223655Y-133815539D01*
X145203018Y-133972298D01*
X142529148Y-133972298D01*
X142510434Y-133938025D01*
X142515418Y-133868333D01*
X142533221Y-133836185D01*
X142612136Y-133733341D01*
X142672644Y-133587262D01*
X142693282Y-133430500D01*
X142689275Y-133400067D01*
X142672644Y-133273739D01*
X142672644Y-133273738D01*
X142612136Y-133127659D01*
X142515882Y-133002218D01*
X142390441Y-132905964D01*
X142356707Y-132891991D01*
X142244362Y-132845456D01*
X142244360Y-132845455D01*
X142142154Y-132832000D01*
X142078257Y-132803733D01*
X142039786Y-132745409D01*
X142038955Y-132675544D01*
X142076027Y-132616321D01*
X142082853Y-132610685D01*
X142102090Y-132595924D01*
X142185682Y-132531782D01*
X142281936Y-132406341D01*
X142342444Y-132260262D01*
X142362056Y-132111292D01*
X142390321Y-132047399D01*
X142448645Y-132008927D01*
X142518510Y-132008095D01*
X142560477Y-132029102D01*
X142648359Y-132096536D01*
X142794438Y-132157044D01*
X142872819Y-132167363D01*
X142951199Y-132177682D01*
X142951200Y-132177682D01*
X142951201Y-132177682D01*
X143003454Y-132170802D01*
X143107962Y-132157044D01*
X143127551Y-132148930D01*
X146957918Y-132148930D01*
X146957918Y-132148933D01*
X146978555Y-132305692D01*
X146978556Y-132305694D01*
X147038599Y-132450652D01*
X147039064Y-132451773D01*
X147135318Y-132577214D01*
X147260759Y-132673468D01*
X147406838Y-132733976D01*
X147485219Y-132744295D01*
X147563599Y-132754614D01*
X147563600Y-132754614D01*
X147563601Y-132754614D01*
X147633519Y-132745409D01*
X147720362Y-132733976D01*
X147866441Y-132673468D01*
X147991882Y-132577214D01*
X147991886Y-132577209D01*
X147997629Y-132571467D01*
X147999074Y-132572912D01*
X148046647Y-132538173D01*
X148116393Y-132534015D01*
X148177315Y-132568224D01*
X148183716Y-132575612D01*
X148185313Y-132577209D01*
X148185315Y-132577211D01*
X148185318Y-132577214D01*
X148310759Y-132673468D01*
X148456838Y-132733976D01*
X148535219Y-132744295D01*
X148613599Y-132754614D01*
X148613600Y-132754614D01*
X148613601Y-132754614D01*
X148683519Y-132745409D01*
X148770362Y-132733976D01*
X148916441Y-132673468D01*
X149041882Y-132577214D01*
X149138136Y-132451773D01*
X149198644Y-132305694D01*
X149218899Y-132151839D01*
X149219282Y-132148933D01*
X149219282Y-132148930D01*
X149200850Y-132008927D01*
X149198644Y-131992170D01*
X149182418Y-131952998D01*
X149762318Y-131952998D01*
X149762318Y-131953001D01*
X149782955Y-132109760D01*
X149782956Y-132109762D01*
X149843464Y-132255841D01*
X149939718Y-132381282D01*
X150065159Y-132477536D01*
X150211238Y-132538044D01*
X150289619Y-132548363D01*
X150367999Y-132558682D01*
X150368000Y-132558682D01*
X150368001Y-132558682D01*
X150444026Y-132548673D01*
X150524762Y-132538044D01*
X150670841Y-132477536D01*
X150796282Y-132381282D01*
X150892536Y-132255841D01*
X150953044Y-132109762D01*
X150973682Y-131953000D01*
X150972857Y-131946737D01*
X150953618Y-131800598D01*
X151210118Y-131800598D01*
X151210118Y-131800601D01*
X151230755Y-131957360D01*
X151230756Y-131957362D01*
X151285312Y-132089073D01*
X151291264Y-132103441D01*
X151387518Y-132228882D01*
X151512959Y-132325136D01*
X151659038Y-132385644D01*
X151737419Y-132395963D01*
X151815799Y-132406282D01*
X151815800Y-132406282D01*
X151815801Y-132406282D01*
X151868054Y-132399402D01*
X151972562Y-132385644D01*
X152118641Y-132325136D01*
X152244082Y-132228882D01*
X152340336Y-132103441D01*
X152400844Y-131957362D01*
X152421482Y-131800600D01*
X152410956Y-131720650D01*
X152400844Y-131643839D01*
X152400844Y-131643838D01*
X152340336Y-131497759D01*
X152318727Y-131469598D01*
X171047518Y-131469598D01*
X171047518Y-131469601D01*
X171068155Y-131626360D01*
X171068156Y-131626362D01*
X171110571Y-131728762D01*
X171128664Y-131772441D01*
X171224918Y-131897882D01*
X171350359Y-131994136D01*
X171496438Y-132054644D01*
X171563425Y-132063463D01*
X171653199Y-132075282D01*
X171653200Y-132075282D01*
X171653201Y-132075282D01*
X171705454Y-132068402D01*
X171809962Y-132054644D01*
X171956041Y-131994136D01*
X172081482Y-131897882D01*
X172177736Y-131772441D01*
X172238244Y-131626362D01*
X172258882Y-131469600D01*
X172253466Y-131428464D01*
X172238244Y-131312839D01*
X172238244Y-131312838D01*
X172177736Y-131166759D01*
X172081482Y-131041318D01*
X171956041Y-130945064D01*
X171809962Y-130884556D01*
X171809960Y-130884555D01*
X171653201Y-130863918D01*
X171653199Y-130863918D01*
X171496439Y-130884555D01*
X171496437Y-130884556D01*
X171350360Y-130945063D01*
X171224918Y-131041318D01*
X171128663Y-131166760D01*
X171068156Y-131312837D01*
X171068155Y-131312839D01*
X171047518Y-131469598D01*
X152318727Y-131469598D01*
X152244082Y-131372318D01*
X152118641Y-131276064D01*
X152101973Y-131269160D01*
X151972562Y-131215556D01*
X151972560Y-131215555D01*
X151815801Y-131194918D01*
X151815799Y-131194918D01*
X151659039Y-131215555D01*
X151659037Y-131215556D01*
X151512960Y-131276063D01*
X151387518Y-131372318D01*
X151291263Y-131497760D01*
X151230756Y-131643837D01*
X151230755Y-131643839D01*
X151210118Y-131800598D01*
X150953618Y-131800598D01*
X150953044Y-131796239D01*
X150953044Y-131796238D01*
X150892536Y-131650159D01*
X150796282Y-131524718D01*
X150670841Y-131428464D01*
X150659972Y-131423962D01*
X150524762Y-131367956D01*
X150524760Y-131367955D01*
X150368001Y-131347318D01*
X150367999Y-131347318D01*
X150211239Y-131367955D01*
X150211237Y-131367956D01*
X150065160Y-131428463D01*
X149939718Y-131524718D01*
X149843463Y-131650160D01*
X149782956Y-131796237D01*
X149782955Y-131796239D01*
X149762318Y-131952998D01*
X149182418Y-131952998D01*
X149138136Y-131846091D01*
X149041882Y-131720650D01*
X148916441Y-131624396D01*
X148877917Y-131608439D01*
X148770362Y-131563888D01*
X148770360Y-131563887D01*
X148613601Y-131543250D01*
X148613599Y-131543250D01*
X148456839Y-131563887D01*
X148456837Y-131563888D01*
X148310760Y-131624395D01*
X148263329Y-131660790D01*
X148197062Y-131711639D01*
X148185313Y-131720654D01*
X148179571Y-131726397D01*
X148178126Y-131724952D01*
X148130540Y-131759695D01*
X148060794Y-131763845D01*
X147999876Y-131729629D01*
X147993481Y-131722249D01*
X147991886Y-131720654D01*
X147991883Y-131720652D01*
X147991882Y-131720650D01*
X147866441Y-131624396D01*
X147827917Y-131608439D01*
X147720362Y-131563888D01*
X147720360Y-131563887D01*
X147563601Y-131543250D01*
X147563599Y-131543250D01*
X147406839Y-131563887D01*
X147406837Y-131563888D01*
X147260760Y-131624395D01*
X147135318Y-131720650D01*
X147039063Y-131846092D01*
X146978556Y-131992169D01*
X146978555Y-131992171D01*
X146957918Y-132148930D01*
X143127551Y-132148930D01*
X143254041Y-132096536D01*
X143379482Y-132000282D01*
X143475736Y-131874841D01*
X143536244Y-131728762D01*
X143538498Y-131711638D01*
X143566764Y-131647743D01*
X143625088Y-131609271D01*
X143694953Y-131608439D01*
X143754177Y-131645511D01*
X143759806Y-131652330D01*
X143792918Y-131695482D01*
X143918359Y-131791736D01*
X144064438Y-131852244D01*
X144142819Y-131862563D01*
X144221199Y-131872882D01*
X144221200Y-131872882D01*
X144221201Y-131872882D01*
X144273454Y-131866002D01*
X144377962Y-131852244D01*
X144524041Y-131791736D01*
X144649482Y-131695482D01*
X144745736Y-131570041D01*
X144806244Y-131423962D01*
X144826882Y-131267200D01*
X144822084Y-131230758D01*
X144813123Y-131162692D01*
X144806244Y-131110438D01*
X144745736Y-130964359D01*
X144649482Y-130838918D01*
X144524041Y-130742664D01*
X144377962Y-130682156D01*
X144377960Y-130682155D01*
X144221201Y-130661518D01*
X144221199Y-130661518D01*
X144064439Y-130682155D01*
X144064437Y-130682156D01*
X143918360Y-130742663D01*
X143792918Y-130838918D01*
X143696663Y-130964360D01*
X143636156Y-131110437D01*
X143633901Y-131127565D01*
X143605632Y-131191460D01*
X143547306Y-131229929D01*
X143477441Y-131230758D01*
X143418219Y-131193684D01*
X143412595Y-131186872D01*
X143379482Y-131143718D01*
X143254041Y-131047464D01*
X143239203Y-131041318D01*
X143107962Y-130986956D01*
X143107960Y-130986955D01*
X142951201Y-130966318D01*
X142951199Y-130966318D01*
X142794439Y-130986955D01*
X142794437Y-130986956D01*
X142648360Y-131047463D01*
X142522918Y-131143718D01*
X142426663Y-131269160D01*
X142366156Y-131415237D01*
X142366156Y-131415238D01*
X142346544Y-131564205D01*
X142318277Y-131628101D01*
X142259953Y-131666572D01*
X142190088Y-131667403D01*
X142148119Y-131646395D01*
X142060242Y-131578964D01*
X141914162Y-131518456D01*
X141914160Y-131518455D01*
X141757401Y-131497818D01*
X141757399Y-131497818D01*
X141600639Y-131518455D01*
X141600637Y-131518456D01*
X141454560Y-131578963D01*
X141329118Y-131675218D01*
X141232863Y-131800660D01*
X141172356Y-131946737D01*
X141172355Y-131946739D01*
X141151718Y-132103498D01*
X122884614Y-132103498D01*
X122832441Y-132063464D01*
X122811145Y-132054643D01*
X122686362Y-132002956D01*
X122686360Y-132002955D01*
X122529601Y-131982318D01*
X122529599Y-131982318D01*
X122372839Y-132002955D01*
X122372837Y-132002956D01*
X122226760Y-132063463D01*
X122101318Y-132159718D01*
X122005063Y-132285160D01*
X121944556Y-132431237D01*
X121944555Y-132431239D01*
X121923918Y-132587998D01*
X116095900Y-132587998D01*
X116095900Y-130806898D01*
X123854318Y-130806898D01*
X123854318Y-130806901D01*
X123874955Y-130963660D01*
X123874956Y-130963662D01*
X123909667Y-131047463D01*
X123935464Y-131109741D01*
X124031718Y-131235182D01*
X124157159Y-131331436D01*
X124303238Y-131391944D01*
X124381619Y-131402263D01*
X124459999Y-131412582D01*
X124460000Y-131412582D01*
X124460001Y-131412582D01*
X124512254Y-131405702D01*
X124616762Y-131391944D01*
X124762841Y-131331436D01*
X124888282Y-131235182D01*
X124984536Y-131109741D01*
X125045044Y-130963662D01*
X125065682Y-130806900D01*
X125045044Y-130650138D01*
X124984536Y-130504059D01*
X124888282Y-130378618D01*
X124762841Y-130282364D01*
X124698135Y-130255562D01*
X124616762Y-130221856D01*
X124616760Y-130221855D01*
X124460001Y-130201218D01*
X124459999Y-130201218D01*
X124303239Y-130221855D01*
X124303237Y-130221856D01*
X124157160Y-130282363D01*
X124031718Y-130378618D01*
X123935463Y-130504060D01*
X123874956Y-130650137D01*
X123874955Y-130650139D01*
X123854318Y-130806898D01*
X116095900Y-130806898D01*
X116095900Y-130098798D01*
X121943518Y-130098798D01*
X121943518Y-130098801D01*
X121964155Y-130255560D01*
X121964156Y-130255562D01*
X122023852Y-130399682D01*
X122024664Y-130401641D01*
X122120918Y-130527082D01*
X122246359Y-130623336D01*
X122392438Y-130683844D01*
X122470819Y-130694163D01*
X122549199Y-130704482D01*
X122549200Y-130704482D01*
X122549201Y-130704482D01*
X122601454Y-130697602D01*
X122705962Y-130683844D01*
X122852041Y-130623336D01*
X122977482Y-130527082D01*
X123073736Y-130401641D01*
X123134244Y-130255562D01*
X123154882Y-130098800D01*
X123134244Y-129942038D01*
X123073736Y-129795959D01*
X123013761Y-129717798D01*
X142955118Y-129717798D01*
X142955118Y-129717801D01*
X142975755Y-129874560D01*
X142975756Y-129874562D01*
X143003705Y-129942038D01*
X143036264Y-130020641D01*
X143132518Y-130146082D01*
X143257959Y-130242336D01*
X143404038Y-130302844D01*
X143482419Y-130313163D01*
X143560799Y-130323482D01*
X143560800Y-130323482D01*
X143560801Y-130323482D01*
X143613054Y-130316602D01*
X143717562Y-130302844D01*
X143863641Y-130242336D01*
X143989082Y-130146082D01*
X144085336Y-130020641D01*
X144145844Y-129874562D01*
X144156450Y-129793998D01*
X156747318Y-129793998D01*
X156747318Y-129794001D01*
X156767955Y-129950760D01*
X156767956Y-129950762D01*
X156828464Y-130096841D01*
X156924718Y-130222282D01*
X157050159Y-130318536D01*
X157196238Y-130379044D01*
X157274619Y-130389363D01*
X157352999Y-130399682D01*
X157353000Y-130399682D01*
X157353001Y-130399682D01*
X157405254Y-130392802D01*
X157509762Y-130379044D01*
X157655841Y-130318536D01*
X157781282Y-130222282D01*
X157877536Y-130096841D01*
X157938044Y-129950762D01*
X157958682Y-129794000D01*
X157938044Y-129637238D01*
X157877536Y-129491159D01*
X157781282Y-129365718D01*
X157655841Y-129269464D01*
X157509762Y-129208956D01*
X157509760Y-129208955D01*
X157353001Y-129188318D01*
X157352999Y-129188318D01*
X157196239Y-129208955D01*
X157196237Y-129208956D01*
X157050160Y-129269463D01*
X156924718Y-129365718D01*
X156828463Y-129491160D01*
X156767956Y-129637237D01*
X156767955Y-129637239D01*
X156747318Y-129793998D01*
X144156450Y-129793998D01*
X144166482Y-129717800D01*
X144145844Y-129561038D01*
X144085336Y-129414959D01*
X143989082Y-129289518D01*
X143863641Y-129193264D01*
X143851700Y-129188318D01*
X143717562Y-129132756D01*
X143717560Y-129132755D01*
X143560801Y-129112118D01*
X143560799Y-129112118D01*
X143404039Y-129132755D01*
X143404037Y-129132756D01*
X143257960Y-129193263D01*
X143132518Y-129289518D01*
X143036263Y-129414960D01*
X142975756Y-129561037D01*
X142975755Y-129561039D01*
X142955118Y-129717798D01*
X123013761Y-129717798D01*
X122977482Y-129670518D01*
X122852041Y-129574264D01*
X122820108Y-129561037D01*
X122705962Y-129513756D01*
X122705960Y-129513755D01*
X122549201Y-129493118D01*
X122549199Y-129493118D01*
X122392439Y-129513755D01*
X122392437Y-129513756D01*
X122246360Y-129574263D01*
X122120918Y-129670518D01*
X122024663Y-129795960D01*
X121964156Y-129942037D01*
X121964155Y-129942039D01*
X121943518Y-130098798D01*
X116095900Y-130098798D01*
X116095900Y-128625598D01*
X149896418Y-128625598D01*
X149896418Y-128625601D01*
X149917055Y-128782360D01*
X149917056Y-128782362D01*
X149977564Y-128928441D01*
X150073818Y-129053882D01*
X150199259Y-129150136D01*
X150345338Y-129210644D01*
X150423719Y-129220963D01*
X150502099Y-129231282D01*
X150502100Y-129231282D01*
X150502101Y-129231282D01*
X150554354Y-129224402D01*
X150658862Y-129210644D01*
X150804941Y-129150136D01*
X150930382Y-129053882D01*
X151026636Y-128928441D01*
X151087144Y-128782362D01*
X151106911Y-128632216D01*
X151135177Y-128568319D01*
X151193502Y-128529848D01*
X151213665Y-128525462D01*
X151224536Y-128524030D01*
X151367624Y-128505193D01*
X151513703Y-128444685D01*
X151542748Y-128422398D01*
X151972118Y-128422398D01*
X151972118Y-128422401D01*
X151992755Y-128579160D01*
X151992756Y-128579162D01*
X152053264Y-128725241D01*
X152149518Y-128850682D01*
X152274959Y-128946936D01*
X152421038Y-129007444D01*
X152499419Y-129017763D01*
X152577799Y-129028082D01*
X152577800Y-129028082D01*
X152577801Y-129028082D01*
X152630054Y-129021202D01*
X152734562Y-129007444D01*
X152880641Y-128946936D01*
X153006082Y-128850682D01*
X153102336Y-128725241D01*
X153162844Y-128579162D01*
X153183482Y-128422400D01*
X153162844Y-128265638D01*
X153102336Y-128119559D01*
X153006082Y-127994118D01*
X152880641Y-127897864D01*
X152880639Y-127897863D01*
X152874192Y-127892916D01*
X152875197Y-127891605D01*
X152833590Y-127847965D01*
X152820370Y-127779357D01*
X152846341Y-127714494D01*
X152896353Y-127676590D01*
X152956841Y-127651536D01*
X153082282Y-127555282D01*
X153178536Y-127429841D01*
X153239044Y-127283762D01*
X153259682Y-127127000D01*
X153249067Y-127046374D01*
X153239044Y-126970239D01*
X153239044Y-126970238D01*
X153178536Y-126824159D01*
X153082282Y-126698718D01*
X152956841Y-126602464D01*
X152937935Y-126594633D01*
X152810762Y-126541956D01*
X152810760Y-126541955D01*
X152654001Y-126521318D01*
X152653999Y-126521318D01*
X152497239Y-126541955D01*
X152497237Y-126541956D01*
X152351160Y-126602463D01*
X152225718Y-126698718D01*
X152129463Y-126824160D01*
X152068956Y-126970237D01*
X152068955Y-126970239D01*
X152048318Y-127126998D01*
X152048318Y-127127001D01*
X152068955Y-127283760D01*
X152068956Y-127283762D01*
X152099061Y-127356443D01*
X152129464Y-127429841D01*
X152225718Y-127555282D01*
X152351159Y-127651536D01*
X152351160Y-127651536D01*
X152357608Y-127656484D01*
X152356601Y-127657795D01*
X152398206Y-127701428D01*
X152411430Y-127770035D01*
X152385462Y-127834900D01*
X152335444Y-127872810D01*
X152274960Y-127897863D01*
X152149518Y-127994118D01*
X152053263Y-128119560D01*
X151992756Y-128265637D01*
X151992755Y-128265639D01*
X151972118Y-128422398D01*
X151542748Y-128422398D01*
X151639144Y-128348431D01*
X151735398Y-128222990D01*
X151795906Y-128076911D01*
X151816544Y-127920149D01*
X151813017Y-127893362D01*
X151795906Y-127763388D01*
X151795906Y-127763387D01*
X151735398Y-127617308D01*
X151639144Y-127491867D01*
X151513703Y-127395613D01*
X151367624Y-127335105D01*
X151338890Y-127331322D01*
X151208922Y-127314211D01*
X151145026Y-127285944D01*
X151106555Y-127227620D01*
X151105422Y-127164126D01*
X151105117Y-127164086D01*
X151105385Y-127162048D01*
X151105334Y-127159175D01*
X151106174Y-127156035D01*
X151106178Y-127156028D01*
X151126816Y-126999266D01*
X151122994Y-126970238D01*
X151106178Y-126842505D01*
X151106178Y-126842504D01*
X151070613Y-126756644D01*
X151063145Y-126687178D01*
X151094420Y-126624699D01*
X151154508Y-126589046D01*
X151224334Y-126591539D01*
X151232627Y-126594633D01*
X151248260Y-126601108D01*
X151264604Y-126607878D01*
X151334189Y-126617039D01*
X151421365Y-126628516D01*
X151421366Y-126628516D01*
X151421367Y-126628516D01*
X151473620Y-126621636D01*
X151578128Y-126607878D01*
X151724207Y-126547370D01*
X151849648Y-126451116D01*
X151945902Y-126325675D01*
X151950656Y-126314198D01*
X153496118Y-126314198D01*
X153496118Y-126314201D01*
X153516755Y-126470960D01*
X153516756Y-126470962D01*
X153576268Y-126614638D01*
X153577264Y-126617041D01*
X153673518Y-126742482D01*
X153798959Y-126838736D01*
X153945038Y-126899244D01*
X154023419Y-126909563D01*
X154101799Y-126919882D01*
X154101800Y-126919882D01*
X154101801Y-126919882D01*
X154154054Y-126913002D01*
X154258562Y-126899244D01*
X154404641Y-126838736D01*
X154492398Y-126771398D01*
X159274918Y-126771398D01*
X159274918Y-126771401D01*
X159295555Y-126928160D01*
X159295556Y-126928162D01*
X159356064Y-127074241D01*
X159452318Y-127199682D01*
X159577759Y-127295936D01*
X159723838Y-127356444D01*
X159802219Y-127366763D01*
X159880599Y-127377082D01*
X159880600Y-127377082D01*
X159880601Y-127377082D01*
X159932854Y-127370202D01*
X160037362Y-127356444D01*
X160183441Y-127295936D01*
X160308882Y-127199682D01*
X160405136Y-127074241D01*
X160465644Y-126928162D01*
X160486282Y-126771400D01*
X160465644Y-126614638D01*
X160405136Y-126468559D01*
X160308882Y-126343118D01*
X160183441Y-126246864D01*
X160037362Y-126186356D01*
X160037360Y-126186355D01*
X159880601Y-126165718D01*
X159880599Y-126165718D01*
X159723839Y-126186355D01*
X159723837Y-126186356D01*
X159577760Y-126246863D01*
X159452318Y-126343118D01*
X159356063Y-126468560D01*
X159295556Y-126614637D01*
X159295555Y-126614639D01*
X159274918Y-126771398D01*
X154492398Y-126771398D01*
X154530082Y-126742482D01*
X154626336Y-126617041D01*
X154686844Y-126470962D01*
X154707482Y-126314200D01*
X154686844Y-126157438D01*
X154626336Y-126011359D01*
X154530082Y-125885918D01*
X154404641Y-125789664D01*
X154381201Y-125779955D01*
X154258562Y-125729156D01*
X154258560Y-125729155D01*
X154101801Y-125708518D01*
X154101799Y-125708518D01*
X153945039Y-125729155D01*
X153945037Y-125729156D01*
X153798960Y-125789663D01*
X153673518Y-125885918D01*
X153577263Y-126011360D01*
X153516756Y-126157437D01*
X153516755Y-126157439D01*
X153496118Y-126314198D01*
X151950656Y-126314198D01*
X152006410Y-126179596D01*
X152027048Y-126022834D01*
X152025537Y-126011360D01*
X152006410Y-125866073D01*
X152006410Y-125866072D01*
X151945902Y-125719993D01*
X151939105Y-125711135D01*
X151913912Y-125645968D01*
X151927950Y-125577523D01*
X151976764Y-125527533D01*
X152044855Y-125511869D01*
X152110606Y-125535505D01*
X152112938Y-125537251D01*
X152121825Y-125544070D01*
X152267904Y-125604578D01*
X152346285Y-125614897D01*
X152424665Y-125625216D01*
X152424666Y-125625216D01*
X152424667Y-125625216D01*
X152476920Y-125618336D01*
X152581428Y-125604578D01*
X152727507Y-125544070D01*
X152852948Y-125447816D01*
X152948264Y-125323598D01*
X157458518Y-125323598D01*
X157458518Y-125323601D01*
X157479155Y-125480360D01*
X157479156Y-125480362D01*
X157539156Y-125625216D01*
X157539664Y-125626441D01*
X157635918Y-125751882D01*
X157761359Y-125848136D01*
X157907438Y-125908644D01*
X157985819Y-125918963D01*
X158064199Y-125929282D01*
X158064200Y-125929282D01*
X158064201Y-125929282D01*
X158116454Y-125922402D01*
X158220962Y-125908644D01*
X158367041Y-125848136D01*
X158492482Y-125751882D01*
X158588736Y-125626441D01*
X158649244Y-125480362D01*
X158669882Y-125323600D01*
X158669720Y-125322373D01*
X158649244Y-125166839D01*
X158649244Y-125166838D01*
X158588736Y-125020759D01*
X158514029Y-124923399D01*
X161493364Y-124923399D01*
X161493364Y-124923402D01*
X161514001Y-125080161D01*
X161514002Y-125080163D01*
X161555123Y-125179439D01*
X161574510Y-125226242D01*
X161670764Y-125351683D01*
X161796205Y-125447937D01*
X161942284Y-125508445D01*
X162020665Y-125518764D01*
X162099045Y-125529083D01*
X162099046Y-125529083D01*
X162099047Y-125529083D01*
X162151300Y-125522203D01*
X162255808Y-125508445D01*
X162401887Y-125447937D01*
X162527328Y-125351683D01*
X162623582Y-125226242D01*
X162684090Y-125080163D01*
X162704728Y-124923401D01*
X162703448Y-124913682D01*
X162684090Y-124766640D01*
X162684090Y-124766639D01*
X162623582Y-124620560D01*
X162527328Y-124495119D01*
X162401887Y-124398865D01*
X162255808Y-124338357D01*
X162255806Y-124338356D01*
X162099047Y-124317719D01*
X162099045Y-124317719D01*
X161942285Y-124338356D01*
X161942283Y-124338357D01*
X161796206Y-124398864D01*
X161670764Y-124495119D01*
X161574509Y-124620561D01*
X161514002Y-124766638D01*
X161514001Y-124766640D01*
X161493364Y-124923399D01*
X158514029Y-124923399D01*
X158492482Y-124895318D01*
X158367041Y-124799064D01*
X158340907Y-124788239D01*
X158220962Y-124738556D01*
X158220960Y-124738555D01*
X158064201Y-124717918D01*
X158064199Y-124717918D01*
X157907439Y-124738555D01*
X157907437Y-124738556D01*
X157761360Y-124799063D01*
X157635918Y-124895318D01*
X157539663Y-125020760D01*
X157479156Y-125166837D01*
X157479155Y-125166839D01*
X157458518Y-125323598D01*
X152948264Y-125323598D01*
X152949202Y-125322375D01*
X153009710Y-125176296D01*
X153030348Y-125019534D01*
X153029954Y-125016544D01*
X153009710Y-124862773D01*
X153009710Y-124862772D01*
X152949202Y-124716693D01*
X152852948Y-124591252D01*
X152727507Y-124494998D01*
X152704335Y-124485400D01*
X152581428Y-124434490D01*
X152581426Y-124434489D01*
X152424667Y-124413852D01*
X152424665Y-124413852D01*
X152267905Y-124434489D01*
X152267903Y-124434490D01*
X152121826Y-124494997D01*
X151996384Y-124591252D01*
X151900129Y-124716694D01*
X151839622Y-124862771D01*
X151839621Y-124862773D01*
X151818984Y-125019532D01*
X151818984Y-125019535D01*
X151839621Y-125176294D01*
X151839622Y-125176296D01*
X151900130Y-125322376D01*
X151906925Y-125331231D01*
X151932119Y-125396401D01*
X151918080Y-125464845D01*
X151869266Y-125514835D01*
X151801174Y-125530498D01*
X151735424Y-125506861D01*
X151733063Y-125505093D01*
X151724208Y-125498298D01*
X151578128Y-125437790D01*
X151578126Y-125437789D01*
X151421367Y-125417152D01*
X151421365Y-125417152D01*
X151264605Y-125437789D01*
X151264603Y-125437790D01*
X151118526Y-125498297D01*
X150993084Y-125594552D01*
X150896829Y-125719994D01*
X150836322Y-125866071D01*
X150836321Y-125866073D01*
X150815684Y-126022832D01*
X150815684Y-126022835D01*
X150836321Y-126179594D01*
X150836322Y-126179596D01*
X150864185Y-126246864D01*
X150871885Y-126265452D01*
X150879354Y-126334922D01*
X150848079Y-126397401D01*
X150787990Y-126433053D01*
X150718165Y-126430559D01*
X150709873Y-126427467D01*
X150677896Y-126414222D01*
X150677894Y-126414221D01*
X150521135Y-126393584D01*
X150521133Y-126393584D01*
X150364373Y-126414221D01*
X150364371Y-126414222D01*
X150218294Y-126474729D01*
X150092852Y-126570984D01*
X149996597Y-126696426D01*
X149936090Y-126842503D01*
X149936089Y-126842505D01*
X149915452Y-126999264D01*
X149915452Y-126999267D01*
X149936089Y-127156026D01*
X149936090Y-127156028D01*
X149996598Y-127302107D01*
X150092852Y-127427548D01*
X150218293Y-127523802D01*
X150364372Y-127584310D01*
X150521134Y-127604948D01*
X150521134Y-127604947D01*
X150523072Y-127605203D01*
X150586969Y-127633469D01*
X150625440Y-127691794D01*
X150626575Y-127755290D01*
X150626879Y-127755330D01*
X150626612Y-127757353D01*
X150626664Y-127760226D01*
X150625819Y-127763380D01*
X150606050Y-127913533D01*
X150577783Y-127977430D01*
X150519458Y-128015900D01*
X150499297Y-128020286D01*
X150362938Y-128038238D01*
X150345338Y-128040556D01*
X150345337Y-128040556D01*
X150199260Y-128101063D01*
X150073818Y-128197318D01*
X149977563Y-128322760D01*
X149917056Y-128468837D01*
X149917055Y-128468839D01*
X149896418Y-128625598D01*
X116095900Y-128625598D01*
X116095900Y-126364998D01*
X133038918Y-126364998D01*
X133038918Y-126365001D01*
X133059555Y-126521760D01*
X133059556Y-126521762D01*
X133098026Y-126614638D01*
X133120064Y-126667841D01*
X133216318Y-126793282D01*
X133341759Y-126889536D01*
X133487838Y-126950044D01*
X133566219Y-126960363D01*
X133644599Y-126970682D01*
X133644600Y-126970682D01*
X133644601Y-126970682D01*
X133696854Y-126963802D01*
X133801362Y-126950044D01*
X133947441Y-126889536D01*
X134072882Y-126793282D01*
X134169136Y-126667841D01*
X134229644Y-126521762D01*
X134250282Y-126365000D01*
X134250282Y-126364998D01*
X147958918Y-126364998D01*
X147958918Y-126365001D01*
X147979555Y-126521760D01*
X147979556Y-126521762D01*
X148018026Y-126614638D01*
X148040064Y-126667841D01*
X148136318Y-126793282D01*
X148261759Y-126889536D01*
X148374510Y-126936239D01*
X148428913Y-126980080D01*
X148450978Y-127046374D01*
X148433699Y-127114074D01*
X148382561Y-127161684D01*
X148374510Y-127165361D01*
X148261760Y-127212063D01*
X148136318Y-127308318D01*
X148040063Y-127433760D01*
X147979556Y-127579837D01*
X147979555Y-127579839D01*
X147958918Y-127736598D01*
X147958918Y-127736601D01*
X147979555Y-127893360D01*
X147979556Y-127893362D01*
X148021290Y-127994118D01*
X148040064Y-128039441D01*
X148136318Y-128164882D01*
X148261759Y-128261136D01*
X148407838Y-128321644D01*
X148486219Y-128331963D01*
X148564599Y-128342282D01*
X148564600Y-128342282D01*
X148564601Y-128342282D01*
X148616854Y-128335402D01*
X148721362Y-128321644D01*
X148867441Y-128261136D01*
X148992882Y-128164882D01*
X149089136Y-128039441D01*
X149149644Y-127893362D01*
X149166755Y-127763388D01*
X149170282Y-127736601D01*
X149170282Y-127736598D01*
X149150233Y-127584310D01*
X149149644Y-127579838D01*
X149089136Y-127433759D01*
X148992882Y-127308318D01*
X148867441Y-127212064D01*
X148867440Y-127212063D01*
X148867438Y-127212062D01*
X148754690Y-127165361D01*
X148700286Y-127121520D01*
X148678221Y-127055226D01*
X148695500Y-126987527D01*
X148746637Y-126939916D01*
X148754690Y-126936239D01*
X148867441Y-126889536D01*
X148992882Y-126793282D01*
X149089136Y-126667841D01*
X149149644Y-126521762D01*
X149170282Y-126365000D01*
X149149644Y-126208238D01*
X149089136Y-126062159D01*
X148992882Y-125936718D01*
X148867441Y-125840464D01*
X148721362Y-125779956D01*
X148721360Y-125779955D01*
X148564601Y-125759318D01*
X148564599Y-125759318D01*
X148407839Y-125779955D01*
X148407837Y-125779956D01*
X148261760Y-125840463D01*
X148136318Y-125936718D01*
X148040063Y-126062160D01*
X147979556Y-126208237D01*
X147979555Y-126208239D01*
X147958918Y-126364998D01*
X134250282Y-126364998D01*
X134229644Y-126208238D01*
X134169136Y-126062159D01*
X134072882Y-125936718D01*
X133947441Y-125840464D01*
X133801362Y-125779956D01*
X133801360Y-125779955D01*
X133644601Y-125759318D01*
X133644599Y-125759318D01*
X133487839Y-125779955D01*
X133487837Y-125779956D01*
X133341760Y-125840463D01*
X133216318Y-125936718D01*
X133120063Y-126062160D01*
X133059556Y-126208237D01*
X133059555Y-126208239D01*
X133038918Y-126364998D01*
X116095900Y-126364998D01*
X116095900Y-118364000D01*
X120929400Y-118364000D01*
X121361200Y-121310400D01*
X121869200Y-124307600D01*
X125450600Y-124307600D01*
X125476000Y-124307600D01*
X127762000Y-124307600D01*
X128663422Y-123327993D01*
X134025313Y-123327993D01*
X134025313Y-123327996D01*
X134045950Y-123484755D01*
X134045951Y-123484757D01*
X134101432Y-123618701D01*
X134106459Y-123630836D01*
X134202713Y-123756277D01*
X134328154Y-123852531D01*
X134474233Y-123913039D01*
X134552614Y-123923358D01*
X134630994Y-123933677D01*
X134630995Y-123933677D01*
X134630996Y-123933677D01*
X134683249Y-123926797D01*
X134787757Y-123913039D01*
X134933836Y-123852531D01*
X135059277Y-123756277D01*
X135155531Y-123630836D01*
X135160559Y-123618698D01*
X135785218Y-123618698D01*
X135785218Y-123618701D01*
X135805855Y-123775460D01*
X135805856Y-123775462D01*
X135860325Y-123906963D01*
X135866364Y-123921541D01*
X135962618Y-124046982D01*
X136088059Y-124143236D01*
X136234138Y-124203744D01*
X136312519Y-124214063D01*
X136390899Y-124224382D01*
X136390900Y-124224382D01*
X136390901Y-124224382D01*
X136443154Y-124217502D01*
X136547662Y-124203744D01*
X136693741Y-124143236D01*
X136819182Y-124046982D01*
X136915436Y-123921541D01*
X136975944Y-123775462D01*
X136996582Y-123618700D01*
X136975944Y-123461938D01*
X136915436Y-123315859D01*
X136819182Y-123190418D01*
X136693741Y-123094164D01*
X136690356Y-123092762D01*
X136547662Y-123033656D01*
X136547660Y-123033655D01*
X136390901Y-123013018D01*
X136390899Y-123013018D01*
X136234139Y-123033655D01*
X136234137Y-123033656D01*
X136088060Y-123094163D01*
X135962618Y-123190418D01*
X135866363Y-123315860D01*
X135805856Y-123461937D01*
X135805855Y-123461939D01*
X135785218Y-123618698D01*
X135160559Y-123618698D01*
X135216039Y-123484757D01*
X135236677Y-123327995D01*
X135235968Y-123322612D01*
X135216039Y-123171234D01*
X135216039Y-123171233D01*
X135155531Y-123025154D01*
X135059277Y-122899713D01*
X134933836Y-122803459D01*
X134875361Y-122779238D01*
X134787757Y-122742951D01*
X134787755Y-122742950D01*
X134630996Y-122722313D01*
X134630994Y-122722313D01*
X134474234Y-122742950D01*
X134474232Y-122742951D01*
X134328155Y-122803458D01*
X134202713Y-122899713D01*
X134106458Y-123025155D01*
X134045951Y-123171232D01*
X134045950Y-123171234D01*
X134025313Y-123327993D01*
X128663422Y-123327993D01*
X132740400Y-118897400D01*
X132725786Y-118541800D01*
X137007600Y-118541800D01*
X137439400Y-121488200D01*
X137947400Y-124485400D01*
X138264094Y-124492090D01*
X138276755Y-124588260D01*
X138276756Y-124588262D01*
X138331256Y-124719838D01*
X138337264Y-124734341D01*
X138433518Y-124859782D01*
X138558959Y-124956036D01*
X138705038Y-125016544D01*
X138737062Y-125020760D01*
X138861799Y-125037182D01*
X138861800Y-125037182D01*
X138861801Y-125037182D01*
X138914054Y-125030302D01*
X139018562Y-125016544D01*
X139164641Y-124956036D01*
X139290082Y-124859782D01*
X139386336Y-124734341D01*
X139446844Y-124588262D01*
X139456189Y-124517275D01*
X141554200Y-124561600D01*
X143103600Y-124510800D01*
X143210425Y-124409198D01*
X148289118Y-124409198D01*
X148289118Y-124409201D01*
X148309755Y-124565960D01*
X148309756Y-124565962D01*
X148370264Y-124712041D01*
X148466518Y-124837482D01*
X148591959Y-124933736D01*
X148738038Y-124994244D01*
X148816419Y-125004563D01*
X148894799Y-125014882D01*
X148894800Y-125014882D01*
X148894801Y-125014882D01*
X148947054Y-125008002D01*
X149051562Y-124994244D01*
X149197641Y-124933736D01*
X149323082Y-124837482D01*
X149419336Y-124712041D01*
X149479844Y-124565962D01*
X149495332Y-124448318D01*
X149500482Y-124409201D01*
X149500482Y-124409198D01*
X149479844Y-124252439D01*
X149479844Y-124252438D01*
X149419336Y-124106359D01*
X149323082Y-123980918D01*
X149197641Y-123884664D01*
X149178006Y-123876531D01*
X149051562Y-123824156D01*
X149051560Y-123824155D01*
X148894801Y-123803518D01*
X148894799Y-123803518D01*
X148738039Y-123824155D01*
X148738037Y-123824156D01*
X148591960Y-123884663D01*
X148466518Y-123980918D01*
X148370263Y-124106360D01*
X148309756Y-124252437D01*
X148309755Y-124252439D01*
X148289118Y-124409198D01*
X143210425Y-124409198D01*
X148818600Y-119075200D01*
X148794592Y-118491000D01*
X153162000Y-118491000D01*
X153593800Y-121437400D01*
X154101800Y-124434600D01*
X157632400Y-124434600D01*
X159639000Y-124434600D01*
X160221504Y-122929797D01*
X161493364Y-122929797D01*
X161493364Y-122929800D01*
X161514001Y-123086559D01*
X161514002Y-123086561D01*
X161554295Y-123183838D01*
X161574510Y-123232640D01*
X161670764Y-123358081D01*
X161796205Y-123454335D01*
X161942284Y-123514843D01*
X162020665Y-123525162D01*
X162099045Y-123535481D01*
X162099046Y-123535481D01*
X162099047Y-123535481D01*
X162151300Y-123528601D01*
X162255808Y-123514843D01*
X162401887Y-123454335D01*
X162527328Y-123358081D01*
X162623582Y-123232640D01*
X162684090Y-123086561D01*
X162700721Y-122960239D01*
X162703912Y-122935998D01*
X163706918Y-122935998D01*
X163706918Y-122936001D01*
X163727555Y-123092760D01*
X163727556Y-123092762D01*
X163785494Y-123232638D01*
X163788064Y-123238841D01*
X163884318Y-123364282D01*
X164009759Y-123460536D01*
X164034406Y-123470745D01*
X164088809Y-123514586D01*
X164110874Y-123580880D01*
X164101514Y-123632758D01*
X164055257Y-123744434D01*
X164055255Y-123744439D01*
X164034618Y-123901198D01*
X164034618Y-123901201D01*
X164055255Y-124057960D01*
X164055256Y-124057962D01*
X164116036Y-124204698D01*
X164123505Y-124274168D01*
X164092230Y-124336647D01*
X164076962Y-124350527D01*
X163949518Y-124448318D01*
X163853263Y-124573760D01*
X163792756Y-124719837D01*
X163792755Y-124719839D01*
X163772118Y-124876598D01*
X163772118Y-124876601D01*
X163792755Y-125033360D01*
X163792756Y-125033362D01*
X163853264Y-125179441D01*
X163949518Y-125304882D01*
X164074959Y-125401136D01*
X164221038Y-125461644D01*
X164299419Y-125471963D01*
X164377799Y-125482282D01*
X164377800Y-125482282D01*
X164377801Y-125482282D01*
X164430054Y-125475402D01*
X164534562Y-125461644D01*
X164680641Y-125401136D01*
X164806082Y-125304882D01*
X164902336Y-125179441D01*
X164962844Y-125033362D01*
X164983482Y-124876600D01*
X164981661Y-124862771D01*
X164962844Y-124719839D01*
X164962844Y-124719838D01*
X164902336Y-124573759D01*
X164902335Y-124573757D01*
X164902063Y-124573101D01*
X164894594Y-124503632D01*
X164925869Y-124441152D01*
X164941138Y-124427272D01*
X164943138Y-124425737D01*
X164943141Y-124425736D01*
X165068582Y-124329482D01*
X165164836Y-124204041D01*
X165225344Y-124057962D01*
X165245982Y-123901200D01*
X165243154Y-123879722D01*
X165225344Y-123744439D01*
X165225344Y-123744438D01*
X165164836Y-123598359D01*
X165068582Y-123472918D01*
X164943141Y-123376664D01*
X164943137Y-123376662D01*
X164918492Y-123366453D01*
X164864089Y-123322612D01*
X164842025Y-123256317D01*
X164851385Y-123204440D01*
X164857193Y-123190418D01*
X164897644Y-123092762D01*
X164918282Y-122936000D01*
X164917465Y-122929797D01*
X164900833Y-122803458D01*
X164897644Y-122779238D01*
X164837136Y-122633159D01*
X164740882Y-122507718D01*
X164615441Y-122411464D01*
X164600470Y-122405263D01*
X164469362Y-122350956D01*
X164469360Y-122350955D01*
X164312601Y-122330318D01*
X164312599Y-122330318D01*
X164155839Y-122350955D01*
X164155837Y-122350956D01*
X164009760Y-122411463D01*
X163884318Y-122507718D01*
X163788063Y-122633160D01*
X163727556Y-122779237D01*
X163727555Y-122779239D01*
X163706918Y-122935998D01*
X162703912Y-122935998D01*
X162704728Y-122929800D01*
X162704728Y-122929797D01*
X162686058Y-122787984D01*
X162684090Y-122773037D01*
X162623582Y-122626958D01*
X162527328Y-122501517D01*
X162401887Y-122405263D01*
X162255808Y-122344755D01*
X162255806Y-122344754D01*
X162099047Y-122324117D01*
X162099045Y-122324117D01*
X161942285Y-122344754D01*
X161942283Y-122344755D01*
X161796206Y-122405262D01*
X161670764Y-122501517D01*
X161574509Y-122626959D01*
X161514002Y-122773036D01*
X161514001Y-122773038D01*
X161493364Y-122929797D01*
X160221504Y-122929797D01*
X160553400Y-122072400D01*
X162310937Y-119532398D01*
X169574318Y-119532398D01*
X169574318Y-119532401D01*
X169594955Y-119689160D01*
X169594956Y-119689162D01*
X169655464Y-119835241D01*
X169751718Y-119960682D01*
X169876362Y-120056325D01*
X169917564Y-120112752D01*
X169921719Y-120182498D01*
X169887507Y-120243419D01*
X169876366Y-120253072D01*
X169751721Y-120348716D01*
X169751718Y-120348718D01*
X169655463Y-120474160D01*
X169594956Y-120620237D01*
X169594955Y-120620239D01*
X169574318Y-120776998D01*
X169574318Y-120777001D01*
X169594955Y-120933760D01*
X169594956Y-120933762D01*
X169655464Y-121079841D01*
X169751718Y-121205282D01*
X169877159Y-121301536D01*
X169877160Y-121301536D01*
X169883608Y-121306484D01*
X169881799Y-121308841D01*
X169920201Y-121349104D01*
X169933434Y-121417709D01*
X169907476Y-121482578D01*
X169885481Y-121504317D01*
X169779918Y-121585318D01*
X169683663Y-121710760D01*
X169623156Y-121856837D01*
X169623155Y-121856839D01*
X169602518Y-122013598D01*
X169602518Y-122013601D01*
X169623155Y-122170360D01*
X169623156Y-122170362D01*
X169683364Y-122315718D01*
X169683664Y-122316441D01*
X169779918Y-122441882D01*
X169905359Y-122538136D01*
X169964273Y-122562539D01*
X170018676Y-122606380D01*
X170040741Y-122672674D01*
X170023462Y-122740374D01*
X169972324Y-122787984D01*
X169964273Y-122791661D01*
X169905360Y-122816063D01*
X169779918Y-122912318D01*
X169683663Y-123037760D01*
X169623156Y-123183837D01*
X169623155Y-123183839D01*
X169602518Y-123340598D01*
X169602518Y-123340601D01*
X169623155Y-123497360D01*
X169623156Y-123497362D01*
X169633918Y-123523345D01*
X169683664Y-123643441D01*
X169770245Y-123756276D01*
X169779919Y-123768883D01*
X169788493Y-123775462D01*
X169850830Y-123823295D01*
X169892033Y-123879722D01*
X169896188Y-123949468D01*
X169861976Y-124010388D01*
X169850832Y-124020045D01*
X169802519Y-124057117D01*
X169802518Y-124057118D01*
X169764734Y-124106359D01*
X169706263Y-124182560D01*
X169645756Y-124328637D01*
X169645755Y-124328639D01*
X169625118Y-124485398D01*
X169625118Y-124485401D01*
X169645755Y-124642160D01*
X169645756Y-124642162D01*
X169697316Y-124766640D01*
X169706264Y-124788241D01*
X169802518Y-124913682D01*
X169927959Y-125009936D01*
X170074038Y-125070444D01*
X170147846Y-125080161D01*
X170230799Y-125091082D01*
X170230800Y-125091082D01*
X170230801Y-125091082D01*
X170313738Y-125080163D01*
X170387562Y-125070444D01*
X170533641Y-125009936D01*
X170659082Y-124913682D01*
X170755336Y-124788241D01*
X170815844Y-124642162D01*
X170834082Y-124503632D01*
X170836482Y-124485401D01*
X170836482Y-124485398D01*
X170818726Y-124350527D01*
X170815844Y-124328638D01*
X170755336Y-124182559D01*
X170659082Y-124057118D01*
X170659080Y-124057117D01*
X170659080Y-124057116D01*
X170588169Y-124002705D01*
X170546966Y-123946277D01*
X170542811Y-123876531D01*
X170577023Y-123815611D01*
X170588161Y-123805959D01*
X170636482Y-123768882D01*
X170732736Y-123643441D01*
X170793244Y-123497362D01*
X170813882Y-123340600D01*
X170793244Y-123183838D01*
X170732736Y-123037759D01*
X170636482Y-122912318D01*
X170511041Y-122816064D01*
X170511040Y-122816063D01*
X170511038Y-122816062D01*
X170452127Y-122791661D01*
X170397723Y-122747820D01*
X170375658Y-122681526D01*
X170392937Y-122613827D01*
X170444074Y-122566216D01*
X170452127Y-122562539D01*
X170511041Y-122538136D01*
X170636482Y-122441882D01*
X170732736Y-122316441D01*
X170793244Y-122170362D01*
X170813882Y-122013600D01*
X170793244Y-121856838D01*
X170732736Y-121710759D01*
X170636482Y-121585318D01*
X170511041Y-121489064D01*
X170511039Y-121489063D01*
X170504592Y-121484116D01*
X170506398Y-121481761D01*
X170467988Y-121441476D01*
X170454767Y-121372869D01*
X170480736Y-121308005D01*
X170502713Y-121286286D01*
X170608282Y-121205282D01*
X170704536Y-121079841D01*
X170765044Y-120933762D01*
X170785682Y-120777000D01*
X170765044Y-120620238D01*
X170704536Y-120474159D01*
X170608282Y-120348718D01*
X170608280Y-120348717D01*
X170608280Y-120348716D01*
X170544360Y-120299669D01*
X170483637Y-120253074D01*
X170442435Y-120196648D01*
X170438280Y-120126902D01*
X170472492Y-120065982D01*
X170483633Y-120056327D01*
X170608282Y-119960682D01*
X170704536Y-119835241D01*
X170765044Y-119689162D01*
X170785682Y-119532400D01*
X170765044Y-119375638D01*
X170704536Y-119229559D01*
X170608282Y-119104118D01*
X170482841Y-119007864D01*
X170482839Y-119007863D01*
X170476392Y-119002916D01*
X170477397Y-119001605D01*
X170435790Y-118957965D01*
X170422570Y-118889357D01*
X170448541Y-118824494D01*
X170498553Y-118786590D01*
X170559041Y-118761536D01*
X170684482Y-118665282D01*
X170780736Y-118539841D01*
X170841244Y-118393762D01*
X170861882Y-118237000D01*
X170841244Y-118080238D01*
X170780736Y-117934159D01*
X170684482Y-117808718D01*
X170559041Y-117712464D01*
X170559039Y-117712463D01*
X170552592Y-117707516D01*
X170554405Y-117705152D01*
X170516023Y-117664883D01*
X170502813Y-117596273D01*
X170528793Y-117531413D01*
X170550759Y-117509710D01*
X170633682Y-117446082D01*
X170729936Y-117320641D01*
X170790444Y-117174562D01*
X170811082Y-117017800D01*
X170790444Y-116861038D01*
X170729936Y-116714959D01*
X170633682Y-116589518D01*
X170508241Y-116493264D01*
X170362162Y-116432756D01*
X170362160Y-116432755D01*
X170205401Y-116412118D01*
X170205399Y-116412118D01*
X170048639Y-116432755D01*
X170048637Y-116432756D01*
X169902560Y-116493263D01*
X169777118Y-116589518D01*
X169680863Y-116714960D01*
X169620356Y-116861037D01*
X169620355Y-116861039D01*
X169599718Y-117017798D01*
X169599718Y-117017801D01*
X169620355Y-117174560D01*
X169620356Y-117174562D01*
X169674825Y-117306063D01*
X169680864Y-117320641D01*
X169777118Y-117446082D01*
X169902559Y-117542336D01*
X169902560Y-117542336D01*
X169909008Y-117547284D01*
X169907191Y-117549650D01*
X169945566Y-117589897D01*
X169958788Y-117658504D01*
X169932820Y-117723369D01*
X169910837Y-117745091D01*
X169827920Y-117808715D01*
X169731663Y-117934160D01*
X169671156Y-118080237D01*
X169671155Y-118080239D01*
X169650518Y-118236998D01*
X169650518Y-118237001D01*
X169671155Y-118393760D01*
X169671156Y-118393762D01*
X169731664Y-118539841D01*
X169827918Y-118665282D01*
X169953359Y-118761536D01*
X169953360Y-118761536D01*
X169959808Y-118766484D01*
X169958801Y-118767795D01*
X170000406Y-118811428D01*
X170013630Y-118880035D01*
X169987662Y-118944900D01*
X169937644Y-118982810D01*
X169877160Y-119007863D01*
X169751718Y-119104118D01*
X169655463Y-119229560D01*
X169594956Y-119375637D01*
X169594955Y-119375639D01*
X169574318Y-119532398D01*
X162310937Y-119532398D01*
X164261800Y-116713000D01*
X164744400Y-113461800D01*
X159461200Y-112877600D01*
X156057600Y-112953800D01*
X153949400Y-114325400D01*
X153162000Y-118491000D01*
X148794592Y-118491000D01*
X148590000Y-113512600D01*
X143611600Y-113055400D01*
X139903200Y-113030000D01*
X137795000Y-114376200D01*
X137007600Y-118541800D01*
X132725786Y-118541800D01*
X132511800Y-113334800D01*
X129325242Y-112826798D01*
X167745518Y-112826798D01*
X167745518Y-112826801D01*
X167766155Y-112983560D01*
X167766156Y-112983562D01*
X167826664Y-113129641D01*
X167922918Y-113255082D01*
X168048359Y-113351336D01*
X168194438Y-113411844D01*
X168272819Y-113422163D01*
X168351199Y-113432482D01*
X168351200Y-113432482D01*
X168351201Y-113432482D01*
X168403454Y-113425602D01*
X168507962Y-113411844D01*
X168654041Y-113351336D01*
X168779482Y-113255082D01*
X168875736Y-113129641D01*
X168936244Y-112983562D01*
X168956882Y-112826800D01*
X168936244Y-112670038D01*
X168875736Y-112523959D01*
X168779482Y-112398518D01*
X168654041Y-112302264D01*
X168507962Y-112241756D01*
X168507960Y-112241755D01*
X168351201Y-112221118D01*
X168351199Y-112221118D01*
X168194439Y-112241755D01*
X168194437Y-112241756D01*
X168048360Y-112302263D01*
X167922918Y-112398518D01*
X167826663Y-112523960D01*
X167766156Y-112670037D01*
X167766155Y-112670039D01*
X167745518Y-112826798D01*
X129325242Y-112826798D01*
X127254000Y-112496600D01*
X124180600Y-112242600D01*
X121716800Y-114198400D01*
X120929400Y-118364000D01*
X116095900Y-118364000D01*
X116095900Y-107047998D01*
X135180118Y-107047998D01*
X135180118Y-107048001D01*
X135200755Y-107204760D01*
X135200756Y-107204762D01*
X135261264Y-107350841D01*
X135357518Y-107476282D01*
X135482959Y-107572536D01*
X135629038Y-107633044D01*
X135696648Y-107641945D01*
X135785799Y-107653682D01*
X135785800Y-107653682D01*
X135785801Y-107653682D01*
X135838054Y-107646802D01*
X135942562Y-107633044D01*
X136088641Y-107572536D01*
X136214082Y-107476282D01*
X136310336Y-107350841D01*
X136370844Y-107204762D01*
X136391482Y-107048000D01*
X136382903Y-106982839D01*
X136370844Y-106891239D01*
X136370844Y-106891238D01*
X136310336Y-106745159D01*
X136214082Y-106619718D01*
X136088641Y-106523464D01*
X136088095Y-106523238D01*
X135942562Y-106462956D01*
X135942560Y-106462955D01*
X135785801Y-106442318D01*
X135785799Y-106442318D01*
X135629039Y-106462955D01*
X135629037Y-106462956D01*
X135482960Y-106523463D01*
X135357518Y-106619718D01*
X135261263Y-106745160D01*
X135200756Y-106891237D01*
X135200755Y-106891239D01*
X135180118Y-107047998D01*
X116095900Y-107047998D01*
X116095900Y-105435398D01*
X147498718Y-105435398D01*
X147498718Y-105435401D01*
X147519355Y-105592160D01*
X147519356Y-105592162D01*
X147579864Y-105738241D01*
X147676118Y-105863682D01*
X147801559Y-105959936D01*
X147947638Y-106020444D01*
X148026019Y-106030763D01*
X148104399Y-106041082D01*
X148104400Y-106041082D01*
X148104401Y-106041082D01*
X148156654Y-106034202D01*
X148261162Y-106020444D01*
X148407241Y-105959936D01*
X148532682Y-105863682D01*
X148628936Y-105738241D01*
X148689444Y-105592162D01*
X148710082Y-105435400D01*
X148689444Y-105278638D01*
X148628936Y-105132559D01*
X148532682Y-105007118D01*
X148407241Y-104910864D01*
X148261162Y-104850356D01*
X148261160Y-104850355D01*
X148104401Y-104829718D01*
X148104399Y-104829718D01*
X147947639Y-104850355D01*
X147947637Y-104850356D01*
X147801560Y-104910863D01*
X147676118Y-105007118D01*
X147579863Y-105132560D01*
X147519356Y-105278637D01*
X147519355Y-105278639D01*
X147498718Y-105435398D01*
X116095900Y-105435398D01*
X116095900Y-102861455D01*
X116115428Y-102794949D01*
X116318588Y-102794949D01*
X116338877Y-102826520D01*
X116342839Y-102845270D01*
X116356555Y-102949460D01*
X116356556Y-102949462D01*
X116417064Y-103095541D01*
X116513318Y-103220982D01*
X116638759Y-103317236D01*
X116784838Y-103377744D01*
X116863219Y-103388063D01*
X116941599Y-103398382D01*
X116941600Y-103398382D01*
X116941601Y-103398382D01*
X116993854Y-103391502D01*
X117098362Y-103377744D01*
X117244441Y-103317236D01*
X117369882Y-103220982D01*
X117466136Y-103095541D01*
X117513920Y-102980180D01*
X150310918Y-102980180D01*
X150310918Y-102980183D01*
X150331555Y-103136942D01*
X150331556Y-103136944D01*
X150392064Y-103283023D01*
X150488318Y-103408464D01*
X150613759Y-103504718D01*
X150613760Y-103504718D01*
X150620208Y-103509666D01*
X150619159Y-103511032D01*
X150660596Y-103554483D01*
X150673823Y-103623089D01*
X150647860Y-103687956D01*
X150625871Y-103709686D01*
X150523920Y-103787916D01*
X150427663Y-103913360D01*
X150367156Y-104059437D01*
X150367155Y-104059439D01*
X150346518Y-104216198D01*
X150346518Y-104216201D01*
X150367155Y-104372960D01*
X150367156Y-104372962D01*
X150427664Y-104519041D01*
X150523918Y-104644482D01*
X150649359Y-104740736D01*
X150649360Y-104740736D01*
X150649361Y-104740737D01*
X150649409Y-104740757D01*
X150649445Y-104740786D01*
X150656396Y-104744799D01*
X150655770Y-104745883D01*
X150703813Y-104784598D01*
X150725878Y-104850892D01*
X150708599Y-104918591D01*
X150677444Y-104953694D01*
X150574718Y-105032518D01*
X150478463Y-105157960D01*
X150417956Y-105304037D01*
X150417955Y-105304039D01*
X150397318Y-105460798D01*
X150397318Y-105460801D01*
X150417955Y-105617560D01*
X150417956Y-105617562D01*
X150478464Y-105763641D01*
X150574718Y-105889082D01*
X150700159Y-105985336D01*
X150831412Y-106039702D01*
X150885815Y-106083543D01*
X150907880Y-106149837D01*
X150890601Y-106217536D01*
X150839464Y-106265147D01*
X150828248Y-106269407D01*
X150828347Y-106269646D01*
X150820839Y-106272755D01*
X150820838Y-106272756D01*
X150772508Y-106292774D01*
X150674760Y-106333263D01*
X150549318Y-106429518D01*
X150453063Y-106554960D01*
X150392556Y-106701037D01*
X150392555Y-106701039D01*
X150371918Y-106857798D01*
X150371918Y-106857801D01*
X150392555Y-107014560D01*
X150392556Y-107014562D01*
X150438882Y-107126404D01*
X150453064Y-107160641D01*
X150549318Y-107286082D01*
X150674759Y-107382336D01*
X150820838Y-107442844D01*
X150899219Y-107453163D01*
X150977599Y-107463482D01*
X150977600Y-107463482D01*
X150977601Y-107463482D01*
X151029854Y-107456602D01*
X151134362Y-107442844D01*
X151280441Y-107382336D01*
X151405882Y-107286082D01*
X151502136Y-107160641D01*
X151562644Y-107014562D01*
X151583282Y-106857800D01*
X151580512Y-106836762D01*
X151562644Y-106701039D01*
X151562644Y-106701038D01*
X151553929Y-106679998D01*
X160938318Y-106679998D01*
X160938318Y-106680001D01*
X160958955Y-106836760D01*
X160958956Y-106836762D01*
X161019464Y-106982841D01*
X161115718Y-107108282D01*
X161241159Y-107204536D01*
X161387238Y-107265044D01*
X161465619Y-107275363D01*
X161543999Y-107285682D01*
X161544000Y-107285682D01*
X161544001Y-107285682D01*
X161596254Y-107278802D01*
X161700762Y-107265044D01*
X161702329Y-107264395D01*
X164702899Y-107264395D01*
X164729818Y-107399722D01*
X164729821Y-107399732D01*
X164782621Y-107527204D01*
X164782628Y-107527217D01*
X164859285Y-107641941D01*
X164859288Y-107641945D01*
X164956854Y-107739511D01*
X164956858Y-107739514D01*
X165071582Y-107816171D01*
X165071595Y-107816178D01*
X165199067Y-107868978D01*
X165199072Y-107868980D01*
X165199076Y-107868980D01*
X165199077Y-107868981D01*
X165334404Y-107895900D01*
X165334407Y-107895900D01*
X165472395Y-107895900D01*
X165563441Y-107877789D01*
X165607728Y-107868980D01*
X165735211Y-107816175D01*
X165849942Y-107739514D01*
X165947514Y-107641942D01*
X166024175Y-107527211D01*
X166076980Y-107399728D01*
X166099586Y-107286081D01*
X166103900Y-107264395D01*
X167702899Y-107264395D01*
X167729818Y-107399722D01*
X167729821Y-107399732D01*
X167782621Y-107527204D01*
X167782628Y-107527217D01*
X167859285Y-107641941D01*
X167859288Y-107641945D01*
X167956854Y-107739511D01*
X167956858Y-107739514D01*
X168071582Y-107816171D01*
X168071595Y-107816178D01*
X168199067Y-107868978D01*
X168199072Y-107868980D01*
X168199076Y-107868980D01*
X168199077Y-107868981D01*
X168334404Y-107895900D01*
X168334407Y-107895900D01*
X168472395Y-107895900D01*
X168563441Y-107877789D01*
X168607728Y-107868980D01*
X168735211Y-107816175D01*
X168849942Y-107739514D01*
X168947514Y-107641942D01*
X169024175Y-107527211D01*
X169076980Y-107399728D01*
X169099586Y-107286081D01*
X169103900Y-107264395D01*
X169103900Y-107126404D01*
X169076981Y-106991077D01*
X169076980Y-106991076D01*
X169076980Y-106991072D01*
X169035628Y-106891238D01*
X169024178Y-106863595D01*
X169024171Y-106863582D01*
X168947514Y-106748858D01*
X168947511Y-106748854D01*
X168849945Y-106651288D01*
X168849941Y-106651285D01*
X168735217Y-106574628D01*
X168735204Y-106574621D01*
X168607732Y-106521821D01*
X168607722Y-106521818D01*
X168472395Y-106494900D01*
X168472393Y-106494900D01*
X168334407Y-106494900D01*
X168334405Y-106494900D01*
X168199077Y-106521818D01*
X168199067Y-106521821D01*
X168071595Y-106574621D01*
X168071582Y-106574628D01*
X167956858Y-106651285D01*
X167956854Y-106651288D01*
X167859288Y-106748854D01*
X167859285Y-106748858D01*
X167782628Y-106863582D01*
X167782621Y-106863595D01*
X167729821Y-106991067D01*
X167729818Y-106991077D01*
X167702900Y-107126404D01*
X167702900Y-107126407D01*
X167702900Y-107264393D01*
X167702900Y-107264395D01*
X167702899Y-107264395D01*
X166103900Y-107264395D01*
X166103900Y-107126404D01*
X166076981Y-106991077D01*
X166076980Y-106991076D01*
X166076980Y-106991072D01*
X166035628Y-106891238D01*
X166024178Y-106863595D01*
X166024171Y-106863582D01*
X165947514Y-106748858D01*
X165947511Y-106748854D01*
X165849945Y-106651288D01*
X165849941Y-106651285D01*
X165735217Y-106574628D01*
X165735204Y-106574621D01*
X165607732Y-106521821D01*
X165607722Y-106521818D01*
X165472395Y-106494900D01*
X165472393Y-106494900D01*
X165334407Y-106494900D01*
X165334405Y-106494900D01*
X165199077Y-106521818D01*
X165199067Y-106521821D01*
X165071595Y-106574621D01*
X165071582Y-106574628D01*
X164956858Y-106651285D01*
X164956854Y-106651288D01*
X164859288Y-106748854D01*
X164859285Y-106748858D01*
X164782628Y-106863582D01*
X164782621Y-106863595D01*
X164729821Y-106991067D01*
X164729818Y-106991077D01*
X164702900Y-107126404D01*
X164702900Y-107126407D01*
X164702900Y-107264393D01*
X164702900Y-107264395D01*
X164702899Y-107264395D01*
X161702329Y-107264395D01*
X161846841Y-107204536D01*
X161972282Y-107108282D01*
X162068536Y-106982841D01*
X162129044Y-106836762D01*
X162146912Y-106701038D01*
X162149682Y-106680001D01*
X162149682Y-106679998D01*
X162129074Y-106523464D01*
X162129044Y-106523238D01*
X162068536Y-106377159D01*
X161972282Y-106251718D01*
X161846841Y-106155464D01*
X161833256Y-106149837D01*
X161700762Y-106094956D01*
X161700760Y-106094955D01*
X161544001Y-106074318D01*
X161543999Y-106074318D01*
X161387239Y-106094955D01*
X161387237Y-106094956D01*
X161241160Y-106155463D01*
X161115718Y-106251718D01*
X161019463Y-106377160D01*
X160958956Y-106523237D01*
X160958955Y-106523239D01*
X160938318Y-106679998D01*
X151553929Y-106679998D01*
X151502136Y-106554959D01*
X151405882Y-106429518D01*
X151280441Y-106333264D01*
X151149186Y-106278896D01*
X151094784Y-106235056D01*
X151072719Y-106168762D01*
X151089998Y-106101063D01*
X151141135Y-106053452D01*
X151152352Y-106049193D01*
X151152253Y-106048954D01*
X151159760Y-106045844D01*
X151159762Y-106045844D01*
X151305841Y-105985336D01*
X151431282Y-105889082D01*
X151527536Y-105763641D01*
X151588044Y-105617562D01*
X151608682Y-105460800D01*
X151605338Y-105435398D01*
X167034318Y-105435398D01*
X167034318Y-105435401D01*
X167054955Y-105592160D01*
X167054956Y-105592162D01*
X167115464Y-105738241D01*
X167211718Y-105863682D01*
X167337159Y-105959936D01*
X167483238Y-106020444D01*
X167561619Y-106030763D01*
X167639999Y-106041082D01*
X167640000Y-106041082D01*
X167640001Y-106041082D01*
X167692254Y-106034202D01*
X167796762Y-106020444D01*
X167942841Y-105959936D01*
X168068282Y-105863682D01*
X168164536Y-105738241D01*
X168225044Y-105592162D01*
X168245682Y-105435400D01*
X168225044Y-105278638D01*
X168164536Y-105132559D01*
X168068282Y-105007118D01*
X167942841Y-104910864D01*
X167796762Y-104850356D01*
X167796760Y-104850355D01*
X167640001Y-104829718D01*
X167639999Y-104829718D01*
X167483239Y-104850355D01*
X167483237Y-104850356D01*
X167337160Y-104910863D01*
X167211718Y-105007118D01*
X167115463Y-105132560D01*
X167054956Y-105278637D01*
X167054955Y-105278639D01*
X167034318Y-105435398D01*
X151605338Y-105435398D01*
X151588044Y-105304038D01*
X151527536Y-105157959D01*
X151431282Y-105032518D01*
X151305841Y-104936264D01*
X151305837Y-104936262D01*
X151305782Y-104936239D01*
X151305740Y-104936205D01*
X151298804Y-104932201D01*
X151299428Y-104931118D01*
X151251381Y-104892395D01*
X151229321Y-104826099D01*
X151246604Y-104758401D01*
X151277752Y-104723308D01*
X151380482Y-104644482D01*
X151476736Y-104519041D01*
X151537244Y-104372962D01*
X151557882Y-104216200D01*
X151537244Y-104059438D01*
X151476736Y-103913359D01*
X151380482Y-103787918D01*
X151255041Y-103691664D01*
X151255039Y-103691663D01*
X151248592Y-103686716D01*
X151249639Y-103685350D01*
X151208200Y-103641892D01*
X151194976Y-103573285D01*
X151220943Y-103508420D01*
X151242924Y-103486698D01*
X151344882Y-103408464D01*
X151441136Y-103283023D01*
X151501644Y-103136944D01*
X151522282Y-102980182D01*
X151518237Y-102949460D01*
X151501644Y-102823421D01*
X151501644Y-102823420D01*
X151441136Y-102677341D01*
X151344882Y-102551900D01*
X151219441Y-102455646D01*
X151073362Y-102395138D01*
X151073360Y-102395137D01*
X150916601Y-102374500D01*
X150916599Y-102374500D01*
X150759839Y-102395137D01*
X150759837Y-102395138D01*
X150613760Y-102455645D01*
X150488318Y-102551900D01*
X150392063Y-102677342D01*
X150331556Y-102823419D01*
X150331555Y-102823421D01*
X150310918Y-102980180D01*
X117513920Y-102980180D01*
X117526644Y-102949462D01*
X117547282Y-102792700D01*
X117540745Y-102743050D01*
X117526644Y-102635939D01*
X117526644Y-102635938D01*
X117466136Y-102489859D01*
X117369882Y-102364418D01*
X117244441Y-102268164D01*
X117098362Y-102207656D01*
X117098360Y-102207655D01*
X116941601Y-102187018D01*
X116941599Y-102187018D01*
X116784839Y-102207655D01*
X116784837Y-102207656D01*
X116638760Y-102268163D01*
X116513318Y-102364418D01*
X116417063Y-102489860D01*
X116356556Y-102635937D01*
X116356555Y-102635939D01*
X116342839Y-102740129D01*
X116318588Y-102794949D01*
X116115428Y-102794949D01*
X116115585Y-102794416D01*
X116119843Y-102790726D01*
X116097381Y-102743050D01*
X116095900Y-102723944D01*
X116095900Y-101993998D01*
X164214918Y-101993998D01*
X164214918Y-101994001D01*
X164235555Y-102150760D01*
X164235556Y-102150762D01*
X164284185Y-102268164D01*
X164296064Y-102296841D01*
X164392318Y-102422282D01*
X164517759Y-102518536D01*
X164663838Y-102579044D01*
X164742219Y-102589363D01*
X164820599Y-102599682D01*
X164820600Y-102599682D01*
X164820601Y-102599682D01*
X164872854Y-102592802D01*
X164977362Y-102579044D01*
X165123441Y-102518536D01*
X165248882Y-102422282D01*
X165345136Y-102296841D01*
X165405644Y-102150762D01*
X165426282Y-101994000D01*
X165405644Y-101837238D01*
X165345136Y-101691159D01*
X165248882Y-101565718D01*
X165123441Y-101469464D01*
X164977362Y-101408956D01*
X164977360Y-101408955D01*
X164820601Y-101388318D01*
X164820599Y-101388318D01*
X164663839Y-101408955D01*
X164663837Y-101408956D01*
X164517760Y-101469463D01*
X164392318Y-101565718D01*
X164296063Y-101691160D01*
X164235556Y-101837237D01*
X164235555Y-101837239D01*
X164214918Y-101993998D01*
X116095900Y-101993998D01*
X116095900Y-98236700D01*
X116115585Y-98169661D01*
X116168389Y-98123906D01*
X116219900Y-98112700D01*
X175499100Y-98112700D01*
X175566139Y-98132385D01*
G37*
%TD.AperFunction*%
%TD*%
M02*
