%TF.GenerationSoftware,KiCad,Pcbnew,8.0.2*%
%TF.CreationDate,2025-04-21T15:08:10+02:00*%
%TF.ProjectId,logic,6c6f6769-632e-46b6-9963-61645f706362,rev?*%
%TF.SameCoordinates,Original*%
%TF.FileFunction,Drillmap*%
%TF.FilePolarity,Positive*%
%FSLAX45Y45*%
G04 Gerber Fmt 4.5, Leading zero omitted, Abs format (unit mm)*
G04 Created by KiCad (PCBNEW 8.0.2) date 2025-04-21 15:08:10*
%MOMM*%
%LPD*%
G01*
G04 APERTURE LIST*
%ADD10C,0.100000*%
%ADD11C,0.200000*%
G04 APERTURE END LIST*
D10*
X11559540Y-9761220D02*
X17612360Y-9761220D01*
X17612360Y-15826740D01*
X11559540Y-15826740D01*
X11559540Y-9761220D01*
D11*
D10*
X11641140Y-10010460D02*
X11681140Y-10050460D01*
X11681140Y-10010460D02*
X11641140Y-10050460D01*
X11653840Y-9852980D02*
X11693840Y-9892980D01*
X11693840Y-9852980D02*
X11653840Y-9892980D01*
X11674160Y-10086770D02*
X11714160Y-10126770D01*
X11714160Y-10086770D02*
X11674160Y-10126770D01*
X11674160Y-10259270D02*
X11714160Y-10299270D01*
X11714160Y-10259270D02*
X11674160Y-10299270D01*
X11775760Y-10508300D02*
X11815760Y-10548300D01*
X11815760Y-10508300D02*
X11775760Y-10548300D01*
X11824020Y-9995220D02*
X11864020Y-10035220D01*
X11864020Y-9995220D02*
X11824020Y-10035220D01*
X11829100Y-14132880D02*
X11869100Y-14172880D01*
X11869100Y-14132880D02*
X11829100Y-14172880D01*
X11831640Y-9860600D02*
X11871640Y-9900600D01*
X11871640Y-9860600D02*
X11831640Y-9900600D01*
X11863707Y-13415406D02*
X11903707Y-13455406D01*
X11903707Y-13415406D02*
X11863707Y-13455406D01*
X11899920Y-12554880D02*
X11939920Y-12594880D01*
X11939920Y-12554880D02*
X11899920Y-12594880D01*
X11899920Y-12554880D02*
X11939920Y-12594880D01*
X11939920Y-12554880D02*
X11899920Y-12594880D01*
X11899920Y-12554880D02*
X11939920Y-12594880D01*
X11939920Y-12554880D02*
X11899920Y-12594880D01*
X11910380Y-11206800D02*
X11950380Y-11246800D01*
X11950380Y-11206800D02*
X11910380Y-11246800D01*
X11915460Y-9995220D02*
X11955460Y-10035220D01*
X11955460Y-9995220D02*
X11915460Y-10035220D01*
X11925620Y-13627420D02*
X11965620Y-13667420D01*
X11965620Y-13627420D02*
X11925620Y-13667420D01*
X11943400Y-14694220D02*
X11983400Y-14734220D01*
X11983400Y-14694220D02*
X11943400Y-14734220D01*
X11945760Y-10537540D02*
X11985760Y-10577540D01*
X11985760Y-10537540D02*
X11945760Y-10577540D01*
X11945940Y-13436920D02*
X11985940Y-13476920D01*
X11985940Y-13436920D02*
X11945940Y-13476920D01*
X11976420Y-14452920D02*
X12016420Y-14492920D01*
X12016420Y-14452920D02*
X11976420Y-14492920D01*
X11984040Y-15654340D02*
X12024040Y-15694340D01*
X12024040Y-15654340D02*
X11984040Y-15694340D01*
X12011980Y-13922060D02*
X12051980Y-13962060D01*
X12051980Y-13922060D02*
X12011980Y-13962060D01*
X12019600Y-13810300D02*
X12059600Y-13850300D01*
X12059600Y-13810300D02*
X12019600Y-13850300D01*
X12027220Y-9974900D02*
X12067220Y-10014900D01*
X12067220Y-9974900D02*
X12027220Y-10014900D01*
X12027220Y-11270300D02*
X12067220Y-11310300D01*
X12067220Y-11270300D02*
X12027220Y-11310300D01*
X12034840Y-9840280D02*
X12074840Y-9880280D01*
X12074840Y-9840280D02*
X12034840Y-9880280D01*
X12111040Y-12291380D02*
X12151040Y-12331380D01*
X12151040Y-12291380D02*
X12111040Y-12331380D01*
X12131360Y-12184700D02*
X12171360Y-12224700D01*
X12171360Y-12184700D02*
X12131360Y-12224700D01*
X12151680Y-9987600D02*
X12191680Y-10027600D01*
X12191680Y-9987600D02*
X12151680Y-10027600D01*
X12172000Y-10490520D02*
X12212000Y-10530520D01*
X12212000Y-10490520D02*
X12172000Y-10530520D01*
X12177080Y-10589580D02*
X12217080Y-10629580D01*
X12217080Y-10589580D02*
X12177080Y-10629580D01*
X12179620Y-14856780D02*
X12219620Y-14896780D01*
X12219620Y-14856780D02*
X12179620Y-14896780D01*
X12182160Y-14745020D02*
X12222160Y-14785020D01*
X12222160Y-14745020D02*
X12182160Y-14785020D01*
X12215180Y-15044740D02*
X12255180Y-15084740D01*
X12255180Y-15044740D02*
X12215180Y-15084740D01*
X12227880Y-11158540D02*
X12267880Y-11198540D01*
X12267880Y-11158540D02*
X12227880Y-11198540D01*
X12232960Y-13238800D02*
X12272960Y-13278800D01*
X12272960Y-13238800D02*
X12232960Y-13278800D01*
X12234920Y-12989880D02*
X12274920Y-13029880D01*
X12274920Y-12989880D02*
X12234920Y-13029880D01*
X12253280Y-14270040D02*
X12293280Y-14310040D01*
X12293280Y-14270040D02*
X12253280Y-14310040D01*
X12281220Y-12641900D02*
X12321220Y-12681900D01*
X12321220Y-12641900D02*
X12281220Y-12681900D01*
X12288580Y-14839000D02*
X12328580Y-14879000D01*
X12328580Y-14839000D02*
X12288580Y-14879000D01*
X12293920Y-9845360D02*
X12333920Y-9885360D01*
X12333920Y-9845360D02*
X12293920Y-9885360D01*
X12293920Y-10604820D02*
X12333920Y-10644820D01*
X12333920Y-10604820D02*
X12293920Y-10644820D01*
X12296460Y-10472740D02*
X12336460Y-10512740D01*
X12336460Y-10472740D02*
X12296460Y-10512740D01*
X12301540Y-9995220D02*
X12341540Y-10035220D01*
X12341540Y-9995220D02*
X12301540Y-10035220D01*
X12311700Y-12486960D02*
X12351700Y-12526960D01*
X12351700Y-12486960D02*
X12311700Y-12526960D01*
X12364100Y-11620740D02*
X12404100Y-11660740D01*
X12404100Y-11620740D02*
X12364100Y-11660740D01*
X12375200Y-15029500D02*
X12415200Y-15069500D01*
X12415200Y-15029500D02*
X12375200Y-15069500D01*
X12376700Y-15425740D02*
X12416700Y-15465740D01*
X12416700Y-15425740D02*
X12376700Y-15465740D01*
X12398060Y-9832660D02*
X12438060Y-9872660D01*
X12438060Y-9832660D02*
X12398060Y-9872660D01*
X12398060Y-10013000D02*
X12438060Y-10053000D01*
X12438060Y-10013000D02*
X12398060Y-10053000D01*
X12403140Y-12017060D02*
X12443140Y-12057060D01*
X12443140Y-12017060D02*
X12403140Y-12057060D01*
X12414900Y-14145500D02*
X12454900Y-14185500D01*
X12454900Y-14145500D02*
X12414900Y-14185500D01*
X12426000Y-13060690D02*
X12466000Y-13100690D01*
X12466000Y-13060690D02*
X12426000Y-13100690D01*
X12436160Y-13642660D02*
X12476160Y-13682660D01*
X12476160Y-13642660D02*
X12436160Y-13682660D01*
X12441240Y-14851700D02*
X12481240Y-14891700D01*
X12481240Y-14851700D02*
X12441240Y-14891700D01*
X12452700Y-15628940D02*
X12492700Y-15668940D01*
X12492700Y-15628940D02*
X12452700Y-15668940D01*
X12514900Y-13393740D02*
X12554900Y-13433740D01*
X12554900Y-13393740D02*
X12514900Y-13433740D01*
X12532680Y-11353100D02*
X12572680Y-11393100D01*
X12572680Y-11353100D02*
X12532680Y-11393100D01*
X12532680Y-12707940D02*
X12572680Y-12747940D01*
X12572680Y-12707940D02*
X12532680Y-12747940D01*
X12548897Y-15055877D02*
X12588897Y-15095877D01*
X12588897Y-15055877D02*
X12548897Y-15095877D01*
X12553000Y-11989120D02*
X12593000Y-12029120D01*
X12593000Y-11989120D02*
X12553000Y-12029120D01*
X12623143Y-15130123D02*
X12663143Y-15170123D01*
X12663143Y-15130123D02*
X12623143Y-15170123D01*
X12639360Y-13657900D02*
X12679360Y-13697900D01*
X12679360Y-13657900D02*
X12639360Y-13697900D01*
X12654600Y-12254400D02*
X12694600Y-12294400D01*
X12694600Y-12254400D02*
X12654600Y-12294400D01*
X12654600Y-13320080D02*
X12694600Y-13360080D01*
X12694600Y-13320080D02*
X12654600Y-13360080D01*
X12695240Y-11496360D02*
X12735240Y-11536360D01*
X12735240Y-11496360D02*
X12695240Y-11536360D01*
X12695240Y-11496360D02*
X12735240Y-11536360D01*
X12735240Y-11496360D02*
X12695240Y-11536360D01*
X12776520Y-10251760D02*
X12816520Y-10291760D01*
X12816520Y-10251760D02*
X12776520Y-10291760D01*
X12791760Y-10477820D02*
X12831760Y-10517820D01*
X12831760Y-10477820D02*
X12791760Y-10517820D01*
X12799380Y-11869740D02*
X12839380Y-11909740D01*
X12839380Y-11869740D02*
X12799380Y-11909740D01*
X12809540Y-10716580D02*
X12849540Y-10756580D01*
X12849540Y-10716580D02*
X12809540Y-10756580D01*
X12814620Y-11140760D02*
X12854620Y-11180760D01*
X12854620Y-11140760D02*
X12814620Y-11180760D01*
X12834940Y-12276140D02*
X12874940Y-12316140D01*
X12874940Y-12276140D02*
X12834940Y-12316140D01*
X12847640Y-12184700D02*
X12887640Y-12224700D01*
X12887640Y-12184700D02*
X12847640Y-12224700D01*
X12870500Y-12619040D02*
X12910500Y-12659040D01*
X12910500Y-12619040D02*
X12870500Y-12659040D01*
X12944160Y-10249220D02*
X12984160Y-10289220D01*
X12984160Y-10249220D02*
X12944160Y-10289220D01*
X12944160Y-10482900D02*
X12984160Y-10522900D01*
X12984160Y-10482900D02*
X12944160Y-10522900D01*
X12972100Y-11762040D02*
X13012100Y-11802040D01*
X13012100Y-11762040D02*
X12972100Y-11802040D01*
X12977180Y-11989120D02*
X13017180Y-12029120D01*
X13017180Y-11989120D02*
X12977180Y-12029120D01*
X12982260Y-12558080D02*
X13022260Y-12598080D01*
X13022260Y-12558080D02*
X12982260Y-12598080D01*
X13000040Y-15042200D02*
X13040040Y-15082200D01*
X13040040Y-15042200D02*
X13000040Y-15082200D01*
X13043220Y-13411520D02*
X13083220Y-13451520D01*
X13083220Y-13411520D02*
X13043220Y-13451520D01*
X13063540Y-9842820D02*
X13103540Y-9882820D01*
X13103540Y-9842820D02*
X13063540Y-9882820D01*
X13129580Y-11747820D02*
X13169580Y-11787820D01*
X13169580Y-11747820D02*
X13129580Y-11787820D01*
X13165140Y-15423200D02*
X13205140Y-15463200D01*
X13205140Y-15423200D02*
X13165140Y-15463200D01*
X13167680Y-12669840D02*
X13207680Y-12709840D01*
X13207680Y-12669840D02*
X13167680Y-12709840D01*
X13175300Y-9850440D02*
X13215300Y-9890440D01*
X13215300Y-9850440D02*
X13175300Y-9890440D01*
X13177840Y-13675680D02*
X13217840Y-13715680D01*
X13217840Y-13675680D02*
X13177840Y-13715680D01*
X13180380Y-13419140D02*
X13220380Y-13459140D01*
X13220380Y-13419140D02*
X13180380Y-13459140D01*
X13180380Y-14320840D02*
X13220380Y-14360840D01*
X13220380Y-14320840D02*
X13180380Y-14360840D01*
X13215940Y-11742740D02*
X13255940Y-11782740D01*
X13255940Y-11742740D02*
X13215940Y-11782740D01*
X13226100Y-11537000D02*
X13266100Y-11577000D01*
X13266100Y-11537000D02*
X13226100Y-11577000D01*
X13249597Y-13945557D02*
X13289597Y-13985557D01*
X13289597Y-13945557D02*
X13249597Y-13985557D01*
X13298417Y-14319497D02*
X13338417Y-14359497D01*
X13338417Y-14319497D02*
X13298417Y-14359497D01*
X13307380Y-10444800D02*
X13347380Y-10484800D01*
X13347380Y-10444800D02*
X13307380Y-10484800D01*
X13344460Y-12616500D02*
X13384460Y-12656500D01*
X13384460Y-12616500D02*
X13344460Y-12656500D01*
X13403900Y-13215940D02*
X13443900Y-13255940D01*
X13443900Y-13215940D02*
X13403900Y-13255940D01*
X13414060Y-11298240D02*
X13454060Y-11338240D01*
X13454060Y-11298240D02*
X13414060Y-11338240D01*
X13433603Y-12848969D02*
X13473603Y-12888969D01*
X13473603Y-12848969D02*
X13433603Y-12888969D01*
X13443099Y-12312799D02*
X13483099Y-12352799D01*
X13483099Y-12312799D02*
X13443099Y-12352799D01*
X13492800Y-12969560D02*
X13532800Y-13009560D01*
X13532800Y-12969560D02*
X13492800Y-13009560D01*
X13502960Y-12164380D02*
X13542960Y-12204380D01*
X13542960Y-12164380D02*
X13502960Y-12204380D01*
X13529480Y-13868410D02*
X13569480Y-13908410D01*
X13569480Y-13868410D02*
X13529480Y-13908410D01*
X13553760Y-11120440D02*
X13593760Y-11160440D01*
X13593760Y-11120440D02*
X13553760Y-11160440D01*
X13558580Y-10684800D02*
X13598580Y-10724800D01*
X13598580Y-10684800D02*
X13558580Y-10724800D01*
X13569000Y-10480360D02*
X13609000Y-10520360D01*
X13609000Y-10480360D02*
X13569000Y-10520360D01*
X13619090Y-12341870D02*
X13659090Y-12381870D01*
X13659090Y-12341870D02*
X13619090Y-12381870D01*
X13635040Y-14231940D02*
X13675040Y-14271940D01*
X13675040Y-14231940D02*
X13635040Y-14271940D01*
X13635040Y-14414820D02*
X13675040Y-14454820D01*
X13675040Y-14414820D02*
X13635040Y-14454820D01*
X13645200Y-9929180D02*
X13685200Y-9969180D01*
X13685200Y-9929180D02*
X13645200Y-9969180D01*
X13657900Y-11966260D02*
X13697900Y-12006260D01*
X13697900Y-11966260D02*
X13657900Y-12006260D01*
X13685200Y-14808520D02*
X13725200Y-14848520D01*
X13725200Y-14808520D02*
X13685200Y-14848520D01*
X13690920Y-10051100D02*
X13730920Y-10091100D01*
X13730920Y-10051100D02*
X13690920Y-10091100D01*
X13729020Y-10937560D02*
X13769020Y-10977560D01*
X13769020Y-10937560D02*
X13729020Y-10977560D01*
X13731560Y-11120440D02*
X13771560Y-11160440D01*
X13771560Y-11120440D02*
X13731560Y-11160440D01*
X13734100Y-10147620D02*
X13774100Y-10187620D01*
X13774100Y-10147620D02*
X13734100Y-10187620D01*
X13759500Y-12232960D02*
X13799500Y-12272960D01*
X13799500Y-12232960D02*
X13759500Y-12272960D01*
X13823000Y-9929180D02*
X13863000Y-9969180D01*
X13863000Y-9929180D02*
X13823000Y-9969180D01*
X13823000Y-14088460D02*
X13863000Y-14128460D01*
X13863000Y-14088460D02*
X13823000Y-14128460D01*
X13853480Y-15288580D02*
X13893480Y-15328580D01*
X13893480Y-15288580D02*
X13853480Y-15328580D01*
X13866180Y-12423150D02*
X13906180Y-12463150D01*
X13906180Y-12423150D02*
X13866180Y-12463150D01*
X13866180Y-14983780D02*
X13906180Y-15023780D01*
X13906180Y-14983780D02*
X13866180Y-15023780D01*
X13885480Y-13731560D02*
X13925480Y-13771560D01*
X13925480Y-13731560D02*
X13885480Y-13771560D01*
X13891580Y-15616240D02*
X13931580Y-15656240D01*
X13931580Y-15616240D02*
X13891580Y-15656240D01*
X13894120Y-11120440D02*
X13934120Y-11160440D01*
X13934120Y-11120440D02*
X13894120Y-11160440D01*
X13896440Y-14395340D02*
X13936440Y-14435340D01*
X13936440Y-14395340D02*
X13896440Y-14435340D01*
X13896440Y-14500340D02*
X13936440Y-14540340D01*
X13936440Y-14500340D02*
X13896440Y-14540340D01*
X13924600Y-12682540D02*
X13964600Y-12722540D01*
X13964600Y-12682540D02*
X13924600Y-12722540D01*
X13964300Y-11620740D02*
X14004300Y-11660740D01*
X14004300Y-11620740D02*
X13964300Y-11660740D01*
X13985560Y-9929180D02*
X14025560Y-9969180D01*
X14025560Y-9929180D02*
X13985560Y-9969180D01*
X13998260Y-15694980D02*
X14038260Y-15734980D01*
X14038260Y-15694980D02*
X13998260Y-15734980D01*
X14005880Y-11991660D02*
X14045880Y-12031660D01*
X14045880Y-11991660D02*
X14005880Y-12031660D01*
X14016040Y-12812080D02*
X14056040Y-12852080D01*
X14056040Y-12812080D02*
X14016040Y-12852080D01*
X14043980Y-11117900D02*
X14083980Y-11157900D01*
X14083980Y-11117900D02*
X14043980Y-11157900D01*
X14079540Y-14554520D02*
X14119540Y-14594520D01*
X14119540Y-14554520D02*
X14079540Y-14594520D01*
X14112560Y-12921300D02*
X14152560Y-12961300D01*
X14152560Y-12921300D02*
X14112560Y-12961300D01*
X14125120Y-14125500D02*
X14165120Y-14165500D01*
X14165120Y-14125500D02*
X14125120Y-14165500D01*
X14135420Y-9926640D02*
X14175420Y-9966640D01*
X14175420Y-9926640D02*
X14135420Y-9966640D01*
X14136840Y-11358180D02*
X14176840Y-11398180D01*
X14176840Y-11358180D02*
X14136840Y-11398180D01*
X14143040Y-15400340D02*
X14183040Y-15440340D01*
X14183040Y-15400340D02*
X14143040Y-15440340D01*
X14155740Y-13190350D02*
X14195740Y-13230350D01*
X14195740Y-13190350D02*
X14155740Y-13230350D01*
X14165900Y-11986580D02*
X14205900Y-12026580D01*
X14205900Y-11986580D02*
X14165900Y-12026580D01*
X14188760Y-13323050D02*
X14228760Y-13363050D01*
X14228760Y-13323050D02*
X14188760Y-13363050D01*
X14191804Y-13423004D02*
X14231804Y-13463004D01*
X14231804Y-13423004D02*
X14191804Y-13463004D01*
X14221780Y-11117900D02*
X14261780Y-11157900D01*
X14261780Y-11117900D02*
X14221780Y-11157900D01*
X14274674Y-13478974D02*
X14314674Y-13518974D01*
X14314674Y-13478974D02*
X14274674Y-13518974D01*
X14275120Y-11448100D02*
X14315120Y-11488100D01*
X14315120Y-11448100D02*
X14275120Y-11488100D01*
X14275120Y-13137200D02*
X14315120Y-13177200D01*
X14315120Y-13137200D02*
X14275120Y-13177200D01*
X14290360Y-15147580D02*
X14330360Y-15187580D01*
X14330360Y-15147580D02*
X14290360Y-15187580D01*
X14313220Y-9926640D02*
X14353220Y-9966640D01*
X14353220Y-9926640D02*
X14313220Y-9966640D01*
X14336080Y-12951780D02*
X14376080Y-12991780D01*
X14376080Y-12951780D02*
X14336080Y-12991780D01*
X14346240Y-12728260D02*
X14386240Y-12768260D01*
X14386240Y-12728260D02*
X14346240Y-12768260D01*
X14384340Y-11117900D02*
X14424340Y-11157900D01*
X14424340Y-11117900D02*
X14384340Y-11157900D01*
X14386060Y-14034787D02*
X14426060Y-14074787D01*
X14426060Y-14034787D02*
X14386060Y-14074787D01*
X14394500Y-14221780D02*
X14434500Y-14261780D01*
X14434500Y-14221780D02*
X14394500Y-14261780D01*
X14402120Y-13106720D02*
X14442120Y-13146720D01*
X14442120Y-13106720D02*
X14402120Y-13146720D01*
X14409740Y-11895140D02*
X14449740Y-11935140D01*
X14449740Y-11895140D02*
X14409740Y-11935140D01*
X14409740Y-15009880D02*
X14449740Y-15049880D01*
X14449740Y-15009880D02*
X14409740Y-15049880D01*
X14430060Y-12243120D02*
X14470060Y-12283120D01*
X14470060Y-12243120D02*
X14430060Y-12283120D01*
X14440220Y-15402880D02*
X14480220Y-15442880D01*
X14480220Y-15402880D02*
X14440220Y-15442880D01*
X14447840Y-14884720D02*
X14487840Y-14924720D01*
X14487840Y-14884720D02*
X14447840Y-14924720D01*
X14468160Y-14145580D02*
X14508160Y-14185580D01*
X14508160Y-14145580D02*
X14468160Y-14185580D01*
X14475780Y-9926640D02*
X14515780Y-9966640D01*
X14515780Y-9926640D02*
X14475780Y-9966640D01*
X14483400Y-11595420D02*
X14523400Y-11635420D01*
X14523400Y-11595420D02*
X14483400Y-11635420D01*
X14506260Y-13038450D02*
X14546260Y-13078450D01*
X14546260Y-13038450D02*
X14506260Y-13078450D01*
X14521500Y-14381800D02*
X14561500Y-14421800D01*
X14561500Y-14381800D02*
X14521500Y-14421800D01*
X14531660Y-15372400D02*
X14571660Y-15412400D01*
X14571660Y-15372400D02*
X14531660Y-15412400D01*
X14534200Y-14223320D02*
X14574200Y-14263320D01*
X14574200Y-14223320D02*
X14534200Y-14263320D01*
X14551980Y-11117900D02*
X14591980Y-11157900D01*
X14591980Y-11117900D02*
X14551980Y-11157900D01*
X14551980Y-13749340D02*
X14591980Y-13789340D01*
X14591980Y-13749340D02*
X14551980Y-13789340D01*
X14560870Y-13377230D02*
X14600870Y-13417230D01*
X14600870Y-13377230D02*
X14560870Y-13417230D01*
X14582460Y-11763060D02*
X14622460Y-11803060D01*
X14622460Y-11763060D02*
X14582460Y-11803060D01*
X14590080Y-13208320D02*
X14630080Y-13248320D01*
X14630080Y-13208320D02*
X14590080Y-13248320D01*
X14635512Y-13310683D02*
X14675512Y-13350683D01*
X14675512Y-13310683D02*
X14635512Y-13350683D01*
X14643420Y-9926640D02*
X14683420Y-9966640D01*
X14683420Y-9926640D02*
X14643420Y-9966640D01*
X14661200Y-11978960D02*
X14701200Y-12018960D01*
X14701200Y-11978960D02*
X14661200Y-12018960D01*
X14666280Y-12238040D02*
X14706280Y-12278040D01*
X14706280Y-12238040D02*
X14666280Y-12278040D01*
X14668820Y-11034080D02*
X14708820Y-11074080D01*
X14708820Y-11034080D02*
X14668820Y-11074080D01*
X14694220Y-14544360D02*
X14734220Y-14584360D01*
X14734220Y-14544360D02*
X14694220Y-14584360D01*
X14719620Y-13764580D02*
X14759620Y-13804580D01*
X14759620Y-13764580D02*
X14719620Y-13804580D01*
X14736360Y-13194893D02*
X14776360Y-13234893D01*
X14776360Y-13194893D02*
X14736360Y-13234893D01*
X14757720Y-12850180D02*
X14797720Y-12890180D01*
X14797720Y-12850180D02*
X14757720Y-12890180D01*
X14767570Y-14717080D02*
X14807570Y-14757080D01*
X14807570Y-14717080D02*
X14767570Y-14757080D01*
X14778040Y-13500420D02*
X14818040Y-13540420D01*
X14818040Y-13500420D02*
X14778040Y-13540420D01*
X14790440Y-10523540D02*
X14830440Y-10563540D01*
X14830440Y-10523540D02*
X14790440Y-10563540D01*
X14795820Y-10894380D02*
X14835820Y-10934380D01*
X14835820Y-10894380D02*
X14795820Y-10934380D01*
X14795820Y-14424980D02*
X14835820Y-14464980D01*
X14835820Y-14424980D02*
X14795820Y-14464980D01*
X14821220Y-9926640D02*
X14861220Y-9966640D01*
X14861220Y-9926640D02*
X14821220Y-9966640D01*
X14823760Y-12238040D02*
X14863760Y-12278040D01*
X14863760Y-12238040D02*
X14823760Y-12278040D01*
X14833920Y-15413040D02*
X14873920Y-15453040D01*
X14873920Y-15413040D02*
X14833920Y-15453040D01*
X14836460Y-12616500D02*
X14876460Y-12656500D01*
X14876460Y-12616500D02*
X14836460Y-12656500D01*
X14836460Y-12753660D02*
X14876460Y-12793660D01*
X14876460Y-12753660D02*
X14836460Y-12793660D01*
X14841360Y-13194893D02*
X14881360Y-13234893D01*
X14881360Y-13194893D02*
X14841360Y-13234893D01*
X14849160Y-11806240D02*
X14889160Y-11846240D01*
X14889160Y-11806240D02*
X14849160Y-11846240D01*
X14869480Y-12420920D02*
X14909480Y-12460920D01*
X14909480Y-12420920D02*
X14869480Y-12460920D01*
X14874560Y-10066340D02*
X14914560Y-10106340D01*
X14914560Y-10066340D02*
X14874560Y-10106340D01*
X14879640Y-11585260D02*
X14919640Y-11625260D01*
X14919640Y-11585260D02*
X14879640Y-11625260D01*
X14882180Y-10155240D02*
X14922180Y-10195240D01*
X14922180Y-10155240D02*
X14882180Y-10195240D01*
X14892340Y-11117900D02*
X14932340Y-11157900D01*
X14932340Y-11117900D02*
X14892340Y-11157900D01*
X14892340Y-14460540D02*
X14932340Y-14500540D01*
X14932340Y-14460540D02*
X14892340Y-14500540D01*
X14907580Y-13302300D02*
X14947580Y-13342300D01*
X14947580Y-13302300D02*
X14907580Y-13342300D01*
X14910120Y-13530900D02*
X14950120Y-13570900D01*
X14950120Y-13530900D02*
X14910120Y-13570900D01*
X14913860Y-13995720D02*
X14953860Y-14035720D01*
X14953860Y-13995720D02*
X14913860Y-14035720D01*
X14927900Y-15369860D02*
X14967900Y-15409860D01*
X14967900Y-15369860D02*
X14927900Y-15409860D01*
X14983780Y-9926640D02*
X15023780Y-9966640D01*
X15023780Y-9926640D02*
X14983780Y-9966640D01*
X14983780Y-11051860D02*
X15023780Y-11091860D01*
X15023780Y-11051860D02*
X14983780Y-11091860D01*
X14983780Y-12238040D02*
X15023780Y-12278040D01*
X15023780Y-12238040D02*
X14983780Y-12278040D01*
X15016800Y-13175300D02*
X15056800Y-13215300D01*
X15056800Y-13175300D02*
X15016800Y-13215300D01*
X15021880Y-14722160D02*
X15061880Y-14762160D01*
X15061880Y-14722160D02*
X15021880Y-14762160D01*
X15030210Y-12842560D02*
X15070210Y-12882560D01*
X15070210Y-12842560D02*
X15030210Y-12882560D01*
X15032113Y-12679927D02*
X15072113Y-12719927D01*
X15072113Y-12679927D02*
X15032113Y-12719927D01*
X15037120Y-14341160D02*
X15077120Y-14381160D01*
X15077120Y-14341160D02*
X15037120Y-14381160D01*
X15062520Y-9830120D02*
X15102520Y-9870120D01*
X15102520Y-9830120D02*
X15062520Y-9870120D01*
X15067600Y-11387140D02*
X15107600Y-11427140D01*
X15107600Y-11387140D02*
X15067600Y-11427140D01*
X15071660Y-10278018D02*
X15111660Y-10318018D01*
X15111660Y-10278018D02*
X15071660Y-10318018D01*
X15075220Y-10401620D02*
X15115220Y-10441620D01*
X15115220Y-10401620D02*
X15075220Y-10441620D01*
X15077760Y-10665780D02*
X15117760Y-10705780D01*
X15117760Y-10665780D02*
X15077760Y-10705780D01*
X15080300Y-10526080D02*
X15120300Y-10566080D01*
X15120300Y-10526080D02*
X15080300Y-10566080D01*
X15085380Y-10945180D02*
X15125380Y-10985180D01*
X15125380Y-10945180D02*
X15085380Y-10985180D01*
X15100620Y-13741720D02*
X15140620Y-13781720D01*
X15140620Y-13741720D02*
X15100620Y-13781720D01*
X15101086Y-12772015D02*
X15141086Y-12812015D01*
X15141086Y-12772015D02*
X15101086Y-12812015D01*
X15110780Y-14559600D02*
X15150780Y-14599600D01*
X15150780Y-14559600D02*
X15110780Y-14599600D01*
X15113459Y-14405754D02*
X15153459Y-14445754D01*
X15153459Y-14405754D02*
X15113459Y-14445754D01*
X15122137Y-12582283D02*
X15162137Y-12622283D01*
X15162137Y-12582283D02*
X15122137Y-12622283D01*
X15131100Y-10013000D02*
X15171100Y-10053000D01*
X15171100Y-10013000D02*
X15131100Y-10053000D01*
X15131100Y-13952540D02*
X15171100Y-13992540D01*
X15171100Y-13952540D02*
X15131100Y-13992540D01*
X15151420Y-12232960D02*
X15191420Y-12272960D01*
X15191420Y-12232960D02*
X15151420Y-12272960D01*
X15161580Y-13160060D02*
X15201580Y-13200060D01*
X15201580Y-13160060D02*
X15161580Y-13200060D01*
X15204760Y-11605580D02*
X15244760Y-11645580D01*
X15244760Y-11605580D02*
X15204760Y-11645580D01*
X15222467Y-12481953D02*
X15262467Y-12521953D01*
X15262467Y-12481953D02*
X15222467Y-12521953D01*
X15230160Y-13302300D02*
X15270160Y-13342300D01*
X15270160Y-13302300D02*
X15230160Y-13342300D01*
X15235240Y-14389420D02*
X15275240Y-14429420D01*
X15275240Y-14389420D02*
X15235240Y-14429420D01*
X15237780Y-12822240D02*
X15277780Y-12862240D01*
X15277780Y-12822240D02*
X15237780Y-12862240D01*
X15245400Y-12692700D02*
X15285400Y-12732700D01*
X15285400Y-12692700D02*
X15245400Y-12732700D01*
X15261940Y-14694220D02*
X15301940Y-14734220D01*
X15301940Y-14694220D02*
X15261940Y-14734220D01*
X15268260Y-13718860D02*
X15308260Y-13758860D01*
X15308260Y-13718860D02*
X15268260Y-13758860D01*
X15275880Y-10790240D02*
X15315880Y-10830240D01*
X15315880Y-10790240D02*
X15275880Y-10830240D01*
X15278420Y-10437180D02*
X15318420Y-10477180D01*
X15318420Y-10437180D02*
X15278420Y-10477180D01*
X15283500Y-11476040D02*
X15323500Y-11516040D01*
X15323500Y-11476040D02*
X15283500Y-11516040D01*
X15288580Y-10551480D02*
X15328580Y-10591480D01*
X15328580Y-10551480D02*
X15288580Y-10591480D01*
X15306360Y-12232960D02*
X15346360Y-12272960D01*
X15346360Y-12232960D02*
X15306360Y-12272960D01*
X15313980Y-11074720D02*
X15353980Y-11114720D01*
X15353980Y-11074720D02*
X15313980Y-11114720D01*
X15319060Y-12108500D02*
X15359060Y-12148500D01*
X15359060Y-12108500D02*
X15319060Y-12148500D01*
X15321600Y-13482640D02*
X15361600Y-13522640D01*
X15361600Y-13482640D02*
X15321600Y-13522640D01*
X15334300Y-11976420D02*
X15374300Y-12016420D01*
X15374300Y-11976420D02*
X15334300Y-12016420D01*
X15357160Y-13304840D02*
X15397160Y-13344840D01*
X15397160Y-13304840D02*
X15357160Y-13344840D01*
X15362240Y-15245400D02*
X15402240Y-15285400D01*
X15402240Y-15245400D02*
X15362240Y-15285400D01*
X15367320Y-12466640D02*
X15407320Y-12506640D01*
X15407320Y-12466640D02*
X15367320Y-12506640D01*
X15390180Y-12611420D02*
X15430180Y-12651420D01*
X15430180Y-12611420D02*
X15390180Y-12651420D01*
X15390180Y-14793280D02*
X15430180Y-14833280D01*
X15430180Y-14793280D02*
X15390180Y-14833280D01*
X15407960Y-14629420D02*
X15447960Y-14669420D01*
X15447960Y-14629420D02*
X15407960Y-14669420D01*
X15423200Y-15661960D02*
X15463200Y-15701960D01*
X15463200Y-15661960D02*
X15423200Y-15701960D01*
X15440980Y-10424480D02*
X15480980Y-10464480D01*
X15480980Y-10424480D02*
X15440980Y-10464480D01*
X15446060Y-11316020D02*
X15486060Y-11356020D01*
X15486060Y-11316020D02*
X15446060Y-11356020D01*
X15453680Y-14043980D02*
X15493680Y-14083980D01*
X15493680Y-14043980D02*
X15453680Y-14083980D01*
X15468920Y-13002580D02*
X15508920Y-13042580D01*
X15508920Y-13002580D02*
X15468920Y-13042580D01*
X15501940Y-14249720D02*
X15541940Y-14289720D01*
X15541940Y-14249720D02*
X15501940Y-14289720D01*
X15525803Y-14394810D02*
X15565803Y-14434810D01*
X15565803Y-14394810D02*
X15525803Y-14434810D01*
X15534960Y-14783120D02*
X15574960Y-14823120D01*
X15574960Y-14783120D02*
X15534960Y-14823120D01*
X15537500Y-10099360D02*
X15577500Y-10139360D01*
X15577500Y-10099360D02*
X15537500Y-10139360D01*
X15539397Y-14620194D02*
X15579397Y-14660194D01*
X15579397Y-14620194D02*
X15539397Y-14660194D01*
X15545120Y-10421940D02*
X15585120Y-10461940D01*
X15585120Y-10421940D02*
X15545120Y-10461940D01*
X15555280Y-12837480D02*
X15595280Y-12877480D01*
X15595280Y-12837480D02*
X15555280Y-12877480D01*
X15579740Y-11620740D02*
X15619740Y-11660740D01*
X15619740Y-11620740D02*
X15579740Y-11660740D01*
X15613700Y-12009440D02*
X15653700Y-12049440D01*
X15653700Y-12009440D02*
X15613700Y-12049440D01*
X15682280Y-10754680D02*
X15722280Y-10794680D01*
X15722280Y-10754680D02*
X15682280Y-10794680D01*
X15684820Y-14767880D02*
X15724820Y-14807880D01*
X15724820Y-14767880D02*
X15684820Y-14807880D01*
X15697520Y-13685840D02*
X15737520Y-13725840D01*
X15737520Y-13685840D02*
X15697520Y-13725840D01*
X15705140Y-10556560D02*
X15745140Y-10596560D01*
X15745140Y-10556560D02*
X15705140Y-10596560D01*
X15715300Y-12959400D02*
X15755300Y-12999400D01*
X15755300Y-12959400D02*
X15715300Y-12999400D01*
X15725460Y-13952540D02*
X15765460Y-13992540D01*
X15765460Y-13952540D02*
X15725460Y-13992540D01*
X15754740Y-11360720D02*
X15794740Y-11400720D01*
X15794740Y-11360720D02*
X15754740Y-11400720D01*
X15768640Y-12001820D02*
X15808640Y-12041820D01*
X15808640Y-12001820D02*
X15768640Y-12041820D01*
X15786420Y-12512360D02*
X15826420Y-12552360D01*
X15826420Y-12512360D02*
X15786420Y-12552360D01*
X15799120Y-13396590D02*
X15839120Y-13436590D01*
X15839120Y-13396590D02*
X15799120Y-13436590D01*
X15816900Y-12669840D02*
X15856900Y-12709840D01*
X15856900Y-12669840D02*
X15816900Y-12709840D01*
X15816900Y-12845100D02*
X15856900Y-12885100D01*
X15856900Y-12845100D02*
X15816900Y-12885100D01*
X15832140Y-10744520D02*
X15872140Y-10784520D01*
X15872140Y-10744520D02*
X15832140Y-10784520D01*
X15837220Y-10556560D02*
X15877220Y-10596560D01*
X15877220Y-10556560D02*
X15837220Y-10596560D01*
X15861580Y-12245740D02*
X15901580Y-12285740D01*
X15901580Y-12245740D02*
X15861580Y-12285740D01*
X15872780Y-13465659D02*
X15912780Y-13505659D01*
X15912780Y-13465659D02*
X15872780Y-13505659D01*
X15886720Y-13772200D02*
X15926720Y-13812200D01*
X15926720Y-13772200D02*
X15886720Y-13812200D01*
X15900720Y-12984800D02*
X15940720Y-13024800D01*
X15940720Y-12984800D02*
X15900720Y-13024800D01*
X15905800Y-11460800D02*
X15945800Y-11500800D01*
X15945800Y-11460800D02*
X15905800Y-11500800D01*
X15910880Y-10452420D02*
X15950880Y-10492420D01*
X15950880Y-10452420D02*
X15910880Y-10492420D01*
X15919477Y-15147903D02*
X15959477Y-15187903D01*
X15959477Y-15147903D02*
X15919477Y-15187903D01*
X15926120Y-10551480D02*
X15966120Y-10591480D01*
X15966120Y-10551480D02*
X15926120Y-10591480D01*
X15926293Y-11928073D02*
X15966293Y-11968073D01*
X15966293Y-11928073D02*
X15926293Y-11968073D01*
X15968060Y-12657140D02*
X16008060Y-12697140D01*
X16008060Y-12657140D02*
X15968060Y-12697140D01*
X15969300Y-10147620D02*
X16009300Y-10187620D01*
X16009300Y-10147620D02*
X15969300Y-10187620D01*
X15976920Y-9964740D02*
X16016920Y-10004740D01*
X16016920Y-9964740D02*
X15976920Y-10004740D01*
X15982000Y-14666280D02*
X16022000Y-14706280D01*
X16022000Y-14666280D02*
X15982000Y-14706280D01*
X15992160Y-12956860D02*
X16032160Y-12996860D01*
X16032160Y-12956860D02*
X15992160Y-12996860D01*
X15993723Y-15073657D02*
X16033723Y-15113657D01*
X16033723Y-15073657D02*
X15993723Y-15113657D01*
X16002320Y-11890060D02*
X16042320Y-11930060D01*
X16042320Y-11890060D02*
X16002320Y-11930060D01*
X16002320Y-11892600D02*
X16042320Y-11932600D01*
X16042320Y-11892600D02*
X16002320Y-11932600D01*
X16073440Y-13690920D02*
X16113440Y-13730920D01*
X16113440Y-13690920D02*
X16073440Y-13730920D01*
X16096300Y-11069640D02*
X16136300Y-11109640D01*
X16136300Y-11069640D02*
X16096300Y-11109640D01*
X16106460Y-11613200D02*
X16146460Y-11653200D01*
X16146460Y-11613200D02*
X16106460Y-11653200D01*
X16108927Y-13320007D02*
X16148927Y-13360007D01*
X16148927Y-13320007D02*
X16108927Y-13360007D01*
X16116620Y-14838690D02*
X16156620Y-14878690D01*
X16156620Y-14838690D02*
X16116620Y-14878690D01*
X16130843Y-14119137D02*
X16170843Y-14159137D01*
X16170843Y-14119137D02*
X16130843Y-14159137D01*
X16134400Y-10648000D02*
X16174400Y-10688000D01*
X16174400Y-10648000D02*
X16134400Y-10688000D01*
X16141000Y-14390920D02*
X16181000Y-14430920D01*
X16181000Y-14390920D02*
X16141000Y-14430920D01*
X16183153Y-13433446D02*
X16223153Y-13473446D01*
X16223153Y-13433446D02*
X16183153Y-13473446D01*
X16189905Y-12272980D02*
X16229905Y-12312980D01*
X16229905Y-12272980D02*
X16189905Y-12312980D01*
X16189905Y-12472340D02*
X16229905Y-12512340D01*
X16229905Y-12472340D02*
X16189905Y-12512340D01*
X16197900Y-12372660D02*
X16237900Y-12412660D01*
X16237900Y-12372660D02*
X16197900Y-12412660D01*
X16208125Y-13307372D02*
X16248125Y-13347372D01*
X16248125Y-13307372D02*
X16208125Y-13347372D01*
X16236000Y-11764580D02*
X16276000Y-11804580D01*
X16276000Y-11764580D02*
X16236000Y-11804580D01*
X16241080Y-15303820D02*
X16281080Y-15343820D01*
X16281080Y-15303820D02*
X16241080Y-15343820D01*
X16252583Y-13204583D02*
X16292583Y-13244583D01*
X16292583Y-13204583D02*
X16252583Y-13244583D01*
X16271820Y-14832500D02*
X16311820Y-14872500D01*
X16311820Y-14832500D02*
X16271820Y-14872500D01*
X16281720Y-11280460D02*
X16321720Y-11320460D01*
X16321720Y-11280460D02*
X16281720Y-11320460D01*
X16322360Y-12621580D02*
X16362360Y-12661580D01*
X16362360Y-12621580D02*
X16322360Y-12661580D01*
X16331000Y-14108980D02*
X16371000Y-14148980D01*
X16371000Y-14108980D02*
X16331000Y-14148980D01*
X16331000Y-14390920D02*
X16371000Y-14430920D01*
X16371000Y-14390920D02*
X16331000Y-14430920D01*
X16331000Y-14672860D02*
X16371000Y-14712860D01*
X16371000Y-14672860D02*
X16331000Y-14712860D01*
X16396020Y-13315000D02*
X16436020Y-13355000D01*
X16436020Y-13315000D02*
X16396020Y-13355000D01*
X16411260Y-12273600D02*
X16451260Y-12313600D01*
X16451260Y-12273600D02*
X16411260Y-12313600D01*
X16413800Y-9957120D02*
X16453800Y-9997120D01*
X16453800Y-9957120D02*
X16413800Y-9997120D01*
X16417780Y-12467660D02*
X16457780Y-12507660D01*
X16457780Y-12467660D02*
X16417780Y-12507660D01*
X16444030Y-12370120D02*
X16484030Y-12410120D01*
X16484030Y-12370120D02*
X16444030Y-12410120D01*
X16454440Y-11056940D02*
X16494440Y-11096940D01*
X16494440Y-11056940D02*
X16454440Y-11096940D01*
X16459106Y-11501026D02*
X16499106Y-11541026D01*
X16499106Y-11501026D02*
X16459106Y-11541026D01*
X16462060Y-10179400D02*
X16502060Y-10219400D01*
X16502060Y-10179400D02*
X16462060Y-10219400D01*
X16462060Y-13012740D02*
X16502060Y-13052740D01*
X16502060Y-13012740D02*
X16462060Y-13052740D01*
X16482380Y-13210860D02*
X16522380Y-13250860D01*
X16522380Y-13210860D02*
X16482380Y-13250860D01*
X16487460Y-13948700D02*
X16527460Y-13988700D01*
X16527460Y-13948700D02*
X16487460Y-13988700D01*
X16487460Y-14245880D02*
X16527460Y-14285880D01*
X16527460Y-14245880D02*
X16487460Y-14285880D01*
X16487460Y-14543060D02*
X16527460Y-14583060D01*
X16527460Y-14543060D02*
X16487460Y-14583060D01*
X16490000Y-14104940D02*
X16530000Y-14144940D01*
X16530000Y-14104940D02*
X16490000Y-14144940D01*
X16500160Y-14717080D02*
X16540160Y-14757080D01*
X16540160Y-14717080D02*
X16500160Y-14757080D01*
X16507780Y-12923840D02*
X16547780Y-12963840D01*
X16547780Y-12923840D02*
X16507780Y-12963840D01*
X16510320Y-13751880D02*
X16550320Y-13791880D01*
X16550320Y-13751880D02*
X16510320Y-13791880D01*
X16517940Y-10010460D02*
X16557940Y-10050460D01*
X16557940Y-10010460D02*
X16517940Y-10050460D01*
X16525670Y-13523830D02*
X16565670Y-13563830D01*
X16565670Y-13523830D02*
X16525670Y-13563830D01*
X16566200Y-12166920D02*
X16606200Y-12206920D01*
X16606200Y-12166920D02*
X16566200Y-12206920D01*
X16566200Y-12166920D02*
X16606200Y-12206920D01*
X16606200Y-12166920D02*
X16566200Y-12206920D01*
X16573820Y-14404660D02*
X16613820Y-14444660D01*
X16613820Y-14404660D02*
X16573820Y-14444660D01*
X16586520Y-12392980D02*
X16626520Y-12432980D01*
X16626520Y-12392980D02*
X16586520Y-12432980D01*
X16703360Y-10216200D02*
X16743360Y-10256200D01*
X16743360Y-10216200D02*
X16703360Y-10256200D01*
X16710980Y-10376220D02*
X16750980Y-10416220D01*
X16750980Y-10376220D02*
X16710980Y-10416220D01*
X16715670Y-13751330D02*
X16755670Y-13791330D01*
X16755670Y-13751330D02*
X16715670Y-13791330D01*
X16715670Y-13751330D02*
X16755670Y-13791330D01*
X16755670Y-13751330D02*
X16715670Y-13791330D01*
X16733840Y-13523830D02*
X16773840Y-13563830D01*
X16773840Y-13523830D02*
X16733840Y-13563830D01*
X16736380Y-13373420D02*
X16776380Y-13413420D01*
X16776380Y-13373420D02*
X16736380Y-13413420D01*
X16744000Y-10523540D02*
X16784000Y-10563540D01*
X16784000Y-10523540D02*
X16744000Y-10563540D01*
X16761780Y-14414820D02*
X16801780Y-14454820D01*
X16801780Y-14414820D02*
X16761780Y-14454820D01*
X16782100Y-14252260D02*
X16822100Y-14292260D01*
X16822100Y-14252260D02*
X16782100Y-14292260D01*
X16792260Y-14925360D02*
X16832260Y-14965360D01*
X16832260Y-14925360D02*
X16792260Y-14965360D01*
X16815120Y-11262680D02*
X16855120Y-11302680D01*
X16855120Y-11262680D02*
X16815120Y-11302680D01*
X16815120Y-12733340D02*
X16855120Y-12773340D01*
X16855120Y-12733340D02*
X16815120Y-12773340D01*
X16820200Y-13048300D02*
X16860200Y-13088300D01*
X16860200Y-13048300D02*
X16820200Y-13088300D01*
X16825280Y-12055160D02*
X16865280Y-12095160D01*
X16865280Y-12055160D02*
X16825280Y-12095160D01*
X16835440Y-12481880D02*
X16875440Y-12521880D01*
X16875440Y-12481880D02*
X16835440Y-12521880D01*
X16876080Y-13736640D02*
X16916080Y-13776640D01*
X16916080Y-13736640D02*
X16876080Y-13776640D01*
X16881160Y-11526840D02*
X16921160Y-11566840D01*
X16921160Y-11526840D02*
X16881160Y-11566840D01*
X16883700Y-14668820D02*
X16923700Y-14708820D01*
X16923700Y-14668820D02*
X16883700Y-14708820D01*
X16888780Y-14041440D02*
X16928780Y-14081440D01*
X16928780Y-14041440D02*
X16888780Y-14081440D01*
X16898940Y-14221780D02*
X16938940Y-14261780D01*
X16938940Y-14221780D02*
X16898940Y-14261780D01*
X16906560Y-10084120D02*
X16946560Y-10124120D01*
X16946560Y-10084120D02*
X16906560Y-10124120D01*
X16911640Y-15395260D02*
X16951640Y-15435260D01*
X16951640Y-15395260D02*
X16911640Y-15435260D01*
X16921800Y-12550460D02*
X16961800Y-12590460D01*
X16961800Y-12550460D02*
X16921800Y-12590460D01*
X16998000Y-11933240D02*
X17038000Y-11973240D01*
X17038000Y-11933240D02*
X16998000Y-11973240D01*
X16998000Y-12057700D02*
X17038000Y-12097700D01*
X17038000Y-12057700D02*
X16998000Y-12097700D01*
X17000540Y-11681780D02*
X17040540Y-11721780D01*
X17040540Y-11681780D02*
X17000540Y-11721780D01*
X17000540Y-14447840D02*
X17040540Y-14487840D01*
X17040540Y-14447840D02*
X17000540Y-14487840D01*
X17000820Y-12181360D02*
X17040820Y-12221360D01*
X17040820Y-12181360D02*
X17000820Y-12221360D01*
X17000820Y-12314060D02*
X17040820Y-12354060D01*
X17040820Y-12314060D02*
X17000820Y-12354060D01*
X17001120Y-13251960D02*
X17041120Y-13291960D01*
X17041120Y-13251960D02*
X17001120Y-13291960D01*
X17001120Y-13376960D02*
X17041120Y-13416960D01*
X17041120Y-13376960D02*
X17001120Y-13416960D01*
X17001120Y-13501960D02*
X17041120Y-13541960D01*
X17041120Y-13501960D02*
X17001120Y-13541960D01*
X17001120Y-13626960D02*
X17041120Y-13666960D01*
X17041120Y-13626960D02*
X17001120Y-13666960D01*
X17003080Y-12428540D02*
X17043080Y-12468540D01*
X17043080Y-12428540D02*
X17003080Y-12468540D01*
X17003080Y-14325920D02*
X17043080Y-14365920D01*
X17043080Y-14325920D02*
X17003080Y-14365920D01*
X17005620Y-11803700D02*
X17045620Y-11843700D01*
X17045620Y-11803700D02*
X17005620Y-11843700D01*
X17115860Y-15405420D02*
X17155860Y-15445420D01*
X17155860Y-15405420D02*
X17115860Y-15445420D01*
X17145320Y-13126960D02*
X17185320Y-13166960D01*
X17185320Y-13126960D02*
X17145320Y-13166960D01*
X17145320Y-14127800D02*
X17185320Y-14167800D01*
X17185320Y-14127800D02*
X17145320Y-14167800D01*
X17150400Y-14772960D02*
X17190400Y-14812960D01*
X17190400Y-14772960D02*
X17150400Y-14812960D01*
X17170720Y-14907580D02*
X17210720Y-14947580D01*
X17210720Y-14907580D02*
X17170720Y-14947580D01*
X17188500Y-14635800D02*
X17228500Y-14675800D01*
X17228500Y-14635800D02*
X17188500Y-14675800D01*
X17193580Y-10482900D02*
X17233580Y-10522900D01*
X17233580Y-10482900D02*
X17193580Y-10522900D01*
X17198660Y-10701340D02*
X17238660Y-10741340D01*
X17238660Y-10701340D02*
X17198660Y-10741340D01*
X17218980Y-10081580D02*
X17258980Y-10121580D01*
X17258980Y-10081580D02*
X17218980Y-10121580D01*
X17218980Y-11300780D02*
X17258980Y-11340780D01*
X17258980Y-11300780D02*
X17218980Y-11340780D01*
X17277400Y-12944160D02*
X17317400Y-12984160D01*
X17317400Y-12944160D02*
X17277400Y-12984160D01*
X17290100Y-11498900D02*
X17330100Y-11538900D01*
X17330100Y-11498900D02*
X17290100Y-11538900D01*
X17290100Y-12743500D02*
X17330100Y-12783500D01*
X17330100Y-12743500D02*
X17290100Y-12783500D01*
X17292640Y-12405680D02*
X17332640Y-12445680D01*
X17332640Y-12405680D02*
X17292640Y-12445680D01*
X17315500Y-14150660D02*
X17355500Y-14190660D01*
X17355500Y-14150660D02*
X17315500Y-14190660D01*
X17384080Y-13957620D02*
X17424080Y-13997620D01*
X17424080Y-13957620D02*
X17384080Y-13997620D01*
X17419640Y-13675680D02*
X17459640Y-13715680D01*
X17459640Y-13675680D02*
X17419640Y-13715680D01*
X17434880Y-14630720D02*
X17474880Y-14670720D01*
X17474880Y-14630720D02*
X17434880Y-14670720D01*
X17470440Y-10960420D02*
X17510440Y-11000420D01*
X17510440Y-10960420D02*
X17470440Y-11000420D01*
X16755860Y-15153640D02*
G75*
G02*
X16690860Y-15153640I-32500J0D01*
G01*
X16690860Y-15153640D02*
G75*
G02*
X16755860Y-15153640I32500J0D01*
G01*
X16882860Y-15153640D02*
G75*
G02*
X16817860Y-15153640I-32500J0D01*
G01*
X16817860Y-15153640D02*
G75*
G02*
X16882860Y-15153640I32500J0D01*
G01*
X17009860Y-15153640D02*
G75*
G02*
X16944860Y-15153640I-32500J0D01*
G01*
X16944860Y-15153640D02*
G75*
G02*
X17009860Y-15153640I32500J0D01*
G01*
X17136860Y-15153640D02*
G75*
G02*
X17071860Y-15153640I-32500J0D01*
G01*
X17071860Y-15153640D02*
G75*
G02*
X17136860Y-15153640I32500J0D01*
G01*
X17263860Y-15153640D02*
G75*
G02*
X17198860Y-15153640I-32500J0D01*
G01*
X17198860Y-15153640D02*
G75*
G02*
X17263860Y-15153640I32500J0D01*
G01*
X17390860Y-15153640D02*
G75*
G02*
X17325860Y-15153640I-32500J0D01*
G01*
X17325860Y-15153640D02*
G75*
G02*
X17390860Y-15153640I32500J0D01*
G01*
X12352700Y-15195540D02*
X12352700Y-15265540D01*
X12317700Y-15230540D02*
X12387700Y-15230540D01*
X12352700Y-15625540D02*
X12352700Y-15695540D01*
X12317700Y-15660540D02*
X12387700Y-15660540D01*
X12832700Y-15195540D02*
X12832700Y-15265540D01*
X12797700Y-15230540D02*
X12867700Y-15230540D01*
X12832700Y-15625540D02*
X12832700Y-15695540D01*
X12797700Y-15660540D02*
X12867700Y-15660540D01*
D11*
X11815317Y-16143224D02*
X11815317Y-15943224D01*
X11815317Y-15943224D02*
X11862936Y-15943224D01*
X11862936Y-15943224D02*
X11891507Y-15952748D01*
X11891507Y-15952748D02*
X11910555Y-15971795D01*
X11910555Y-15971795D02*
X11920079Y-15990843D01*
X11920079Y-15990843D02*
X11929602Y-16028938D01*
X11929602Y-16028938D02*
X11929602Y-16057509D01*
X11929602Y-16057509D02*
X11920079Y-16095605D01*
X11920079Y-16095605D02*
X11910555Y-16114652D01*
X11910555Y-16114652D02*
X11891507Y-16133700D01*
X11891507Y-16133700D02*
X11862936Y-16143224D01*
X11862936Y-16143224D02*
X11815317Y-16143224D01*
X12015317Y-16143224D02*
X12015317Y-16009890D01*
X12015317Y-16047986D02*
X12024841Y-16028938D01*
X12024841Y-16028938D02*
X12034364Y-16019414D01*
X12034364Y-16019414D02*
X12053412Y-16009890D01*
X12053412Y-16009890D02*
X12072460Y-16009890D01*
X12139126Y-16143224D02*
X12139126Y-16009890D01*
X12139126Y-15943224D02*
X12129602Y-15952748D01*
X12129602Y-15952748D02*
X12139126Y-15962271D01*
X12139126Y-15962271D02*
X12148650Y-15952748D01*
X12148650Y-15952748D02*
X12139126Y-15943224D01*
X12139126Y-15943224D02*
X12139126Y-15962271D01*
X12262936Y-16143224D02*
X12243888Y-16133700D01*
X12243888Y-16133700D02*
X12234364Y-16114652D01*
X12234364Y-16114652D02*
X12234364Y-15943224D01*
X12367698Y-16143224D02*
X12348650Y-16133700D01*
X12348650Y-16133700D02*
X12339126Y-16114652D01*
X12339126Y-16114652D02*
X12339126Y-15943224D01*
X12596269Y-16143224D02*
X12596269Y-15943224D01*
X12596269Y-15943224D02*
X12662936Y-16086081D01*
X12662936Y-16086081D02*
X12729602Y-15943224D01*
X12729602Y-15943224D02*
X12729602Y-16143224D01*
X12910555Y-16143224D02*
X12910555Y-16038462D01*
X12910555Y-16038462D02*
X12901031Y-16019414D01*
X12901031Y-16019414D02*
X12881983Y-16009890D01*
X12881983Y-16009890D02*
X12843888Y-16009890D01*
X12843888Y-16009890D02*
X12824841Y-16019414D01*
X12910555Y-16133700D02*
X12891507Y-16143224D01*
X12891507Y-16143224D02*
X12843888Y-16143224D01*
X12843888Y-16143224D02*
X12824841Y-16133700D01*
X12824841Y-16133700D02*
X12815317Y-16114652D01*
X12815317Y-16114652D02*
X12815317Y-16095605D01*
X12815317Y-16095605D02*
X12824841Y-16076557D01*
X12824841Y-16076557D02*
X12843888Y-16067033D01*
X12843888Y-16067033D02*
X12891507Y-16067033D01*
X12891507Y-16067033D02*
X12910555Y-16057509D01*
X13005793Y-16009890D02*
X13005793Y-16209890D01*
X13005793Y-16019414D02*
X13024841Y-16009890D01*
X13024841Y-16009890D02*
X13062936Y-16009890D01*
X13062936Y-16009890D02*
X13081983Y-16019414D01*
X13081983Y-16019414D02*
X13091507Y-16028938D01*
X13091507Y-16028938D02*
X13101031Y-16047986D01*
X13101031Y-16047986D02*
X13101031Y-16105128D01*
X13101031Y-16105128D02*
X13091507Y-16124176D01*
X13091507Y-16124176D02*
X13081983Y-16133700D01*
X13081983Y-16133700D02*
X13062936Y-16143224D01*
X13062936Y-16143224D02*
X13024841Y-16143224D01*
X13024841Y-16143224D02*
X13005793Y-16133700D01*
X13186745Y-16124176D02*
X13196269Y-16133700D01*
X13196269Y-16133700D02*
X13186745Y-16143224D01*
X13186745Y-16143224D02*
X13177222Y-16133700D01*
X13177222Y-16133700D02*
X13186745Y-16124176D01*
X13186745Y-16124176D02*
X13186745Y-16143224D01*
X13186745Y-16019414D02*
X13196269Y-16028938D01*
X13196269Y-16028938D02*
X13186745Y-16038462D01*
X13186745Y-16038462D02*
X13177222Y-16028938D01*
X13177222Y-16028938D02*
X13186745Y-16019414D01*
X13186745Y-16019414D02*
X13186745Y-16038462D01*
D10*
X11514540Y-16451740D02*
X11554540Y-16491740D01*
X11554540Y-16451740D02*
X11514540Y-16491740D01*
D11*
X11853412Y-16363224D02*
X11872460Y-16363224D01*
X11872460Y-16363224D02*
X11891507Y-16372748D01*
X11891507Y-16372748D02*
X11901031Y-16382271D01*
X11901031Y-16382271D02*
X11910555Y-16401319D01*
X11910555Y-16401319D02*
X11920079Y-16439414D01*
X11920079Y-16439414D02*
X11920079Y-16487033D01*
X11920079Y-16487033D02*
X11910555Y-16525128D01*
X11910555Y-16525128D02*
X11901031Y-16544176D01*
X11901031Y-16544176D02*
X11891507Y-16553700D01*
X11891507Y-16553700D02*
X11872460Y-16563224D01*
X11872460Y-16563224D02*
X11853412Y-16563224D01*
X11853412Y-16563224D02*
X11834364Y-16553700D01*
X11834364Y-16553700D02*
X11824841Y-16544176D01*
X11824841Y-16544176D02*
X11815317Y-16525128D01*
X11815317Y-16525128D02*
X11805793Y-16487033D01*
X11805793Y-16487033D02*
X11805793Y-16439414D01*
X11805793Y-16439414D02*
X11815317Y-16401319D01*
X11815317Y-16401319D02*
X11824841Y-16382271D01*
X11824841Y-16382271D02*
X11834364Y-16372748D01*
X11834364Y-16372748D02*
X11853412Y-16363224D01*
X12005793Y-16544176D02*
X12015317Y-16553700D01*
X12015317Y-16553700D02*
X12005793Y-16563224D01*
X12005793Y-16563224D02*
X11996269Y-16553700D01*
X11996269Y-16553700D02*
X12005793Y-16544176D01*
X12005793Y-16544176D02*
X12005793Y-16563224D01*
X12186745Y-16429890D02*
X12186745Y-16563224D01*
X12139126Y-16353700D02*
X12091507Y-16496557D01*
X12091507Y-16496557D02*
X12215317Y-16496557D01*
X12329602Y-16363224D02*
X12348650Y-16363224D01*
X12348650Y-16363224D02*
X12367698Y-16372748D01*
X12367698Y-16372748D02*
X12377222Y-16382271D01*
X12377222Y-16382271D02*
X12386745Y-16401319D01*
X12386745Y-16401319D02*
X12396269Y-16439414D01*
X12396269Y-16439414D02*
X12396269Y-16487033D01*
X12396269Y-16487033D02*
X12386745Y-16525128D01*
X12386745Y-16525128D02*
X12377222Y-16544176D01*
X12377222Y-16544176D02*
X12367698Y-16553700D01*
X12367698Y-16553700D02*
X12348650Y-16563224D01*
X12348650Y-16563224D02*
X12329602Y-16563224D01*
X12329602Y-16563224D02*
X12310555Y-16553700D01*
X12310555Y-16553700D02*
X12301031Y-16544176D01*
X12301031Y-16544176D02*
X12291507Y-16525128D01*
X12291507Y-16525128D02*
X12281983Y-16487033D01*
X12281983Y-16487033D02*
X12281983Y-16439414D01*
X12281983Y-16439414D02*
X12291507Y-16401319D01*
X12291507Y-16401319D02*
X12301031Y-16382271D01*
X12301031Y-16382271D02*
X12310555Y-16372748D01*
X12310555Y-16372748D02*
X12329602Y-16363224D01*
X12520079Y-16363224D02*
X12539126Y-16363224D01*
X12539126Y-16363224D02*
X12558174Y-16372748D01*
X12558174Y-16372748D02*
X12567698Y-16382271D01*
X12567698Y-16382271D02*
X12577222Y-16401319D01*
X12577222Y-16401319D02*
X12586745Y-16439414D01*
X12586745Y-16439414D02*
X12586745Y-16487033D01*
X12586745Y-16487033D02*
X12577222Y-16525128D01*
X12577222Y-16525128D02*
X12567698Y-16544176D01*
X12567698Y-16544176D02*
X12558174Y-16553700D01*
X12558174Y-16553700D02*
X12539126Y-16563224D01*
X12539126Y-16563224D02*
X12520079Y-16563224D01*
X12520079Y-16563224D02*
X12501031Y-16553700D01*
X12501031Y-16553700D02*
X12491507Y-16544176D01*
X12491507Y-16544176D02*
X12481983Y-16525128D01*
X12481983Y-16525128D02*
X12472460Y-16487033D01*
X12472460Y-16487033D02*
X12472460Y-16439414D01*
X12472460Y-16439414D02*
X12481983Y-16401319D01*
X12481983Y-16401319D02*
X12491507Y-16382271D01*
X12491507Y-16382271D02*
X12501031Y-16372748D01*
X12501031Y-16372748D02*
X12520079Y-16363224D01*
X12672460Y-16563224D02*
X12672460Y-16429890D01*
X12672460Y-16448938D02*
X12681983Y-16439414D01*
X12681983Y-16439414D02*
X12701031Y-16429890D01*
X12701031Y-16429890D02*
X12729603Y-16429890D01*
X12729603Y-16429890D02*
X12748650Y-16439414D01*
X12748650Y-16439414D02*
X12758174Y-16458462D01*
X12758174Y-16458462D02*
X12758174Y-16563224D01*
X12758174Y-16458462D02*
X12767698Y-16439414D01*
X12767698Y-16439414D02*
X12786745Y-16429890D01*
X12786745Y-16429890D02*
X12815317Y-16429890D01*
X12815317Y-16429890D02*
X12834364Y-16439414D01*
X12834364Y-16439414D02*
X12843888Y-16458462D01*
X12843888Y-16458462D02*
X12843888Y-16563224D01*
X12939126Y-16563224D02*
X12939126Y-16429890D01*
X12939126Y-16448938D02*
X12948650Y-16439414D01*
X12948650Y-16439414D02*
X12967698Y-16429890D01*
X12967698Y-16429890D02*
X12996269Y-16429890D01*
X12996269Y-16429890D02*
X13015317Y-16439414D01*
X13015317Y-16439414D02*
X13024841Y-16458462D01*
X13024841Y-16458462D02*
X13024841Y-16563224D01*
X13024841Y-16458462D02*
X13034364Y-16439414D01*
X13034364Y-16439414D02*
X13053412Y-16429890D01*
X13053412Y-16429890D02*
X13081983Y-16429890D01*
X13081983Y-16429890D02*
X13101031Y-16439414D01*
X13101031Y-16439414D02*
X13110555Y-16458462D01*
X13110555Y-16458462D02*
X13110555Y-16563224D01*
X13501031Y-16353700D02*
X13329603Y-16610843D01*
X13758174Y-16363224D02*
X13777222Y-16363224D01*
X13777222Y-16363224D02*
X13796269Y-16372748D01*
X13796269Y-16372748D02*
X13805793Y-16382271D01*
X13805793Y-16382271D02*
X13815317Y-16401319D01*
X13815317Y-16401319D02*
X13824841Y-16439414D01*
X13824841Y-16439414D02*
X13824841Y-16487033D01*
X13824841Y-16487033D02*
X13815317Y-16525128D01*
X13815317Y-16525128D02*
X13805793Y-16544176D01*
X13805793Y-16544176D02*
X13796269Y-16553700D01*
X13796269Y-16553700D02*
X13777222Y-16563224D01*
X13777222Y-16563224D02*
X13758174Y-16563224D01*
X13758174Y-16563224D02*
X13739126Y-16553700D01*
X13739126Y-16553700D02*
X13729603Y-16544176D01*
X13729603Y-16544176D02*
X13720079Y-16525128D01*
X13720079Y-16525128D02*
X13710555Y-16487033D01*
X13710555Y-16487033D02*
X13710555Y-16439414D01*
X13710555Y-16439414D02*
X13720079Y-16401319D01*
X13720079Y-16401319D02*
X13729603Y-16382271D01*
X13729603Y-16382271D02*
X13739126Y-16372748D01*
X13739126Y-16372748D02*
X13758174Y-16363224D01*
X13910555Y-16544176D02*
X13920079Y-16553700D01*
X13920079Y-16553700D02*
X13910555Y-16563224D01*
X13910555Y-16563224D02*
X13901031Y-16553700D01*
X13901031Y-16553700D02*
X13910555Y-16544176D01*
X13910555Y-16544176D02*
X13910555Y-16563224D01*
X14043888Y-16363224D02*
X14062936Y-16363224D01*
X14062936Y-16363224D02*
X14081984Y-16372748D01*
X14081984Y-16372748D02*
X14091507Y-16382271D01*
X14091507Y-16382271D02*
X14101031Y-16401319D01*
X14101031Y-16401319D02*
X14110555Y-16439414D01*
X14110555Y-16439414D02*
X14110555Y-16487033D01*
X14110555Y-16487033D02*
X14101031Y-16525128D01*
X14101031Y-16525128D02*
X14091507Y-16544176D01*
X14091507Y-16544176D02*
X14081984Y-16553700D01*
X14081984Y-16553700D02*
X14062936Y-16563224D01*
X14062936Y-16563224D02*
X14043888Y-16563224D01*
X14043888Y-16563224D02*
X14024841Y-16553700D01*
X14024841Y-16553700D02*
X14015317Y-16544176D01*
X14015317Y-16544176D02*
X14005793Y-16525128D01*
X14005793Y-16525128D02*
X13996269Y-16487033D01*
X13996269Y-16487033D02*
X13996269Y-16439414D01*
X13996269Y-16439414D02*
X14005793Y-16401319D01*
X14005793Y-16401319D02*
X14015317Y-16382271D01*
X14015317Y-16382271D02*
X14024841Y-16372748D01*
X14024841Y-16372748D02*
X14043888Y-16363224D01*
X14301031Y-16563224D02*
X14186746Y-16563224D01*
X14243888Y-16563224D02*
X14243888Y-16363224D01*
X14243888Y-16363224D02*
X14224841Y-16391795D01*
X14224841Y-16391795D02*
X14205793Y-16410843D01*
X14205793Y-16410843D02*
X14186746Y-16420367D01*
X14481984Y-16363224D02*
X14386746Y-16363224D01*
X14386746Y-16363224D02*
X14377222Y-16458462D01*
X14377222Y-16458462D02*
X14386746Y-16448938D01*
X14386746Y-16448938D02*
X14405793Y-16439414D01*
X14405793Y-16439414D02*
X14453412Y-16439414D01*
X14453412Y-16439414D02*
X14472460Y-16448938D01*
X14472460Y-16448938D02*
X14481984Y-16458462D01*
X14481984Y-16458462D02*
X14491507Y-16477509D01*
X14491507Y-16477509D02*
X14491507Y-16525128D01*
X14491507Y-16525128D02*
X14481984Y-16544176D01*
X14481984Y-16544176D02*
X14472460Y-16553700D01*
X14472460Y-16553700D02*
X14453412Y-16563224D01*
X14453412Y-16563224D02*
X14405793Y-16563224D01*
X14405793Y-16563224D02*
X14386746Y-16553700D01*
X14386746Y-16553700D02*
X14377222Y-16544176D01*
X14558174Y-16363224D02*
X14691507Y-16363224D01*
X14691507Y-16363224D02*
X14605793Y-16563224D01*
X14758174Y-16363224D02*
X14758174Y-16401319D01*
X14834365Y-16363224D02*
X14834365Y-16401319D01*
X15129603Y-16639414D02*
X15120079Y-16629890D01*
X15120079Y-16629890D02*
X15101031Y-16601319D01*
X15101031Y-16601319D02*
X15091508Y-16582271D01*
X15091508Y-16582271D02*
X15081984Y-16553700D01*
X15081984Y-16553700D02*
X15072460Y-16506081D01*
X15072460Y-16506081D02*
X15072460Y-16467986D01*
X15072460Y-16467986D02*
X15081984Y-16420367D01*
X15081984Y-16420367D02*
X15091508Y-16391795D01*
X15091508Y-16391795D02*
X15101031Y-16372748D01*
X15101031Y-16372748D02*
X15120079Y-16344176D01*
X15120079Y-16344176D02*
X15129603Y-16334652D01*
X15186746Y-16363224D02*
X15310555Y-16363224D01*
X15310555Y-16363224D02*
X15243888Y-16439414D01*
X15243888Y-16439414D02*
X15272460Y-16439414D01*
X15272460Y-16439414D02*
X15291508Y-16448938D01*
X15291508Y-16448938D02*
X15301031Y-16458462D01*
X15301031Y-16458462D02*
X15310555Y-16477509D01*
X15310555Y-16477509D02*
X15310555Y-16525128D01*
X15310555Y-16525128D02*
X15301031Y-16544176D01*
X15301031Y-16544176D02*
X15291508Y-16553700D01*
X15291508Y-16553700D02*
X15272460Y-16563224D01*
X15272460Y-16563224D02*
X15215317Y-16563224D01*
X15215317Y-16563224D02*
X15196269Y-16553700D01*
X15196269Y-16553700D02*
X15186746Y-16544176D01*
X15405793Y-16563224D02*
X15443888Y-16563224D01*
X15443888Y-16563224D02*
X15462936Y-16553700D01*
X15462936Y-16553700D02*
X15472460Y-16544176D01*
X15472460Y-16544176D02*
X15491508Y-16515605D01*
X15491508Y-16515605D02*
X15501031Y-16477509D01*
X15501031Y-16477509D02*
X15501031Y-16401319D01*
X15501031Y-16401319D02*
X15491508Y-16382271D01*
X15491508Y-16382271D02*
X15481984Y-16372748D01*
X15481984Y-16372748D02*
X15462936Y-16363224D01*
X15462936Y-16363224D02*
X15424841Y-16363224D01*
X15424841Y-16363224D02*
X15405793Y-16372748D01*
X15405793Y-16372748D02*
X15396269Y-16382271D01*
X15396269Y-16382271D02*
X15386746Y-16401319D01*
X15386746Y-16401319D02*
X15386746Y-16448938D01*
X15386746Y-16448938D02*
X15396269Y-16467986D01*
X15396269Y-16467986D02*
X15405793Y-16477509D01*
X15405793Y-16477509D02*
X15424841Y-16487033D01*
X15424841Y-16487033D02*
X15462936Y-16487033D01*
X15462936Y-16487033D02*
X15481984Y-16477509D01*
X15481984Y-16477509D02*
X15491508Y-16467986D01*
X15491508Y-16467986D02*
X15501031Y-16448938D01*
X15681984Y-16363224D02*
X15586746Y-16363224D01*
X15586746Y-16363224D02*
X15577222Y-16458462D01*
X15577222Y-16458462D02*
X15586746Y-16448938D01*
X15586746Y-16448938D02*
X15605793Y-16439414D01*
X15605793Y-16439414D02*
X15653412Y-16439414D01*
X15653412Y-16439414D02*
X15672460Y-16448938D01*
X15672460Y-16448938D02*
X15681984Y-16458462D01*
X15681984Y-16458462D02*
X15691508Y-16477509D01*
X15691508Y-16477509D02*
X15691508Y-16525128D01*
X15691508Y-16525128D02*
X15681984Y-16544176D01*
X15681984Y-16544176D02*
X15672460Y-16553700D01*
X15672460Y-16553700D02*
X15653412Y-16563224D01*
X15653412Y-16563224D02*
X15605793Y-16563224D01*
X15605793Y-16563224D02*
X15586746Y-16553700D01*
X15586746Y-16553700D02*
X15577222Y-16544176D01*
X15929603Y-16563224D02*
X15929603Y-16363224D01*
X16015317Y-16563224D02*
X16015317Y-16458462D01*
X16015317Y-16458462D02*
X16005793Y-16439414D01*
X16005793Y-16439414D02*
X15986746Y-16429890D01*
X15986746Y-16429890D02*
X15958174Y-16429890D01*
X15958174Y-16429890D02*
X15939127Y-16439414D01*
X15939127Y-16439414D02*
X15929603Y-16448938D01*
X16139127Y-16563224D02*
X16120079Y-16553700D01*
X16120079Y-16553700D02*
X16110555Y-16544176D01*
X16110555Y-16544176D02*
X16101031Y-16525128D01*
X16101031Y-16525128D02*
X16101031Y-16467986D01*
X16101031Y-16467986D02*
X16110555Y-16448938D01*
X16110555Y-16448938D02*
X16120079Y-16439414D01*
X16120079Y-16439414D02*
X16139127Y-16429890D01*
X16139127Y-16429890D02*
X16167698Y-16429890D01*
X16167698Y-16429890D02*
X16186746Y-16439414D01*
X16186746Y-16439414D02*
X16196270Y-16448938D01*
X16196270Y-16448938D02*
X16205793Y-16467986D01*
X16205793Y-16467986D02*
X16205793Y-16525128D01*
X16205793Y-16525128D02*
X16196270Y-16544176D01*
X16196270Y-16544176D02*
X16186746Y-16553700D01*
X16186746Y-16553700D02*
X16167698Y-16563224D01*
X16167698Y-16563224D02*
X16139127Y-16563224D01*
X16320079Y-16563224D02*
X16301031Y-16553700D01*
X16301031Y-16553700D02*
X16291508Y-16534652D01*
X16291508Y-16534652D02*
X16291508Y-16363224D01*
X16472460Y-16553700D02*
X16453412Y-16563224D01*
X16453412Y-16563224D02*
X16415317Y-16563224D01*
X16415317Y-16563224D02*
X16396270Y-16553700D01*
X16396270Y-16553700D02*
X16386746Y-16534652D01*
X16386746Y-16534652D02*
X16386746Y-16458462D01*
X16386746Y-16458462D02*
X16396270Y-16439414D01*
X16396270Y-16439414D02*
X16415317Y-16429890D01*
X16415317Y-16429890D02*
X16453412Y-16429890D01*
X16453412Y-16429890D02*
X16472460Y-16439414D01*
X16472460Y-16439414D02*
X16481984Y-16458462D01*
X16481984Y-16458462D02*
X16481984Y-16477509D01*
X16481984Y-16477509D02*
X16386746Y-16496557D01*
X16558174Y-16553700D02*
X16577222Y-16563224D01*
X16577222Y-16563224D02*
X16615317Y-16563224D01*
X16615317Y-16563224D02*
X16634365Y-16553700D01*
X16634365Y-16553700D02*
X16643889Y-16534652D01*
X16643889Y-16534652D02*
X16643889Y-16525128D01*
X16643889Y-16525128D02*
X16634365Y-16506081D01*
X16634365Y-16506081D02*
X16615317Y-16496557D01*
X16615317Y-16496557D02*
X16586746Y-16496557D01*
X16586746Y-16496557D02*
X16567698Y-16487033D01*
X16567698Y-16487033D02*
X16558174Y-16467986D01*
X16558174Y-16467986D02*
X16558174Y-16458462D01*
X16558174Y-16458462D02*
X16567698Y-16439414D01*
X16567698Y-16439414D02*
X16586746Y-16429890D01*
X16586746Y-16429890D02*
X16615317Y-16429890D01*
X16615317Y-16429890D02*
X16634365Y-16439414D01*
X16710555Y-16639414D02*
X16720079Y-16629890D01*
X16720079Y-16629890D02*
X16739127Y-16601319D01*
X16739127Y-16601319D02*
X16748651Y-16582271D01*
X16748651Y-16582271D02*
X16758174Y-16553700D01*
X16758174Y-16553700D02*
X16767698Y-16506081D01*
X16767698Y-16506081D02*
X16767698Y-16467986D01*
X16767698Y-16467986D02*
X16758174Y-16420367D01*
X16758174Y-16420367D02*
X16748651Y-16391795D01*
X16748651Y-16391795D02*
X16739127Y-16372748D01*
X16739127Y-16372748D02*
X16720079Y-16344176D01*
X16720079Y-16344176D02*
X16710555Y-16334652D01*
D10*
X11554540Y-16735740D02*
G75*
G02*
X11489540Y-16735740I-32500J0D01*
G01*
X11489540Y-16735740D02*
G75*
G02*
X11554540Y-16735740I32500J0D01*
G01*
D11*
X11853412Y-16627224D02*
X11872460Y-16627224D01*
X11872460Y-16627224D02*
X11891507Y-16636748D01*
X11891507Y-16636748D02*
X11901031Y-16646271D01*
X11901031Y-16646271D02*
X11910555Y-16665319D01*
X11910555Y-16665319D02*
X11920079Y-16703414D01*
X11920079Y-16703414D02*
X11920079Y-16751033D01*
X11920079Y-16751033D02*
X11910555Y-16789129D01*
X11910555Y-16789129D02*
X11901031Y-16808176D01*
X11901031Y-16808176D02*
X11891507Y-16817700D01*
X11891507Y-16817700D02*
X11872460Y-16827224D01*
X11872460Y-16827224D02*
X11853412Y-16827224D01*
X11853412Y-16827224D02*
X11834364Y-16817700D01*
X11834364Y-16817700D02*
X11824841Y-16808176D01*
X11824841Y-16808176D02*
X11815317Y-16789129D01*
X11815317Y-16789129D02*
X11805793Y-16751033D01*
X11805793Y-16751033D02*
X11805793Y-16703414D01*
X11805793Y-16703414D02*
X11815317Y-16665319D01*
X11815317Y-16665319D02*
X11824841Y-16646271D01*
X11824841Y-16646271D02*
X11834364Y-16636748D01*
X11834364Y-16636748D02*
X11853412Y-16627224D01*
X12005793Y-16808176D02*
X12015317Y-16817700D01*
X12015317Y-16817700D02*
X12005793Y-16827224D01*
X12005793Y-16827224D02*
X11996269Y-16817700D01*
X11996269Y-16817700D02*
X12005793Y-16808176D01*
X12005793Y-16808176D02*
X12005793Y-16827224D01*
X12186745Y-16627224D02*
X12148650Y-16627224D01*
X12148650Y-16627224D02*
X12129602Y-16636748D01*
X12129602Y-16636748D02*
X12120079Y-16646271D01*
X12120079Y-16646271D02*
X12101031Y-16674843D01*
X12101031Y-16674843D02*
X12091507Y-16712938D01*
X12091507Y-16712938D02*
X12091507Y-16789129D01*
X12091507Y-16789129D02*
X12101031Y-16808176D01*
X12101031Y-16808176D02*
X12110555Y-16817700D01*
X12110555Y-16817700D02*
X12129602Y-16827224D01*
X12129602Y-16827224D02*
X12167698Y-16827224D01*
X12167698Y-16827224D02*
X12186745Y-16817700D01*
X12186745Y-16817700D02*
X12196269Y-16808176D01*
X12196269Y-16808176D02*
X12205793Y-16789129D01*
X12205793Y-16789129D02*
X12205793Y-16741509D01*
X12205793Y-16741509D02*
X12196269Y-16722462D01*
X12196269Y-16722462D02*
X12186745Y-16712938D01*
X12186745Y-16712938D02*
X12167698Y-16703414D01*
X12167698Y-16703414D02*
X12129602Y-16703414D01*
X12129602Y-16703414D02*
X12110555Y-16712938D01*
X12110555Y-16712938D02*
X12101031Y-16722462D01*
X12101031Y-16722462D02*
X12091507Y-16741509D01*
X12386745Y-16627224D02*
X12291507Y-16627224D01*
X12291507Y-16627224D02*
X12281983Y-16722462D01*
X12281983Y-16722462D02*
X12291507Y-16712938D01*
X12291507Y-16712938D02*
X12310555Y-16703414D01*
X12310555Y-16703414D02*
X12358174Y-16703414D01*
X12358174Y-16703414D02*
X12377222Y-16712938D01*
X12377222Y-16712938D02*
X12386745Y-16722462D01*
X12386745Y-16722462D02*
X12396269Y-16741509D01*
X12396269Y-16741509D02*
X12396269Y-16789129D01*
X12396269Y-16789129D02*
X12386745Y-16808176D01*
X12386745Y-16808176D02*
X12377222Y-16817700D01*
X12377222Y-16817700D02*
X12358174Y-16827224D01*
X12358174Y-16827224D02*
X12310555Y-16827224D01*
X12310555Y-16827224D02*
X12291507Y-16817700D01*
X12291507Y-16817700D02*
X12281983Y-16808176D01*
X12520079Y-16627224D02*
X12539126Y-16627224D01*
X12539126Y-16627224D02*
X12558174Y-16636748D01*
X12558174Y-16636748D02*
X12567698Y-16646271D01*
X12567698Y-16646271D02*
X12577222Y-16665319D01*
X12577222Y-16665319D02*
X12586745Y-16703414D01*
X12586745Y-16703414D02*
X12586745Y-16751033D01*
X12586745Y-16751033D02*
X12577222Y-16789129D01*
X12577222Y-16789129D02*
X12567698Y-16808176D01*
X12567698Y-16808176D02*
X12558174Y-16817700D01*
X12558174Y-16817700D02*
X12539126Y-16827224D01*
X12539126Y-16827224D02*
X12520079Y-16827224D01*
X12520079Y-16827224D02*
X12501031Y-16817700D01*
X12501031Y-16817700D02*
X12491507Y-16808176D01*
X12491507Y-16808176D02*
X12481983Y-16789129D01*
X12481983Y-16789129D02*
X12472460Y-16751033D01*
X12472460Y-16751033D02*
X12472460Y-16703414D01*
X12472460Y-16703414D02*
X12481983Y-16665319D01*
X12481983Y-16665319D02*
X12491507Y-16646271D01*
X12491507Y-16646271D02*
X12501031Y-16636748D01*
X12501031Y-16636748D02*
X12520079Y-16627224D01*
X12672460Y-16827224D02*
X12672460Y-16693890D01*
X12672460Y-16712938D02*
X12681983Y-16703414D01*
X12681983Y-16703414D02*
X12701031Y-16693890D01*
X12701031Y-16693890D02*
X12729603Y-16693890D01*
X12729603Y-16693890D02*
X12748650Y-16703414D01*
X12748650Y-16703414D02*
X12758174Y-16722462D01*
X12758174Y-16722462D02*
X12758174Y-16827224D01*
X12758174Y-16722462D02*
X12767698Y-16703414D01*
X12767698Y-16703414D02*
X12786745Y-16693890D01*
X12786745Y-16693890D02*
X12815317Y-16693890D01*
X12815317Y-16693890D02*
X12834364Y-16703414D01*
X12834364Y-16703414D02*
X12843888Y-16722462D01*
X12843888Y-16722462D02*
X12843888Y-16827224D01*
X12939126Y-16827224D02*
X12939126Y-16693890D01*
X12939126Y-16712938D02*
X12948650Y-16703414D01*
X12948650Y-16703414D02*
X12967698Y-16693890D01*
X12967698Y-16693890D02*
X12996269Y-16693890D01*
X12996269Y-16693890D02*
X13015317Y-16703414D01*
X13015317Y-16703414D02*
X13024841Y-16722462D01*
X13024841Y-16722462D02*
X13024841Y-16827224D01*
X13024841Y-16722462D02*
X13034364Y-16703414D01*
X13034364Y-16703414D02*
X13053412Y-16693890D01*
X13053412Y-16693890D02*
X13081983Y-16693890D01*
X13081983Y-16693890D02*
X13101031Y-16703414D01*
X13101031Y-16703414D02*
X13110555Y-16722462D01*
X13110555Y-16722462D02*
X13110555Y-16827224D01*
X13501031Y-16617700D02*
X13329603Y-16874843D01*
X13758174Y-16627224D02*
X13777222Y-16627224D01*
X13777222Y-16627224D02*
X13796269Y-16636748D01*
X13796269Y-16636748D02*
X13805793Y-16646271D01*
X13805793Y-16646271D02*
X13815317Y-16665319D01*
X13815317Y-16665319D02*
X13824841Y-16703414D01*
X13824841Y-16703414D02*
X13824841Y-16751033D01*
X13824841Y-16751033D02*
X13815317Y-16789129D01*
X13815317Y-16789129D02*
X13805793Y-16808176D01*
X13805793Y-16808176D02*
X13796269Y-16817700D01*
X13796269Y-16817700D02*
X13777222Y-16827224D01*
X13777222Y-16827224D02*
X13758174Y-16827224D01*
X13758174Y-16827224D02*
X13739126Y-16817700D01*
X13739126Y-16817700D02*
X13729603Y-16808176D01*
X13729603Y-16808176D02*
X13720079Y-16789129D01*
X13720079Y-16789129D02*
X13710555Y-16751033D01*
X13710555Y-16751033D02*
X13710555Y-16703414D01*
X13710555Y-16703414D02*
X13720079Y-16665319D01*
X13720079Y-16665319D02*
X13729603Y-16646271D01*
X13729603Y-16646271D02*
X13739126Y-16636748D01*
X13739126Y-16636748D02*
X13758174Y-16627224D01*
X13910555Y-16808176D02*
X13920079Y-16817700D01*
X13920079Y-16817700D02*
X13910555Y-16827224D01*
X13910555Y-16827224D02*
X13901031Y-16817700D01*
X13901031Y-16817700D02*
X13910555Y-16808176D01*
X13910555Y-16808176D02*
X13910555Y-16827224D01*
X14043888Y-16627224D02*
X14062936Y-16627224D01*
X14062936Y-16627224D02*
X14081984Y-16636748D01*
X14081984Y-16636748D02*
X14091507Y-16646271D01*
X14091507Y-16646271D02*
X14101031Y-16665319D01*
X14101031Y-16665319D02*
X14110555Y-16703414D01*
X14110555Y-16703414D02*
X14110555Y-16751033D01*
X14110555Y-16751033D02*
X14101031Y-16789129D01*
X14101031Y-16789129D02*
X14091507Y-16808176D01*
X14091507Y-16808176D02*
X14081984Y-16817700D01*
X14081984Y-16817700D02*
X14062936Y-16827224D01*
X14062936Y-16827224D02*
X14043888Y-16827224D01*
X14043888Y-16827224D02*
X14024841Y-16817700D01*
X14024841Y-16817700D02*
X14015317Y-16808176D01*
X14015317Y-16808176D02*
X14005793Y-16789129D01*
X14005793Y-16789129D02*
X13996269Y-16751033D01*
X13996269Y-16751033D02*
X13996269Y-16703414D01*
X13996269Y-16703414D02*
X14005793Y-16665319D01*
X14005793Y-16665319D02*
X14015317Y-16646271D01*
X14015317Y-16646271D02*
X14024841Y-16636748D01*
X14024841Y-16636748D02*
X14043888Y-16627224D01*
X14186746Y-16646271D02*
X14196269Y-16636748D01*
X14196269Y-16636748D02*
X14215317Y-16627224D01*
X14215317Y-16627224D02*
X14262936Y-16627224D01*
X14262936Y-16627224D02*
X14281984Y-16636748D01*
X14281984Y-16636748D02*
X14291507Y-16646271D01*
X14291507Y-16646271D02*
X14301031Y-16665319D01*
X14301031Y-16665319D02*
X14301031Y-16684367D01*
X14301031Y-16684367D02*
X14291507Y-16712938D01*
X14291507Y-16712938D02*
X14177222Y-16827224D01*
X14177222Y-16827224D02*
X14301031Y-16827224D01*
X14481984Y-16627224D02*
X14386746Y-16627224D01*
X14386746Y-16627224D02*
X14377222Y-16722462D01*
X14377222Y-16722462D02*
X14386746Y-16712938D01*
X14386746Y-16712938D02*
X14405793Y-16703414D01*
X14405793Y-16703414D02*
X14453412Y-16703414D01*
X14453412Y-16703414D02*
X14472460Y-16712938D01*
X14472460Y-16712938D02*
X14481984Y-16722462D01*
X14481984Y-16722462D02*
X14491507Y-16741509D01*
X14491507Y-16741509D02*
X14491507Y-16789129D01*
X14491507Y-16789129D02*
X14481984Y-16808176D01*
X14481984Y-16808176D02*
X14472460Y-16817700D01*
X14472460Y-16817700D02*
X14453412Y-16827224D01*
X14453412Y-16827224D02*
X14405793Y-16827224D01*
X14405793Y-16827224D02*
X14386746Y-16817700D01*
X14386746Y-16817700D02*
X14377222Y-16808176D01*
X14662936Y-16627224D02*
X14624841Y-16627224D01*
X14624841Y-16627224D02*
X14605793Y-16636748D01*
X14605793Y-16636748D02*
X14596269Y-16646271D01*
X14596269Y-16646271D02*
X14577222Y-16674843D01*
X14577222Y-16674843D02*
X14567698Y-16712938D01*
X14567698Y-16712938D02*
X14567698Y-16789129D01*
X14567698Y-16789129D02*
X14577222Y-16808176D01*
X14577222Y-16808176D02*
X14586746Y-16817700D01*
X14586746Y-16817700D02*
X14605793Y-16827224D01*
X14605793Y-16827224D02*
X14643888Y-16827224D01*
X14643888Y-16827224D02*
X14662936Y-16817700D01*
X14662936Y-16817700D02*
X14672460Y-16808176D01*
X14672460Y-16808176D02*
X14681984Y-16789129D01*
X14681984Y-16789129D02*
X14681984Y-16741509D01*
X14681984Y-16741509D02*
X14672460Y-16722462D01*
X14672460Y-16722462D02*
X14662936Y-16712938D01*
X14662936Y-16712938D02*
X14643888Y-16703414D01*
X14643888Y-16703414D02*
X14605793Y-16703414D01*
X14605793Y-16703414D02*
X14586746Y-16712938D01*
X14586746Y-16712938D02*
X14577222Y-16722462D01*
X14577222Y-16722462D02*
X14567698Y-16741509D01*
X14758174Y-16627224D02*
X14758174Y-16665319D01*
X14834365Y-16627224D02*
X14834365Y-16665319D01*
X15129603Y-16903414D02*
X15120079Y-16893890D01*
X15120079Y-16893890D02*
X15101031Y-16865319D01*
X15101031Y-16865319D02*
X15091508Y-16846271D01*
X15091508Y-16846271D02*
X15081984Y-16817700D01*
X15081984Y-16817700D02*
X15072460Y-16770081D01*
X15072460Y-16770081D02*
X15072460Y-16731986D01*
X15072460Y-16731986D02*
X15081984Y-16684367D01*
X15081984Y-16684367D02*
X15091508Y-16655795D01*
X15091508Y-16655795D02*
X15101031Y-16636748D01*
X15101031Y-16636748D02*
X15120079Y-16608176D01*
X15120079Y-16608176D02*
X15129603Y-16598652D01*
X15291508Y-16627224D02*
X15253412Y-16627224D01*
X15253412Y-16627224D02*
X15234365Y-16636748D01*
X15234365Y-16636748D02*
X15224841Y-16646271D01*
X15224841Y-16646271D02*
X15205793Y-16674843D01*
X15205793Y-16674843D02*
X15196269Y-16712938D01*
X15196269Y-16712938D02*
X15196269Y-16789129D01*
X15196269Y-16789129D02*
X15205793Y-16808176D01*
X15205793Y-16808176D02*
X15215317Y-16817700D01*
X15215317Y-16817700D02*
X15234365Y-16827224D01*
X15234365Y-16827224D02*
X15272460Y-16827224D01*
X15272460Y-16827224D02*
X15291508Y-16817700D01*
X15291508Y-16817700D02*
X15301031Y-16808176D01*
X15301031Y-16808176D02*
X15310555Y-16789129D01*
X15310555Y-16789129D02*
X15310555Y-16741509D01*
X15310555Y-16741509D02*
X15301031Y-16722462D01*
X15301031Y-16722462D02*
X15291508Y-16712938D01*
X15291508Y-16712938D02*
X15272460Y-16703414D01*
X15272460Y-16703414D02*
X15234365Y-16703414D01*
X15234365Y-16703414D02*
X15215317Y-16712938D01*
X15215317Y-16712938D02*
X15205793Y-16722462D01*
X15205793Y-16722462D02*
X15196269Y-16741509D01*
X15548650Y-16827224D02*
X15548650Y-16627224D01*
X15634365Y-16827224D02*
X15634365Y-16722462D01*
X15634365Y-16722462D02*
X15624841Y-16703414D01*
X15624841Y-16703414D02*
X15605793Y-16693890D01*
X15605793Y-16693890D02*
X15577222Y-16693890D01*
X15577222Y-16693890D02*
X15558174Y-16703414D01*
X15558174Y-16703414D02*
X15548650Y-16712938D01*
X15758174Y-16827224D02*
X15739127Y-16817700D01*
X15739127Y-16817700D02*
X15729603Y-16808176D01*
X15729603Y-16808176D02*
X15720079Y-16789129D01*
X15720079Y-16789129D02*
X15720079Y-16731986D01*
X15720079Y-16731986D02*
X15729603Y-16712938D01*
X15729603Y-16712938D02*
X15739127Y-16703414D01*
X15739127Y-16703414D02*
X15758174Y-16693890D01*
X15758174Y-16693890D02*
X15786746Y-16693890D01*
X15786746Y-16693890D02*
X15805793Y-16703414D01*
X15805793Y-16703414D02*
X15815317Y-16712938D01*
X15815317Y-16712938D02*
X15824841Y-16731986D01*
X15824841Y-16731986D02*
X15824841Y-16789129D01*
X15824841Y-16789129D02*
X15815317Y-16808176D01*
X15815317Y-16808176D02*
X15805793Y-16817700D01*
X15805793Y-16817700D02*
X15786746Y-16827224D01*
X15786746Y-16827224D02*
X15758174Y-16827224D01*
X15939127Y-16827224D02*
X15920079Y-16817700D01*
X15920079Y-16817700D02*
X15910555Y-16798652D01*
X15910555Y-16798652D02*
X15910555Y-16627224D01*
X16091508Y-16817700D02*
X16072460Y-16827224D01*
X16072460Y-16827224D02*
X16034365Y-16827224D01*
X16034365Y-16827224D02*
X16015317Y-16817700D01*
X16015317Y-16817700D02*
X16005793Y-16798652D01*
X16005793Y-16798652D02*
X16005793Y-16722462D01*
X16005793Y-16722462D02*
X16015317Y-16703414D01*
X16015317Y-16703414D02*
X16034365Y-16693890D01*
X16034365Y-16693890D02*
X16072460Y-16693890D01*
X16072460Y-16693890D02*
X16091508Y-16703414D01*
X16091508Y-16703414D02*
X16101031Y-16722462D01*
X16101031Y-16722462D02*
X16101031Y-16741509D01*
X16101031Y-16741509D02*
X16005793Y-16760557D01*
X16177222Y-16817700D02*
X16196270Y-16827224D01*
X16196270Y-16827224D02*
X16234365Y-16827224D01*
X16234365Y-16827224D02*
X16253412Y-16817700D01*
X16253412Y-16817700D02*
X16262936Y-16798652D01*
X16262936Y-16798652D02*
X16262936Y-16789129D01*
X16262936Y-16789129D02*
X16253412Y-16770081D01*
X16253412Y-16770081D02*
X16234365Y-16760557D01*
X16234365Y-16760557D02*
X16205793Y-16760557D01*
X16205793Y-16760557D02*
X16186746Y-16751033D01*
X16186746Y-16751033D02*
X16177222Y-16731986D01*
X16177222Y-16731986D02*
X16177222Y-16722462D01*
X16177222Y-16722462D02*
X16186746Y-16703414D01*
X16186746Y-16703414D02*
X16205793Y-16693890D01*
X16205793Y-16693890D02*
X16234365Y-16693890D01*
X16234365Y-16693890D02*
X16253412Y-16703414D01*
X16329603Y-16903414D02*
X16339127Y-16893890D01*
X16339127Y-16893890D02*
X16358174Y-16865319D01*
X16358174Y-16865319D02*
X16367698Y-16846271D01*
X16367698Y-16846271D02*
X16377222Y-16817700D01*
X16377222Y-16817700D02*
X16386746Y-16770081D01*
X16386746Y-16770081D02*
X16386746Y-16731986D01*
X16386746Y-16731986D02*
X16377222Y-16684367D01*
X16377222Y-16684367D02*
X16367698Y-16655795D01*
X16367698Y-16655795D02*
X16358174Y-16636748D01*
X16358174Y-16636748D02*
X16339127Y-16608176D01*
X16339127Y-16608176D02*
X16329603Y-16598652D01*
D10*
X11519540Y-16964740D02*
X11519540Y-17034740D01*
X11484540Y-16999740D02*
X11554540Y-16999740D01*
D11*
X11853412Y-16891224D02*
X11872460Y-16891224D01*
X11872460Y-16891224D02*
X11891507Y-16900748D01*
X11891507Y-16900748D02*
X11901031Y-16910271D01*
X11901031Y-16910271D02*
X11910555Y-16929319D01*
X11910555Y-16929319D02*
X11920079Y-16967414D01*
X11920079Y-16967414D02*
X11920079Y-17015033D01*
X11920079Y-17015033D02*
X11910555Y-17053129D01*
X11910555Y-17053129D02*
X11901031Y-17072176D01*
X11901031Y-17072176D02*
X11891507Y-17081700D01*
X11891507Y-17081700D02*
X11872460Y-17091224D01*
X11872460Y-17091224D02*
X11853412Y-17091224D01*
X11853412Y-17091224D02*
X11834364Y-17081700D01*
X11834364Y-17081700D02*
X11824841Y-17072176D01*
X11824841Y-17072176D02*
X11815317Y-17053129D01*
X11815317Y-17053129D02*
X11805793Y-17015033D01*
X11805793Y-17015033D02*
X11805793Y-16967414D01*
X11805793Y-16967414D02*
X11815317Y-16929319D01*
X11815317Y-16929319D02*
X11824841Y-16910271D01*
X11824841Y-16910271D02*
X11834364Y-16900748D01*
X11834364Y-16900748D02*
X11853412Y-16891224D01*
X12005793Y-17072176D02*
X12015317Y-17081700D01*
X12015317Y-17081700D02*
X12005793Y-17091224D01*
X12005793Y-17091224D02*
X11996269Y-17081700D01*
X11996269Y-17081700D02*
X12005793Y-17072176D01*
X12005793Y-17072176D02*
X12005793Y-17091224D01*
X12081983Y-16891224D02*
X12215317Y-16891224D01*
X12215317Y-16891224D02*
X12129602Y-17091224D01*
X12329602Y-16891224D02*
X12348650Y-16891224D01*
X12348650Y-16891224D02*
X12367698Y-16900748D01*
X12367698Y-16900748D02*
X12377222Y-16910271D01*
X12377222Y-16910271D02*
X12386745Y-16929319D01*
X12386745Y-16929319D02*
X12396269Y-16967414D01*
X12396269Y-16967414D02*
X12396269Y-17015033D01*
X12396269Y-17015033D02*
X12386745Y-17053129D01*
X12386745Y-17053129D02*
X12377222Y-17072176D01*
X12377222Y-17072176D02*
X12367698Y-17081700D01*
X12367698Y-17081700D02*
X12348650Y-17091224D01*
X12348650Y-17091224D02*
X12329602Y-17091224D01*
X12329602Y-17091224D02*
X12310555Y-17081700D01*
X12310555Y-17081700D02*
X12301031Y-17072176D01*
X12301031Y-17072176D02*
X12291507Y-17053129D01*
X12291507Y-17053129D02*
X12281983Y-17015033D01*
X12281983Y-17015033D02*
X12281983Y-16967414D01*
X12281983Y-16967414D02*
X12291507Y-16929319D01*
X12291507Y-16929319D02*
X12301031Y-16910271D01*
X12301031Y-16910271D02*
X12310555Y-16900748D01*
X12310555Y-16900748D02*
X12329602Y-16891224D01*
X12520079Y-16891224D02*
X12539126Y-16891224D01*
X12539126Y-16891224D02*
X12558174Y-16900748D01*
X12558174Y-16900748D02*
X12567698Y-16910271D01*
X12567698Y-16910271D02*
X12577222Y-16929319D01*
X12577222Y-16929319D02*
X12586745Y-16967414D01*
X12586745Y-16967414D02*
X12586745Y-17015033D01*
X12586745Y-17015033D02*
X12577222Y-17053129D01*
X12577222Y-17053129D02*
X12567698Y-17072176D01*
X12567698Y-17072176D02*
X12558174Y-17081700D01*
X12558174Y-17081700D02*
X12539126Y-17091224D01*
X12539126Y-17091224D02*
X12520079Y-17091224D01*
X12520079Y-17091224D02*
X12501031Y-17081700D01*
X12501031Y-17081700D02*
X12491507Y-17072176D01*
X12491507Y-17072176D02*
X12481983Y-17053129D01*
X12481983Y-17053129D02*
X12472460Y-17015033D01*
X12472460Y-17015033D02*
X12472460Y-16967414D01*
X12472460Y-16967414D02*
X12481983Y-16929319D01*
X12481983Y-16929319D02*
X12491507Y-16910271D01*
X12491507Y-16910271D02*
X12501031Y-16900748D01*
X12501031Y-16900748D02*
X12520079Y-16891224D01*
X12672460Y-17091224D02*
X12672460Y-16957890D01*
X12672460Y-16976938D02*
X12681983Y-16967414D01*
X12681983Y-16967414D02*
X12701031Y-16957890D01*
X12701031Y-16957890D02*
X12729603Y-16957890D01*
X12729603Y-16957890D02*
X12748650Y-16967414D01*
X12748650Y-16967414D02*
X12758174Y-16986462D01*
X12758174Y-16986462D02*
X12758174Y-17091224D01*
X12758174Y-16986462D02*
X12767698Y-16967414D01*
X12767698Y-16967414D02*
X12786745Y-16957890D01*
X12786745Y-16957890D02*
X12815317Y-16957890D01*
X12815317Y-16957890D02*
X12834364Y-16967414D01*
X12834364Y-16967414D02*
X12843888Y-16986462D01*
X12843888Y-16986462D02*
X12843888Y-17091224D01*
X12939126Y-17091224D02*
X12939126Y-16957890D01*
X12939126Y-16976938D02*
X12948650Y-16967414D01*
X12948650Y-16967414D02*
X12967698Y-16957890D01*
X12967698Y-16957890D02*
X12996269Y-16957890D01*
X12996269Y-16957890D02*
X13015317Y-16967414D01*
X13015317Y-16967414D02*
X13024841Y-16986462D01*
X13024841Y-16986462D02*
X13024841Y-17091224D01*
X13024841Y-16986462D02*
X13034364Y-16967414D01*
X13034364Y-16967414D02*
X13053412Y-16957890D01*
X13053412Y-16957890D02*
X13081983Y-16957890D01*
X13081983Y-16957890D02*
X13101031Y-16967414D01*
X13101031Y-16967414D02*
X13110555Y-16986462D01*
X13110555Y-16986462D02*
X13110555Y-17091224D01*
X13501031Y-16881700D02*
X13329603Y-17138843D01*
X13758174Y-16891224D02*
X13777222Y-16891224D01*
X13777222Y-16891224D02*
X13796269Y-16900748D01*
X13796269Y-16900748D02*
X13805793Y-16910271D01*
X13805793Y-16910271D02*
X13815317Y-16929319D01*
X13815317Y-16929319D02*
X13824841Y-16967414D01*
X13824841Y-16967414D02*
X13824841Y-17015033D01*
X13824841Y-17015033D02*
X13815317Y-17053129D01*
X13815317Y-17053129D02*
X13805793Y-17072176D01*
X13805793Y-17072176D02*
X13796269Y-17081700D01*
X13796269Y-17081700D02*
X13777222Y-17091224D01*
X13777222Y-17091224D02*
X13758174Y-17091224D01*
X13758174Y-17091224D02*
X13739126Y-17081700D01*
X13739126Y-17081700D02*
X13729603Y-17072176D01*
X13729603Y-17072176D02*
X13720079Y-17053129D01*
X13720079Y-17053129D02*
X13710555Y-17015033D01*
X13710555Y-17015033D02*
X13710555Y-16967414D01*
X13710555Y-16967414D02*
X13720079Y-16929319D01*
X13720079Y-16929319D02*
X13729603Y-16910271D01*
X13729603Y-16910271D02*
X13739126Y-16900748D01*
X13739126Y-16900748D02*
X13758174Y-16891224D01*
X13910555Y-17072176D02*
X13920079Y-17081700D01*
X13920079Y-17081700D02*
X13910555Y-17091224D01*
X13910555Y-17091224D02*
X13901031Y-17081700D01*
X13901031Y-17081700D02*
X13910555Y-17072176D01*
X13910555Y-17072176D02*
X13910555Y-17091224D01*
X14043888Y-16891224D02*
X14062936Y-16891224D01*
X14062936Y-16891224D02*
X14081984Y-16900748D01*
X14081984Y-16900748D02*
X14091507Y-16910271D01*
X14091507Y-16910271D02*
X14101031Y-16929319D01*
X14101031Y-16929319D02*
X14110555Y-16967414D01*
X14110555Y-16967414D02*
X14110555Y-17015033D01*
X14110555Y-17015033D02*
X14101031Y-17053129D01*
X14101031Y-17053129D02*
X14091507Y-17072176D01*
X14091507Y-17072176D02*
X14081984Y-17081700D01*
X14081984Y-17081700D02*
X14062936Y-17091224D01*
X14062936Y-17091224D02*
X14043888Y-17091224D01*
X14043888Y-17091224D02*
X14024841Y-17081700D01*
X14024841Y-17081700D02*
X14015317Y-17072176D01*
X14015317Y-17072176D02*
X14005793Y-17053129D01*
X14005793Y-17053129D02*
X13996269Y-17015033D01*
X13996269Y-17015033D02*
X13996269Y-16967414D01*
X13996269Y-16967414D02*
X14005793Y-16929319D01*
X14005793Y-16929319D02*
X14015317Y-16910271D01*
X14015317Y-16910271D02*
X14024841Y-16900748D01*
X14024841Y-16900748D02*
X14043888Y-16891224D01*
X14186746Y-16910271D02*
X14196269Y-16900748D01*
X14196269Y-16900748D02*
X14215317Y-16891224D01*
X14215317Y-16891224D02*
X14262936Y-16891224D01*
X14262936Y-16891224D02*
X14281984Y-16900748D01*
X14281984Y-16900748D02*
X14291507Y-16910271D01*
X14291507Y-16910271D02*
X14301031Y-16929319D01*
X14301031Y-16929319D02*
X14301031Y-16948367D01*
X14301031Y-16948367D02*
X14291507Y-16976938D01*
X14291507Y-16976938D02*
X14177222Y-17091224D01*
X14177222Y-17091224D02*
X14301031Y-17091224D01*
X14367698Y-16891224D02*
X14501031Y-16891224D01*
X14501031Y-16891224D02*
X14415317Y-17091224D01*
X14662936Y-16891224D02*
X14624841Y-16891224D01*
X14624841Y-16891224D02*
X14605793Y-16900748D01*
X14605793Y-16900748D02*
X14596269Y-16910271D01*
X14596269Y-16910271D02*
X14577222Y-16938843D01*
X14577222Y-16938843D02*
X14567698Y-16976938D01*
X14567698Y-16976938D02*
X14567698Y-17053129D01*
X14567698Y-17053129D02*
X14577222Y-17072176D01*
X14577222Y-17072176D02*
X14586746Y-17081700D01*
X14586746Y-17081700D02*
X14605793Y-17091224D01*
X14605793Y-17091224D02*
X14643888Y-17091224D01*
X14643888Y-17091224D02*
X14662936Y-17081700D01*
X14662936Y-17081700D02*
X14672460Y-17072176D01*
X14672460Y-17072176D02*
X14681984Y-17053129D01*
X14681984Y-17053129D02*
X14681984Y-17005510D01*
X14681984Y-17005510D02*
X14672460Y-16986462D01*
X14672460Y-16986462D02*
X14662936Y-16976938D01*
X14662936Y-16976938D02*
X14643888Y-16967414D01*
X14643888Y-16967414D02*
X14605793Y-16967414D01*
X14605793Y-16967414D02*
X14586746Y-16976938D01*
X14586746Y-16976938D02*
X14577222Y-16986462D01*
X14577222Y-16986462D02*
X14567698Y-17005510D01*
X14758174Y-16891224D02*
X14758174Y-16929319D01*
X14834365Y-16891224D02*
X14834365Y-16929319D01*
X15129603Y-17167414D02*
X15120079Y-17157890D01*
X15120079Y-17157890D02*
X15101031Y-17129319D01*
X15101031Y-17129319D02*
X15091508Y-17110271D01*
X15091508Y-17110271D02*
X15081984Y-17081700D01*
X15081984Y-17081700D02*
X15072460Y-17034081D01*
X15072460Y-17034081D02*
X15072460Y-16995986D01*
X15072460Y-16995986D02*
X15081984Y-16948367D01*
X15081984Y-16948367D02*
X15091508Y-16919795D01*
X15091508Y-16919795D02*
X15101031Y-16900748D01*
X15101031Y-16900748D02*
X15120079Y-16872176D01*
X15120079Y-16872176D02*
X15129603Y-16862652D01*
X15291508Y-16957890D02*
X15291508Y-17091224D01*
X15243888Y-16881700D02*
X15196269Y-17024557D01*
X15196269Y-17024557D02*
X15320079Y-17024557D01*
X15548650Y-17091224D02*
X15548650Y-16891224D01*
X15634365Y-17091224D02*
X15634365Y-16986462D01*
X15634365Y-16986462D02*
X15624841Y-16967414D01*
X15624841Y-16967414D02*
X15605793Y-16957890D01*
X15605793Y-16957890D02*
X15577222Y-16957890D01*
X15577222Y-16957890D02*
X15558174Y-16967414D01*
X15558174Y-16967414D02*
X15548650Y-16976938D01*
X15758174Y-17091224D02*
X15739127Y-17081700D01*
X15739127Y-17081700D02*
X15729603Y-17072176D01*
X15729603Y-17072176D02*
X15720079Y-17053129D01*
X15720079Y-17053129D02*
X15720079Y-16995986D01*
X15720079Y-16995986D02*
X15729603Y-16976938D01*
X15729603Y-16976938D02*
X15739127Y-16967414D01*
X15739127Y-16967414D02*
X15758174Y-16957890D01*
X15758174Y-16957890D02*
X15786746Y-16957890D01*
X15786746Y-16957890D02*
X15805793Y-16967414D01*
X15805793Y-16967414D02*
X15815317Y-16976938D01*
X15815317Y-16976938D02*
X15824841Y-16995986D01*
X15824841Y-16995986D02*
X15824841Y-17053129D01*
X15824841Y-17053129D02*
X15815317Y-17072176D01*
X15815317Y-17072176D02*
X15805793Y-17081700D01*
X15805793Y-17081700D02*
X15786746Y-17091224D01*
X15786746Y-17091224D02*
X15758174Y-17091224D01*
X15939127Y-17091224D02*
X15920079Y-17081700D01*
X15920079Y-17081700D02*
X15910555Y-17062652D01*
X15910555Y-17062652D02*
X15910555Y-16891224D01*
X16091508Y-17081700D02*
X16072460Y-17091224D01*
X16072460Y-17091224D02*
X16034365Y-17091224D01*
X16034365Y-17091224D02*
X16015317Y-17081700D01*
X16015317Y-17081700D02*
X16005793Y-17062652D01*
X16005793Y-17062652D02*
X16005793Y-16986462D01*
X16005793Y-16986462D02*
X16015317Y-16967414D01*
X16015317Y-16967414D02*
X16034365Y-16957890D01*
X16034365Y-16957890D02*
X16072460Y-16957890D01*
X16072460Y-16957890D02*
X16091508Y-16967414D01*
X16091508Y-16967414D02*
X16101031Y-16986462D01*
X16101031Y-16986462D02*
X16101031Y-17005510D01*
X16101031Y-17005510D02*
X16005793Y-17024557D01*
X16177222Y-17081700D02*
X16196270Y-17091224D01*
X16196270Y-17091224D02*
X16234365Y-17091224D01*
X16234365Y-17091224D02*
X16253412Y-17081700D01*
X16253412Y-17081700D02*
X16262936Y-17062652D01*
X16262936Y-17062652D02*
X16262936Y-17053129D01*
X16262936Y-17053129D02*
X16253412Y-17034081D01*
X16253412Y-17034081D02*
X16234365Y-17024557D01*
X16234365Y-17024557D02*
X16205793Y-17024557D01*
X16205793Y-17024557D02*
X16186746Y-17015033D01*
X16186746Y-17015033D02*
X16177222Y-16995986D01*
X16177222Y-16995986D02*
X16177222Y-16986462D01*
X16177222Y-16986462D02*
X16186746Y-16967414D01*
X16186746Y-16967414D02*
X16205793Y-16957890D01*
X16205793Y-16957890D02*
X16234365Y-16957890D01*
X16234365Y-16957890D02*
X16253412Y-16967414D01*
X16329603Y-17167414D02*
X16339127Y-17157890D01*
X16339127Y-17157890D02*
X16358174Y-17129319D01*
X16358174Y-17129319D02*
X16367698Y-17110271D01*
X16367698Y-17110271D02*
X16377222Y-17081700D01*
X16377222Y-17081700D02*
X16386746Y-17034081D01*
X16386746Y-17034081D02*
X16386746Y-16995986D01*
X16386746Y-16995986D02*
X16377222Y-16948367D01*
X16377222Y-16948367D02*
X16367698Y-16919795D01*
X16367698Y-16919795D02*
X16358174Y-16900748D01*
X16358174Y-16900748D02*
X16339127Y-16872176D01*
X16339127Y-16872176D02*
X16329603Y-16862652D01*
M02*
