%TF.GenerationSoftware,KiCad,Pcbnew,8.0.2*%
%TF.CreationDate,2025-04-21T15:08:10+02:00*%
%TF.ProjectId,logic,6c6f6769-632e-46b6-9963-61645f706362,rev?*%
%TF.SameCoordinates,Original*%
%TF.FileFunction,Drillmap*%
%TF.FilePolarity,Positive*%
%FSLAX45Y45*%
G04 Gerber Fmt 4.5, Leading zero omitted, Abs format (unit mm)*
G04 Created by KiCad (PCBNEW 8.0.2) date 2025-04-21 15:08:10*
%MOMM*%
%LPD*%
G01*
G04 APERTURE LIST*
%ADD10C,0.100000*%
%ADD11C,0.200000*%
G04 APERTURE END LIST*
D10*
X11559540Y-9761220D02*
X17612360Y-9761220D01*
X17612360Y-15826740D01*
X11559540Y-15826740D01*
X11559540Y-9761220D01*
D11*
D10*
X12188700Y-15416540D02*
X12246700Y-15474540D01*
X12246700Y-15416540D02*
X12188700Y-15474540D01*
X12238700Y-15416540D02*
X12196700Y-15416540D01*
X12196700Y-15474540D02*
G75*
G02*
X12196700Y-15416540I0J29000D01*
G01*
X12196700Y-15474540D02*
X12238700Y-15474540D01*
X12238700Y-15474540D02*
G75*
G03*
X12238700Y-15416540I0J29000D01*
G01*
X13000700Y-15445540D02*
G75*
G02*
X12934700Y-15445540I-33000J0D01*
G01*
X12934700Y-15445540D02*
G75*
G02*
X13000700Y-15445540I33000J0D01*
G01*
X16540340Y-10674540D02*
X16540340Y-10764540D01*
X16495340Y-10719540D02*
X16585340Y-10719540D01*
X16840340Y-10674540D02*
X16840340Y-10764540D01*
X16795340Y-10719540D02*
X16885340Y-10719540D01*
D11*
X11815317Y-16143224D02*
X11815317Y-15943224D01*
X11815317Y-15943224D02*
X11862936Y-15943224D01*
X11862936Y-15943224D02*
X11891507Y-15952748D01*
X11891507Y-15952748D02*
X11910555Y-15971795D01*
X11910555Y-15971795D02*
X11920079Y-15990843D01*
X11920079Y-15990843D02*
X11929602Y-16028938D01*
X11929602Y-16028938D02*
X11929602Y-16057509D01*
X11929602Y-16057509D02*
X11920079Y-16095605D01*
X11920079Y-16095605D02*
X11910555Y-16114652D01*
X11910555Y-16114652D02*
X11891507Y-16133700D01*
X11891507Y-16133700D02*
X11862936Y-16143224D01*
X11862936Y-16143224D02*
X11815317Y-16143224D01*
X12015317Y-16143224D02*
X12015317Y-16009890D01*
X12015317Y-16047986D02*
X12024841Y-16028938D01*
X12024841Y-16028938D02*
X12034364Y-16019414D01*
X12034364Y-16019414D02*
X12053412Y-16009890D01*
X12053412Y-16009890D02*
X12072460Y-16009890D01*
X12139126Y-16143224D02*
X12139126Y-16009890D01*
X12139126Y-15943224D02*
X12129602Y-15952748D01*
X12129602Y-15952748D02*
X12139126Y-15962271D01*
X12139126Y-15962271D02*
X12148650Y-15952748D01*
X12148650Y-15952748D02*
X12139126Y-15943224D01*
X12139126Y-15943224D02*
X12139126Y-15962271D01*
X12262936Y-16143224D02*
X12243888Y-16133700D01*
X12243888Y-16133700D02*
X12234364Y-16114652D01*
X12234364Y-16114652D02*
X12234364Y-15943224D01*
X12367698Y-16143224D02*
X12348650Y-16133700D01*
X12348650Y-16133700D02*
X12339126Y-16114652D01*
X12339126Y-16114652D02*
X12339126Y-15943224D01*
X12596269Y-16143224D02*
X12596269Y-15943224D01*
X12596269Y-15943224D02*
X12662936Y-16086081D01*
X12662936Y-16086081D02*
X12729602Y-15943224D01*
X12729602Y-15943224D02*
X12729602Y-16143224D01*
X12910555Y-16143224D02*
X12910555Y-16038462D01*
X12910555Y-16038462D02*
X12901031Y-16019414D01*
X12901031Y-16019414D02*
X12881983Y-16009890D01*
X12881983Y-16009890D02*
X12843888Y-16009890D01*
X12843888Y-16009890D02*
X12824841Y-16019414D01*
X12910555Y-16133700D02*
X12891507Y-16143224D01*
X12891507Y-16143224D02*
X12843888Y-16143224D01*
X12843888Y-16143224D02*
X12824841Y-16133700D01*
X12824841Y-16133700D02*
X12815317Y-16114652D01*
X12815317Y-16114652D02*
X12815317Y-16095605D01*
X12815317Y-16095605D02*
X12824841Y-16076557D01*
X12824841Y-16076557D02*
X12843888Y-16067033D01*
X12843888Y-16067033D02*
X12891507Y-16067033D01*
X12891507Y-16067033D02*
X12910555Y-16057509D01*
X13005793Y-16009890D02*
X13005793Y-16209890D01*
X13005793Y-16019414D02*
X13024841Y-16009890D01*
X13024841Y-16009890D02*
X13062936Y-16009890D01*
X13062936Y-16009890D02*
X13081983Y-16019414D01*
X13081983Y-16019414D02*
X13091507Y-16028938D01*
X13091507Y-16028938D02*
X13101031Y-16047986D01*
X13101031Y-16047986D02*
X13101031Y-16105128D01*
X13101031Y-16105128D02*
X13091507Y-16124176D01*
X13091507Y-16124176D02*
X13081983Y-16133700D01*
X13081983Y-16133700D02*
X13062936Y-16143224D01*
X13062936Y-16143224D02*
X13024841Y-16143224D01*
X13024841Y-16143224D02*
X13005793Y-16133700D01*
X13186745Y-16124176D02*
X13196269Y-16133700D01*
X13196269Y-16133700D02*
X13186745Y-16143224D01*
X13186745Y-16143224D02*
X13177222Y-16133700D01*
X13177222Y-16133700D02*
X13186745Y-16124176D01*
X13186745Y-16124176D02*
X13186745Y-16143224D01*
X13186745Y-16019414D02*
X13196269Y-16028938D01*
X13196269Y-16028938D02*
X13186745Y-16038462D01*
X13186745Y-16038462D02*
X13177222Y-16028938D01*
X13177222Y-16028938D02*
X13186745Y-16019414D01*
X13186745Y-16019414D02*
X13186745Y-16038462D01*
D10*
X11496540Y-16442740D02*
X11554540Y-16500740D01*
X11554540Y-16442740D02*
X11496540Y-16500740D01*
D11*
X11853412Y-16363224D02*
X11872460Y-16363224D01*
X11872460Y-16363224D02*
X11891507Y-16372748D01*
X11891507Y-16372748D02*
X11901031Y-16382271D01*
X11901031Y-16382271D02*
X11910555Y-16401319D01*
X11910555Y-16401319D02*
X11920079Y-16439414D01*
X11920079Y-16439414D02*
X11920079Y-16487033D01*
X11920079Y-16487033D02*
X11910555Y-16525128D01*
X11910555Y-16525128D02*
X11901031Y-16544176D01*
X11901031Y-16544176D02*
X11891507Y-16553700D01*
X11891507Y-16553700D02*
X11872460Y-16563224D01*
X11872460Y-16563224D02*
X11853412Y-16563224D01*
X11853412Y-16563224D02*
X11834364Y-16553700D01*
X11834364Y-16553700D02*
X11824841Y-16544176D01*
X11824841Y-16544176D02*
X11815317Y-16525128D01*
X11815317Y-16525128D02*
X11805793Y-16487033D01*
X11805793Y-16487033D02*
X11805793Y-16439414D01*
X11805793Y-16439414D02*
X11815317Y-16401319D01*
X11815317Y-16401319D02*
X11824841Y-16382271D01*
X11824841Y-16382271D02*
X11834364Y-16372748D01*
X11834364Y-16372748D02*
X11853412Y-16363224D01*
X12005793Y-16544176D02*
X12015317Y-16553700D01*
X12015317Y-16553700D02*
X12005793Y-16563224D01*
X12005793Y-16563224D02*
X11996269Y-16553700D01*
X11996269Y-16553700D02*
X12005793Y-16544176D01*
X12005793Y-16544176D02*
X12005793Y-16563224D01*
X12196269Y-16363224D02*
X12101031Y-16363224D01*
X12101031Y-16363224D02*
X12091507Y-16458462D01*
X12091507Y-16458462D02*
X12101031Y-16448938D01*
X12101031Y-16448938D02*
X12120079Y-16439414D01*
X12120079Y-16439414D02*
X12167698Y-16439414D01*
X12167698Y-16439414D02*
X12186745Y-16448938D01*
X12186745Y-16448938D02*
X12196269Y-16458462D01*
X12196269Y-16458462D02*
X12205793Y-16477509D01*
X12205793Y-16477509D02*
X12205793Y-16525128D01*
X12205793Y-16525128D02*
X12196269Y-16544176D01*
X12196269Y-16544176D02*
X12186745Y-16553700D01*
X12186745Y-16553700D02*
X12167698Y-16563224D01*
X12167698Y-16563224D02*
X12120079Y-16563224D01*
X12120079Y-16563224D02*
X12101031Y-16553700D01*
X12101031Y-16553700D02*
X12091507Y-16544176D01*
X12320079Y-16448938D02*
X12301031Y-16439414D01*
X12301031Y-16439414D02*
X12291507Y-16429890D01*
X12291507Y-16429890D02*
X12281983Y-16410843D01*
X12281983Y-16410843D02*
X12281983Y-16401319D01*
X12281983Y-16401319D02*
X12291507Y-16382271D01*
X12291507Y-16382271D02*
X12301031Y-16372748D01*
X12301031Y-16372748D02*
X12320079Y-16363224D01*
X12320079Y-16363224D02*
X12358174Y-16363224D01*
X12358174Y-16363224D02*
X12377222Y-16372748D01*
X12377222Y-16372748D02*
X12386745Y-16382271D01*
X12386745Y-16382271D02*
X12396269Y-16401319D01*
X12396269Y-16401319D02*
X12396269Y-16410843D01*
X12396269Y-16410843D02*
X12386745Y-16429890D01*
X12386745Y-16429890D02*
X12377222Y-16439414D01*
X12377222Y-16439414D02*
X12358174Y-16448938D01*
X12358174Y-16448938D02*
X12320079Y-16448938D01*
X12320079Y-16448938D02*
X12301031Y-16458462D01*
X12301031Y-16458462D02*
X12291507Y-16467986D01*
X12291507Y-16467986D02*
X12281983Y-16487033D01*
X12281983Y-16487033D02*
X12281983Y-16525128D01*
X12281983Y-16525128D02*
X12291507Y-16544176D01*
X12291507Y-16544176D02*
X12301031Y-16553700D01*
X12301031Y-16553700D02*
X12320079Y-16563224D01*
X12320079Y-16563224D02*
X12358174Y-16563224D01*
X12358174Y-16563224D02*
X12377222Y-16553700D01*
X12377222Y-16553700D02*
X12386745Y-16544176D01*
X12386745Y-16544176D02*
X12396269Y-16525128D01*
X12396269Y-16525128D02*
X12396269Y-16487033D01*
X12396269Y-16487033D02*
X12386745Y-16467986D01*
X12386745Y-16467986D02*
X12377222Y-16458462D01*
X12377222Y-16458462D02*
X12358174Y-16448938D01*
X12520079Y-16363224D02*
X12539126Y-16363224D01*
X12539126Y-16363224D02*
X12558174Y-16372748D01*
X12558174Y-16372748D02*
X12567698Y-16382271D01*
X12567698Y-16382271D02*
X12577222Y-16401319D01*
X12577222Y-16401319D02*
X12586745Y-16439414D01*
X12586745Y-16439414D02*
X12586745Y-16487033D01*
X12586745Y-16487033D02*
X12577222Y-16525128D01*
X12577222Y-16525128D02*
X12567698Y-16544176D01*
X12567698Y-16544176D02*
X12558174Y-16553700D01*
X12558174Y-16553700D02*
X12539126Y-16563224D01*
X12539126Y-16563224D02*
X12520079Y-16563224D01*
X12520079Y-16563224D02*
X12501031Y-16553700D01*
X12501031Y-16553700D02*
X12491507Y-16544176D01*
X12491507Y-16544176D02*
X12481983Y-16525128D01*
X12481983Y-16525128D02*
X12472460Y-16487033D01*
X12472460Y-16487033D02*
X12472460Y-16439414D01*
X12472460Y-16439414D02*
X12481983Y-16401319D01*
X12481983Y-16401319D02*
X12491507Y-16382271D01*
X12491507Y-16382271D02*
X12501031Y-16372748D01*
X12501031Y-16372748D02*
X12520079Y-16363224D01*
X12672460Y-16563224D02*
X12672460Y-16429890D01*
X12672460Y-16448938D02*
X12681983Y-16439414D01*
X12681983Y-16439414D02*
X12701031Y-16429890D01*
X12701031Y-16429890D02*
X12729603Y-16429890D01*
X12729603Y-16429890D02*
X12748650Y-16439414D01*
X12748650Y-16439414D02*
X12758174Y-16458462D01*
X12758174Y-16458462D02*
X12758174Y-16563224D01*
X12758174Y-16458462D02*
X12767698Y-16439414D01*
X12767698Y-16439414D02*
X12786745Y-16429890D01*
X12786745Y-16429890D02*
X12815317Y-16429890D01*
X12815317Y-16429890D02*
X12834364Y-16439414D01*
X12834364Y-16439414D02*
X12843888Y-16458462D01*
X12843888Y-16458462D02*
X12843888Y-16563224D01*
X12939126Y-16563224D02*
X12939126Y-16429890D01*
X12939126Y-16448938D02*
X12948650Y-16439414D01*
X12948650Y-16439414D02*
X12967698Y-16429890D01*
X12967698Y-16429890D02*
X12996269Y-16429890D01*
X12996269Y-16429890D02*
X13015317Y-16439414D01*
X13015317Y-16439414D02*
X13024841Y-16458462D01*
X13024841Y-16458462D02*
X13024841Y-16563224D01*
X13024841Y-16458462D02*
X13034364Y-16439414D01*
X13034364Y-16439414D02*
X13053412Y-16429890D01*
X13053412Y-16429890D02*
X13081983Y-16429890D01*
X13081983Y-16429890D02*
X13101031Y-16439414D01*
X13101031Y-16439414D02*
X13110555Y-16458462D01*
X13110555Y-16458462D02*
X13110555Y-16563224D01*
X13501031Y-16353700D02*
X13329603Y-16610843D01*
X13758174Y-16363224D02*
X13777222Y-16363224D01*
X13777222Y-16363224D02*
X13796269Y-16372748D01*
X13796269Y-16372748D02*
X13805793Y-16382271D01*
X13805793Y-16382271D02*
X13815317Y-16401319D01*
X13815317Y-16401319D02*
X13824841Y-16439414D01*
X13824841Y-16439414D02*
X13824841Y-16487033D01*
X13824841Y-16487033D02*
X13815317Y-16525128D01*
X13815317Y-16525128D02*
X13805793Y-16544176D01*
X13805793Y-16544176D02*
X13796269Y-16553700D01*
X13796269Y-16553700D02*
X13777222Y-16563224D01*
X13777222Y-16563224D02*
X13758174Y-16563224D01*
X13758174Y-16563224D02*
X13739126Y-16553700D01*
X13739126Y-16553700D02*
X13729603Y-16544176D01*
X13729603Y-16544176D02*
X13720079Y-16525128D01*
X13720079Y-16525128D02*
X13710555Y-16487033D01*
X13710555Y-16487033D02*
X13710555Y-16439414D01*
X13710555Y-16439414D02*
X13720079Y-16401319D01*
X13720079Y-16401319D02*
X13729603Y-16382271D01*
X13729603Y-16382271D02*
X13739126Y-16372748D01*
X13739126Y-16372748D02*
X13758174Y-16363224D01*
X13910555Y-16544176D02*
X13920079Y-16553700D01*
X13920079Y-16553700D02*
X13910555Y-16563224D01*
X13910555Y-16563224D02*
X13901031Y-16553700D01*
X13901031Y-16553700D02*
X13910555Y-16544176D01*
X13910555Y-16544176D02*
X13910555Y-16563224D01*
X14043888Y-16363224D02*
X14062936Y-16363224D01*
X14062936Y-16363224D02*
X14081984Y-16372748D01*
X14081984Y-16372748D02*
X14091507Y-16382271D01*
X14091507Y-16382271D02*
X14101031Y-16401319D01*
X14101031Y-16401319D02*
X14110555Y-16439414D01*
X14110555Y-16439414D02*
X14110555Y-16487033D01*
X14110555Y-16487033D02*
X14101031Y-16525128D01*
X14101031Y-16525128D02*
X14091507Y-16544176D01*
X14091507Y-16544176D02*
X14081984Y-16553700D01*
X14081984Y-16553700D02*
X14062936Y-16563224D01*
X14062936Y-16563224D02*
X14043888Y-16563224D01*
X14043888Y-16563224D02*
X14024841Y-16553700D01*
X14024841Y-16553700D02*
X14015317Y-16544176D01*
X14015317Y-16544176D02*
X14005793Y-16525128D01*
X14005793Y-16525128D02*
X13996269Y-16487033D01*
X13996269Y-16487033D02*
X13996269Y-16439414D01*
X13996269Y-16439414D02*
X14005793Y-16401319D01*
X14005793Y-16401319D02*
X14015317Y-16382271D01*
X14015317Y-16382271D02*
X14024841Y-16372748D01*
X14024841Y-16372748D02*
X14043888Y-16363224D01*
X14186746Y-16382271D02*
X14196269Y-16372748D01*
X14196269Y-16372748D02*
X14215317Y-16363224D01*
X14215317Y-16363224D02*
X14262936Y-16363224D01*
X14262936Y-16363224D02*
X14281984Y-16372748D01*
X14281984Y-16372748D02*
X14291507Y-16382271D01*
X14291507Y-16382271D02*
X14301031Y-16401319D01*
X14301031Y-16401319D02*
X14301031Y-16420367D01*
X14301031Y-16420367D02*
X14291507Y-16448938D01*
X14291507Y-16448938D02*
X14177222Y-16563224D01*
X14177222Y-16563224D02*
X14301031Y-16563224D01*
X14377222Y-16382271D02*
X14386746Y-16372748D01*
X14386746Y-16372748D02*
X14405793Y-16363224D01*
X14405793Y-16363224D02*
X14453412Y-16363224D01*
X14453412Y-16363224D02*
X14472460Y-16372748D01*
X14472460Y-16372748D02*
X14481984Y-16382271D01*
X14481984Y-16382271D02*
X14491507Y-16401319D01*
X14491507Y-16401319D02*
X14491507Y-16420367D01*
X14491507Y-16420367D02*
X14481984Y-16448938D01*
X14481984Y-16448938D02*
X14367698Y-16563224D01*
X14367698Y-16563224D02*
X14491507Y-16563224D01*
X14605793Y-16448938D02*
X14586746Y-16439414D01*
X14586746Y-16439414D02*
X14577222Y-16429890D01*
X14577222Y-16429890D02*
X14567698Y-16410843D01*
X14567698Y-16410843D02*
X14567698Y-16401319D01*
X14567698Y-16401319D02*
X14577222Y-16382271D01*
X14577222Y-16382271D02*
X14586746Y-16372748D01*
X14586746Y-16372748D02*
X14605793Y-16363224D01*
X14605793Y-16363224D02*
X14643888Y-16363224D01*
X14643888Y-16363224D02*
X14662936Y-16372748D01*
X14662936Y-16372748D02*
X14672460Y-16382271D01*
X14672460Y-16382271D02*
X14681984Y-16401319D01*
X14681984Y-16401319D02*
X14681984Y-16410843D01*
X14681984Y-16410843D02*
X14672460Y-16429890D01*
X14672460Y-16429890D02*
X14662936Y-16439414D01*
X14662936Y-16439414D02*
X14643888Y-16448938D01*
X14643888Y-16448938D02*
X14605793Y-16448938D01*
X14605793Y-16448938D02*
X14586746Y-16458462D01*
X14586746Y-16458462D02*
X14577222Y-16467986D01*
X14577222Y-16467986D02*
X14567698Y-16487033D01*
X14567698Y-16487033D02*
X14567698Y-16525128D01*
X14567698Y-16525128D02*
X14577222Y-16544176D01*
X14577222Y-16544176D02*
X14586746Y-16553700D01*
X14586746Y-16553700D02*
X14605793Y-16563224D01*
X14605793Y-16563224D02*
X14643888Y-16563224D01*
X14643888Y-16563224D02*
X14662936Y-16553700D01*
X14662936Y-16553700D02*
X14672460Y-16544176D01*
X14672460Y-16544176D02*
X14681984Y-16525128D01*
X14681984Y-16525128D02*
X14681984Y-16487033D01*
X14681984Y-16487033D02*
X14672460Y-16467986D01*
X14672460Y-16467986D02*
X14662936Y-16458462D01*
X14662936Y-16458462D02*
X14643888Y-16448938D01*
X14758174Y-16363224D02*
X14758174Y-16401319D01*
X14834365Y-16363224D02*
X14834365Y-16401319D01*
X15129603Y-16639414D02*
X15120079Y-16629890D01*
X15120079Y-16629890D02*
X15101031Y-16601319D01*
X15101031Y-16601319D02*
X15091508Y-16582271D01*
X15091508Y-16582271D02*
X15081984Y-16553700D01*
X15081984Y-16553700D02*
X15072460Y-16506081D01*
X15072460Y-16506081D02*
X15072460Y-16467986D01*
X15072460Y-16467986D02*
X15081984Y-16420367D01*
X15081984Y-16420367D02*
X15091508Y-16391795D01*
X15091508Y-16391795D02*
X15101031Y-16372748D01*
X15101031Y-16372748D02*
X15120079Y-16344176D01*
X15120079Y-16344176D02*
X15129603Y-16334652D01*
X15310555Y-16563224D02*
X15196269Y-16563224D01*
X15253412Y-16563224D02*
X15253412Y-16363224D01*
X15253412Y-16363224D02*
X15234365Y-16391795D01*
X15234365Y-16391795D02*
X15215317Y-16410843D01*
X15215317Y-16410843D02*
X15196269Y-16420367D01*
X15539127Y-16553700D02*
X15558174Y-16563224D01*
X15558174Y-16563224D02*
X15596269Y-16563224D01*
X15596269Y-16563224D02*
X15615317Y-16553700D01*
X15615317Y-16553700D02*
X15624841Y-16534652D01*
X15624841Y-16534652D02*
X15624841Y-16525128D01*
X15624841Y-16525128D02*
X15615317Y-16506081D01*
X15615317Y-16506081D02*
X15596269Y-16496557D01*
X15596269Y-16496557D02*
X15567698Y-16496557D01*
X15567698Y-16496557D02*
X15548650Y-16487033D01*
X15548650Y-16487033D02*
X15539127Y-16467986D01*
X15539127Y-16467986D02*
X15539127Y-16458462D01*
X15539127Y-16458462D02*
X15548650Y-16439414D01*
X15548650Y-16439414D02*
X15567698Y-16429890D01*
X15567698Y-16429890D02*
X15596269Y-16429890D01*
X15596269Y-16429890D02*
X15615317Y-16439414D01*
X15739127Y-16563224D02*
X15720079Y-16553700D01*
X15720079Y-16553700D02*
X15710555Y-16534652D01*
X15710555Y-16534652D02*
X15710555Y-16363224D01*
X15843889Y-16563224D02*
X15824841Y-16553700D01*
X15824841Y-16553700D02*
X15815317Y-16544176D01*
X15815317Y-16544176D02*
X15805793Y-16525128D01*
X15805793Y-16525128D02*
X15805793Y-16467986D01*
X15805793Y-16467986D02*
X15815317Y-16448938D01*
X15815317Y-16448938D02*
X15824841Y-16439414D01*
X15824841Y-16439414D02*
X15843889Y-16429890D01*
X15843889Y-16429890D02*
X15872460Y-16429890D01*
X15872460Y-16429890D02*
X15891508Y-16439414D01*
X15891508Y-16439414D02*
X15901031Y-16448938D01*
X15901031Y-16448938D02*
X15910555Y-16467986D01*
X15910555Y-16467986D02*
X15910555Y-16525128D01*
X15910555Y-16525128D02*
X15901031Y-16544176D01*
X15901031Y-16544176D02*
X15891508Y-16553700D01*
X15891508Y-16553700D02*
X15872460Y-16563224D01*
X15872460Y-16563224D02*
X15843889Y-16563224D01*
X15967698Y-16429890D02*
X16043889Y-16429890D01*
X15996270Y-16363224D02*
X15996270Y-16534652D01*
X15996270Y-16534652D02*
X16005793Y-16553700D01*
X16005793Y-16553700D02*
X16024841Y-16563224D01*
X16024841Y-16563224D02*
X16043889Y-16563224D01*
X16091508Y-16639414D02*
X16101031Y-16629890D01*
X16101031Y-16629890D02*
X16120079Y-16601319D01*
X16120079Y-16601319D02*
X16129603Y-16582271D01*
X16129603Y-16582271D02*
X16139127Y-16553700D01*
X16139127Y-16553700D02*
X16148650Y-16506081D01*
X16148650Y-16506081D02*
X16148650Y-16467986D01*
X16148650Y-16467986D02*
X16139127Y-16420367D01*
X16139127Y-16420367D02*
X16129603Y-16391795D01*
X16129603Y-16391795D02*
X16120079Y-16372748D01*
X16120079Y-16372748D02*
X16101031Y-16344176D01*
X16101031Y-16344176D02*
X16091508Y-16334652D01*
X16453412Y-16639414D02*
X16443889Y-16629890D01*
X16443889Y-16629890D02*
X16424841Y-16601319D01*
X16424841Y-16601319D02*
X16415317Y-16582271D01*
X16415317Y-16582271D02*
X16405793Y-16553700D01*
X16405793Y-16553700D02*
X16396270Y-16506081D01*
X16396270Y-16506081D02*
X16396270Y-16467986D01*
X16396270Y-16467986D02*
X16405793Y-16420367D01*
X16405793Y-16420367D02*
X16415317Y-16391795D01*
X16415317Y-16391795D02*
X16424841Y-16372748D01*
X16424841Y-16372748D02*
X16443889Y-16344176D01*
X16443889Y-16344176D02*
X16453412Y-16334652D01*
X16529603Y-16429890D02*
X16529603Y-16563224D01*
X16529603Y-16448938D02*
X16539127Y-16439414D01*
X16539127Y-16439414D02*
X16558174Y-16429890D01*
X16558174Y-16429890D02*
X16586746Y-16429890D01*
X16586746Y-16429890D02*
X16605793Y-16439414D01*
X16605793Y-16439414D02*
X16615317Y-16458462D01*
X16615317Y-16458462D02*
X16615317Y-16563224D01*
X16739127Y-16563224D02*
X16720079Y-16553700D01*
X16720079Y-16553700D02*
X16710555Y-16544176D01*
X16710555Y-16544176D02*
X16701031Y-16525128D01*
X16701031Y-16525128D02*
X16701031Y-16467986D01*
X16701031Y-16467986D02*
X16710555Y-16448938D01*
X16710555Y-16448938D02*
X16720079Y-16439414D01*
X16720079Y-16439414D02*
X16739127Y-16429890D01*
X16739127Y-16429890D02*
X16767698Y-16429890D01*
X16767698Y-16429890D02*
X16786746Y-16439414D01*
X16786746Y-16439414D02*
X16796270Y-16448938D01*
X16796270Y-16448938D02*
X16805793Y-16467986D01*
X16805793Y-16467986D02*
X16805793Y-16525128D01*
X16805793Y-16525128D02*
X16796270Y-16544176D01*
X16796270Y-16544176D02*
X16786746Y-16553700D01*
X16786746Y-16553700D02*
X16767698Y-16563224D01*
X16767698Y-16563224D02*
X16739127Y-16563224D01*
X16862936Y-16429890D02*
X16939127Y-16429890D01*
X16891508Y-16363224D02*
X16891508Y-16534652D01*
X16891508Y-16534652D02*
X16901032Y-16553700D01*
X16901032Y-16553700D02*
X16920079Y-16563224D01*
X16920079Y-16563224D02*
X16939127Y-16563224D01*
X17158174Y-16429890D02*
X17158174Y-16629890D01*
X17158174Y-16439414D02*
X17177222Y-16429890D01*
X17177222Y-16429890D02*
X17215317Y-16429890D01*
X17215317Y-16429890D02*
X17234365Y-16439414D01*
X17234365Y-16439414D02*
X17243889Y-16448938D01*
X17243889Y-16448938D02*
X17253413Y-16467986D01*
X17253413Y-16467986D02*
X17253413Y-16525128D01*
X17253413Y-16525128D02*
X17243889Y-16544176D01*
X17243889Y-16544176D02*
X17234365Y-16553700D01*
X17234365Y-16553700D02*
X17215317Y-16563224D01*
X17215317Y-16563224D02*
X17177222Y-16563224D01*
X17177222Y-16563224D02*
X17158174Y-16553700D01*
X17367698Y-16563224D02*
X17348651Y-16553700D01*
X17348651Y-16553700D02*
X17339127Y-16534652D01*
X17339127Y-16534652D02*
X17339127Y-16363224D01*
X17529603Y-16563224D02*
X17529603Y-16458462D01*
X17529603Y-16458462D02*
X17520079Y-16439414D01*
X17520079Y-16439414D02*
X17501032Y-16429890D01*
X17501032Y-16429890D02*
X17462936Y-16429890D01*
X17462936Y-16429890D02*
X17443889Y-16439414D01*
X17529603Y-16553700D02*
X17510555Y-16563224D01*
X17510555Y-16563224D02*
X17462936Y-16563224D01*
X17462936Y-16563224D02*
X17443889Y-16553700D01*
X17443889Y-16553700D02*
X17434365Y-16534652D01*
X17434365Y-16534652D02*
X17434365Y-16515605D01*
X17434365Y-16515605D02*
X17443889Y-16496557D01*
X17443889Y-16496557D02*
X17462936Y-16487033D01*
X17462936Y-16487033D02*
X17510555Y-16487033D01*
X17510555Y-16487033D02*
X17529603Y-16477509D01*
X17596270Y-16429890D02*
X17672460Y-16429890D01*
X17624841Y-16363224D02*
X17624841Y-16534652D01*
X17624841Y-16534652D02*
X17634365Y-16553700D01*
X17634365Y-16553700D02*
X17653413Y-16563224D01*
X17653413Y-16563224D02*
X17672460Y-16563224D01*
X17815317Y-16553700D02*
X17796270Y-16563224D01*
X17796270Y-16563224D02*
X17758174Y-16563224D01*
X17758174Y-16563224D02*
X17739127Y-16553700D01*
X17739127Y-16553700D02*
X17729603Y-16534652D01*
X17729603Y-16534652D02*
X17729603Y-16458462D01*
X17729603Y-16458462D02*
X17739127Y-16439414D01*
X17739127Y-16439414D02*
X17758174Y-16429890D01*
X17758174Y-16429890D02*
X17796270Y-16429890D01*
X17796270Y-16429890D02*
X17815317Y-16439414D01*
X17815317Y-16439414D02*
X17824841Y-16458462D01*
X17824841Y-16458462D02*
X17824841Y-16477509D01*
X17824841Y-16477509D02*
X17729603Y-16496557D01*
X17996270Y-16563224D02*
X17996270Y-16363224D01*
X17996270Y-16553700D02*
X17977222Y-16563224D01*
X17977222Y-16563224D02*
X17939127Y-16563224D01*
X17939127Y-16563224D02*
X17920079Y-16553700D01*
X17920079Y-16553700D02*
X17910555Y-16544176D01*
X17910555Y-16544176D02*
X17901032Y-16525128D01*
X17901032Y-16525128D02*
X17901032Y-16467986D01*
X17901032Y-16467986D02*
X17910555Y-16448938D01*
X17910555Y-16448938D02*
X17920079Y-16439414D01*
X17920079Y-16439414D02*
X17939127Y-16429890D01*
X17939127Y-16429890D02*
X17977222Y-16429890D01*
X17977222Y-16429890D02*
X17996270Y-16439414D01*
X18072460Y-16639414D02*
X18081984Y-16629890D01*
X18081984Y-16629890D02*
X18101032Y-16601319D01*
X18101032Y-16601319D02*
X18110555Y-16582271D01*
X18110555Y-16582271D02*
X18120079Y-16553700D01*
X18120079Y-16553700D02*
X18129603Y-16506081D01*
X18129603Y-16506081D02*
X18129603Y-16467986D01*
X18129603Y-16467986D02*
X18120079Y-16420367D01*
X18120079Y-16420367D02*
X18110555Y-16391795D01*
X18110555Y-16391795D02*
X18101032Y-16372748D01*
X18101032Y-16372748D02*
X18081984Y-16344176D01*
X18081984Y-16344176D02*
X18072460Y-16334652D01*
D10*
X11554540Y-16735740D02*
G75*
G02*
X11488540Y-16735740I-33000J0D01*
G01*
X11488540Y-16735740D02*
G75*
G02*
X11554540Y-16735740I33000J0D01*
G01*
D11*
X11853412Y-16627224D02*
X11872460Y-16627224D01*
X11872460Y-16627224D02*
X11891507Y-16636748D01*
X11891507Y-16636748D02*
X11901031Y-16646271D01*
X11901031Y-16646271D02*
X11910555Y-16665319D01*
X11910555Y-16665319D02*
X11920079Y-16703414D01*
X11920079Y-16703414D02*
X11920079Y-16751033D01*
X11920079Y-16751033D02*
X11910555Y-16789129D01*
X11910555Y-16789129D02*
X11901031Y-16808176D01*
X11901031Y-16808176D02*
X11891507Y-16817700D01*
X11891507Y-16817700D02*
X11872460Y-16827224D01*
X11872460Y-16827224D02*
X11853412Y-16827224D01*
X11853412Y-16827224D02*
X11834364Y-16817700D01*
X11834364Y-16817700D02*
X11824841Y-16808176D01*
X11824841Y-16808176D02*
X11815317Y-16789129D01*
X11815317Y-16789129D02*
X11805793Y-16751033D01*
X11805793Y-16751033D02*
X11805793Y-16703414D01*
X11805793Y-16703414D02*
X11815317Y-16665319D01*
X11815317Y-16665319D02*
X11824841Y-16646271D01*
X11824841Y-16646271D02*
X11834364Y-16636748D01*
X11834364Y-16636748D02*
X11853412Y-16627224D01*
X12005793Y-16808176D02*
X12015317Y-16817700D01*
X12015317Y-16817700D02*
X12005793Y-16827224D01*
X12005793Y-16827224D02*
X11996269Y-16817700D01*
X11996269Y-16817700D02*
X12005793Y-16808176D01*
X12005793Y-16808176D02*
X12005793Y-16827224D01*
X12186745Y-16627224D02*
X12148650Y-16627224D01*
X12148650Y-16627224D02*
X12129602Y-16636748D01*
X12129602Y-16636748D02*
X12120079Y-16646271D01*
X12120079Y-16646271D02*
X12101031Y-16674843D01*
X12101031Y-16674843D02*
X12091507Y-16712938D01*
X12091507Y-16712938D02*
X12091507Y-16789129D01*
X12091507Y-16789129D02*
X12101031Y-16808176D01*
X12101031Y-16808176D02*
X12110555Y-16817700D01*
X12110555Y-16817700D02*
X12129602Y-16827224D01*
X12129602Y-16827224D02*
X12167698Y-16827224D01*
X12167698Y-16827224D02*
X12186745Y-16817700D01*
X12186745Y-16817700D02*
X12196269Y-16808176D01*
X12196269Y-16808176D02*
X12205793Y-16789129D01*
X12205793Y-16789129D02*
X12205793Y-16741509D01*
X12205793Y-16741509D02*
X12196269Y-16722462D01*
X12196269Y-16722462D02*
X12186745Y-16712938D01*
X12186745Y-16712938D02*
X12167698Y-16703414D01*
X12167698Y-16703414D02*
X12129602Y-16703414D01*
X12129602Y-16703414D02*
X12110555Y-16712938D01*
X12110555Y-16712938D02*
X12101031Y-16722462D01*
X12101031Y-16722462D02*
X12091507Y-16741509D01*
X12377222Y-16627224D02*
X12339126Y-16627224D01*
X12339126Y-16627224D02*
X12320079Y-16636748D01*
X12320079Y-16636748D02*
X12310555Y-16646271D01*
X12310555Y-16646271D02*
X12291507Y-16674843D01*
X12291507Y-16674843D02*
X12281983Y-16712938D01*
X12281983Y-16712938D02*
X12281983Y-16789129D01*
X12281983Y-16789129D02*
X12291507Y-16808176D01*
X12291507Y-16808176D02*
X12301031Y-16817700D01*
X12301031Y-16817700D02*
X12320079Y-16827224D01*
X12320079Y-16827224D02*
X12358174Y-16827224D01*
X12358174Y-16827224D02*
X12377222Y-16817700D01*
X12377222Y-16817700D02*
X12386745Y-16808176D01*
X12386745Y-16808176D02*
X12396269Y-16789129D01*
X12396269Y-16789129D02*
X12396269Y-16741509D01*
X12396269Y-16741509D02*
X12386745Y-16722462D01*
X12386745Y-16722462D02*
X12377222Y-16712938D01*
X12377222Y-16712938D02*
X12358174Y-16703414D01*
X12358174Y-16703414D02*
X12320079Y-16703414D01*
X12320079Y-16703414D02*
X12301031Y-16712938D01*
X12301031Y-16712938D02*
X12291507Y-16722462D01*
X12291507Y-16722462D02*
X12281983Y-16741509D01*
X12520079Y-16627224D02*
X12539126Y-16627224D01*
X12539126Y-16627224D02*
X12558174Y-16636748D01*
X12558174Y-16636748D02*
X12567698Y-16646271D01*
X12567698Y-16646271D02*
X12577222Y-16665319D01*
X12577222Y-16665319D02*
X12586745Y-16703414D01*
X12586745Y-16703414D02*
X12586745Y-16751033D01*
X12586745Y-16751033D02*
X12577222Y-16789129D01*
X12577222Y-16789129D02*
X12567698Y-16808176D01*
X12567698Y-16808176D02*
X12558174Y-16817700D01*
X12558174Y-16817700D02*
X12539126Y-16827224D01*
X12539126Y-16827224D02*
X12520079Y-16827224D01*
X12520079Y-16827224D02*
X12501031Y-16817700D01*
X12501031Y-16817700D02*
X12491507Y-16808176D01*
X12491507Y-16808176D02*
X12481983Y-16789129D01*
X12481983Y-16789129D02*
X12472460Y-16751033D01*
X12472460Y-16751033D02*
X12472460Y-16703414D01*
X12472460Y-16703414D02*
X12481983Y-16665319D01*
X12481983Y-16665319D02*
X12491507Y-16646271D01*
X12491507Y-16646271D02*
X12501031Y-16636748D01*
X12501031Y-16636748D02*
X12520079Y-16627224D01*
X12672460Y-16827224D02*
X12672460Y-16693890D01*
X12672460Y-16712938D02*
X12681983Y-16703414D01*
X12681983Y-16703414D02*
X12701031Y-16693890D01*
X12701031Y-16693890D02*
X12729603Y-16693890D01*
X12729603Y-16693890D02*
X12748650Y-16703414D01*
X12748650Y-16703414D02*
X12758174Y-16722462D01*
X12758174Y-16722462D02*
X12758174Y-16827224D01*
X12758174Y-16722462D02*
X12767698Y-16703414D01*
X12767698Y-16703414D02*
X12786745Y-16693890D01*
X12786745Y-16693890D02*
X12815317Y-16693890D01*
X12815317Y-16693890D02*
X12834364Y-16703414D01*
X12834364Y-16703414D02*
X12843888Y-16722462D01*
X12843888Y-16722462D02*
X12843888Y-16827224D01*
X12939126Y-16827224D02*
X12939126Y-16693890D01*
X12939126Y-16712938D02*
X12948650Y-16703414D01*
X12948650Y-16703414D02*
X12967698Y-16693890D01*
X12967698Y-16693890D02*
X12996269Y-16693890D01*
X12996269Y-16693890D02*
X13015317Y-16703414D01*
X13015317Y-16703414D02*
X13024841Y-16722462D01*
X13024841Y-16722462D02*
X13024841Y-16827224D01*
X13024841Y-16722462D02*
X13034364Y-16703414D01*
X13034364Y-16703414D02*
X13053412Y-16693890D01*
X13053412Y-16693890D02*
X13081983Y-16693890D01*
X13081983Y-16693890D02*
X13101031Y-16703414D01*
X13101031Y-16703414D02*
X13110555Y-16722462D01*
X13110555Y-16722462D02*
X13110555Y-16827224D01*
X13501031Y-16617700D02*
X13329603Y-16874843D01*
X13758174Y-16627224D02*
X13777222Y-16627224D01*
X13777222Y-16627224D02*
X13796269Y-16636748D01*
X13796269Y-16636748D02*
X13805793Y-16646271D01*
X13805793Y-16646271D02*
X13815317Y-16665319D01*
X13815317Y-16665319D02*
X13824841Y-16703414D01*
X13824841Y-16703414D02*
X13824841Y-16751033D01*
X13824841Y-16751033D02*
X13815317Y-16789129D01*
X13815317Y-16789129D02*
X13805793Y-16808176D01*
X13805793Y-16808176D02*
X13796269Y-16817700D01*
X13796269Y-16817700D02*
X13777222Y-16827224D01*
X13777222Y-16827224D02*
X13758174Y-16827224D01*
X13758174Y-16827224D02*
X13739126Y-16817700D01*
X13739126Y-16817700D02*
X13729603Y-16808176D01*
X13729603Y-16808176D02*
X13720079Y-16789129D01*
X13720079Y-16789129D02*
X13710555Y-16751033D01*
X13710555Y-16751033D02*
X13710555Y-16703414D01*
X13710555Y-16703414D02*
X13720079Y-16665319D01*
X13720079Y-16665319D02*
X13729603Y-16646271D01*
X13729603Y-16646271D02*
X13739126Y-16636748D01*
X13739126Y-16636748D02*
X13758174Y-16627224D01*
X13910555Y-16808176D02*
X13920079Y-16817700D01*
X13920079Y-16817700D02*
X13910555Y-16827224D01*
X13910555Y-16827224D02*
X13901031Y-16817700D01*
X13901031Y-16817700D02*
X13910555Y-16808176D01*
X13910555Y-16808176D02*
X13910555Y-16827224D01*
X14043888Y-16627224D02*
X14062936Y-16627224D01*
X14062936Y-16627224D02*
X14081984Y-16636748D01*
X14081984Y-16636748D02*
X14091507Y-16646271D01*
X14091507Y-16646271D02*
X14101031Y-16665319D01*
X14101031Y-16665319D02*
X14110555Y-16703414D01*
X14110555Y-16703414D02*
X14110555Y-16751033D01*
X14110555Y-16751033D02*
X14101031Y-16789129D01*
X14101031Y-16789129D02*
X14091507Y-16808176D01*
X14091507Y-16808176D02*
X14081984Y-16817700D01*
X14081984Y-16817700D02*
X14062936Y-16827224D01*
X14062936Y-16827224D02*
X14043888Y-16827224D01*
X14043888Y-16827224D02*
X14024841Y-16817700D01*
X14024841Y-16817700D02*
X14015317Y-16808176D01*
X14015317Y-16808176D02*
X14005793Y-16789129D01*
X14005793Y-16789129D02*
X13996269Y-16751033D01*
X13996269Y-16751033D02*
X13996269Y-16703414D01*
X13996269Y-16703414D02*
X14005793Y-16665319D01*
X14005793Y-16665319D02*
X14015317Y-16646271D01*
X14015317Y-16646271D02*
X14024841Y-16636748D01*
X14024841Y-16636748D02*
X14043888Y-16627224D01*
X14186746Y-16646271D02*
X14196269Y-16636748D01*
X14196269Y-16636748D02*
X14215317Y-16627224D01*
X14215317Y-16627224D02*
X14262936Y-16627224D01*
X14262936Y-16627224D02*
X14281984Y-16636748D01*
X14281984Y-16636748D02*
X14291507Y-16646271D01*
X14291507Y-16646271D02*
X14301031Y-16665319D01*
X14301031Y-16665319D02*
X14301031Y-16684367D01*
X14301031Y-16684367D02*
X14291507Y-16712938D01*
X14291507Y-16712938D02*
X14177222Y-16827224D01*
X14177222Y-16827224D02*
X14301031Y-16827224D01*
X14472460Y-16627224D02*
X14434365Y-16627224D01*
X14434365Y-16627224D02*
X14415317Y-16636748D01*
X14415317Y-16636748D02*
X14405793Y-16646271D01*
X14405793Y-16646271D02*
X14386746Y-16674843D01*
X14386746Y-16674843D02*
X14377222Y-16712938D01*
X14377222Y-16712938D02*
X14377222Y-16789129D01*
X14377222Y-16789129D02*
X14386746Y-16808176D01*
X14386746Y-16808176D02*
X14396269Y-16817700D01*
X14396269Y-16817700D02*
X14415317Y-16827224D01*
X14415317Y-16827224D02*
X14453412Y-16827224D01*
X14453412Y-16827224D02*
X14472460Y-16817700D01*
X14472460Y-16817700D02*
X14481984Y-16808176D01*
X14481984Y-16808176D02*
X14491507Y-16789129D01*
X14491507Y-16789129D02*
X14491507Y-16741509D01*
X14491507Y-16741509D02*
X14481984Y-16722462D01*
X14481984Y-16722462D02*
X14472460Y-16712938D01*
X14472460Y-16712938D02*
X14453412Y-16703414D01*
X14453412Y-16703414D02*
X14415317Y-16703414D01*
X14415317Y-16703414D02*
X14396269Y-16712938D01*
X14396269Y-16712938D02*
X14386746Y-16722462D01*
X14386746Y-16722462D02*
X14377222Y-16741509D01*
X14615317Y-16627224D02*
X14634365Y-16627224D01*
X14634365Y-16627224D02*
X14653412Y-16636748D01*
X14653412Y-16636748D02*
X14662936Y-16646271D01*
X14662936Y-16646271D02*
X14672460Y-16665319D01*
X14672460Y-16665319D02*
X14681984Y-16703414D01*
X14681984Y-16703414D02*
X14681984Y-16751033D01*
X14681984Y-16751033D02*
X14672460Y-16789129D01*
X14672460Y-16789129D02*
X14662936Y-16808176D01*
X14662936Y-16808176D02*
X14653412Y-16817700D01*
X14653412Y-16817700D02*
X14634365Y-16827224D01*
X14634365Y-16827224D02*
X14615317Y-16827224D01*
X14615317Y-16827224D02*
X14596269Y-16817700D01*
X14596269Y-16817700D02*
X14586746Y-16808176D01*
X14586746Y-16808176D02*
X14577222Y-16789129D01*
X14577222Y-16789129D02*
X14567698Y-16751033D01*
X14567698Y-16751033D02*
X14567698Y-16703414D01*
X14567698Y-16703414D02*
X14577222Y-16665319D01*
X14577222Y-16665319D02*
X14586746Y-16646271D01*
X14586746Y-16646271D02*
X14596269Y-16636748D01*
X14596269Y-16636748D02*
X14615317Y-16627224D01*
X14758174Y-16627224D02*
X14758174Y-16665319D01*
X14834365Y-16627224D02*
X14834365Y-16665319D01*
X15129603Y-16903414D02*
X15120079Y-16893890D01*
X15120079Y-16893890D02*
X15101031Y-16865319D01*
X15101031Y-16865319D02*
X15091508Y-16846271D01*
X15091508Y-16846271D02*
X15081984Y-16817700D01*
X15081984Y-16817700D02*
X15072460Y-16770081D01*
X15072460Y-16770081D02*
X15072460Y-16731986D01*
X15072460Y-16731986D02*
X15081984Y-16684367D01*
X15081984Y-16684367D02*
X15091508Y-16655795D01*
X15091508Y-16655795D02*
X15101031Y-16636748D01*
X15101031Y-16636748D02*
X15120079Y-16608176D01*
X15120079Y-16608176D02*
X15129603Y-16598652D01*
X15310555Y-16827224D02*
X15196269Y-16827224D01*
X15253412Y-16827224D02*
X15253412Y-16627224D01*
X15253412Y-16627224D02*
X15234365Y-16655795D01*
X15234365Y-16655795D02*
X15215317Y-16674843D01*
X15215317Y-16674843D02*
X15196269Y-16684367D01*
X15548650Y-16827224D02*
X15548650Y-16627224D01*
X15634365Y-16827224D02*
X15634365Y-16722462D01*
X15634365Y-16722462D02*
X15624841Y-16703414D01*
X15624841Y-16703414D02*
X15605793Y-16693890D01*
X15605793Y-16693890D02*
X15577222Y-16693890D01*
X15577222Y-16693890D02*
X15558174Y-16703414D01*
X15558174Y-16703414D02*
X15548650Y-16712938D01*
X15758174Y-16827224D02*
X15739127Y-16817700D01*
X15739127Y-16817700D02*
X15729603Y-16808176D01*
X15729603Y-16808176D02*
X15720079Y-16789129D01*
X15720079Y-16789129D02*
X15720079Y-16731986D01*
X15720079Y-16731986D02*
X15729603Y-16712938D01*
X15729603Y-16712938D02*
X15739127Y-16703414D01*
X15739127Y-16703414D02*
X15758174Y-16693890D01*
X15758174Y-16693890D02*
X15786746Y-16693890D01*
X15786746Y-16693890D02*
X15805793Y-16703414D01*
X15805793Y-16703414D02*
X15815317Y-16712938D01*
X15815317Y-16712938D02*
X15824841Y-16731986D01*
X15824841Y-16731986D02*
X15824841Y-16789129D01*
X15824841Y-16789129D02*
X15815317Y-16808176D01*
X15815317Y-16808176D02*
X15805793Y-16817700D01*
X15805793Y-16817700D02*
X15786746Y-16827224D01*
X15786746Y-16827224D02*
X15758174Y-16827224D01*
X15939127Y-16827224D02*
X15920079Y-16817700D01*
X15920079Y-16817700D02*
X15910555Y-16798652D01*
X15910555Y-16798652D02*
X15910555Y-16627224D01*
X16091508Y-16817700D02*
X16072460Y-16827224D01*
X16072460Y-16827224D02*
X16034365Y-16827224D01*
X16034365Y-16827224D02*
X16015317Y-16817700D01*
X16015317Y-16817700D02*
X16005793Y-16798652D01*
X16005793Y-16798652D02*
X16005793Y-16722462D01*
X16005793Y-16722462D02*
X16015317Y-16703414D01*
X16015317Y-16703414D02*
X16034365Y-16693890D01*
X16034365Y-16693890D02*
X16072460Y-16693890D01*
X16072460Y-16693890D02*
X16091508Y-16703414D01*
X16091508Y-16703414D02*
X16101031Y-16722462D01*
X16101031Y-16722462D02*
X16101031Y-16741509D01*
X16101031Y-16741509D02*
X16005793Y-16760557D01*
X16167698Y-16903414D02*
X16177222Y-16893890D01*
X16177222Y-16893890D02*
X16196270Y-16865319D01*
X16196270Y-16865319D02*
X16205793Y-16846271D01*
X16205793Y-16846271D02*
X16215317Y-16817700D01*
X16215317Y-16817700D02*
X16224841Y-16770081D01*
X16224841Y-16770081D02*
X16224841Y-16731986D01*
X16224841Y-16731986D02*
X16215317Y-16684367D01*
X16215317Y-16684367D02*
X16205793Y-16655795D01*
X16205793Y-16655795D02*
X16196270Y-16636748D01*
X16196270Y-16636748D02*
X16177222Y-16608176D01*
X16177222Y-16608176D02*
X16167698Y-16598652D01*
X16529603Y-16903414D02*
X16520079Y-16893890D01*
X16520079Y-16893890D02*
X16501031Y-16865319D01*
X16501031Y-16865319D02*
X16491508Y-16846271D01*
X16491508Y-16846271D02*
X16481984Y-16817700D01*
X16481984Y-16817700D02*
X16472460Y-16770081D01*
X16472460Y-16770081D02*
X16472460Y-16731986D01*
X16472460Y-16731986D02*
X16481984Y-16684367D01*
X16481984Y-16684367D02*
X16491508Y-16655795D01*
X16491508Y-16655795D02*
X16501031Y-16636748D01*
X16501031Y-16636748D02*
X16520079Y-16608176D01*
X16520079Y-16608176D02*
X16529603Y-16598652D01*
X16605793Y-16693890D02*
X16605793Y-16827224D01*
X16605793Y-16712938D02*
X16615317Y-16703414D01*
X16615317Y-16703414D02*
X16634365Y-16693890D01*
X16634365Y-16693890D02*
X16662936Y-16693890D01*
X16662936Y-16693890D02*
X16681984Y-16703414D01*
X16681984Y-16703414D02*
X16691508Y-16722462D01*
X16691508Y-16722462D02*
X16691508Y-16827224D01*
X16815317Y-16827224D02*
X16796270Y-16817700D01*
X16796270Y-16817700D02*
X16786746Y-16808176D01*
X16786746Y-16808176D02*
X16777222Y-16789129D01*
X16777222Y-16789129D02*
X16777222Y-16731986D01*
X16777222Y-16731986D02*
X16786746Y-16712938D01*
X16786746Y-16712938D02*
X16796270Y-16703414D01*
X16796270Y-16703414D02*
X16815317Y-16693890D01*
X16815317Y-16693890D02*
X16843889Y-16693890D01*
X16843889Y-16693890D02*
X16862936Y-16703414D01*
X16862936Y-16703414D02*
X16872460Y-16712938D01*
X16872460Y-16712938D02*
X16881984Y-16731986D01*
X16881984Y-16731986D02*
X16881984Y-16789129D01*
X16881984Y-16789129D02*
X16872460Y-16808176D01*
X16872460Y-16808176D02*
X16862936Y-16817700D01*
X16862936Y-16817700D02*
X16843889Y-16827224D01*
X16843889Y-16827224D02*
X16815317Y-16827224D01*
X16939127Y-16693890D02*
X17015317Y-16693890D01*
X16967698Y-16627224D02*
X16967698Y-16798652D01*
X16967698Y-16798652D02*
X16977222Y-16817700D01*
X16977222Y-16817700D02*
X16996270Y-16827224D01*
X16996270Y-16827224D02*
X17015317Y-16827224D01*
X17234365Y-16693890D02*
X17234365Y-16893890D01*
X17234365Y-16703414D02*
X17253413Y-16693890D01*
X17253413Y-16693890D02*
X17291508Y-16693890D01*
X17291508Y-16693890D02*
X17310555Y-16703414D01*
X17310555Y-16703414D02*
X17320079Y-16712938D01*
X17320079Y-16712938D02*
X17329603Y-16731986D01*
X17329603Y-16731986D02*
X17329603Y-16789129D01*
X17329603Y-16789129D02*
X17320079Y-16808176D01*
X17320079Y-16808176D02*
X17310555Y-16817700D01*
X17310555Y-16817700D02*
X17291508Y-16827224D01*
X17291508Y-16827224D02*
X17253413Y-16827224D01*
X17253413Y-16827224D02*
X17234365Y-16817700D01*
X17443889Y-16827224D02*
X17424841Y-16817700D01*
X17424841Y-16817700D02*
X17415317Y-16798652D01*
X17415317Y-16798652D02*
X17415317Y-16627224D01*
X17605794Y-16827224D02*
X17605794Y-16722462D01*
X17605794Y-16722462D02*
X17596270Y-16703414D01*
X17596270Y-16703414D02*
X17577222Y-16693890D01*
X17577222Y-16693890D02*
X17539127Y-16693890D01*
X17539127Y-16693890D02*
X17520079Y-16703414D01*
X17605794Y-16817700D02*
X17586746Y-16827224D01*
X17586746Y-16827224D02*
X17539127Y-16827224D01*
X17539127Y-16827224D02*
X17520079Y-16817700D01*
X17520079Y-16817700D02*
X17510555Y-16798652D01*
X17510555Y-16798652D02*
X17510555Y-16779605D01*
X17510555Y-16779605D02*
X17520079Y-16760557D01*
X17520079Y-16760557D02*
X17539127Y-16751033D01*
X17539127Y-16751033D02*
X17586746Y-16751033D01*
X17586746Y-16751033D02*
X17605794Y-16741509D01*
X17672460Y-16693890D02*
X17748651Y-16693890D01*
X17701032Y-16627224D02*
X17701032Y-16798652D01*
X17701032Y-16798652D02*
X17710555Y-16817700D01*
X17710555Y-16817700D02*
X17729603Y-16827224D01*
X17729603Y-16827224D02*
X17748651Y-16827224D01*
X17891508Y-16817700D02*
X17872460Y-16827224D01*
X17872460Y-16827224D02*
X17834365Y-16827224D01*
X17834365Y-16827224D02*
X17815317Y-16817700D01*
X17815317Y-16817700D02*
X17805794Y-16798652D01*
X17805794Y-16798652D02*
X17805794Y-16722462D01*
X17805794Y-16722462D02*
X17815317Y-16703414D01*
X17815317Y-16703414D02*
X17834365Y-16693890D01*
X17834365Y-16693890D02*
X17872460Y-16693890D01*
X17872460Y-16693890D02*
X17891508Y-16703414D01*
X17891508Y-16703414D02*
X17901032Y-16722462D01*
X17901032Y-16722462D02*
X17901032Y-16741509D01*
X17901032Y-16741509D02*
X17805794Y-16760557D01*
X18072460Y-16827224D02*
X18072460Y-16627224D01*
X18072460Y-16817700D02*
X18053413Y-16827224D01*
X18053413Y-16827224D02*
X18015317Y-16827224D01*
X18015317Y-16827224D02*
X17996270Y-16817700D01*
X17996270Y-16817700D02*
X17986746Y-16808176D01*
X17986746Y-16808176D02*
X17977222Y-16789129D01*
X17977222Y-16789129D02*
X17977222Y-16731986D01*
X17977222Y-16731986D02*
X17986746Y-16712938D01*
X17986746Y-16712938D02*
X17996270Y-16703414D01*
X17996270Y-16703414D02*
X18015317Y-16693890D01*
X18015317Y-16693890D02*
X18053413Y-16693890D01*
X18053413Y-16693890D02*
X18072460Y-16703414D01*
X18148651Y-16903414D02*
X18158175Y-16893890D01*
X18158175Y-16893890D02*
X18177222Y-16865319D01*
X18177222Y-16865319D02*
X18186746Y-16846271D01*
X18186746Y-16846271D02*
X18196270Y-16817700D01*
X18196270Y-16817700D02*
X18205794Y-16770081D01*
X18205794Y-16770081D02*
X18205794Y-16731986D01*
X18205794Y-16731986D02*
X18196270Y-16684367D01*
X18196270Y-16684367D02*
X18186746Y-16655795D01*
X18186746Y-16655795D02*
X18177222Y-16636748D01*
X18177222Y-16636748D02*
X18158175Y-16608176D01*
X18158175Y-16608176D02*
X18148651Y-16598652D01*
D10*
X11509540Y-16954740D02*
X11509540Y-17044740D01*
X11464540Y-16999740D02*
X11554540Y-16999740D01*
D11*
X11853412Y-16891224D02*
X11872460Y-16891224D01*
X11872460Y-16891224D02*
X11891507Y-16900748D01*
X11891507Y-16900748D02*
X11901031Y-16910271D01*
X11901031Y-16910271D02*
X11910555Y-16929319D01*
X11910555Y-16929319D02*
X11920079Y-16967414D01*
X11920079Y-16967414D02*
X11920079Y-17015033D01*
X11920079Y-17015033D02*
X11910555Y-17053129D01*
X11910555Y-17053129D02*
X11901031Y-17072176D01*
X11901031Y-17072176D02*
X11891507Y-17081700D01*
X11891507Y-17081700D02*
X11872460Y-17091224D01*
X11872460Y-17091224D02*
X11853412Y-17091224D01*
X11853412Y-17091224D02*
X11834364Y-17081700D01*
X11834364Y-17081700D02*
X11824841Y-17072176D01*
X11824841Y-17072176D02*
X11815317Y-17053129D01*
X11815317Y-17053129D02*
X11805793Y-17015033D01*
X11805793Y-17015033D02*
X11805793Y-16967414D01*
X11805793Y-16967414D02*
X11815317Y-16929319D01*
X11815317Y-16929319D02*
X11824841Y-16910271D01*
X11824841Y-16910271D02*
X11834364Y-16900748D01*
X11834364Y-16900748D02*
X11853412Y-16891224D01*
X12005793Y-17072176D02*
X12015317Y-17081700D01*
X12015317Y-17081700D02*
X12005793Y-17091224D01*
X12005793Y-17091224D02*
X11996269Y-17081700D01*
X11996269Y-17081700D02*
X12005793Y-17072176D01*
X12005793Y-17072176D02*
X12005793Y-17091224D01*
X12110555Y-17091224D02*
X12148650Y-17091224D01*
X12148650Y-17091224D02*
X12167698Y-17081700D01*
X12167698Y-17081700D02*
X12177222Y-17072176D01*
X12177222Y-17072176D02*
X12196269Y-17043605D01*
X12196269Y-17043605D02*
X12205793Y-17005510D01*
X12205793Y-17005510D02*
X12205793Y-16929319D01*
X12205793Y-16929319D02*
X12196269Y-16910271D01*
X12196269Y-16910271D02*
X12186745Y-16900748D01*
X12186745Y-16900748D02*
X12167698Y-16891224D01*
X12167698Y-16891224D02*
X12129602Y-16891224D01*
X12129602Y-16891224D02*
X12110555Y-16900748D01*
X12110555Y-16900748D02*
X12101031Y-16910271D01*
X12101031Y-16910271D02*
X12091507Y-16929319D01*
X12091507Y-16929319D02*
X12091507Y-16976938D01*
X12091507Y-16976938D02*
X12101031Y-16995986D01*
X12101031Y-16995986D02*
X12110555Y-17005510D01*
X12110555Y-17005510D02*
X12129602Y-17015033D01*
X12129602Y-17015033D02*
X12167698Y-17015033D01*
X12167698Y-17015033D02*
X12186745Y-17005510D01*
X12186745Y-17005510D02*
X12196269Y-16995986D01*
X12196269Y-16995986D02*
X12205793Y-16976938D01*
X12329602Y-16891224D02*
X12348650Y-16891224D01*
X12348650Y-16891224D02*
X12367698Y-16900748D01*
X12367698Y-16900748D02*
X12377222Y-16910271D01*
X12377222Y-16910271D02*
X12386745Y-16929319D01*
X12386745Y-16929319D02*
X12396269Y-16967414D01*
X12396269Y-16967414D02*
X12396269Y-17015033D01*
X12396269Y-17015033D02*
X12386745Y-17053129D01*
X12386745Y-17053129D02*
X12377222Y-17072176D01*
X12377222Y-17072176D02*
X12367698Y-17081700D01*
X12367698Y-17081700D02*
X12348650Y-17091224D01*
X12348650Y-17091224D02*
X12329602Y-17091224D01*
X12329602Y-17091224D02*
X12310555Y-17081700D01*
X12310555Y-17081700D02*
X12301031Y-17072176D01*
X12301031Y-17072176D02*
X12291507Y-17053129D01*
X12291507Y-17053129D02*
X12281983Y-17015033D01*
X12281983Y-17015033D02*
X12281983Y-16967414D01*
X12281983Y-16967414D02*
X12291507Y-16929319D01*
X12291507Y-16929319D02*
X12301031Y-16910271D01*
X12301031Y-16910271D02*
X12310555Y-16900748D01*
X12310555Y-16900748D02*
X12329602Y-16891224D01*
X12520079Y-16891224D02*
X12539126Y-16891224D01*
X12539126Y-16891224D02*
X12558174Y-16900748D01*
X12558174Y-16900748D02*
X12567698Y-16910271D01*
X12567698Y-16910271D02*
X12577222Y-16929319D01*
X12577222Y-16929319D02*
X12586745Y-16967414D01*
X12586745Y-16967414D02*
X12586745Y-17015033D01*
X12586745Y-17015033D02*
X12577222Y-17053129D01*
X12577222Y-17053129D02*
X12567698Y-17072176D01*
X12567698Y-17072176D02*
X12558174Y-17081700D01*
X12558174Y-17081700D02*
X12539126Y-17091224D01*
X12539126Y-17091224D02*
X12520079Y-17091224D01*
X12520079Y-17091224D02*
X12501031Y-17081700D01*
X12501031Y-17081700D02*
X12491507Y-17072176D01*
X12491507Y-17072176D02*
X12481983Y-17053129D01*
X12481983Y-17053129D02*
X12472460Y-17015033D01*
X12472460Y-17015033D02*
X12472460Y-16967414D01*
X12472460Y-16967414D02*
X12481983Y-16929319D01*
X12481983Y-16929319D02*
X12491507Y-16910271D01*
X12491507Y-16910271D02*
X12501031Y-16900748D01*
X12501031Y-16900748D02*
X12520079Y-16891224D01*
X12672460Y-17091224D02*
X12672460Y-16957890D01*
X12672460Y-16976938D02*
X12681983Y-16967414D01*
X12681983Y-16967414D02*
X12701031Y-16957890D01*
X12701031Y-16957890D02*
X12729603Y-16957890D01*
X12729603Y-16957890D02*
X12748650Y-16967414D01*
X12748650Y-16967414D02*
X12758174Y-16986462D01*
X12758174Y-16986462D02*
X12758174Y-17091224D01*
X12758174Y-16986462D02*
X12767698Y-16967414D01*
X12767698Y-16967414D02*
X12786745Y-16957890D01*
X12786745Y-16957890D02*
X12815317Y-16957890D01*
X12815317Y-16957890D02*
X12834364Y-16967414D01*
X12834364Y-16967414D02*
X12843888Y-16986462D01*
X12843888Y-16986462D02*
X12843888Y-17091224D01*
X12939126Y-17091224D02*
X12939126Y-16957890D01*
X12939126Y-16976938D02*
X12948650Y-16967414D01*
X12948650Y-16967414D02*
X12967698Y-16957890D01*
X12967698Y-16957890D02*
X12996269Y-16957890D01*
X12996269Y-16957890D02*
X13015317Y-16967414D01*
X13015317Y-16967414D02*
X13024841Y-16986462D01*
X13024841Y-16986462D02*
X13024841Y-17091224D01*
X13024841Y-16986462D02*
X13034364Y-16967414D01*
X13034364Y-16967414D02*
X13053412Y-16957890D01*
X13053412Y-16957890D02*
X13081983Y-16957890D01*
X13081983Y-16957890D02*
X13101031Y-16967414D01*
X13101031Y-16967414D02*
X13110555Y-16986462D01*
X13110555Y-16986462D02*
X13110555Y-17091224D01*
X13501031Y-16881700D02*
X13329603Y-17138843D01*
X13758174Y-16891224D02*
X13777222Y-16891224D01*
X13777222Y-16891224D02*
X13796269Y-16900748D01*
X13796269Y-16900748D02*
X13805793Y-16910271D01*
X13805793Y-16910271D02*
X13815317Y-16929319D01*
X13815317Y-16929319D02*
X13824841Y-16967414D01*
X13824841Y-16967414D02*
X13824841Y-17015033D01*
X13824841Y-17015033D02*
X13815317Y-17053129D01*
X13815317Y-17053129D02*
X13805793Y-17072176D01*
X13805793Y-17072176D02*
X13796269Y-17081700D01*
X13796269Y-17081700D02*
X13777222Y-17091224D01*
X13777222Y-17091224D02*
X13758174Y-17091224D01*
X13758174Y-17091224D02*
X13739126Y-17081700D01*
X13739126Y-17081700D02*
X13729603Y-17072176D01*
X13729603Y-17072176D02*
X13720079Y-17053129D01*
X13720079Y-17053129D02*
X13710555Y-17015033D01*
X13710555Y-17015033D02*
X13710555Y-16967414D01*
X13710555Y-16967414D02*
X13720079Y-16929319D01*
X13720079Y-16929319D02*
X13729603Y-16910271D01*
X13729603Y-16910271D02*
X13739126Y-16900748D01*
X13739126Y-16900748D02*
X13758174Y-16891224D01*
X13910555Y-17072176D02*
X13920079Y-17081700D01*
X13920079Y-17081700D02*
X13910555Y-17091224D01*
X13910555Y-17091224D02*
X13901031Y-17081700D01*
X13901031Y-17081700D02*
X13910555Y-17072176D01*
X13910555Y-17072176D02*
X13910555Y-17091224D01*
X14043888Y-16891224D02*
X14062936Y-16891224D01*
X14062936Y-16891224D02*
X14081984Y-16900748D01*
X14081984Y-16900748D02*
X14091507Y-16910271D01*
X14091507Y-16910271D02*
X14101031Y-16929319D01*
X14101031Y-16929319D02*
X14110555Y-16967414D01*
X14110555Y-16967414D02*
X14110555Y-17015033D01*
X14110555Y-17015033D02*
X14101031Y-17053129D01*
X14101031Y-17053129D02*
X14091507Y-17072176D01*
X14091507Y-17072176D02*
X14081984Y-17081700D01*
X14081984Y-17081700D02*
X14062936Y-17091224D01*
X14062936Y-17091224D02*
X14043888Y-17091224D01*
X14043888Y-17091224D02*
X14024841Y-17081700D01*
X14024841Y-17081700D02*
X14015317Y-17072176D01*
X14015317Y-17072176D02*
X14005793Y-17053129D01*
X14005793Y-17053129D02*
X13996269Y-17015033D01*
X13996269Y-17015033D02*
X13996269Y-16967414D01*
X13996269Y-16967414D02*
X14005793Y-16929319D01*
X14005793Y-16929319D02*
X14015317Y-16910271D01*
X14015317Y-16910271D02*
X14024841Y-16900748D01*
X14024841Y-16900748D02*
X14043888Y-16891224D01*
X14177222Y-16891224D02*
X14301031Y-16891224D01*
X14301031Y-16891224D02*
X14234365Y-16967414D01*
X14234365Y-16967414D02*
X14262936Y-16967414D01*
X14262936Y-16967414D02*
X14281984Y-16976938D01*
X14281984Y-16976938D02*
X14291507Y-16986462D01*
X14291507Y-16986462D02*
X14301031Y-17005510D01*
X14301031Y-17005510D02*
X14301031Y-17053129D01*
X14301031Y-17053129D02*
X14291507Y-17072176D01*
X14291507Y-17072176D02*
X14281984Y-17081700D01*
X14281984Y-17081700D02*
X14262936Y-17091224D01*
X14262936Y-17091224D02*
X14205793Y-17091224D01*
X14205793Y-17091224D02*
X14186746Y-17081700D01*
X14186746Y-17081700D02*
X14177222Y-17072176D01*
X14481984Y-16891224D02*
X14386746Y-16891224D01*
X14386746Y-16891224D02*
X14377222Y-16986462D01*
X14377222Y-16986462D02*
X14386746Y-16976938D01*
X14386746Y-16976938D02*
X14405793Y-16967414D01*
X14405793Y-16967414D02*
X14453412Y-16967414D01*
X14453412Y-16967414D02*
X14472460Y-16976938D01*
X14472460Y-16976938D02*
X14481984Y-16986462D01*
X14481984Y-16986462D02*
X14491507Y-17005510D01*
X14491507Y-17005510D02*
X14491507Y-17053129D01*
X14491507Y-17053129D02*
X14481984Y-17072176D01*
X14481984Y-17072176D02*
X14472460Y-17081700D01*
X14472460Y-17081700D02*
X14453412Y-17091224D01*
X14453412Y-17091224D02*
X14405793Y-17091224D01*
X14405793Y-17091224D02*
X14386746Y-17081700D01*
X14386746Y-17081700D02*
X14377222Y-17072176D01*
X14662936Y-16957890D02*
X14662936Y-17091224D01*
X14615317Y-16881700D02*
X14567698Y-17024557D01*
X14567698Y-17024557D02*
X14691507Y-17024557D01*
X14758174Y-16891224D02*
X14758174Y-16929319D01*
X14834365Y-16891224D02*
X14834365Y-16929319D01*
X15129603Y-17167414D02*
X15120079Y-17157890D01*
X15120079Y-17157890D02*
X15101031Y-17129319D01*
X15101031Y-17129319D02*
X15091508Y-17110271D01*
X15091508Y-17110271D02*
X15081984Y-17081700D01*
X15081984Y-17081700D02*
X15072460Y-17034081D01*
X15072460Y-17034081D02*
X15072460Y-16995986D01*
X15072460Y-16995986D02*
X15081984Y-16948367D01*
X15081984Y-16948367D02*
X15091508Y-16919795D01*
X15091508Y-16919795D02*
X15101031Y-16900748D01*
X15101031Y-16900748D02*
X15120079Y-16872176D01*
X15120079Y-16872176D02*
X15129603Y-16862652D01*
X15196269Y-16910271D02*
X15205793Y-16900748D01*
X15205793Y-16900748D02*
X15224841Y-16891224D01*
X15224841Y-16891224D02*
X15272460Y-16891224D01*
X15272460Y-16891224D02*
X15291508Y-16900748D01*
X15291508Y-16900748D02*
X15301031Y-16910271D01*
X15301031Y-16910271D02*
X15310555Y-16929319D01*
X15310555Y-16929319D02*
X15310555Y-16948367D01*
X15310555Y-16948367D02*
X15301031Y-16976938D01*
X15301031Y-16976938D02*
X15186746Y-17091224D01*
X15186746Y-17091224D02*
X15310555Y-17091224D01*
X15548650Y-17091224D02*
X15548650Y-16891224D01*
X15634365Y-17091224D02*
X15634365Y-16986462D01*
X15634365Y-16986462D02*
X15624841Y-16967414D01*
X15624841Y-16967414D02*
X15605793Y-16957890D01*
X15605793Y-16957890D02*
X15577222Y-16957890D01*
X15577222Y-16957890D02*
X15558174Y-16967414D01*
X15558174Y-16967414D02*
X15548650Y-16976938D01*
X15758174Y-17091224D02*
X15739127Y-17081700D01*
X15739127Y-17081700D02*
X15729603Y-17072176D01*
X15729603Y-17072176D02*
X15720079Y-17053129D01*
X15720079Y-17053129D02*
X15720079Y-16995986D01*
X15720079Y-16995986D02*
X15729603Y-16976938D01*
X15729603Y-16976938D02*
X15739127Y-16967414D01*
X15739127Y-16967414D02*
X15758174Y-16957890D01*
X15758174Y-16957890D02*
X15786746Y-16957890D01*
X15786746Y-16957890D02*
X15805793Y-16967414D01*
X15805793Y-16967414D02*
X15815317Y-16976938D01*
X15815317Y-16976938D02*
X15824841Y-16995986D01*
X15824841Y-16995986D02*
X15824841Y-17053129D01*
X15824841Y-17053129D02*
X15815317Y-17072176D01*
X15815317Y-17072176D02*
X15805793Y-17081700D01*
X15805793Y-17081700D02*
X15786746Y-17091224D01*
X15786746Y-17091224D02*
X15758174Y-17091224D01*
X15939127Y-17091224D02*
X15920079Y-17081700D01*
X15920079Y-17081700D02*
X15910555Y-17062652D01*
X15910555Y-17062652D02*
X15910555Y-16891224D01*
X16091508Y-17081700D02*
X16072460Y-17091224D01*
X16072460Y-17091224D02*
X16034365Y-17091224D01*
X16034365Y-17091224D02*
X16015317Y-17081700D01*
X16015317Y-17081700D02*
X16005793Y-17062652D01*
X16005793Y-17062652D02*
X16005793Y-16986462D01*
X16005793Y-16986462D02*
X16015317Y-16967414D01*
X16015317Y-16967414D02*
X16034365Y-16957890D01*
X16034365Y-16957890D02*
X16072460Y-16957890D01*
X16072460Y-16957890D02*
X16091508Y-16967414D01*
X16091508Y-16967414D02*
X16101031Y-16986462D01*
X16101031Y-16986462D02*
X16101031Y-17005510D01*
X16101031Y-17005510D02*
X16005793Y-17024557D01*
X16177222Y-17081700D02*
X16196270Y-17091224D01*
X16196270Y-17091224D02*
X16234365Y-17091224D01*
X16234365Y-17091224D02*
X16253412Y-17081700D01*
X16253412Y-17081700D02*
X16262936Y-17062652D01*
X16262936Y-17062652D02*
X16262936Y-17053129D01*
X16262936Y-17053129D02*
X16253412Y-17034081D01*
X16253412Y-17034081D02*
X16234365Y-17024557D01*
X16234365Y-17024557D02*
X16205793Y-17024557D01*
X16205793Y-17024557D02*
X16186746Y-17015033D01*
X16186746Y-17015033D02*
X16177222Y-16995986D01*
X16177222Y-16995986D02*
X16177222Y-16986462D01*
X16177222Y-16986462D02*
X16186746Y-16967414D01*
X16186746Y-16967414D02*
X16205793Y-16957890D01*
X16205793Y-16957890D02*
X16234365Y-16957890D01*
X16234365Y-16957890D02*
X16253412Y-16967414D01*
X16329603Y-17167414D02*
X16339127Y-17157890D01*
X16339127Y-17157890D02*
X16358174Y-17129319D01*
X16358174Y-17129319D02*
X16367698Y-17110271D01*
X16367698Y-17110271D02*
X16377222Y-17081700D01*
X16377222Y-17081700D02*
X16386746Y-17034081D01*
X16386746Y-17034081D02*
X16386746Y-16995986D01*
X16386746Y-16995986D02*
X16377222Y-16948367D01*
X16377222Y-16948367D02*
X16367698Y-16919795D01*
X16367698Y-16919795D02*
X16358174Y-16900748D01*
X16358174Y-16900748D02*
X16339127Y-16872176D01*
X16339127Y-16872176D02*
X16329603Y-16862652D01*
X16691508Y-17167414D02*
X16681984Y-17157890D01*
X16681984Y-17157890D02*
X16662936Y-17129319D01*
X16662936Y-17129319D02*
X16653412Y-17110271D01*
X16653412Y-17110271D02*
X16643889Y-17081700D01*
X16643889Y-17081700D02*
X16634365Y-17034081D01*
X16634365Y-17034081D02*
X16634365Y-16995986D01*
X16634365Y-16995986D02*
X16643889Y-16948367D01*
X16643889Y-16948367D02*
X16653412Y-16919795D01*
X16653412Y-16919795D02*
X16662936Y-16900748D01*
X16662936Y-16900748D02*
X16681984Y-16872176D01*
X16681984Y-16872176D02*
X16691508Y-16862652D01*
X16767698Y-16957890D02*
X16767698Y-17091224D01*
X16767698Y-16976938D02*
X16777222Y-16967414D01*
X16777222Y-16967414D02*
X16796270Y-16957890D01*
X16796270Y-16957890D02*
X16824841Y-16957890D01*
X16824841Y-16957890D02*
X16843889Y-16967414D01*
X16843889Y-16967414D02*
X16853413Y-16986462D01*
X16853413Y-16986462D02*
X16853413Y-17091224D01*
X16977222Y-17091224D02*
X16958174Y-17081700D01*
X16958174Y-17081700D02*
X16948651Y-17072176D01*
X16948651Y-17072176D02*
X16939127Y-17053129D01*
X16939127Y-17053129D02*
X16939127Y-16995986D01*
X16939127Y-16995986D02*
X16948651Y-16976938D01*
X16948651Y-16976938D02*
X16958174Y-16967414D01*
X16958174Y-16967414D02*
X16977222Y-16957890D01*
X16977222Y-16957890D02*
X17005794Y-16957890D01*
X17005794Y-16957890D02*
X17024841Y-16967414D01*
X17024841Y-16967414D02*
X17034365Y-16976938D01*
X17034365Y-16976938D02*
X17043889Y-16995986D01*
X17043889Y-16995986D02*
X17043889Y-17053129D01*
X17043889Y-17053129D02*
X17034365Y-17072176D01*
X17034365Y-17072176D02*
X17024841Y-17081700D01*
X17024841Y-17081700D02*
X17005794Y-17091224D01*
X17005794Y-17091224D02*
X16977222Y-17091224D01*
X17101032Y-16957890D02*
X17177222Y-16957890D01*
X17129603Y-16891224D02*
X17129603Y-17062652D01*
X17129603Y-17062652D02*
X17139127Y-17081700D01*
X17139127Y-17081700D02*
X17158174Y-17091224D01*
X17158174Y-17091224D02*
X17177222Y-17091224D01*
X17396270Y-16957890D02*
X17396270Y-17157890D01*
X17396270Y-16967414D02*
X17415317Y-16957890D01*
X17415317Y-16957890D02*
X17453413Y-16957890D01*
X17453413Y-16957890D02*
X17472460Y-16967414D01*
X17472460Y-16967414D02*
X17481984Y-16976938D01*
X17481984Y-16976938D02*
X17491508Y-16995986D01*
X17491508Y-16995986D02*
X17491508Y-17053129D01*
X17491508Y-17053129D02*
X17481984Y-17072176D01*
X17481984Y-17072176D02*
X17472460Y-17081700D01*
X17472460Y-17081700D02*
X17453413Y-17091224D01*
X17453413Y-17091224D02*
X17415317Y-17091224D01*
X17415317Y-17091224D02*
X17396270Y-17081700D01*
X17605794Y-17091224D02*
X17586746Y-17081700D01*
X17586746Y-17081700D02*
X17577222Y-17062652D01*
X17577222Y-17062652D02*
X17577222Y-16891224D01*
X17767698Y-17091224D02*
X17767698Y-16986462D01*
X17767698Y-16986462D02*
X17758175Y-16967414D01*
X17758175Y-16967414D02*
X17739127Y-16957890D01*
X17739127Y-16957890D02*
X17701032Y-16957890D01*
X17701032Y-16957890D02*
X17681984Y-16967414D01*
X17767698Y-17081700D02*
X17748651Y-17091224D01*
X17748651Y-17091224D02*
X17701032Y-17091224D01*
X17701032Y-17091224D02*
X17681984Y-17081700D01*
X17681984Y-17081700D02*
X17672460Y-17062652D01*
X17672460Y-17062652D02*
X17672460Y-17043605D01*
X17672460Y-17043605D02*
X17681984Y-17024557D01*
X17681984Y-17024557D02*
X17701032Y-17015033D01*
X17701032Y-17015033D02*
X17748651Y-17015033D01*
X17748651Y-17015033D02*
X17767698Y-17005510D01*
X17834365Y-16957890D02*
X17910555Y-16957890D01*
X17862936Y-16891224D02*
X17862936Y-17062652D01*
X17862936Y-17062652D02*
X17872460Y-17081700D01*
X17872460Y-17081700D02*
X17891508Y-17091224D01*
X17891508Y-17091224D02*
X17910555Y-17091224D01*
X18053413Y-17081700D02*
X18034365Y-17091224D01*
X18034365Y-17091224D02*
X17996270Y-17091224D01*
X17996270Y-17091224D02*
X17977222Y-17081700D01*
X17977222Y-17081700D02*
X17967698Y-17062652D01*
X17967698Y-17062652D02*
X17967698Y-16986462D01*
X17967698Y-16986462D02*
X17977222Y-16967414D01*
X17977222Y-16967414D02*
X17996270Y-16957890D01*
X17996270Y-16957890D02*
X18034365Y-16957890D01*
X18034365Y-16957890D02*
X18053413Y-16967414D01*
X18053413Y-16967414D02*
X18062936Y-16986462D01*
X18062936Y-16986462D02*
X18062936Y-17005510D01*
X18062936Y-17005510D02*
X17967698Y-17024557D01*
X18234365Y-17091224D02*
X18234365Y-16891224D01*
X18234365Y-17081700D02*
X18215317Y-17091224D01*
X18215317Y-17091224D02*
X18177222Y-17091224D01*
X18177222Y-17091224D02*
X18158175Y-17081700D01*
X18158175Y-17081700D02*
X18148651Y-17072176D01*
X18148651Y-17072176D02*
X18139127Y-17053129D01*
X18139127Y-17053129D02*
X18139127Y-16995986D01*
X18139127Y-16995986D02*
X18148651Y-16976938D01*
X18148651Y-16976938D02*
X18158175Y-16967414D01*
X18158175Y-16967414D02*
X18177222Y-16957890D01*
X18177222Y-16957890D02*
X18215317Y-16957890D01*
X18215317Y-16957890D02*
X18234365Y-16967414D01*
X18310556Y-17167414D02*
X18320079Y-17157890D01*
X18320079Y-17157890D02*
X18339127Y-17129319D01*
X18339127Y-17129319D02*
X18348651Y-17110271D01*
X18348651Y-17110271D02*
X18358175Y-17081700D01*
X18358175Y-17081700D02*
X18367698Y-17034081D01*
X18367698Y-17034081D02*
X18367698Y-16995986D01*
X18367698Y-16995986D02*
X18358175Y-16948367D01*
X18358175Y-16948367D02*
X18348651Y-16919795D01*
X18348651Y-16919795D02*
X18339127Y-16900748D01*
X18339127Y-16900748D02*
X18320079Y-16872176D01*
X18320079Y-16872176D02*
X18310556Y-16862652D01*
M02*
