%TF.GenerationSoftware,KiCad,Pcbnew,8.0.2*%
%TF.CreationDate,2024-11-11T17:07:31+01:00*%
%TF.ProjectId,power,706f7765-722e-46b6-9963-61645f706362,rev?*%
%TF.SameCoordinates,Original*%
%TF.FileFunction,Soldermask,Top*%
%TF.FilePolarity,Negative*%
%FSLAX46Y46*%
G04 Gerber Fmt 4.6, Leading zero omitted, Abs format (unit mm)*
G04 Created by KiCad (PCBNEW 8.0.2) date 2024-11-11 17:07:31*
%MOMM*%
%LPD*%
G01*
G04 APERTURE LIST*
G04 Aperture macros list*
%AMRoundRect*
0 Rectangle with rounded corners*
0 $1 Rounding radius*
0 $2 $3 $4 $5 $6 $7 $8 $9 X,Y pos of 4 corners*
0 Add a 4 corners polygon primitive as box body*
4,1,4,$2,$3,$4,$5,$6,$7,$8,$9,$2,$3,0*
0 Add four circle primitives for the rounded corners*
1,1,$1+$1,$2,$3*
1,1,$1+$1,$4,$5*
1,1,$1+$1,$6,$7*
1,1,$1+$1,$8,$9*
0 Add four rect primitives between the rounded corners*
20,1,$1+$1,$2,$3,$4,$5,0*
20,1,$1+$1,$4,$5,$6,$7,0*
20,1,$1+$1,$6,$7,$8,$9,0*
20,1,$1+$1,$8,$9,$2,$3,0*%
%AMFreePoly0*
4,1,13,2.850000,-5.050000,1.450000,-5.050000,1.450000,-4.350000,-1.450000,-4.350000,-1.450000,-4.850000,-5.150000,-4.850000,-5.150000,4.850000,-1.450000,4.850000,-1.450000,4.350000,1.450000,4.350000,1.450000,5.050000,2.850000,5.050000,2.850000,-5.050000,2.850000,-5.050000,$1*%
%AMFreePoly1*
4,1,30,0.400000,-4.000000,-0.400000,-4.000000,-2.400000,-4.000000,-2.400000,-3.200000,-0.400000,-3.200000,-0.400000,-2.800000,-2.400000,-2.800000,-2.400000,-2.000000,-0.400000,-2.000000,-0.400000,-1.600000,-2.400000,-1.600000,-2.400000,-0.800000,-0.400000,-0.800000,-0.400000,-0.400000,-2.400000,-0.400000,-2.400000,0.400000,-0.400000,0.400000,-0.400000,0.800000,-2.400000,0.800000,-2.400000,1.600000,
-0.400000,1.600000,-0.400000,2.000000,-2.400000,2.000000,-2.400000,2.800000,-0.400000,2.800000,-0.400000,3.200000,-2.400000,3.200000,-2.400000,4.000000,0.400000,4.000000,0.400000,-4.000000,0.400000,-4.000000,$1*%
G04 Aperture macros list end*
%ADD10RoundRect,0.250000X-0.412500X-0.650000X0.412500X-0.650000X0.412500X0.650000X-0.412500X0.650000X0*%
%ADD11RoundRect,0.237500X0.250000X0.237500X-0.250000X0.237500X-0.250000X-0.237500X0.250000X-0.237500X0*%
%ADD12R,1.000000X2.750000*%
%ADD13RoundRect,0.825000X-3.675000X-1.925000X3.675000X-1.925000X3.675000X1.925000X-3.675000X1.925000X0*%
%ADD14R,0.800000X2.800000*%
%ADD15FreePoly0,90.000000*%
%ADD16FreePoly1,90.000000*%
%ADD17RoundRect,0.225000X-0.225000X-0.375000X0.225000X-0.375000X0.225000X0.375000X-0.225000X0.375000X0*%
%ADD18RoundRect,0.250000X0.412500X0.650000X-0.412500X0.650000X-0.412500X-0.650000X0.412500X-0.650000X0*%
%ADD19RoundRect,0.200000X-0.200000X-0.275000X0.200000X-0.275000X0.200000X0.275000X-0.200000X0.275000X0*%
%ADD20RoundRect,0.225000X-0.375000X0.225000X-0.375000X-0.225000X0.375000X-0.225000X0.375000X0.225000X0*%
%ADD21RoundRect,0.200000X-0.275000X0.200000X-0.275000X-0.200000X0.275000X-0.200000X0.275000X0.200000X0*%
%ADD22RoundRect,0.237500X-0.250000X-0.237500X0.250000X-0.237500X0.250000X0.237500X-0.250000X0.237500X0*%
G04 APERTURE END LIST*
D10*
%TO.C,C76*%
X99005781Y-101320600D03*
X102130781Y-101320600D03*
%TD*%
D11*
%TO.C,R38*%
X123820481Y-94563921D03*
X121995481Y-94563921D03*
%TD*%
D12*
%TO.C,J18*%
X140341781Y-106045521D03*
X140341781Y-99795521D03*
X138341781Y-106045521D03*
X138341781Y-99795521D03*
%TD*%
D10*
%TO.C,C38*%
X99005781Y-92560400D03*
X102130781Y-92560400D03*
%TD*%
D13*
%TO.C,R14*%
X115104781Y-97500521D03*
X115084781Y-108300521D03*
%TD*%
D10*
%TO.C,C37*%
X99005781Y-89427800D03*
X102130781Y-89427800D03*
%TD*%
D14*
%TO.C,Q13*%
X110291581Y-92917521D03*
D15*
X114491581Y-83867521D03*
D16*
X115091581Y-91917521D03*
%TD*%
D17*
%TO.C,D7*%
X137183781Y-69671921D03*
X140483781Y-69671921D03*
%TD*%
D18*
%TO.C,C83*%
X157351181Y-76487521D03*
X154226181Y-76487521D03*
%TD*%
D19*
%TO.C,R49*%
X138872381Y-71653121D03*
X140522381Y-71653121D03*
%TD*%
D14*
%TO.C,Q15*%
X142561981Y-92917521D03*
D15*
X146761981Y-83867521D03*
D16*
X147361981Y-91917521D03*
%TD*%
D20*
%TO.C,D13*%
X138757581Y-89611921D03*
X138757581Y-92911921D03*
%TD*%
D12*
%TO.C,J5*%
X137732181Y-74547921D03*
X137732181Y-80797921D03*
X139732181Y-74547921D03*
X139732181Y-80797921D03*
%TD*%
D18*
%TO.C,C78*%
X157350381Y-96057200D03*
X154225381Y-96057200D03*
%TD*%
%TO.C,C80*%
X157350381Y-89357200D03*
X154225381Y-89357200D03*
%TD*%
D19*
%TO.C,R70*%
X122794181Y-71754721D03*
X124444181Y-71754721D03*
%TD*%
D12*
%TO.C,J12*%
X105499581Y-74547921D03*
X105499581Y-80797921D03*
X107499581Y-74547921D03*
X107499581Y-80797921D03*
%TD*%
D18*
%TO.C,C82*%
X157351181Y-79837521D03*
X154226181Y-79837521D03*
%TD*%
D20*
%TO.C,D21*%
X106423381Y-89586521D03*
X106423381Y-92886521D03*
%TD*%
D19*
%TO.C,R72*%
X106792181Y-71729321D03*
X108442181Y-71729321D03*
%TD*%
D14*
%TO.C,Q9*%
X142573781Y-72867521D03*
D15*
X146773781Y-63817521D03*
D16*
X147373781Y-71867521D03*
%TD*%
D10*
%TO.C,C35*%
X99005781Y-82727800D03*
X102130781Y-82727800D03*
%TD*%
D13*
%TO.C,R13*%
X131259181Y-97500521D03*
X131239181Y-108300521D03*
%TD*%
D21*
%TO.C,R73*%
X108379181Y-91275121D03*
X108379181Y-92925121D03*
%TD*%
D12*
%TO.C,J8*%
X121577781Y-74547921D03*
X121577781Y-80797921D03*
X123577781Y-74547921D03*
X123577781Y-80797921D03*
%TD*%
D14*
%TO.C,Q5*%
X126457781Y-72867521D03*
D15*
X130657781Y-63817521D03*
D16*
X131257781Y-71867521D03*
%TD*%
D10*
%TO.C,C31*%
X99005781Y-70764400D03*
X102130781Y-70764400D03*
%TD*%
D18*
%TO.C,C77*%
X157350381Y-101015800D03*
X154225381Y-101015800D03*
%TD*%
D14*
%TO.C,Q11*%
X126445981Y-92917521D03*
D15*
X130645981Y-83867521D03*
D16*
X131245981Y-91917521D03*
%TD*%
D12*
%TO.C,J21*%
X108007581Y-106045521D03*
X108007581Y-99795521D03*
X106007581Y-106045521D03*
X106007581Y-99795521D03*
%TD*%
D10*
%TO.C,C36*%
X99005781Y-86077800D03*
X102130781Y-86077800D03*
%TD*%
%TO.C,C34*%
X99005781Y-79377800D03*
X102130781Y-79377800D03*
%TD*%
D18*
%TO.C,C79*%
X157350381Y-92707200D03*
X154225381Y-92707200D03*
%TD*%
D21*
%TO.C,R71*%
X124533581Y-91300521D03*
X124533581Y-92950521D03*
%TD*%
D12*
%TO.C,J19*%
X124619181Y-106045521D03*
X124619181Y-99795521D03*
X122619181Y-106045521D03*
X122619181Y-99795521D03*
%TD*%
D13*
%TO.C,R15*%
X147438981Y-97500521D03*
X147418981Y-108300521D03*
%TD*%
D18*
%TO.C,C81*%
X157351181Y-85979000D03*
X154226181Y-85979000D03*
%TD*%
D22*
%TO.C,R37*%
X138429281Y-94817921D03*
X140254281Y-94817921D03*
%TD*%
D21*
%TO.C,R65*%
X140662581Y-91249721D03*
X140662581Y-92899721D03*
%TD*%
D14*
%TO.C,Q7*%
X110303381Y-72867521D03*
D15*
X114503381Y-63817521D03*
D16*
X115103381Y-71867521D03*
%TD*%
D10*
%TO.C,C39*%
X99005781Y-95910400D03*
X102130781Y-95910400D03*
%TD*%
D20*
%TO.C,D19*%
X122603181Y-89637321D03*
X122603181Y-92937321D03*
%TD*%
D17*
%TO.C,D20*%
X105103581Y-69697321D03*
X108403581Y-69697321D03*
%TD*%
%TO.C,D18*%
X121080181Y-69798921D03*
X124380181Y-69798921D03*
%TD*%
D10*
%TO.C,C33*%
X99005781Y-76027800D03*
X102130781Y-76027800D03*
%TD*%
G36*
X102842507Y-62229465D02*
G01*
X102863025Y-62232254D01*
X103075231Y-62279411D01*
X103087544Y-62282821D01*
X103292390Y-62351103D01*
X103325251Y-62367837D01*
X103487879Y-62483999D01*
X103487887Y-62484005D01*
X103709106Y-62616735D01*
X103756464Y-62668105D01*
X103757896Y-62671101D01*
X104031966Y-63264921D01*
X104042496Y-63331658D01*
X103974516Y-63898163D01*
X103949899Y-63958713D01*
X103649820Y-64351124D01*
X103627930Y-64373303D01*
X103310116Y-64623014D01*
X103252723Y-64648013D01*
X102795395Y-64719754D01*
X102749929Y-64718442D01*
X102196829Y-64598643D01*
X102143695Y-64572712D01*
X101735378Y-64232448D01*
X101698406Y-64180056D01*
X101539006Y-63747399D01*
X101531427Y-63708572D01*
X101524278Y-63489277D01*
X101526762Y-63460218D01*
X101627669Y-62970379D01*
X101652291Y-62917936D01*
X101922531Y-62580136D01*
X101961006Y-62548186D01*
X102308048Y-62363096D01*
X102331924Y-62353397D01*
X102752508Y-62231658D01*
X102793366Y-62226933D01*
X102842507Y-62229465D01*
G37*
G36*
X99159507Y-107365265D02*
G01*
X99180025Y-107368054D01*
X99392231Y-107415211D01*
X99404544Y-107418621D01*
X99609390Y-107486903D01*
X99642251Y-107503637D01*
X99804879Y-107619799D01*
X99804887Y-107619805D01*
X100026106Y-107752535D01*
X100073464Y-107803905D01*
X100074896Y-107806901D01*
X100348966Y-108400721D01*
X100359496Y-108467458D01*
X100291516Y-109033963D01*
X100266899Y-109094513D01*
X99966820Y-109486924D01*
X99944930Y-109509103D01*
X99627116Y-109758814D01*
X99569723Y-109783813D01*
X99112395Y-109855554D01*
X99066929Y-109854242D01*
X98513829Y-109734443D01*
X98460695Y-109708512D01*
X98052378Y-109368248D01*
X98015406Y-109315856D01*
X97856006Y-108883199D01*
X97848427Y-108844372D01*
X97841278Y-108625077D01*
X97843762Y-108596018D01*
X97944669Y-108106179D01*
X97969291Y-108053736D01*
X98239531Y-107715936D01*
X98278006Y-107683986D01*
X98625048Y-107498896D01*
X98648924Y-107489197D01*
X99069508Y-107367458D01*
X99110366Y-107362733D01*
X99159507Y-107365265D01*
G37*
G36*
X99083307Y-97433865D02*
G01*
X99103825Y-97436654D01*
X99316031Y-97483811D01*
X99328344Y-97487221D01*
X99533190Y-97555503D01*
X99566051Y-97572237D01*
X99721314Y-97683139D01*
X99735202Y-97694673D01*
X100139561Y-98083611D01*
X100174231Y-98144272D01*
X100177600Y-98172980D01*
X100177600Y-99121172D01*
X100157915Y-99188211D01*
X100153771Y-99194260D01*
X99891174Y-99554165D01*
X99867613Y-99578580D01*
X99550916Y-99827414D01*
X99493523Y-99852413D01*
X99036195Y-99924154D01*
X98990729Y-99922842D01*
X98437629Y-99803043D01*
X98384495Y-99777112D01*
X97984304Y-99443620D01*
X97945405Y-99385581D01*
X97942095Y-99372679D01*
X97851088Y-98917641D01*
X97848746Y-98897363D01*
X97840999Y-98659724D01*
X97841205Y-98647481D01*
X97871904Y-98184453D01*
X97895980Y-98118862D01*
X97898804Y-98115194D01*
X98163331Y-97784536D01*
X98201806Y-97752586D01*
X98548848Y-97567496D01*
X98572724Y-97557797D01*
X98993308Y-97436058D01*
X99034166Y-97431333D01*
X99083307Y-97433865D01*
G37*
G36*
X135458657Y-74726448D02*
G01*
X135525685Y-74746172D01*
X135571409Y-74799002D01*
X135582585Y-74850444D01*
X135582781Y-80591128D01*
X135563099Y-80658168D01*
X135510296Y-80703925D01*
X135458781Y-80715132D01*
X125774861Y-80715132D01*
X125707822Y-80695447D01*
X125662067Y-80642643D01*
X125650862Y-80591657D01*
X125626512Y-74845329D01*
X125645912Y-74778207D01*
X125698522Y-74732229D01*
X125750583Y-74720804D01*
X135458657Y-74726448D01*
G37*
G36*
X154193027Y-81482665D02*
G01*
X154213545Y-81485454D01*
X154425751Y-81532611D01*
X154438064Y-81536021D01*
X154642910Y-81604303D01*
X154675771Y-81621037D01*
X154838399Y-81737199D01*
X154838407Y-81737205D01*
X155059626Y-81869935D01*
X155106984Y-81921305D01*
X155108416Y-81924301D01*
X155382486Y-82518121D01*
X155393016Y-82584858D01*
X155325036Y-83151363D01*
X155300419Y-83211913D01*
X155000340Y-83604324D01*
X154978450Y-83626503D01*
X154660636Y-83876214D01*
X154603243Y-83901213D01*
X154145915Y-83972954D01*
X154100449Y-83971642D01*
X153547349Y-83851843D01*
X153494215Y-83825912D01*
X153085898Y-83485648D01*
X153048926Y-83433256D01*
X152889526Y-83000599D01*
X152881947Y-82961772D01*
X152874798Y-82742477D01*
X152877282Y-82713418D01*
X152978189Y-82223579D01*
X153002811Y-82171136D01*
X153273051Y-81833336D01*
X153311526Y-81801386D01*
X153658568Y-81616296D01*
X153682444Y-81606597D01*
X154103028Y-81484858D01*
X154143886Y-81480133D01*
X154193027Y-81482665D01*
G37*
G36*
X157444227Y-107314465D02*
G01*
X157464745Y-107317254D01*
X157676951Y-107364411D01*
X157689264Y-107367821D01*
X157894110Y-107436103D01*
X157926971Y-107452837D01*
X158089599Y-107568999D01*
X158089607Y-107569005D01*
X158310826Y-107701735D01*
X158358184Y-107753105D01*
X158359616Y-107756101D01*
X158633686Y-108349921D01*
X158644216Y-108416658D01*
X158576236Y-108983163D01*
X158551619Y-109043713D01*
X158251540Y-109436124D01*
X158229650Y-109458303D01*
X157911836Y-109708014D01*
X157854443Y-109733013D01*
X157397115Y-109804754D01*
X157351649Y-109803442D01*
X156798549Y-109683643D01*
X156745415Y-109657712D01*
X156337098Y-109317448D01*
X156300126Y-109265056D01*
X156140726Y-108832399D01*
X156133147Y-108793572D01*
X156125998Y-108574277D01*
X156128482Y-108545218D01*
X156229389Y-108055379D01*
X156254011Y-108002936D01*
X156524251Y-107665136D01*
X156562726Y-107633186D01*
X156909768Y-107448096D01*
X156933644Y-107438397D01*
X157354228Y-107316658D01*
X157395086Y-107311933D01*
X157444227Y-107314465D01*
G37*
G36*
X119329453Y-74706837D02*
G01*
X119396481Y-74726561D01*
X119442205Y-74779391D01*
X119453381Y-74830833D01*
X119453577Y-80571517D01*
X119433895Y-80638557D01*
X119381092Y-80684314D01*
X119329577Y-80695521D01*
X109645657Y-80695521D01*
X109578618Y-80675836D01*
X109532863Y-80623032D01*
X109521658Y-80572046D01*
X109497308Y-74825718D01*
X109516708Y-74758596D01*
X109569318Y-74712618D01*
X109621379Y-74701193D01*
X119329453Y-74706837D01*
G37*
G36*
X151612853Y-74706837D02*
G01*
X151679881Y-74726561D01*
X151725605Y-74779391D01*
X151736781Y-74830833D01*
X151736977Y-80571517D01*
X151717295Y-80638557D01*
X151664492Y-80684314D01*
X151612977Y-80695521D01*
X141929057Y-80695521D01*
X141862018Y-80675836D01*
X141816263Y-80623032D01*
X141805058Y-80572046D01*
X141780708Y-74825718D01*
X141800108Y-74758596D01*
X141852718Y-74712618D01*
X141904779Y-74701193D01*
X151612853Y-74706837D01*
G37*
G36*
X157991060Y-56565746D02*
G01*
X158058091Y-56585460D01*
X158103823Y-56638283D01*
X158115006Y-56689740D01*
X158115197Y-60525363D01*
X158095516Y-60592403D01*
X158042714Y-60638161D01*
X157991155Y-60649369D01*
X98926571Y-60629562D01*
X98859539Y-60609855D01*
X98813801Y-60557036D01*
X98802615Y-60506332D01*
X98778756Y-56664945D01*
X98798024Y-56597785D01*
X98850543Y-56551703D01*
X98902808Y-56540175D01*
X157991060Y-56565746D01*
G37*
G36*
X102427827Y-72059265D02*
G01*
X102448345Y-72062054D01*
X102660551Y-72109211D01*
X102672864Y-72112621D01*
X102877710Y-72180903D01*
X102910571Y-72197637D01*
X103073199Y-72313799D01*
X103073207Y-72313805D01*
X103294426Y-72446535D01*
X103341784Y-72497905D01*
X103343216Y-72500901D01*
X103617286Y-73094721D01*
X103627816Y-73161458D01*
X103559836Y-73727963D01*
X103535219Y-73788513D01*
X103235140Y-74180924D01*
X103213250Y-74203103D01*
X102895436Y-74452814D01*
X102838043Y-74477813D01*
X102380715Y-74549554D01*
X102335249Y-74548242D01*
X101782149Y-74428443D01*
X101729015Y-74402512D01*
X101320698Y-74062248D01*
X101283726Y-74009856D01*
X101124326Y-73577199D01*
X101116747Y-73538372D01*
X101109598Y-73319077D01*
X101112082Y-73290018D01*
X101212989Y-72800179D01*
X101237611Y-72747736D01*
X101507851Y-72409936D01*
X101546326Y-72377986D01*
X101893368Y-72192896D01*
X101917244Y-72183197D01*
X102337828Y-72061458D01*
X102378686Y-72056733D01*
X102427827Y-72059265D01*
G37*
G36*
X157584659Y-111531346D02*
G01*
X157651690Y-111551060D01*
X157697422Y-111603883D01*
X157708605Y-111655340D01*
X157708798Y-115694163D01*
X157689117Y-115761203D01*
X157636315Y-115806961D01*
X157584756Y-115818169D01*
X98520207Y-115798362D01*
X98453175Y-115778655D01*
X98407437Y-115725836D01*
X98396251Y-115675096D01*
X98372319Y-111630509D01*
X98391607Y-111563354D01*
X98444139Y-111517287D01*
X98496371Y-111505775D01*
X157584659Y-111531346D01*
G37*
G36*
X157461077Y-71541960D02*
G01*
X157481595Y-71544749D01*
X157693801Y-71591906D01*
X157706114Y-71595316D01*
X157910960Y-71663598D01*
X157943821Y-71680332D01*
X158106449Y-71796494D01*
X158106457Y-71796500D01*
X158319703Y-71924447D01*
X158367062Y-71975818D01*
X158374423Y-71994309D01*
X158558167Y-72591475D01*
X158563650Y-72627942D01*
X158563650Y-73204938D01*
X158543965Y-73271977D01*
X158540954Y-73276447D01*
X158269297Y-73661295D01*
X158244603Y-73687290D01*
X157928686Y-73935510D01*
X157871293Y-73960508D01*
X157413965Y-74032249D01*
X157368499Y-74030937D01*
X156815399Y-73911138D01*
X156762265Y-73885207D01*
X156364276Y-73553550D01*
X156325377Y-73495511D01*
X156321176Y-73477630D01*
X156252800Y-73044582D01*
X156251898Y-73037581D01*
X156227760Y-72796195D01*
X156227285Y-72777959D01*
X156250337Y-72293859D01*
X156273188Y-72227832D01*
X156277369Y-72222295D01*
X156541101Y-71892631D01*
X156579576Y-71860681D01*
X156926618Y-71675591D01*
X156950494Y-71665892D01*
X157371078Y-71544153D01*
X157411936Y-71539428D01*
X157461077Y-71541960D01*
G37*
G36*
X157422967Y-97226525D02*
G01*
X157443485Y-97229314D01*
X157655691Y-97276471D01*
X157668004Y-97279881D01*
X157872850Y-97348163D01*
X157905711Y-97364897D01*
X158068339Y-97481059D01*
X158068347Y-97481065D01*
X158281593Y-97609012D01*
X158328952Y-97660383D01*
X158336313Y-97678874D01*
X158520057Y-98276040D01*
X158525540Y-98312507D01*
X158525540Y-98889503D01*
X158505855Y-98956542D01*
X158502844Y-98961012D01*
X158231187Y-99345860D01*
X158206493Y-99371855D01*
X157890576Y-99620075D01*
X157833183Y-99645073D01*
X157375855Y-99716814D01*
X157330389Y-99715502D01*
X156777289Y-99595703D01*
X156724155Y-99569772D01*
X156326166Y-99238115D01*
X156287267Y-99180076D01*
X156283066Y-99162195D01*
X156214690Y-98729147D01*
X156213788Y-98722146D01*
X156189650Y-98480760D01*
X156189175Y-98462524D01*
X156212227Y-97978424D01*
X156235078Y-97912397D01*
X156239259Y-97906860D01*
X156502991Y-97577196D01*
X156541466Y-97545246D01*
X156888508Y-97360156D01*
X156912384Y-97350457D01*
X157332968Y-97228718D01*
X157373826Y-97223993D01*
X157422967Y-97226525D01*
G37*
M02*
