%TF.GenerationSoftware,KiCad,Pcbnew,8.0.2*%
%TF.CreationDate,2024-11-11T17:07:30+01:00*%
%TF.ProjectId,power,706f7765-722e-46b6-9963-61645f706362,rev?*%
%TF.SameCoordinates,Original*%
%TF.FileFunction,Copper,L1,Top*%
%TF.FilePolarity,Positive*%
%FSLAX46Y46*%
G04 Gerber Fmt 4.6, Leading zero omitted, Abs format (unit mm)*
G04 Created by KiCad (PCBNEW 8.0.2) date 2024-11-11 17:07:30*
%MOMM*%
%LPD*%
G01*
G04 APERTURE LIST*
G04 Aperture macros list*
%AMRoundRect*
0 Rectangle with rounded corners*
0 $1 Rounding radius*
0 $2 $3 $4 $5 $6 $7 $8 $9 X,Y pos of 4 corners*
0 Add a 4 corners polygon primitive as box body*
4,1,4,$2,$3,$4,$5,$6,$7,$8,$9,$2,$3,0*
0 Add four circle primitives for the rounded corners*
1,1,$1+$1,$2,$3*
1,1,$1+$1,$4,$5*
1,1,$1+$1,$6,$7*
1,1,$1+$1,$8,$9*
0 Add four rect primitives between the rounded corners*
20,1,$1+$1,$2,$3,$4,$5,0*
20,1,$1+$1,$4,$5,$6,$7,0*
20,1,$1+$1,$6,$7,$8,$9,0*
20,1,$1+$1,$8,$9,$2,$3,0*%
%AMFreePoly0*
4,1,13,2.850000,-5.050000,1.450000,-5.050000,1.450000,-4.350000,-1.450000,-4.350000,-1.450000,-4.850000,-5.150000,-4.850000,-5.150000,4.850000,-1.450000,4.850000,-1.450000,4.350000,1.450000,4.350000,1.450000,5.050000,2.850000,5.050000,2.850000,-5.050000,2.850000,-5.050000,$1*%
%AMFreePoly1*
4,1,30,0.400000,-4.000000,-0.400000,-4.000000,-2.400000,-4.000000,-2.400000,-3.200000,-0.400000,-3.200000,-0.400000,-2.800000,-2.400000,-2.800000,-2.400000,-2.000000,-0.400000,-2.000000,-0.400000,-1.600000,-2.400000,-1.600000,-2.400000,-0.800000,-0.400000,-0.800000,-0.400000,-0.400000,-2.400000,-0.400000,-2.400000,0.400000,-0.400000,0.400000,-0.400000,0.800000,-2.400000,0.800000,-2.400000,1.600000,
-0.400000,1.600000,-0.400000,2.000000,-2.400000,2.000000,-2.400000,2.800000,-0.400000,2.800000,-0.400000,3.200000,-2.400000,3.200000,-2.400000,4.000000,0.400000,4.000000,0.400000,-4.000000,0.400000,-4.000000,$1*%
G04 Aperture macros list end*
%TA.AperFunction,SMDPad,CuDef*%
%ADD10RoundRect,0.250000X-0.412500X-0.650000X0.412500X-0.650000X0.412500X0.650000X-0.412500X0.650000X0*%
%TD*%
%TA.AperFunction,SMDPad,CuDef*%
%ADD11RoundRect,0.237500X0.250000X0.237500X-0.250000X0.237500X-0.250000X-0.237500X0.250000X-0.237500X0*%
%TD*%
%TA.AperFunction,SMDPad,CuDef*%
%ADD12R,1.000000X2.750000*%
%TD*%
%TA.AperFunction,SMDPad,CuDef*%
%ADD13RoundRect,0.825000X-3.675000X-1.925000X3.675000X-1.925000X3.675000X1.925000X-3.675000X1.925000X0*%
%TD*%
%TA.AperFunction,SMDPad,CuDef*%
%ADD14R,0.800000X2.800000*%
%TD*%
%TA.AperFunction,SMDPad,CuDef*%
%ADD15FreePoly0,90.000000*%
%TD*%
%TA.AperFunction,SMDPad,CuDef*%
%ADD16FreePoly1,90.000000*%
%TD*%
%TA.AperFunction,SMDPad,CuDef*%
%ADD17RoundRect,0.225000X-0.225000X-0.375000X0.225000X-0.375000X0.225000X0.375000X-0.225000X0.375000X0*%
%TD*%
%TA.AperFunction,SMDPad,CuDef*%
%ADD18RoundRect,0.250000X0.412500X0.650000X-0.412500X0.650000X-0.412500X-0.650000X0.412500X-0.650000X0*%
%TD*%
%TA.AperFunction,SMDPad,CuDef*%
%ADD19RoundRect,0.200000X-0.200000X-0.275000X0.200000X-0.275000X0.200000X0.275000X-0.200000X0.275000X0*%
%TD*%
%TA.AperFunction,SMDPad,CuDef*%
%ADD20RoundRect,0.225000X-0.375000X0.225000X-0.375000X-0.225000X0.375000X-0.225000X0.375000X0.225000X0*%
%TD*%
%TA.AperFunction,SMDPad,CuDef*%
%ADD21RoundRect,0.200000X-0.275000X0.200000X-0.275000X-0.200000X0.275000X-0.200000X0.275000X0.200000X0*%
%TD*%
%TA.AperFunction,SMDPad,CuDef*%
%ADD22RoundRect,0.237500X-0.250000X-0.237500X0.250000X-0.237500X0.250000X0.237500X-0.250000X0.237500X0*%
%TD*%
%TA.AperFunction,Conductor*%
%ADD23C,0.250000*%
%TD*%
%TA.AperFunction,Conductor*%
%ADD24C,0.200000*%
%TD*%
%TA.AperFunction,Conductor*%
%ADD25C,0.381000*%
%TD*%
G04 APERTURE END LIST*
D10*
%TO.P,C76,1*%
%TO.N,+BATT*%
X99005781Y-101320600D03*
%TO.P,C76,2*%
%TO.N,GND*%
X102130781Y-101320600D03*
%TD*%
D11*
%TO.P,R38,1*%
%TO.N,+3V3*%
X123820481Y-94563921D03*
%TO.P,R38,2*%
%TO.N,/Fet/TEMP1*%
X121995481Y-94563921D03*
%TD*%
D12*
%TO.P,J18,1,Pin_1*%
%TO.N,in_1_+*%
X140341781Y-106045521D03*
%TO.P,J18,2,Pin_2*%
%TO.N,in_1_-*%
X140341781Y-99795521D03*
%TO.P,J18,3,Pin_3*%
%TO.N,/Fet/TEMP*%
X138341781Y-106045521D03*
%TO.P,J18,4,Pin_4*%
%TO.N,+3V3*%
X138341781Y-99795521D03*
%TD*%
D10*
%TO.P,C38,1*%
%TO.N,+BATT*%
X99005781Y-92560400D03*
%TO.P,C38,2*%
%TO.N,GND*%
X102130781Y-92560400D03*
%TD*%
D13*
%TO.P,R14,1*%
%TO.N,in_3_-*%
X115104781Y-97500521D03*
%TO.P,R14,2*%
%TO.N,GND*%
X115084781Y-108300521D03*
%TD*%
D10*
%TO.P,C37,1*%
%TO.N,+BATT*%
X99005781Y-89427800D03*
%TO.P,C37,2*%
%TO.N,GND*%
X102130781Y-89427800D03*
%TD*%
D14*
%TO.P,Q13,1,G*%
%TO.N,Net-(D21-A)*%
X110291581Y-92917521D03*
D15*
%TO.P,Q13,2,D*%
%TO.N,/Fet/PHASE_C*%
X114491581Y-83867521D03*
D16*
%TO.P,Q13,3,S*%
%TO.N,in_3_-*%
X115091581Y-91917521D03*
%TD*%
D17*
%TO.P,D7,1,K*%
%TO.N,/Fet/GAT*%
X137183781Y-69671921D03*
%TO.P,D7,2,A*%
%TO.N,Net-(D7-A)*%
X140483781Y-69671921D03*
%TD*%
D18*
%TO.P,C83,1*%
%TO.N,+BATT*%
X157351181Y-76487521D03*
%TO.P,C83,2*%
%TO.N,GND*%
X154226181Y-76487521D03*
%TD*%
D19*
%TO.P,R49,1*%
%TO.N,/Fet/GAT*%
X138872381Y-71653121D03*
%TO.P,R49,2*%
%TO.N,Net-(D7-A)*%
X140522381Y-71653121D03*
%TD*%
D14*
%TO.P,Q15,1,G*%
%TO.N,Net-(D13-A)*%
X142561981Y-92917521D03*
D15*
%TO.P,Q15,2,D*%
%TO.N,/Fet/PHASE_A*%
X146761981Y-83867521D03*
D16*
%TO.P,Q15,3,S*%
%TO.N,in_1_-*%
X147361981Y-91917521D03*
%TD*%
D20*
%TO.P,D13,1,K*%
%TO.N,/Fet/GAB*%
X138757581Y-89611921D03*
%TO.P,D13,2,A*%
%TO.N,Net-(D13-A)*%
X138757581Y-92911921D03*
%TD*%
D12*
%TO.P,J5,1,Pin_1*%
%TO.N,/Fet/GAT*%
X137732181Y-74547921D03*
%TO.P,J5,2,Pin_2*%
%TO.N,GND*%
X137732181Y-80797921D03*
%TO.P,J5,3,Pin_3*%
%TO.N,/Fet/PHASE_A*%
X139732181Y-74547921D03*
%TO.P,J5,4,Pin_4*%
%TO.N,/Fet/GAB*%
X139732181Y-80797921D03*
%TD*%
D18*
%TO.P,C78,1*%
%TO.N,+BATT*%
X157350381Y-96057200D03*
%TO.P,C78,2*%
%TO.N,GND*%
X154225381Y-96057200D03*
%TD*%
%TO.P,C80,1*%
%TO.N,+BATT*%
X157350381Y-89357200D03*
%TO.P,C80,2*%
%TO.N,GND*%
X154225381Y-89357200D03*
%TD*%
D19*
%TO.P,R70,1*%
%TO.N,/Fet/GBT*%
X122794181Y-71754721D03*
%TO.P,R70,2*%
%TO.N,Net-(D18-A)*%
X124444181Y-71754721D03*
%TD*%
D12*
%TO.P,J12,1,Pin_1*%
%TO.N,/Fet/GCT*%
X105499581Y-74547921D03*
%TO.P,J12,2,Pin_2*%
%TO.N,GND*%
X105499581Y-80797921D03*
%TO.P,J12,3,Pin_3*%
%TO.N,/Fet/PHASE_C*%
X107499581Y-74547921D03*
%TO.P,J12,4,Pin_4*%
%TO.N,/Fet/GCB*%
X107499581Y-80797921D03*
%TD*%
D18*
%TO.P,C82,1*%
%TO.N,+BATT*%
X157351181Y-79837521D03*
%TO.P,C82,2*%
%TO.N,GND*%
X154226181Y-79837521D03*
%TD*%
D20*
%TO.P,D21,1,K*%
%TO.N,/Fet/GCB*%
X106423381Y-89586521D03*
%TO.P,D21,2,A*%
%TO.N,Net-(D21-A)*%
X106423381Y-92886521D03*
%TD*%
D19*
%TO.P,R72,1*%
%TO.N,/Fet/GCT*%
X106792181Y-71729321D03*
%TO.P,R72,2*%
%TO.N,Net-(D20-A)*%
X108442181Y-71729321D03*
%TD*%
D14*
%TO.P,Q9,1,G*%
%TO.N,Net-(D7-A)*%
X142573781Y-72867521D03*
D15*
%TO.P,Q9,2,D*%
%TO.N,+BATT*%
X146773781Y-63817521D03*
D16*
%TO.P,Q9,3,S*%
%TO.N,/Fet/PHASE_A*%
X147373781Y-71867521D03*
%TD*%
D10*
%TO.P,C35,1*%
%TO.N,+BATT*%
X99005781Y-82727800D03*
%TO.P,C35,2*%
%TO.N,GND*%
X102130781Y-82727800D03*
%TD*%
D13*
%TO.P,R13,1*%
%TO.N,in_2_-*%
X131259181Y-97500521D03*
%TO.P,R13,2*%
%TO.N,GND*%
X131239181Y-108300521D03*
%TD*%
D21*
%TO.P,R73,1*%
%TO.N,/Fet/GCB*%
X108379181Y-91275121D03*
%TO.P,R73,2*%
%TO.N,Net-(D21-A)*%
X108379181Y-92925121D03*
%TD*%
D12*
%TO.P,J8,1,Pin_1*%
%TO.N,/Fet/GBT*%
X121577781Y-74547921D03*
%TO.P,J8,2,Pin_2*%
%TO.N,GND*%
X121577781Y-80797921D03*
%TO.P,J8,3,Pin_3*%
%TO.N,/Fet/PHASE_B*%
X123577781Y-74547921D03*
%TO.P,J8,4,Pin_4*%
%TO.N,/Fet/GBB*%
X123577781Y-80797921D03*
%TD*%
D14*
%TO.P,Q5,1,G*%
%TO.N,Net-(D18-A)*%
X126457781Y-72867521D03*
D15*
%TO.P,Q5,2,D*%
%TO.N,+BATT*%
X130657781Y-63817521D03*
D16*
%TO.P,Q5,3,S*%
%TO.N,/Fet/PHASE_B*%
X131257781Y-71867521D03*
%TD*%
D10*
%TO.P,C31,1*%
%TO.N,+BATT*%
X99005781Y-70764400D03*
%TO.P,C31,2*%
%TO.N,GND*%
X102130781Y-70764400D03*
%TD*%
D18*
%TO.P,C77,1*%
%TO.N,+BATT*%
X157350381Y-101015800D03*
%TO.P,C77,2*%
%TO.N,GND*%
X154225381Y-101015800D03*
%TD*%
D14*
%TO.P,Q11,1,G*%
%TO.N,Net-(D19-A)*%
X126445981Y-92917521D03*
D15*
%TO.P,Q11,2,D*%
%TO.N,/Fet/PHASE_B*%
X130645981Y-83867521D03*
D16*
%TO.P,Q11,3,S*%
%TO.N,in_2_-*%
X131245981Y-91917521D03*
%TD*%
D12*
%TO.P,J21,1,Pin_1*%
%TO.N,in_3_+*%
X108007581Y-106045521D03*
%TO.P,J21,2,Pin_2*%
%TO.N,in_3_-*%
X108007581Y-99795521D03*
%TO.P,J21,3,Pin_3*%
%TO.N,GND*%
X106007581Y-106045521D03*
%TO.P,J21,4,Pin_4*%
%TO.N,+BATT*%
X106007581Y-99795521D03*
%TD*%
D10*
%TO.P,C36,1*%
%TO.N,+BATT*%
X99005781Y-86077800D03*
%TO.P,C36,2*%
%TO.N,GND*%
X102130781Y-86077800D03*
%TD*%
%TO.P,C34,1*%
%TO.N,+BATT*%
X99005781Y-79377800D03*
%TO.P,C34,2*%
%TO.N,GND*%
X102130781Y-79377800D03*
%TD*%
D18*
%TO.P,C79,1*%
%TO.N,+BATT*%
X157350381Y-92707200D03*
%TO.P,C79,2*%
%TO.N,GND*%
X154225381Y-92707200D03*
%TD*%
D21*
%TO.P,R71,1*%
%TO.N,/Fet/GBB*%
X124533581Y-91300521D03*
%TO.P,R71,2*%
%TO.N,Net-(D19-A)*%
X124533581Y-92950521D03*
%TD*%
D12*
%TO.P,J19,1,Pin_1*%
%TO.N,in_2_+*%
X124619181Y-106045521D03*
%TO.P,J19,2,Pin_2*%
%TO.N,in_2_-*%
X124619181Y-99795521D03*
%TO.P,J19,3,Pin_3*%
%TO.N,+3V3*%
X122619181Y-106045521D03*
%TO.P,J19,4,Pin_4*%
%TO.N,/Fet/TEMP1*%
X122619181Y-99795521D03*
%TD*%
D13*
%TO.P,R15,1*%
%TO.N,in_1_-*%
X147438981Y-97500521D03*
%TO.P,R15,2*%
%TO.N,GND*%
X147418981Y-108300521D03*
%TD*%
D18*
%TO.P,C81,1*%
%TO.N,+BATT*%
X157351181Y-85979000D03*
%TO.P,C81,2*%
%TO.N,GND*%
X154226181Y-85979000D03*
%TD*%
D22*
%TO.P,R37,1*%
%TO.N,+3V3*%
X138429281Y-94817921D03*
%TO.P,R37,2*%
%TO.N,/Fet/TEMP*%
X140254281Y-94817921D03*
%TD*%
D21*
%TO.P,R65,1*%
%TO.N,/Fet/GAB*%
X140662581Y-91249721D03*
%TO.P,R65,2*%
%TO.N,Net-(D13-A)*%
X140662581Y-92899721D03*
%TD*%
D14*
%TO.P,Q7,1,G*%
%TO.N,Net-(D20-A)*%
X110303381Y-72867521D03*
D15*
%TO.P,Q7,2,D*%
%TO.N,+BATT*%
X114503381Y-63817521D03*
D16*
%TO.P,Q7,3,S*%
%TO.N,/Fet/PHASE_C*%
X115103381Y-71867521D03*
%TD*%
D10*
%TO.P,C39,1*%
%TO.N,+BATT*%
X99005781Y-95910400D03*
%TO.P,C39,2*%
%TO.N,GND*%
X102130781Y-95910400D03*
%TD*%
D20*
%TO.P,D19,1,K*%
%TO.N,/Fet/GBB*%
X122603181Y-89637321D03*
%TO.P,D19,2,A*%
%TO.N,Net-(D19-A)*%
X122603181Y-92937321D03*
%TD*%
D17*
%TO.P,D20,1,K*%
%TO.N,/Fet/GCT*%
X105103581Y-69697321D03*
%TO.P,D20,2,A*%
%TO.N,Net-(D20-A)*%
X108403581Y-69697321D03*
%TD*%
%TO.P,D18,1,K*%
%TO.N,/Fet/GBT*%
X121080181Y-69798921D03*
%TO.P,D18,2,A*%
%TO.N,Net-(D18-A)*%
X124380181Y-69798921D03*
%TD*%
D10*
%TO.P,C33,1*%
%TO.N,+BATT*%
X99005781Y-76027800D03*
%TO.P,C33,2*%
%TO.N,GND*%
X102130781Y-76027800D03*
%TD*%
D23*
%TO.N,+3V3*%
X123794181Y-104870521D02*
X123794181Y-94590221D01*
X123794181Y-94590221D02*
X123820481Y-94563921D01*
X138429281Y-94817921D02*
X138429281Y-99708021D01*
X138429281Y-99708021D02*
X138341781Y-99795521D01*
X122619181Y-106045521D02*
X123794181Y-104870521D01*
D24*
%TO.N,in_2_-*%
X131259181Y-101126121D02*
X131259181Y-97500521D01*
X129689781Y-102695521D02*
X131259181Y-101126121D01*
X124619181Y-99795521D02*
X127519181Y-102695521D01*
X127519181Y-102695521D02*
X129689781Y-102695521D01*
%TO.N,in_3_-*%
X113840181Y-102695521D02*
X115104781Y-101430921D01*
X108007581Y-99795521D02*
X110907581Y-102695521D01*
X115104781Y-101430921D02*
X115104781Y-97500521D01*
X110907581Y-102695521D02*
X113840181Y-102695521D01*
%TO.N,in_1_-*%
X143241781Y-102695521D02*
X145869581Y-102695521D01*
X145869581Y-102695521D02*
X147438981Y-101126121D01*
X147438981Y-101126121D02*
X147438981Y-97500521D01*
X140341781Y-99795521D02*
X143241781Y-102695521D01*
%TO.N,in_1_+*%
X140341781Y-106045521D02*
X143241781Y-103145521D01*
X145869581Y-103145521D02*
X147418981Y-104694921D01*
X143241781Y-103145521D02*
X145869581Y-103145521D01*
X147418981Y-104694921D02*
X147418981Y-108300521D01*
D23*
%TO.N,/Fet/TEMP*%
X139516781Y-95555421D02*
X140254281Y-94817921D01*
X139516781Y-104870521D02*
X139516781Y-95555421D01*
X138341781Y-106045521D02*
X139516781Y-104870521D01*
%TO.N,/Fet/TEMP1*%
X122619181Y-95187621D02*
X121995481Y-94563921D01*
X122619181Y-99795521D02*
X122619181Y-95187621D01*
D25*
%TO.N,/Fet/GAT*%
X137732181Y-72793321D02*
X138872381Y-71653121D01*
X138872381Y-71360521D02*
X137183781Y-69671921D01*
X137732181Y-74547921D02*
X137732181Y-72793321D01*
X138872381Y-71653121D02*
X138872381Y-71360521D01*
%TO.N,Net-(D7-A)*%
X140483781Y-69671921D02*
X140483781Y-71614521D01*
X140483781Y-71614521D02*
X140522381Y-71653121D01*
X140522381Y-71653121D02*
X141359381Y-71653121D01*
X141359381Y-71653121D02*
X142573781Y-72867521D01*
%TO.N,/Fet/GAB*%
X139732181Y-80797921D02*
X139732181Y-88442521D01*
X139732181Y-89128321D02*
X139732181Y-88442521D01*
X139248581Y-89611921D02*
X139732181Y-89128321D01*
X139722781Y-80807321D02*
X139732181Y-80797921D01*
X138757581Y-89611921D02*
X139248581Y-89611921D01*
X139732181Y-90319321D02*
X140662581Y-91249721D01*
X139732181Y-88442521D02*
X139732181Y-90319321D01*
%TO.N,Net-(D13-A)*%
X138763181Y-92917521D02*
X138757581Y-92911921D01*
X142561981Y-92917521D02*
X138763181Y-92917521D01*
%TO.N,/Fet/GBT*%
X121577781Y-72971121D02*
X121577781Y-74547921D01*
X122794181Y-71754721D02*
X121577781Y-72971121D01*
X121080181Y-69798921D02*
X121080181Y-70040721D01*
X121080181Y-70040721D02*
X122794181Y-71754721D01*
%TO.N,Net-(D18-A)*%
X126457781Y-72867521D02*
X125556981Y-72867521D01*
X125556981Y-72867521D02*
X124444181Y-71754721D01*
X124380181Y-71690721D02*
X124444181Y-71754721D01*
X124380181Y-69798921D02*
X124380181Y-71690721D01*
%TO.N,/Fet/GBB*%
X123542981Y-89610921D02*
X123542981Y-80832721D01*
X123059381Y-89637321D02*
X123542981Y-89153721D01*
X123542981Y-89153721D02*
X123542981Y-89610921D01*
X122603181Y-89637321D02*
X123059381Y-89637321D01*
X123542981Y-80832721D02*
X123577781Y-80797921D01*
X123542981Y-90309921D02*
X123542981Y-89610921D01*
X124533581Y-91300521D02*
X123542981Y-90309921D01*
%TO.N,Net-(D19-A)*%
X122622981Y-92917521D02*
X122603181Y-92937321D01*
X126445981Y-92917521D02*
X122622981Y-92917521D01*
%TO.N,/Fet/GCT*%
X106792181Y-71729321D02*
X106792181Y-71385921D01*
X106792181Y-71729321D02*
X105499581Y-73021921D01*
X105499581Y-73021921D02*
X105499581Y-74547921D01*
X106792181Y-71385921D02*
X105103581Y-69697321D01*
%TO.N,Net-(D20-A)*%
X108442181Y-69735921D02*
X108403581Y-69697321D01*
X108442181Y-71729321D02*
X108442181Y-69735921D01*
X110303381Y-72867521D02*
X109580381Y-72867521D01*
X109580381Y-72867521D02*
X108442181Y-71729321D01*
%TO.N,/Fet/GCB*%
X106423381Y-89586521D02*
X106981181Y-89586521D01*
X107515581Y-80813921D02*
X107499581Y-80797921D01*
X107515581Y-90411521D02*
X107515581Y-89052121D01*
X108379181Y-91275121D02*
X107515581Y-90411521D01*
X106981181Y-89586521D02*
X107515581Y-89052121D01*
X107515581Y-89052121D02*
X107515581Y-80813921D01*
%TO.N,Net-(D21-A)*%
X106454381Y-92917521D02*
X106423381Y-92886521D01*
X110291581Y-92917521D02*
X106454381Y-92917521D01*
D24*
%TO.N,in_2_+*%
X129689781Y-103145521D02*
X131239181Y-104694921D01*
X113840181Y-103145521D02*
X115084781Y-104390121D01*
X124619181Y-106045521D02*
X127519181Y-103145521D01*
X131239181Y-104694921D02*
X131239181Y-108300521D01*
X110907581Y-103145521D02*
X113840181Y-103145521D01*
X115084781Y-104390121D02*
X115084781Y-108300521D01*
X108007581Y-106045521D02*
X110907581Y-103145521D01*
X127519181Y-103145521D02*
X129689781Y-103145521D01*
%TD*%
%TA.AperFunction,Conductor*%
%TO.N,/Fet/PHASE_B*%
G36*
X135128777Y-71449528D02*
G01*
X135195751Y-71469425D01*
X135241338Y-71522374D01*
X135252381Y-71573527D01*
X135252381Y-74269321D01*
X135839370Y-74269321D01*
X135906409Y-74289006D01*
X135952164Y-74341810D01*
X135963369Y-74393530D01*
X135960073Y-76332436D01*
X135938392Y-89080732D01*
X135918593Y-89147738D01*
X135865712Y-89193403D01*
X135814392Y-89204521D01*
X135607978Y-89204521D01*
X135539979Y-89205646D01*
X135537914Y-89205663D01*
X125571967Y-89204535D01*
X125504930Y-89184843D01*
X125459181Y-89132034D01*
X125447981Y-89080535D01*
X125447981Y-76352121D01*
X123125351Y-76352121D01*
X123058312Y-76332436D01*
X123023399Y-76298703D01*
X122853829Y-76053768D01*
X122831854Y-75987444D01*
X122831781Y-75983186D01*
X122831781Y-72920121D01*
X122851466Y-72853082D01*
X122904270Y-72807327D01*
X122955781Y-72796121D01*
X124598419Y-72796121D01*
X124665458Y-72815806D01*
X124686100Y-72832440D01*
X125079722Y-73226062D01*
X125079732Y-73226073D01*
X125084062Y-73230403D01*
X125084063Y-73230404D01*
X125194098Y-73340439D01*
X125328863Y-73418246D01*
X125369135Y-73429036D01*
X125369137Y-73429037D01*
X125369138Y-73429037D01*
X125405817Y-73438865D01*
X125479175Y-73458522D01*
X125479177Y-73458522D01*
X125533282Y-73458522D01*
X125600321Y-73478207D01*
X125646076Y-73531011D01*
X125657282Y-73582522D01*
X125657282Y-74299039D01*
X125672135Y-74392825D01*
X125729731Y-74505863D01*
X125729733Y-74505865D01*
X125729735Y-74505868D01*
X125819433Y-74595566D01*
X125819435Y-74595567D01*
X125819439Y-74595571D01*
X125932475Y-74653166D01*
X125932479Y-74653168D01*
X126026256Y-74668020D01*
X126026262Y-74668021D01*
X126889299Y-74668020D01*
X126983085Y-74653167D01*
X127096123Y-74595571D01*
X127185831Y-74505863D01*
X127243427Y-74392825D01*
X127243427Y-74392823D01*
X127243428Y-74392822D01*
X127258280Y-74299045D01*
X127258281Y-74299040D01*
X127258280Y-71548935D01*
X127277965Y-71481897D01*
X127330768Y-71436142D01*
X127382670Y-71424937D01*
X135128777Y-71449528D01*
G37*
%TD.AperFunction*%
%TD*%
%TA.AperFunction,Conductor*%
%TO.N,/Fet/PHASE_C*%
G36*
X118974377Y-71449528D02*
G01*
X119041351Y-71469425D01*
X119086938Y-71522374D01*
X119097981Y-71573527D01*
X119097981Y-74269321D01*
X119684970Y-74269321D01*
X119752009Y-74289006D01*
X119797764Y-74341810D01*
X119808969Y-74393530D01*
X119805673Y-76332436D01*
X119783992Y-89080732D01*
X119764193Y-89147738D01*
X119711312Y-89193403D01*
X119659992Y-89204521D01*
X119453578Y-89204521D01*
X119385579Y-89205646D01*
X119383514Y-89205663D01*
X109417567Y-89204535D01*
X109350530Y-89184843D01*
X109304781Y-89132034D01*
X109293581Y-89080535D01*
X109293581Y-76352121D01*
X106970951Y-76352121D01*
X106903912Y-76332436D01*
X106868999Y-76298703D01*
X106699429Y-76053768D01*
X106677454Y-75987444D01*
X106677381Y-75983186D01*
X106677381Y-72920121D01*
X106697066Y-72853082D01*
X106749870Y-72807327D01*
X106801381Y-72796121D01*
X108621819Y-72796121D01*
X108688858Y-72815806D01*
X108709500Y-72832440D01*
X109103122Y-73226062D01*
X109103132Y-73226073D01*
X109107462Y-73230403D01*
X109107463Y-73230404D01*
X109217498Y-73340439D01*
X109352263Y-73418246D01*
X109410977Y-73433978D01*
X109470635Y-73470341D01*
X109501165Y-73533188D01*
X109502882Y-73553752D01*
X109502882Y-74299039D01*
X109517735Y-74392825D01*
X109575331Y-74505863D01*
X109575333Y-74505865D01*
X109575335Y-74505868D01*
X109665033Y-74595566D01*
X109665035Y-74595567D01*
X109665039Y-74595571D01*
X109778075Y-74653166D01*
X109778079Y-74653168D01*
X109871856Y-74668020D01*
X109871862Y-74668021D01*
X110734899Y-74668020D01*
X110828685Y-74653167D01*
X110941723Y-74595571D01*
X111031431Y-74505863D01*
X111089027Y-74392825D01*
X111089027Y-74392823D01*
X111089028Y-74392822D01*
X111103880Y-74299045D01*
X111103881Y-74299040D01*
X111103880Y-71548935D01*
X111123565Y-71481897D01*
X111176368Y-71436142D01*
X111228270Y-71424937D01*
X118974377Y-71449528D01*
G37*
%TD.AperFunction*%
%TD*%
%TA.AperFunction,Conductor*%
%TO.N,GND*%
G36*
X103796385Y-69133085D02*
G01*
X103835578Y-69173440D01*
X103860600Y-69214999D01*
X103860600Y-69215000D01*
X103999468Y-69238144D01*
X104062357Y-69268581D01*
X104098809Y-69328188D01*
X104103081Y-69360456D01*
X104103081Y-70115879D01*
X104117738Y-70245969D01*
X104117740Y-70245979D01*
X104175458Y-70410925D01*
X104268434Y-70558897D01*
X104314831Y-70605294D01*
X104348316Y-70666617D01*
X104350986Y-70686592D01*
X104469518Y-72986105D01*
X104461038Y-73037973D01*
X104459704Y-73041353D01*
X104459703Y-73041358D01*
X104453389Y-73093942D01*
X104449081Y-73129819D01*
X104449081Y-75966023D01*
X104451058Y-75982483D01*
X104440632Y-76044674D01*
X104482423Y-76116089D01*
X104490755Y-76133227D01*
X104515218Y-76195260D01*
X104515219Y-76195262D01*
X104570021Y-76267530D01*
X104578239Y-76279827D01*
X105309039Y-77528661D01*
X106392312Y-79379824D01*
X106432103Y-79447820D01*
X106449081Y-79510448D01*
X106449081Y-82216023D01*
X106449686Y-82221057D01*
X106459703Y-82304482D01*
X106515220Y-82445264D01*
X106606658Y-82565843D01*
X106725506Y-82655968D01*
X106767030Y-82712161D01*
X106774581Y-82754772D01*
X106774581Y-88462021D01*
X106754896Y-88529060D01*
X106702092Y-88574815D01*
X106650581Y-88586021D01*
X106004822Y-88586021D01*
X105874732Y-88600678D01*
X105874722Y-88600680D01*
X105709776Y-88658398D01*
X105561804Y-88751374D01*
X105438234Y-88874944D01*
X105345258Y-89022916D01*
X105287540Y-89187862D01*
X105287538Y-89187872D01*
X105272881Y-89317962D01*
X105272881Y-89855079D01*
X105287538Y-89985169D01*
X105287540Y-89985179D01*
X105320575Y-90079585D01*
X105345259Y-90150127D01*
X105438234Y-90298097D01*
X105561805Y-90421668D01*
X105709775Y-90514643D01*
X105874724Y-90572362D01*
X105874730Y-90572362D01*
X105874732Y-90572363D01*
X105916131Y-90577027D01*
X106004823Y-90587020D01*
X106004826Y-90587021D01*
X106004829Y-90587021D01*
X106703369Y-90587021D01*
X106770408Y-90606706D01*
X106816163Y-90659510D01*
X106817930Y-90663568D01*
X106858916Y-90762517D01*
X106858916Y-90762518D01*
X106926169Y-90863169D01*
X106926170Y-90863169D01*
X106940010Y-90883883D01*
X106940011Y-90883884D01*
X107317362Y-91261234D01*
X107350847Y-91322557D01*
X107353681Y-91348914D01*
X107353681Y-91525121D01*
X107353682Y-91525140D01*
X107364181Y-91627917D01*
X107364182Y-91627920D01*
X107419366Y-91794452D01*
X107419370Y-91794461D01*
X107492333Y-91912753D01*
X107510773Y-91980145D01*
X107489850Y-92046809D01*
X107436208Y-92091578D01*
X107366877Y-92100239D01*
X107303870Y-92070042D01*
X107299113Y-92065530D01*
X107284957Y-92051374D01*
X107177411Y-91983799D01*
X107136987Y-91958399D01*
X107136986Y-91958398D01*
X107136985Y-91958398D01*
X106972039Y-91900680D01*
X106972029Y-91900678D01*
X106841939Y-91886021D01*
X106841933Y-91886021D01*
X106004829Y-91886021D01*
X106004822Y-91886021D01*
X105874732Y-91900678D01*
X105874722Y-91900680D01*
X105709776Y-91958398D01*
X105561804Y-92051374D01*
X105438234Y-92174944D01*
X105345258Y-92322916D01*
X105287540Y-92487862D01*
X105287538Y-92487872D01*
X105272881Y-92617962D01*
X105272881Y-93155079D01*
X105287538Y-93285169D01*
X105287540Y-93285179D01*
X105305316Y-93335978D01*
X105345259Y-93450127D01*
X105438234Y-93598097D01*
X105561805Y-93721668D01*
X105709775Y-93814643D01*
X105874724Y-93872362D01*
X105874730Y-93872362D01*
X105874732Y-93872363D01*
X105885951Y-93873627D01*
X106004823Y-93887020D01*
X106004826Y-93887021D01*
X106004829Y-93887021D01*
X106841936Y-93887021D01*
X106841937Y-93887020D01*
X106972038Y-93872362D01*
X107136987Y-93814643D01*
X107284957Y-93721668D01*
X107311785Y-93694840D01*
X107373108Y-93661355D01*
X107399466Y-93658521D01*
X107524851Y-93658521D01*
X107591890Y-93678206D01*
X107612532Y-93694840D01*
X107635525Y-93717833D01*
X107784847Y-93809935D01*
X107951384Y-93865120D01*
X108054172Y-93875621D01*
X108704189Y-93875620D01*
X108704197Y-93875619D01*
X108704200Y-93875619D01*
X108760483Y-93869869D01*
X108806978Y-93865120D01*
X108973515Y-93809935D01*
X109122837Y-93717833D01*
X109129400Y-93711270D01*
X109190723Y-93677785D01*
X109260415Y-93682769D01*
X109316348Y-93724641D01*
X109340765Y-93790105D01*
X109341081Y-93798951D01*
X109341081Y-94360623D01*
X109346286Y-94403965D01*
X109351703Y-94449082D01*
X109407220Y-94589864D01*
X109498658Y-94710443D01*
X109619237Y-94801881D01*
X109619238Y-94801881D01*
X109619239Y-94801882D01*
X109760017Y-94857398D01*
X109848479Y-94868021D01*
X109934881Y-94868021D01*
X110001920Y-94887706D01*
X110047675Y-94940510D01*
X110058881Y-94992021D01*
X110058881Y-95408064D01*
X110057260Y-95424978D01*
X110057598Y-95425020D01*
X110057076Y-95429277D01*
X110054282Y-95481868D01*
X110054281Y-95481907D01*
X110054281Y-99519134D01*
X110054282Y-99519173D01*
X110057075Y-99571750D01*
X110057598Y-99576011D01*
X110057259Y-99576052D01*
X110058881Y-99592974D01*
X110058881Y-100383529D01*
X110071576Y-100501604D01*
X110082784Y-100553120D01*
X110116229Y-100651563D01*
X110119156Y-100721372D01*
X110083877Y-100781681D01*
X110021593Y-100813343D01*
X109952079Y-100806305D01*
X109911139Y-100779133D01*
X109094400Y-99962394D01*
X109060915Y-99901071D01*
X109058081Y-99874713D01*
X109058081Y-98377424D01*
X109058081Y-98377419D01*
X109047458Y-98288957D01*
X108991942Y-98148179D01*
X108991941Y-98148178D01*
X108991941Y-98148177D01*
X108900503Y-98027598D01*
X108779924Y-97936160D01*
X108639142Y-97880643D01*
X108593507Y-97875163D01*
X108550683Y-97870021D01*
X107464479Y-97870021D01*
X107425434Y-97874709D01*
X107376019Y-97880643D01*
X107235237Y-97936160D01*
X107114657Y-98027599D01*
X107106384Y-98038510D01*
X107050192Y-98080033D01*
X106980470Y-98084584D01*
X106919357Y-98050719D01*
X106908778Y-98038510D01*
X106900504Y-98027599D01*
X106779924Y-97936160D01*
X106639142Y-97880643D01*
X106593507Y-97875163D01*
X106550683Y-97870021D01*
X105464479Y-97870021D01*
X105425434Y-97874709D01*
X105376019Y-97880643D01*
X105235237Y-97936160D01*
X105114658Y-98027598D01*
X105023220Y-98148177D01*
X104967703Y-98288959D01*
X104961769Y-98338374D01*
X104957081Y-98377419D01*
X104957081Y-101213623D01*
X104960390Y-101241178D01*
X104967704Y-101302086D01*
X104992335Y-101364545D01*
X105000981Y-101410035D01*
X105000981Y-104444521D01*
X106839263Y-104444521D01*
X106906302Y-104464206D01*
X106952057Y-104517010D01*
X106962378Y-104583303D01*
X106957081Y-104627419D01*
X106957081Y-107463623D01*
X106962707Y-107510475D01*
X106967703Y-107552082D01*
X107023220Y-107692864D01*
X107114658Y-107813443D01*
X107235237Y-107904881D01*
X107235238Y-107904881D01*
X107235239Y-107904882D01*
X107376017Y-107960398D01*
X107464479Y-107971021D01*
X107464484Y-107971021D01*
X108550678Y-107971021D01*
X108550683Y-107971021D01*
X108639145Y-107960398D01*
X108779923Y-107904882D01*
X108900503Y-107813443D01*
X108991942Y-107692863D01*
X109047458Y-107552085D01*
X109058081Y-107463623D01*
X109058081Y-105966328D01*
X109077766Y-105899290D01*
X109094400Y-105878648D01*
X109831808Y-105141240D01*
X109893131Y-105107755D01*
X109919489Y-105104921D01*
X114310281Y-105104921D01*
X114377320Y-105124606D01*
X114423075Y-105177410D01*
X114434281Y-105228921D01*
X114434281Y-108364590D01*
X114434281Y-108364592D01*
X114434280Y-108364592D01*
X114459278Y-108490259D01*
X114459280Y-108490265D01*
X114508314Y-108608645D01*
X114508319Y-108608654D01*
X114579504Y-108715189D01*
X114579507Y-108715193D01*
X114670108Y-108805794D01*
X114670112Y-108805797D01*
X114776647Y-108876982D01*
X114776653Y-108876985D01*
X114776654Y-108876986D01*
X114895037Y-108926022D01*
X114895041Y-108926022D01*
X114895042Y-108926023D01*
X115020709Y-108951021D01*
X115020712Y-108951021D01*
X115148852Y-108951021D01*
X115233396Y-108934203D01*
X115274525Y-108926022D01*
X115392908Y-108876986D01*
X115499450Y-108805797D01*
X115590057Y-108715190D01*
X115661246Y-108608648D01*
X115710282Y-108490265D01*
X115735281Y-108364590D01*
X115735281Y-105228921D01*
X115754966Y-105161882D01*
X115807770Y-105116127D01*
X115859281Y-105104921D01*
X119389773Y-105104921D01*
X119415504Y-105107620D01*
X119534168Y-105132791D01*
X120240981Y-105282721D01*
X120240981Y-105282720D01*
X120188934Y-100572432D01*
X120190850Y-100572410D01*
X120189087Y-100543086D01*
X120190754Y-100536625D01*
X120191682Y-100533393D01*
X120212281Y-100383521D01*
X120212281Y-91639921D01*
X120199585Y-91521836D01*
X120188379Y-91470325D01*
X120147971Y-91351390D01*
X120065394Y-91224635D01*
X120019639Y-91171831D01*
X120015767Y-91167473D01*
X120010478Y-91161519D01*
X119904537Y-91073120D01*
X119865675Y-91015056D01*
X119859981Y-90977912D01*
X119859981Y-89814755D01*
X119879666Y-89747716D01*
X119932470Y-89701961D01*
X119944246Y-89697294D01*
X119947480Y-89696200D01*
X120074375Y-89613838D01*
X120127256Y-89568173D01*
X120137580Y-89559032D01*
X120234699Y-89443041D01*
X120296924Y-89305150D01*
X120316723Y-89238144D01*
X120318637Y-89231514D01*
X120339491Y-89081677D01*
X120361172Y-76333381D01*
X120361172Y-76333380D01*
X120361303Y-76255770D01*
X120381101Y-76188768D01*
X120433982Y-76143102D01*
X120503157Y-76133275D01*
X120566664Y-76162407D01*
X120588068Y-76188676D01*
X120588295Y-76188505D01*
X120593221Y-76195001D01*
X120593384Y-76195201D01*
X120593416Y-76195258D01*
X120684858Y-76315843D01*
X120805437Y-76407281D01*
X120805438Y-76407281D01*
X120805439Y-76407282D01*
X120946217Y-76462798D01*
X121034679Y-76473421D01*
X121034684Y-76473421D01*
X122120878Y-76473421D01*
X122120883Y-76473421D01*
X122209345Y-76462798D01*
X122315849Y-76420797D01*
X122385435Y-76414517D01*
X122447371Y-76446854D01*
X122463290Y-76465571D01*
X122566671Y-76614899D01*
X122603829Y-76658652D01*
X122637407Y-76698190D01*
X122637420Y-76698205D01*
X122672323Y-76731927D01*
X122672327Y-76731931D01*
X122714968Y-76765264D01*
X122763808Y-76803443D01*
X122901805Y-76865433D01*
X122968844Y-76885118D01*
X122975479Y-76887022D01*
X122975481Y-76887022D01*
X122975484Y-76887023D01*
X123027540Y-76894177D01*
X123125348Y-76907620D01*
X123125349Y-76907621D01*
X123125351Y-76907621D01*
X124044409Y-76907621D01*
X124111448Y-76927306D01*
X124157203Y-76980110D01*
X124168297Y-77036893D01*
X124150202Y-77462093D01*
X124127685Y-77528235D01*
X124127181Y-77528661D01*
X124127181Y-78748421D01*
X124107496Y-78815460D01*
X124054692Y-78861215D01*
X124003181Y-78872421D01*
X123034679Y-78872421D01*
X122995634Y-78877109D01*
X122946219Y-78883043D01*
X122805437Y-78938560D01*
X122684858Y-79029998D01*
X122593420Y-79150577D01*
X122537903Y-79291359D01*
X122533177Y-79330721D01*
X122527281Y-79379819D01*
X122527281Y-82216023D01*
X122527886Y-82221057D01*
X122537903Y-82304482D01*
X122593420Y-82445264D01*
X122684855Y-82565838D01*
X122684859Y-82565843D01*
X122752906Y-82617444D01*
X122794429Y-82673636D01*
X122801981Y-82716248D01*
X122801981Y-88512821D01*
X122782296Y-88579860D01*
X122729492Y-88625615D01*
X122677981Y-88636821D01*
X122184622Y-88636821D01*
X122054532Y-88651478D01*
X122054522Y-88651480D01*
X121889576Y-88709198D01*
X121741604Y-88802174D01*
X121618034Y-88925744D01*
X121525058Y-89073716D01*
X121467340Y-89238662D01*
X121467338Y-89238672D01*
X121452681Y-89368762D01*
X121452681Y-89905879D01*
X121467338Y-90035969D01*
X121467340Y-90035979D01*
X121482599Y-90079585D01*
X121525059Y-90200927D01*
X121618034Y-90348897D01*
X121741605Y-90472468D01*
X121889575Y-90565443D01*
X122054524Y-90623162D01*
X122054530Y-90623162D01*
X122054532Y-90623163D01*
X122094472Y-90627663D01*
X122184623Y-90637820D01*
X122184626Y-90637821D01*
X122184629Y-90637821D01*
X122804605Y-90637821D01*
X122871644Y-90657506D01*
X122907706Y-90692929D01*
X122917516Y-90707611D01*
X122954201Y-90762513D01*
X122954201Y-90762515D01*
X122967408Y-90782280D01*
X122967413Y-90782286D01*
X123471762Y-91286634D01*
X123505247Y-91347957D01*
X123508081Y-91374314D01*
X123508081Y-91550521D01*
X123508082Y-91550540D01*
X123518581Y-91653317D01*
X123518582Y-91653320D01*
X123562797Y-91786749D01*
X123573767Y-91819855D01*
X123648287Y-91940672D01*
X123666727Y-92008064D01*
X123645804Y-92074727D01*
X123592162Y-92119497D01*
X123522831Y-92128158D01*
X123471071Y-92105213D01*
X123470653Y-92105879D01*
X123466054Y-92102989D01*
X123465435Y-92102715D01*
X123464757Y-92102174D01*
X123406438Y-92065530D01*
X123316787Y-92009199D01*
X123316786Y-92009198D01*
X123316785Y-92009198D01*
X123151839Y-91951480D01*
X123151829Y-91951478D01*
X123021739Y-91936821D01*
X123021733Y-91936821D01*
X122184629Y-91936821D01*
X122184622Y-91936821D01*
X122054532Y-91951478D01*
X122054522Y-91951480D01*
X121889576Y-92009198D01*
X121741604Y-92102174D01*
X121618034Y-92225744D01*
X121525058Y-92373716D01*
X121467340Y-92538662D01*
X121467338Y-92538672D01*
X121452681Y-92668762D01*
X121452681Y-93205879D01*
X121467338Y-93335969D01*
X121467340Y-93335979D01*
X121505232Y-93444266D01*
X121508794Y-93514045D01*
X121474066Y-93574672D01*
X121429146Y-93602262D01*
X121401418Y-93611964D01*
X121401414Y-93611966D01*
X121251062Y-93706439D01*
X121125499Y-93832002D01*
X121031025Y-93982355D01*
X120972376Y-94149966D01*
X120972375Y-94149970D01*
X120957481Y-94282162D01*
X120957481Y-94845679D01*
X120972375Y-94977871D01*
X120972376Y-94977875D01*
X121031025Y-95145486D01*
X121125499Y-95295839D01*
X121251062Y-95421402D01*
X121347341Y-95481899D01*
X121401417Y-95515877D01*
X121569025Y-95574525D01*
X121569026Y-95574525D01*
X121569030Y-95574526D01*
X121658114Y-95584563D01*
X121701223Y-95589420D01*
X121701226Y-95589421D01*
X121701229Y-95589421D01*
X121819681Y-95589421D01*
X121886720Y-95609106D01*
X121932475Y-95661910D01*
X121943681Y-95713421D01*
X121943681Y-97813576D01*
X121923996Y-97880615D01*
X121871192Y-97926370D01*
X121865180Y-97928926D01*
X121860219Y-97930883D01*
X121846837Y-97936160D01*
X121726258Y-98027598D01*
X121634820Y-98148177D01*
X121579303Y-98288959D01*
X121573369Y-98338374D01*
X121568681Y-98377419D01*
X121568681Y-101213623D01*
X121571990Y-101241178D01*
X121579517Y-101303868D01*
X121567964Y-101372776D01*
X121520992Y-101424499D01*
X121472811Y-101437434D01*
X121460181Y-101447321D01*
X121460181Y-104495321D01*
X121466515Y-104501655D01*
X121511983Y-104515006D01*
X121557738Y-104567810D01*
X121568159Y-104623713D01*
X121568681Y-104623713D01*
X121568681Y-104626513D01*
X121568722Y-104626733D01*
X121568681Y-104627417D01*
X121568681Y-104627419D01*
X121568681Y-107463623D01*
X121574307Y-107510475D01*
X121579303Y-107552082D01*
X121634820Y-107692864D01*
X121726258Y-107813443D01*
X121846837Y-107904881D01*
X121846838Y-107904881D01*
X121846839Y-107904882D01*
X121987617Y-107960398D01*
X122076079Y-107971021D01*
X122076084Y-107971021D01*
X123162278Y-107971021D01*
X123162283Y-107971021D01*
X123250745Y-107960398D01*
X123391523Y-107904882D01*
X123512103Y-107813443D01*
X123520376Y-107802534D01*
X123576567Y-107761009D01*
X123646288Y-107756456D01*
X123707403Y-107790320D01*
X123717986Y-107802534D01*
X123726258Y-107813442D01*
X123846837Y-107904881D01*
X123846838Y-107904881D01*
X123846839Y-107904882D01*
X123987617Y-107960398D01*
X124076079Y-107971021D01*
X124076084Y-107971021D01*
X125162278Y-107971021D01*
X125162283Y-107971021D01*
X125250745Y-107960398D01*
X125391523Y-107904882D01*
X125512103Y-107813443D01*
X125603542Y-107692863D01*
X125659058Y-107552085D01*
X125669681Y-107463623D01*
X125669681Y-105966328D01*
X125689366Y-105899290D01*
X125706000Y-105878648D01*
X126392608Y-105192040D01*
X126453931Y-105158555D01*
X126480289Y-105155721D01*
X130464681Y-105155721D01*
X130531720Y-105175406D01*
X130577475Y-105228210D01*
X130588681Y-105279721D01*
X130588681Y-108364590D01*
X130588681Y-108364592D01*
X130588680Y-108364592D01*
X130613678Y-108490259D01*
X130613680Y-108490265D01*
X130662714Y-108608645D01*
X130662719Y-108608654D01*
X130733904Y-108715189D01*
X130733907Y-108715193D01*
X130824508Y-108805794D01*
X130824512Y-108805797D01*
X130931047Y-108876982D01*
X130931053Y-108876985D01*
X130931054Y-108876986D01*
X131049437Y-108926022D01*
X131049441Y-108926022D01*
X131049442Y-108926023D01*
X131175109Y-108951021D01*
X131175112Y-108951021D01*
X131303252Y-108951021D01*
X131387796Y-108934203D01*
X131428925Y-108926022D01*
X131547308Y-108876986D01*
X131653850Y-108805797D01*
X131744457Y-108715190D01*
X131815646Y-108608648D01*
X131864682Y-108490265D01*
X131889681Y-108364590D01*
X131889681Y-105279721D01*
X131909366Y-105212682D01*
X131962170Y-105166927D01*
X132013681Y-105155721D01*
X135732861Y-105155721D01*
X135758592Y-105158420D01*
X135774913Y-105161882D01*
X136344581Y-105282721D01*
X136293884Y-100644005D01*
X136298901Y-100607717D01*
X136299089Y-100607074D01*
X136299093Y-100607067D01*
X136318778Y-100540028D01*
X136320682Y-100533393D01*
X136341281Y-100383521D01*
X136341281Y-91639921D01*
X136328585Y-91521836D01*
X136317379Y-91470325D01*
X136276971Y-91351390D01*
X136194394Y-91224635D01*
X136148639Y-91171831D01*
X136145063Y-91167806D01*
X136139479Y-91161520D01*
X136135133Y-91157894D01*
X136096273Y-91099828D01*
X136090581Y-91062689D01*
X136090581Y-89818037D01*
X136082937Y-89804039D01*
X136087921Y-89734347D01*
X136129793Y-89678414D01*
X136136594Y-89673669D01*
X136228766Y-89613844D01*
X136228766Y-89613843D01*
X136228775Y-89613838D01*
X136281656Y-89568173D01*
X136291980Y-89559032D01*
X136389099Y-89443041D01*
X136451324Y-89305150D01*
X136471123Y-89238144D01*
X136473037Y-89231514D01*
X136493891Y-89081677D01*
X136515572Y-76333381D01*
X136515572Y-76333380D01*
X136515703Y-76255770D01*
X136535501Y-76188768D01*
X136588382Y-76143102D01*
X136657557Y-76133275D01*
X136721064Y-76162407D01*
X136742468Y-76188676D01*
X136742695Y-76188505D01*
X136747621Y-76195001D01*
X136747784Y-76195201D01*
X136747816Y-76195258D01*
X136839258Y-76315843D01*
X136959837Y-76407281D01*
X136959838Y-76407281D01*
X136959839Y-76407282D01*
X137100617Y-76462798D01*
X137189079Y-76473421D01*
X137189084Y-76473421D01*
X138275278Y-76473421D01*
X138275283Y-76473421D01*
X138363745Y-76462798D01*
X138450295Y-76428667D01*
X138519881Y-76422385D01*
X138581818Y-76454722D01*
X138597737Y-76473439D01*
X138695671Y-76614899D01*
X138732829Y-76658652D01*
X138766407Y-76698190D01*
X138766420Y-76698205D01*
X138801323Y-76731927D01*
X138801327Y-76731931D01*
X138843968Y-76765264D01*
X138892808Y-76803443D01*
X139030805Y-76865433D01*
X139097844Y-76885118D01*
X139104479Y-76887022D01*
X139104481Y-76887022D01*
X139104484Y-76887023D01*
X139156540Y-76894177D01*
X139254348Y-76907620D01*
X139254349Y-76907621D01*
X139254351Y-76907621D01*
X140897481Y-76907621D01*
X140964520Y-76927306D01*
X141010275Y-76980110D01*
X141021481Y-77031621D01*
X141021481Y-79295786D01*
X141001796Y-79362825D01*
X140948992Y-79408580D01*
X140879834Y-79418524D01*
X140816278Y-79389499D01*
X140778504Y-79330721D01*
X140774365Y-79310570D01*
X140772058Y-79291358D01*
X140757867Y-79255373D01*
X140716542Y-79150579D01*
X140716541Y-79150578D01*
X140716541Y-79150577D01*
X140625103Y-79029998D01*
X140504524Y-78938560D01*
X140363742Y-78883043D01*
X140318107Y-78877563D01*
X140275283Y-78872421D01*
X139189079Y-78872421D01*
X139150034Y-78877109D01*
X139100619Y-78883043D01*
X138959837Y-78938560D01*
X138839258Y-79029998D01*
X138747820Y-79150577D01*
X138692303Y-79291359D01*
X138687577Y-79330721D01*
X138681681Y-79379819D01*
X138681681Y-82216023D01*
X138682286Y-82221057D01*
X138692303Y-82304482D01*
X138747820Y-82445264D01*
X138839258Y-82565843D01*
X138896779Y-82609462D01*
X138942107Y-82643835D01*
X138983629Y-82700026D01*
X138991181Y-82742638D01*
X138991181Y-88487421D01*
X138971496Y-88554460D01*
X138918692Y-88600215D01*
X138867181Y-88611421D01*
X138339022Y-88611421D01*
X138208932Y-88626078D01*
X138208922Y-88626080D01*
X138043976Y-88683798D01*
X137896004Y-88776774D01*
X137772434Y-88900344D01*
X137679458Y-89048316D01*
X137621740Y-89213262D01*
X137621738Y-89213272D01*
X137607081Y-89343362D01*
X137607081Y-89880479D01*
X137621738Y-90010569D01*
X137621740Y-90010579D01*
X137645887Y-90079585D01*
X137679459Y-90175527D01*
X137772434Y-90323497D01*
X137896005Y-90447068D01*
X138043975Y-90540043D01*
X138208924Y-90597762D01*
X138208930Y-90597762D01*
X138208932Y-90597763D01*
X138250331Y-90602427D01*
X138339023Y-90612420D01*
X138339026Y-90612421D01*
X138339029Y-90612421D01*
X138970552Y-90612421D01*
X139037591Y-90632106D01*
X139073654Y-90667530D01*
X139100435Y-90707611D01*
X139100436Y-90707612D01*
X139100439Y-90707616D01*
X139137123Y-90762518D01*
X139156610Y-90791683D01*
X139156611Y-90791684D01*
X139600762Y-91235834D01*
X139634247Y-91297157D01*
X139637081Y-91323514D01*
X139637081Y-91499721D01*
X139637082Y-91499740D01*
X139647581Y-91602517D01*
X139647582Y-91602520D01*
X139702766Y-91769052D01*
X139702770Y-91769061D01*
X139785751Y-91903595D01*
X139804191Y-91970987D01*
X139783268Y-92037651D01*
X139729626Y-92082420D01*
X139660295Y-92091081D01*
X139614242Y-92073685D01*
X139471187Y-91983799D01*
X139471186Y-91983798D01*
X139471185Y-91983798D01*
X139306239Y-91926080D01*
X139306229Y-91926078D01*
X139176139Y-91911421D01*
X139176133Y-91911421D01*
X138339029Y-91911421D01*
X138339022Y-91911421D01*
X138208932Y-91926078D01*
X138208922Y-91926080D01*
X138043976Y-91983798D01*
X137896004Y-92076774D01*
X137772434Y-92200344D01*
X137679458Y-92348316D01*
X137621740Y-92513262D01*
X137621738Y-92513272D01*
X137607081Y-92643362D01*
X137607081Y-93180479D01*
X137621738Y-93310569D01*
X137621740Y-93310579D01*
X137630628Y-93335978D01*
X137679459Y-93475527D01*
X137756474Y-93598097D01*
X137772434Y-93623497D01*
X137835616Y-93686679D01*
X137869101Y-93748002D01*
X137864117Y-93817694D01*
X137822245Y-93873627D01*
X137813908Y-93879353D01*
X137684865Y-93960437D01*
X137684863Y-93960438D01*
X137559299Y-94086002D01*
X137464825Y-94236355D01*
X137406176Y-94403966D01*
X137406175Y-94403970D01*
X137391281Y-94536162D01*
X137391281Y-95099679D01*
X137406175Y-95231871D01*
X137406176Y-95231875D01*
X137464825Y-95399486D01*
X137537959Y-95515877D01*
X137559300Y-95549840D01*
X137684862Y-95675402D01*
X137695752Y-95682244D01*
X137742042Y-95734574D01*
X137753781Y-95787238D01*
X137753781Y-97779070D01*
X137734096Y-97846109D01*
X137681292Y-97891864D01*
X137675271Y-97894424D01*
X137569441Y-97936158D01*
X137569439Y-97936159D01*
X137448858Y-98027598D01*
X137357420Y-98148177D01*
X137301903Y-98288959D01*
X137295969Y-98338374D01*
X137291281Y-98377419D01*
X137291281Y-101213623D01*
X137294590Y-101241178D01*
X137300837Y-101293201D01*
X137289285Y-101362109D01*
X137254701Y-101405195D01*
X137233581Y-101421919D01*
X137233581Y-104469921D01*
X137259359Y-104495699D01*
X137292844Y-104557022D01*
X137294794Y-104598161D01*
X137291281Y-104627419D01*
X137291281Y-107463623D01*
X137296907Y-107510475D01*
X137301903Y-107552082D01*
X137357420Y-107692864D01*
X137448858Y-107813443D01*
X137569437Y-107904881D01*
X137569438Y-107904881D01*
X137569439Y-107904882D01*
X137710217Y-107960398D01*
X137798679Y-107971021D01*
X137798684Y-107971021D01*
X138884878Y-107971021D01*
X138884883Y-107971021D01*
X138973345Y-107960398D01*
X139114123Y-107904882D01*
X139234703Y-107813443D01*
X139242976Y-107802534D01*
X139299167Y-107761009D01*
X139368888Y-107756456D01*
X139430003Y-107790320D01*
X139440586Y-107802534D01*
X139448858Y-107813442D01*
X139569437Y-107904881D01*
X139569438Y-107904881D01*
X139569439Y-107904882D01*
X139710217Y-107960398D01*
X139798679Y-107971021D01*
X139798684Y-107971021D01*
X140884878Y-107971021D01*
X140884883Y-107971021D01*
X140973345Y-107960398D01*
X141114123Y-107904882D01*
X141234703Y-107813443D01*
X141326142Y-107692863D01*
X141381658Y-107552085D01*
X141392281Y-107463623D01*
X141392281Y-105966328D01*
X141411966Y-105899289D01*
X141428596Y-105878651D01*
X142140972Y-105166274D01*
X142202293Y-105132791D01*
X142228335Y-105129957D01*
X146644167Y-105118748D01*
X146711255Y-105138263D01*
X146757144Y-105190950D01*
X146768481Y-105242748D01*
X146768481Y-108364590D01*
X146768481Y-108364592D01*
X146768480Y-108364592D01*
X146793478Y-108490259D01*
X146793480Y-108490265D01*
X146842514Y-108608645D01*
X146842519Y-108608654D01*
X146913704Y-108715189D01*
X146913707Y-108715193D01*
X147004308Y-108805794D01*
X147004312Y-108805797D01*
X147110847Y-108876982D01*
X147110853Y-108876985D01*
X147110854Y-108876986D01*
X147229237Y-108926022D01*
X147229241Y-108926022D01*
X147229242Y-108926023D01*
X147354909Y-108951021D01*
X147354912Y-108951021D01*
X147483052Y-108951021D01*
X147567596Y-108934203D01*
X147608725Y-108926022D01*
X147727108Y-108876986D01*
X147833650Y-108805797D01*
X147924257Y-108715190D01*
X147995446Y-108608648D01*
X148044482Y-108490265D01*
X148069481Y-108364590D01*
X148069481Y-105238817D01*
X148089166Y-105171778D01*
X148141970Y-105126023D01*
X148193165Y-105114817D01*
X152092581Y-105104921D01*
X152117981Y-104927121D01*
X152117979Y-104927120D01*
X152119403Y-104917158D01*
X152105303Y-104873617D01*
X152105431Y-104863603D01*
X152105574Y-104860915D01*
X152317732Y-100877065D01*
X152340954Y-100811170D01*
X152346349Y-100804218D01*
X152350865Y-100798807D01*
X152416903Y-100719664D01*
X152478893Y-100581667D01*
X152498578Y-100514628D01*
X152500482Y-100507993D01*
X152521081Y-100358121D01*
X152521081Y-91614521D01*
X152508385Y-91496436D01*
X152497179Y-91444925D01*
X152456771Y-91325990D01*
X152419879Y-91269361D01*
X152399778Y-91202445D01*
X152399790Y-91199791D01*
X152400000Y-91186000D01*
X152422781Y-89687121D01*
X152422780Y-89687121D01*
X152423050Y-89669373D01*
X152411238Y-89648819D01*
X152414704Y-89579036D01*
X152436728Y-89540224D01*
X152518098Y-89443042D01*
X152518099Y-89443041D01*
X152580324Y-89305150D01*
X152600123Y-89238144D01*
X152602037Y-89231514D01*
X152622891Y-89081677D01*
X152644572Y-76333381D01*
X152644572Y-76333380D01*
X152647868Y-74394474D01*
X152635274Y-74275911D01*
X152624069Y-74224191D01*
X152583560Y-74104790D01*
X152582783Y-74103598D01*
X152500986Y-73978040D01*
X152500983Y-73978035D01*
X152455228Y-73925231D01*
X152446068Y-73914921D01*
X152433899Y-73904767D01*
X152395036Y-73846704D01*
X152389566Y-73817014D01*
X152384698Y-73736200D01*
X152155439Y-69930495D01*
X152171057Y-69862396D01*
X152221014Y-69813548D01*
X152289450Y-69799464D01*
X152321125Y-69806338D01*
X153828273Y-70347579D01*
X155518565Y-70954590D01*
X155563554Y-70970746D01*
X155619995Y-71011930D01*
X155645211Y-71077091D01*
X155645634Y-71089059D01*
X155638113Y-71668207D01*
X155626538Y-72559536D01*
X155626536Y-72559748D01*
X155626501Y-72563334D01*
X155626491Y-72564922D01*
X155626481Y-72568162D01*
X155626481Y-102618729D01*
X155639176Y-102736804D01*
X155650384Y-102788320D01*
X155669570Y-102844793D01*
X155690791Y-102907252D01*
X155773368Y-103034007D01*
X155819123Y-103086811D01*
X155828283Y-103097121D01*
X155944438Y-103194043D01*
X156082435Y-103256033D01*
X156149474Y-103275718D01*
X156156109Y-103277622D01*
X156156111Y-103277622D01*
X156156114Y-103277623D01*
X156208170Y-103284777D01*
X156305978Y-103298220D01*
X156305979Y-103298221D01*
X156305981Y-103298221D01*
X158394849Y-103298221D01*
X158516044Y-103285209D01*
X158584802Y-103297624D01*
X158635932Y-103345242D01*
X158653281Y-103408500D01*
X158653281Y-116342221D01*
X158633596Y-116409260D01*
X158580792Y-116455015D01*
X158529281Y-116466221D01*
X97726081Y-116466221D01*
X97659042Y-116446536D01*
X97613287Y-116393732D01*
X97602081Y-116342221D01*
X97602081Y-103457781D01*
X97621766Y-103390742D01*
X97674570Y-103344987D01*
X97743728Y-103335043D01*
X97761012Y-103338803D01*
X97805674Y-103351918D01*
X97812309Y-103353822D01*
X97812311Y-103353822D01*
X97812314Y-103353823D01*
X97864370Y-103360977D01*
X97962178Y-103374420D01*
X97962179Y-103374421D01*
X97962181Y-103374421D01*
X100050972Y-103374421D01*
X100050981Y-103374421D01*
X100169066Y-103361725D01*
X100220577Y-103350519D01*
X100339512Y-103310111D01*
X100466267Y-103227534D01*
X100519071Y-103181779D01*
X100529381Y-103172619D01*
X100626303Y-103056464D01*
X100688293Y-102918467D01*
X100707978Y-102851428D01*
X100709882Y-102844793D01*
X100730481Y-102694921D01*
X100730481Y-70217170D01*
X100737207Y-70176886D01*
X100862016Y-69813548D01*
X101073763Y-69197115D01*
X101114159Y-69140108D01*
X101178963Y-69113989D01*
X101191037Y-69113400D01*
X103729346Y-69113400D01*
X103796385Y-69133085D01*
G37*
%TD.AperFunction*%
%TD*%
%TA.AperFunction,Conductor*%
%TO.N,in_2_-*%
G36*
X135728820Y-91535606D02*
G01*
X135774575Y-91588410D01*
X135785781Y-91639921D01*
X135785781Y-100383521D01*
X135766096Y-100450560D01*
X135713292Y-100496315D01*
X135661781Y-100507521D01*
X132046075Y-100507521D01*
X131979036Y-100487836D01*
X131966700Y-100478787D01*
X131696381Y-100253521D01*
X131696379Y-100253521D01*
X130832782Y-100253521D01*
X130832781Y-100253521D01*
X130641123Y-100466474D01*
X130581646Y-100503134D01*
X130548956Y-100507521D01*
X126867381Y-100507521D01*
X126800342Y-100487836D01*
X126754587Y-100435032D01*
X126743381Y-100383521D01*
X126743381Y-94842020D01*
X126763066Y-94774981D01*
X126815870Y-94729226D01*
X126867380Y-94718020D01*
X126877499Y-94718020D01*
X126971285Y-94703167D01*
X127084323Y-94645571D01*
X127174031Y-94555863D01*
X127231627Y-94442825D01*
X127231627Y-94442823D01*
X127231628Y-94442822D01*
X127246480Y-94349045D01*
X127246481Y-94349040D01*
X127246480Y-91639920D01*
X127266165Y-91572882D01*
X127318968Y-91527127D01*
X127370480Y-91515921D01*
X135661781Y-91515921D01*
X135728820Y-91535606D01*
G37*
%TD.AperFunction*%
%TD*%
%TA.AperFunction,Conductor*%
%TO.N,/Fet/PHASE_A*%
G36*
X151257777Y-71449528D02*
G01*
X151324751Y-71469425D01*
X151370338Y-71522374D01*
X151381381Y-71573527D01*
X151381381Y-74269321D01*
X151968370Y-74269321D01*
X152035409Y-74289006D01*
X152081164Y-74341810D01*
X152092369Y-74393530D01*
X152089073Y-76332436D01*
X152067392Y-89080732D01*
X152047593Y-89147738D01*
X151994712Y-89193403D01*
X151943392Y-89204521D01*
X151736978Y-89204521D01*
X151668979Y-89205646D01*
X151666914Y-89205663D01*
X141700967Y-89204535D01*
X141633930Y-89184843D01*
X141588181Y-89132034D01*
X141576981Y-89080535D01*
X141576981Y-76352121D01*
X139254351Y-76352121D01*
X139187312Y-76332436D01*
X139152399Y-76298703D01*
X138982829Y-76053768D01*
X138960854Y-75987444D01*
X138960781Y-75983186D01*
X138960781Y-72920121D01*
X138980466Y-72853082D01*
X139033270Y-72807327D01*
X139084781Y-72796121D01*
X141615219Y-72796121D01*
X141682258Y-72815806D01*
X141702900Y-72832440D01*
X141736962Y-72866502D01*
X141770447Y-72927825D01*
X141773281Y-72954183D01*
X141773281Y-74299038D01*
X141784073Y-74367178D01*
X141788135Y-74392825D01*
X141845731Y-74505863D01*
X141845733Y-74505865D01*
X141845735Y-74505868D01*
X141935433Y-74595566D01*
X141935435Y-74595567D01*
X141935439Y-74595571D01*
X142048475Y-74653166D01*
X142048479Y-74653168D01*
X142142256Y-74668020D01*
X142142262Y-74668021D01*
X143005299Y-74668020D01*
X143099085Y-74653167D01*
X143212123Y-74595571D01*
X143301831Y-74505863D01*
X143359427Y-74392825D01*
X143359427Y-74392823D01*
X143359428Y-74392822D01*
X143372424Y-74310768D01*
X143380381Y-74293983D01*
X143380381Y-71548914D01*
X143400066Y-71481875D01*
X143452870Y-71436120D01*
X143504770Y-71424915D01*
X151257777Y-71449528D01*
G37*
%TD.AperFunction*%
%TD*%
%TA.AperFunction,Conductor*%
%TO.N,in_1_-*%
G36*
X151908620Y-91510206D02*
G01*
X151954375Y-91563010D01*
X151965581Y-91614521D01*
X151965581Y-100358121D01*
X151945896Y-100425160D01*
X151893092Y-100470915D01*
X151841581Y-100482121D01*
X148225875Y-100482121D01*
X148158836Y-100462436D01*
X148146500Y-100453387D01*
X147876181Y-100228121D01*
X147876179Y-100228121D01*
X147012582Y-100228121D01*
X147012581Y-100228121D01*
X146820923Y-100441074D01*
X146761446Y-100477734D01*
X146728756Y-100482121D01*
X143047181Y-100482121D01*
X142980142Y-100462436D01*
X142934387Y-100409632D01*
X142923181Y-100358121D01*
X142923181Y-94835064D01*
X142942866Y-94768025D01*
X142995670Y-94722270D01*
X143027782Y-94712590D01*
X143087285Y-94703167D01*
X143200323Y-94645571D01*
X143290031Y-94555863D01*
X143347627Y-94442825D01*
X143347627Y-94442823D01*
X143347628Y-94442822D01*
X143362480Y-94349045D01*
X143362481Y-94349040D01*
X143362480Y-91614520D01*
X143382165Y-91547482D01*
X143434968Y-91501727D01*
X143486480Y-91490521D01*
X151841581Y-91490521D01*
X151908620Y-91510206D01*
G37*
%TD.AperFunction*%
%TD*%
%TA.AperFunction,Conductor*%
%TO.N,in_3_-*%
G36*
X119599820Y-91535606D02*
G01*
X119645575Y-91588410D01*
X119656781Y-91639921D01*
X119656781Y-100383521D01*
X119637096Y-100450560D01*
X119584292Y-100496315D01*
X119532781Y-100507521D01*
X115917075Y-100507521D01*
X115850036Y-100487836D01*
X115837700Y-100478787D01*
X115567381Y-100253521D01*
X115567379Y-100253521D01*
X114703782Y-100253521D01*
X114703781Y-100253521D01*
X114512123Y-100466474D01*
X114452646Y-100503134D01*
X114419956Y-100507521D01*
X110738381Y-100507521D01*
X110671342Y-100487836D01*
X110625587Y-100435032D01*
X110614381Y-100383521D01*
X110614381Y-94841145D01*
X110634066Y-94774106D01*
X110686870Y-94728351D01*
X110718985Y-94718671D01*
X110723095Y-94718020D01*
X110723099Y-94718020D01*
X110816885Y-94703167D01*
X110929923Y-94645571D01*
X111019631Y-94555863D01*
X111077227Y-94442825D01*
X111077227Y-94442823D01*
X111077228Y-94442822D01*
X111092080Y-94349045D01*
X111092081Y-94349040D01*
X111092080Y-91639920D01*
X111111765Y-91572882D01*
X111164568Y-91527127D01*
X111216080Y-91515921D01*
X119532781Y-91515921D01*
X119599820Y-91535606D01*
G37*
%TD.AperFunction*%
%TD*%
%TA.AperFunction,Conductor*%
%TO.N,+BATT*%
G36*
X157594378Y-56453347D02*
G01*
X158418179Y-56440487D01*
X158485514Y-56459123D01*
X158532088Y-56511206D01*
X158544111Y-56564540D01*
X158518849Y-102618789D01*
X158499128Y-102685818D01*
X158446299Y-102731544D01*
X158394849Y-102742721D01*
X156305981Y-102742721D01*
X156238942Y-102723036D01*
X156193187Y-102670232D01*
X156181981Y-102618721D01*
X156181981Y-72568360D01*
X156181991Y-72566750D01*
X156207381Y-70611721D01*
X151609981Y-68960721D01*
X151609980Y-68960721D01*
X142055723Y-68960721D01*
X141988684Y-68941036D01*
X141942929Y-68888232D01*
X141931726Y-68837582D01*
X141907181Y-65303121D01*
X109039596Y-65353920D01*
X109039581Y-65353921D01*
X102227821Y-65366180D01*
X101802086Y-65366947D01*
X100174981Y-70103720D01*
X100174981Y-102694921D01*
X100155296Y-102761960D01*
X100102492Y-102807715D01*
X100050981Y-102818921D01*
X97962181Y-102818921D01*
X97895142Y-102799236D01*
X97849387Y-102746432D01*
X97838181Y-102694921D01*
X97838181Y-56562551D01*
X97857866Y-56495512D01*
X97910670Y-56449757D01*
X97962208Y-56438551D01*
X157594378Y-56453347D01*
G37*
%TD.AperFunction*%
%TD*%
M02*
